<svg id="Layer_1" data-name="Layer 1" xmlns="http://www.w3.org/2000/svg" viewBox="0 0 1200 1200"><defs><style>.cls-1{fill:#ceb3ff;}.cls-2,.cls-5{stroke:#000;}.cls-2,.cls-3,.cls-5,.cls-6{stroke-miterlimit:10;}.cls-2{stroke-width:90px;}.cls-3,.cls-6{fill:#7ac943;stroke:#7ac943;}.cls-3,.cls-4{stroke-width:49.99px;}.cls-4,.cls-7{fill:none;stroke:#fff;stroke-linecap:round;stroke-linejoin:round;}.cls-5{stroke-width:60px;}.cls-6,.cls-7{stroke-width:25px;}</style></defs><rect class="cls-1" width="1200" height="1200"/><path class="cls-2" d="M665.16,610.57q0,17-19.61,26.86t-55.76,9.91q-35.74,0-55.36-7.66T514.82,619q0-21.45,20.23-21.45,4.69,0,13.89,2.86,14.29,4.29,18.17,5.11,8.39-81.71,8.38-135.83,0-87.84-22.88-160.35A100.13,100.13,0,0,0,532,314.81c-6.94,2.45-11.51,3.67-13.68,3.67q-6.54,0-11.24-5.72t-4.7-14.29q0-29.62,62.3-29.62,41.26,0,65.37,11.44,22.88,10.83,22.87,28.59,0,15.94-12.87,15.94-3.06,0-15.31-3.89-15.94-5.1-28.19-7.76,21.24,73.95,21.24,156.47,0,52.91-9.6,136.24a233.59,233.59,0,0,0,23.29-8.58q11.22-4.71,16.54-4.7a16.21,16.21,0,0,1,12.15,5.21A17.7,17.7,0,0,1,665.16,610.57Z"/><path class="cls-2" d="M473.73,514.37q0,53.31-46.78,88.65Q388.15,632.23,335,632.23q-26.35,0-60.26-9.6-3.67,19.8-20.22,19.81-12.47,0-17.36-10.42-4.71-9.81-4.7-32.68,0-47.79,12.87-213.86L247,362.4q3.06-37.38,6.74-48.21,5.31-15.31,20-15.32,18.58,0,18.59,24.74c0,2.82-2.39,19.69-7.15,73.38q-7.77,86.26-10,184.17Q310.32,592,337.9,592q41.06,0,67.2-22.71,25.13-22.08,25.12-54.82,0-64-88.24-64-3.06,0-9.29.2c-4.16.14-7.32.2-9.5.2q-18.79,0-18.79-17.15,0-12.46,10.41-16.75,6.13-2.65,18-3.68a194.92,194.92,0,0,0,19.81-2.66q17.36-4.29,28.09-19.91t10.72-37.48q0-30.22-24.71-46.88T296,289.68q-31.45,0-67.81,15.12-8.79,4.08-17.77,8.17-10.42,4.29-18.18,4.29a18.05,18.05,0,0,1-13.18-5.11,16.32,16.32,0,0,1-5.2-12q0-11.24,20-22.88,46.58-27.17,111.32-27.16,60.06,0,95.19,27.16,34.52,27,34.52,71.9,0,41.67-31.05,70.27,32.88,10.22,51.37,35.54T473.73,514.37Z"/><path class="cls-2" d="M1026.12,473.31q0,7.77-6.23,14.2t-13.78,6.43q-5.33,0-14.5-5.51-12.27-7.37-18.18-9.6a508.16,508.16,0,0,0-3.07,55.56,351.65,351.65,0,0,0,4.7,59.54c3.13,18.18,5.36,22,5.36,23.67,0,4.62-2.64,9.42-6.59,12.89a20.37,20.37,0,0,1-13.89,5.21q-23.49,0-28-62.3-33.71,66-105.8,66-61.89,0-98.66-44.12-37.38-44.93-37.38-123.16,0-93.55,49.53-145.74t137.16-52.19q46,0,79.25,14.91,30.65,13.49,30.64,29a20.48,20.48,0,0,1-5.82,14.4q-5.82,6.22-13,6.23-4.7,0-12.46-4.09l-15.52-7.76a160.85,160.85,0,0,0-62.3-12.05q-69.24,0-106.42,40.13T734,470.86q0,61.89,25.74,95.59,25.13,33.3,70.06,33.3,41.88,0,67.2-31.87,24.93-31.25,37-96.61-18.79-3.67-31.66-3.68-15.32,0-33.7,5.21T846.58,478q-6.95,0-12.46-6.23a21,21,0,0,1-5.51-14.4q0-13.28,21.44-21.86,22.88-9,62.3-9,48.61,0,82.73,15.72Q1026.12,456.57,1026.12,473.31Z"/><path class="cls-3" d="M473.73,514.37q0,53.31-46.78,88.65Q388.15,632.23,335,632.23q-26.35,0-60.26-9.6-3.67,19.8-20.22,19.81-12.47,0-17.36-10.42-4.71-9.81-4.7-32.68,0-47.79,12.87-213.86L247,362.4q3.06-37.38,6.74-48.21,5.31-15.31,20-15.32,18.58,0,18.59,24.74c0,2.82-2.39,19.69-7.15,73.38q-7.77,86.26-10,184.17Q310.32,592,337.9,592q41.06,0,67.2-22.71,25.13-22.08,25.12-54.82,0-64-88.24-64-3.06,0-9.29.2c-4.16.14-7.32.2-9.5.2q-18.79,0-18.79-17.15,0-12.46,10.41-16.75,6.13-2.65,18-3.68a194.92,194.92,0,0,0,19.81-2.66q17.36-4.29,28.09-19.91t10.72-37.48q0-30.22-24.71-46.88T296,289.68q-31.45,0-67.81,15.12-8.79,4.08-17.77,8.17-10.42,4.29-18.18,4.29a18.05,18.05,0,0,1-13.18-5.11,16.32,16.32,0,0,1-5.2-12q0-11.24,20-22.88,46.58-27.17,111.32-27.16,60.06,0,95.19,27.16,34.52,27,34.52,71.9,0,41.67-31.05,70.27,32.88,10.22,51.37,35.54T473.73,514.37Z"/><path class="cls-3" d="M665.16,610.57q0,17-19.61,26.86t-55.76,9.91q-35.74,0-55.36-7.66T514.82,619q0-21.45,20.23-21.45,4.69,0,13.89,2.86,14.29,4.29,18.17,5.11,8.39-81.71,8.38-135.83,0-87.84-22.88-160.35A100.13,100.13,0,0,0,532,314.81c-6.94,2.45-11.51,3.67-13.68,3.67q-6.54,0-11.24-5.72t-4.7-14.29q0-29.62,62.3-29.62,41.26,0,65.37,11.44,22.88,10.83,22.87,28.59,0,15.94-12.87,15.94-3.06,0-15.31-3.89-15.94-5.1-28.19-7.76,21.24,73.95,21.24,156.47,0,52.91-9.6,136.24a233.59,233.59,0,0,0,23.29-8.58q11.22-4.71,16.54-4.7a16.21,16.21,0,0,1,12.15,5.21A17.7,17.7,0,0,1,665.16,610.57Z"/><path class="cls-3" d="M1026.12,473.31q0,7.77-6.23,14.2t-13.78,6.43q-5.33,0-14.5-5.51-12.27-7.37-18.18-9.6a508.16,508.16,0,0,0-3.07,55.56,351.65,351.65,0,0,0,4.7,59.54c3.13,18.18,5.36,22,5.36,23.67,0,4.62-2.64,9.42-6.59,12.89a20.37,20.37,0,0,1-13.89,5.21q-23.49,0-28-62.3-33.71,66-105.8,66-61.89,0-98.66-44.12-37.38-44.93-37.38-123.16,0-93.55,49.53-145.74t137.16-52.19q46,0,79.25,14.91,30.65,13.49,30.64,29a20.48,20.48,0,0,1-5.82,14.4q-5.82,6.22-13,6.23-4.7,0-12.46-4.09l-15.52-7.76a160.85,160.85,0,0,0-62.3-12.05q-69.24,0-106.42,40.13T734,470.86q0,61.89,25.74,95.59,25.13,33.3,70.06,33.3,41.88,0,67.2-31.87,24.93-31.25,37-96.61-18.79-3.67-31.66-3.68-15.32,0-33.7,5.21T846.58,478q-6.95,0-12.46-6.23a21,21,0,0,1-5.51-14.4q0-13.28,21.44-21.86,22.88-9,62.3-9,48.61,0,82.73,15.72Q1026.12,456.57,1026.12,473.31Z"/><path class="cls-4" d="M434.92,349.12q0,41.67-31.05,70.27,32.88,10.22,51.37,35.54t18.49,59.44q0,53.31-46.78,88.65Q388.15,632.23,335,632.23q-26.35,0-60.26-9.6-3.67,19.8-20.22,19.81-12.47,0-17.36-10.42"/><path class="cls-4" d="M617.77,469.64q0,52.91-9.6,136.24a233.59,233.59,0,0,0,23.29-8.58q11.22-4.71,16.54-4.7a16.21,16.21,0,0,1,12.15,5.21,17.7,17.7,0,0,1,5,12.76q0,17-19.61,26.86t-55.76,9.91q-35.74,0-55.36-7.66M631.52,620,638.4,617"/><path class="cls-4" d="M1026.12,473.31q0,7.77-6.23,14.2t-13.78,6.43q-5.33,0-14.5-5.51-12.27-7.37-18.18-9.6a508.16,508.16,0,0,0-3.07,55.56,351.65,351.65,0,0,0,4.7,59.54c3.13,18.18,5.36,22,5.36,23.67,0,4.62-2.64,9.42-6.59,12.89a20.37,20.37,0,0,1-13.89,5.21q-23.49,0-28-62.3-33.71,66-105.8,66"/><path class="cls-5" d="M370,745.33a9.71,9.71,0,0,1-2.86,6.74,8.53,8.53,0,0,1-6.34,3.07,13.82,13.82,0,0,1-3.88-.61c-1.36-.41-2.45-.79-3.27-1.13q-.09,0-1.89-.78a.43.43,0,0,0-.6.37q-6.66,115.07-31.53,168-6.52,13.8-15.52,13.79-25.11,0-37.47-98a.42.42,0,0,0-.82-.08Q250,883.7,239.66,903q-11.85,22.27-23.39,22.27-8,0-14.92-9.6-6.65-9.2-14.4-30.14-15.42-41.88-15.43-125.74v-6.89a.41.41,0,0,0-.46-.42q-2,.24-4.95.87a22.35,22.35,0,0,1-4.09.61q-10.2,0-10.21-10.52,0-12.36,32.69-12.36,15.21,0,24.41,3.83t9.2,9.55q0,10.94-9.81,10.93a30,30,0,0,1-7.46-1.43,51.17,51.17,0,0,0-8.43-1.89.41.41,0,0,0-.46.42l-.4,25.07q0,75.62,25,123.4a.42.42,0,0,0,.72.05q15.58-22,35.35-86.68,3.59-11.64,7.15-28.7,3-14.1,4.7-18,2.76-6.23,8.07-6.23,7.45,0,9.71,7,1.53,5,1.53,20.84c0,1.7,0,3.73-.1,6.08s-.1,3.79-.1,4.34q0,60.26,19.13,105.62a1.33,1.33,0,0,0,2.44,0c14.21-32.52,22.18-88,25.9-154.47a.43.43,0,0,0-.47-.45c-1,.12-2.62.41-4.71.88a23.1,23.1,0,0,1-4.8.71q-10,0-10-10.42,0-12,27.38-11.95,13.89,0,23.09,4.9Q370,739.11,370,745.33Z"/><path class="cls-5" d="M542.87,838.6q0,43.2-23.45,67.42T455,930.23q-36.27,0-59.25-24.93-22.57-24.4-22.58-65.48,0-43.3,19.82-70.07,21.56-28.82,62.42-28.81,41.06,0,64.25,25.64T542.87,838.6Zm-21.56.61q0-37.69-17-57.66t-48.48-20q-29.82,0-45.35,19.52T395,838q0,32.79,17.27,52.46t44.84,19.66q29.42,0,46.68-18.59Q521.32,872.42,521.31,839.21Z"/><path class="cls-5" d="M720.92,906.26q-.78-8.87-.78-27.11,0-69,10-114,3.48-15.33,7.06-21.45,3.88-6.54,10.13-6.54,6.64,0,15.24,9.19,17.88,19.11,27.68,33a218.31,218.31,0,0,1,23.92,44.34,2.07,2.07,0,0,0,3.81.05q18-41.62,38-67.57,17.57-24.31,28-24.31a7.29,7.29,0,0,1,6.65,3.88q1.88,3.16,4,12.26,7.75,32.79,7.76,104.19,0,39.33-3.57,64.26Q896.67,931,887.47,931q-10.22,0-10.22-11.23,0-.51,1.23-11.34,1.42-12.76,2.35-25.85Q882,863.23,882.05,842a544,544,0,0,0-5.53-74.27,2.08,2.08,0,0,0-3.56-1.14q-22.89,24.5-40.55,73.26-3.76,10.77-7.52,21.44l-.09.23q-3.67,7.86-10.17,7.85-6.23,0-9.29-6.23-1.12-2.24-5.93-18.28-12.1-40.65-44.8-77a2.07,2.07,0,0,0-3.54.8q-10.29,36.26-10.29,96.89,0,9.18.76,22.67t.77,17.88c0,5.11-4.49,11.37-9.94,16.14h0Q724.6,929,711,929q-17.6,0-26.18-6.13a40.06,40.06,0,0,1-6.33-6.23q-6.12-7-7-8-32.22-34.06-44.39-40.09a.85.85,0,0,0-.22-.09q-5.25-1.92-10.35-4a7.66,7.66,0,0,1-5.15-7.71q0-9.6,16.24-10.83,17.48-1.43,28.4-14t10.93-31q0-41.56-52.91-41.57h0a2.07,2.07,0,0,0-2,1.58q-12.79,53.26-12.8,114.46,0,10.73.62,22.58t.61,12.87q0,14.19-9.81,14.2-8,0-10.42-9.71-1.93-7.75-1.94-31.77,0-71.43,12-119.11a2.07,2.07,0,0,0-2.36-2.53q-34.71,5.8-38.53,5.8-14.6,0-14.6-10.52,0-6.54,5.41-9a23.83,23.83,0,0,1,8.07-1.53c2.77-.13,5.57-.24,8.4-.3h.15q3.36-.35,26.28-4.08a185.42,185.42,0,0,1,29.73-2.86q75.9,0,75.9,60.27A63.52,63.52,0,0,1,678.14,835a70.55,70.55,0,0,1-26.54,23.92,2.06,2.06,0,0,0-.32,3.44,247.29,247.29,0,0,1,26.55,24.28q16.95,17.77,17.37,18.08,5.2,4.59,17.16,4.6,5.71,0,7.25-1.64l1.31-1.39Z"/><path class="cls-5" d="M1048.19,753.91a65.15,65.15,0,0,1-1.12,9.61,65.63,65.63,0,0,0-1.13,10v3.16q0,11.14-1.43,14.81-2,5.22-8.68,5.21-7.35,0-9.91-9.53-1.32-4.62-1.53-15.59-14-9.92-29.32-9.91-19.61,0-32.28,12.68t-12.66,32.42q0,16.88,8.07,24.45,5.61,5.22,24.51,11.76,17.06,5.82,23.29,8.78,10.62,5,16.24,11.75,8.38,10,8.38,26.56,0,17.16-13,27.17t-35.55,10q-17,0-27.17-8.38l-.21,20.74q-.11,10.3-10,10.31-10.32,0-10.32-13.69V921.44q0-29.52,1.74-38.82,2.36-12.45,10.22-12.46,6.23,0,8.37,5a43.73,43.73,0,0,1,2.15,8.71c.68,5,1.22,8.26,1.63,9.83q3.27,13.42,20.64,13.42,30.14,0,30.13-18a18.13,18.13,0,0,0-6.43-14.44q-5.33-4.6-18.8-9.52l-18.49-6.64q-20.32-7.46-28.5-18.19-8.47-11.13-8.48-31.66,0-29.83,18.69-48.47t48.22-18.65a59.84,59.84,0,0,1,32.08,9.4q2.76-10.73,10.82-10.73Q1048.19,740.22,1048.19,753.91Z"/><path class="cls-6" d="M370,745.33a9.71,9.71,0,0,1-2.86,6.74,8.53,8.53,0,0,1-6.34,3.07,13.82,13.82,0,0,1-3.88-.61c-1.36-.41-2.45-.79-3.27-1.13-.07,0-.88-.34-2.45-1Q344.56,867.91,319.64,921q-6.52,13.8-15.52,13.79-25.33,0-37.7-99.8Q250.19,883.34,239.66,903q-11.85,22.27-23.39,22.27-8,0-14.92-9.6-6.65-9.2-14.4-30.14-15.42-41.88-15.43-125.74v-7.36a53.13,53.13,0,0,0-5.41.92,22.35,22.35,0,0,1-4.09.61q-10.2,0-10.21-10.52,0-12.36,32.69-12.36,15.21,0,24.41,3.83t9.2,9.55q0,10.94-9.81,10.93a30,30,0,0,1-7.46-1.43A49,49,0,0,0,192,752l-.4,25.54q0,76.11,25.33,124,15.74-21.75,35.75-87.24,3.59-11.64,7.15-28.7,3-14.1,4.7-18,2.76-6.23,8.07-6.23,7.45,0,9.71,7,1.53,5,1.53,20.84c0,1.7,0,3.73-.1,6.08s-.1,3.79-.1,4.34q0,62.1,20.32,108.38,21.45-54.75,27.18-157.72a39.55,39.55,0,0,0-5.21.92,23.1,23.1,0,0,1-4.8.71q-10,0-10-10.42,0-12,27.38-11.95,13.89,0,23.09,4.9Q370,739.11,370,745.33Z"/><path class="cls-6" d="M542.87,838.6q0,43.2-23.45,67.42T455,930.23q-36.27,0-59.25-24.93-22.57-24.4-22.58-65.48,0-43.3,19.82-70.07,21.56-28.82,62.42-28.81,41.06,0,64.25,25.64T542.87,838.6Zm-21.56.61q0-37.69-17-57.66t-48.48-20q-29.82,0-45.35,19.52T395,838q0,32.79,17.27,52.46t44.84,19.66q29.42,0,46.68-18.59Q521.32,872.42,521.31,839.21Z"/><path class="cls-6" d="M720.92,906.26q-.78-8.87-.78-27.11,0-69,10-114,3.48-15.33,7.06-21.45,3.88-6.54,10.13-6.54,6.64,0,15.24,9.19,17.88,19.11,27.68,33a220,220,0,0,1,25.75,49q18.9-44.83,40-72.21,17.57-24.31,28-24.31a7.29,7.29,0,0,1,6.65,3.88q1.88,3.16,4,12.26,7.75,32.79,7.76,104.19,0,39.33-3.57,64.26Q896.67,931,887.47,931q-10.22,0-10.22-11.23,0-.51,1.23-11.34,1.42-12.76,2.35-25.85Q882,863.23,882.05,842a550.25,550.25,0,0,0-6.13-78.45q-24.72,24.4-43.51,76.3-3.78,10.83-7.56,21.56-3.68,8-10.22,8-6.23,0-9.29-6.23-1.12-2.24-5.93-18.28-12.55-42.2-47.29-79.68-11.34,36.78-11.34,100.42,0,9.18.76,22.67t.77,17.88c0,5.11-4.49,11.37-9.94,16.14h0Q724.6,929,711,929q-17.6,0-26.18-6.13a40.06,40.06,0,0,1-6.33-6.23q-6.12-7-7-8-32.36-34.21-44.5-40.14-5.3-1.95-10.46-4a7.66,7.66,0,0,1-5.15-7.71q0-9.6,16.24-10.83,17.48-1.43,28.4-14t10.93-31q0-41.56-52.91-41.57h-1.64q-13.17,53.92-13.18,116,0,10.73.62,22.58t.61,12.87q0,14.19-9.81,14.2-8,0-10.42-9.71-1.93-7.75-1.94-31.77,0-73.74,12.77-122.17-37.69,6.33-41.68,6.33-14.6,0-14.6-10.52,0-6.54,5.41-9a23.83,23.83,0,0,1,8.07-1.53q4.18-.21,8.48-.31,3.17-.3,26.35-4.08a185.42,185.42,0,0,1,29.73-2.86q75.9,0,75.9,60.27A63.52,63.52,0,0,1,678.14,835q-10.53,16.2-29.42,25.39a244.19,244.19,0,0,1,29.11,26.25q16.95,17.77,17.37,18.08,5.2,4.59,17.16,4.6,5.71,0,7.25-1.64l1.31-1.39Z"/><path class="cls-6" d="M1048.19,753.91a65.15,65.15,0,0,1-1.12,9.61,65.63,65.63,0,0,0-1.13,10v3.16q0,11.14-1.43,14.81-2,5.22-8.68,5.21-7.35,0-9.91-9.53-1.32-4.62-1.53-15.59-14-9.92-29.32-9.91-19.61,0-32.28,12.68t-12.66,32.42q0,16.88,8.07,24.45,5.61,5.22,24.51,11.76,17.06,5.82,23.29,8.78,10.62,5,16.24,11.75,8.38,10,8.38,26.56,0,17.16-13,27.17t-35.55,10q-17,0-27.17-8.38l-.21,20.74q-.11,10.3-10,10.31-10.32,0-10.32-13.69V921.44q0-29.52,1.74-38.82,2.36-12.45,10.22-12.46,6.23,0,8.37,5a43.73,43.73,0,0,1,2.15,8.71c.68,5,1.22,8.26,1.63,9.83q3.27,13.42,20.64,13.42,30.14,0,30.13-18a18.13,18.13,0,0,0-6.43-14.44q-5.33-4.6-18.8-9.52l-18.49-6.64q-20.32-7.46-28.5-18.19-8.47-11.13-8.48-31.66,0-29.83,18.69-48.47t48.22-18.65a59.84,59.84,0,0,1,32.08,9.4q2.76-10.73,10.82-10.73Q1048.19,740.22,1048.19,753.91Z"/><path class="cls-7" d="M370,745.33a9.71,9.71,0,0,1-2.86,6.74,8.53,8.53,0,0,1-6.34,3.07,13.82,13.82,0,0,1-3.88-.61c-1.36-.41-2.45-.79-3.27-1.13-.07,0-.88-.34-2.45-1Q344.56,867.91,319.64,921q-6.52,13.8-15.52,13.79-25.33,0-37.7-99.8Q250.19,883.34,239.66,903q-11.85,22.27-23.39,22.27-8,0-14.92-9.6"/><path class="cls-7" d="M519.68,766.58q23.19,25.63,23.19,72,0,43.2-23.45,67.42T455,930.23q-36.27,0-59.25-24.93m60.06-143.73q-29.82,0-45.35,19.52T395,838"/><path class="cls-7" d="M666.9,800.9q0-41.56-52.91-41.57h-1.64q-13.17,53.92-13.18,116,0,10.73.62,22.58t.61,12.87q0,14.19-9.81,14.2"/><path class="cls-7" d="M875.92,763.52q-24.72,24.4-43.51,76.3-3.78,10.83-7.56,21.56-3.68,8-10.22,8-6.23,0-9.29-6.23m97-10.93q0,39.33-3.57,64.26Q896.67,931,887.47,931q-10.22,0-10.22-11.23"/><path class="cls-7" d="M752.12,765.15q-11.34,36.78-11.34,100.42,0,9.18.76,22.67t.77,17.88c0,5.11-4.49,11.37-9.94,16.14h0Q724.6,929,711,929q-17.6,0-26.18-6.13"/><path class="cls-7" d="M1030.62,890.08q0,17.16-13,27.17t-35.55,10q-17,0-27.17-8.38l-.21,20.74q-.11,10.3-10,10.31m50.36-188.26q-19.61,0-32.28,12.68t-12.66,32.42q0,16.88,8.07,24.45,5.61,5.22,24.51,11.76m64.36-79.47a65.63,65.63,0,0,0-1.13,10v3.16q0,11.14-1.43,14.81-2,5.22-8.68,5.21-7.35,0-9.91-9.53"/></svg>