<svg xmlns="http://www.w3.org/2000/svg" viewBox="0 0 598.81 598.81"><defs><style>.cls-1{fill:none;stroke:#414042;stroke-miterlimit:10;stroke-width:2px;}</style></defs><g id="Layer_4" data-name="Layer 4"><polyline class="cls-1" points="-14.21 95.34 169.51 95.34 169.51 111.04 138.15 111.04 138.15 173.82 122.47 173.82 122.47 111.04 -14.21 111.04"/><polygon class="cls-1" points="232.23 173.82 232.23 141.14 200.87 141.14 200.87 173.82 185.19 173.82 185.19 95.34 200.87 95.34 200.87 125.45 232.23 125.45 232.23 95.34 247.91 95.34 247.91 173.82 232.23 173.82"/><polyline class="cls-1" points="710.53 173.82 263.19 173.82 263.19 95.34 710.53 95.34"/><polyline class="cls-1" points="710.53 142.43 278.84 142.43 278.84 158.13 710.53 158.13"/><polyline class="cls-1" points="710.53 111.04 278.84 111.04 278.84 126.73 710.53 126.73"/><path class="cls-1" d="M138.15,448.57a7.84,7.84,0,1,0-7.84,7.85"/><path class="cls-1" d="M122.47,480a7.84,7.84,0,1,0,7.84-7.85"/><path class="cls-1" d="M130.31,472.13a23.56,23.56,0,1,1,23.54-23.56"/><path class="cls-1" d="M130.31,456.42A23.55,23.55,0,1,1,106.79,480"/><polygon class="cls-1" points="241.93 425.03 216.55 464.81 216.55 503.54 200.87 503.54 200.87 464.81 175.49 425.03 194.06 425.03 208.71 447.97 223.36 425.03 241.93 425.03"/><polygon class="cls-1" points="302.91 425.03 279.27 425.03 279.27 503.54 294.94 503.54 294.94 448.15 295.2 448.15 310.62 503.54 326.29 503.54 341.7 448.15 341.97 448.15 341.97 503.54 357.65 503.54 357.64 425.03 333.99 425.03 331.83 425.03 319.02 471.13 317.89 471.13 305.04 425.03 302.91 425.03"/><path class="cls-1" d="M396.85,425a23.55,23.55,0,0,1,0,47.09H389v31.42H373.33V425h23.52Z"/><path class="cls-1" d="M396.85,456.42a7.85,7.85,0,0,0,0-15.69H389v15.69Z"/><polygon class="cls-1" points="483.12 503.51 483.12 470.83 451.76 470.83 451.76 503.51 436.08 503.51 436.08 425.03 451.76 425.03 451.76 455.14 483.12 455.14 483.12 425.03 498.8 425.03 498.8 503.51 483.12 503.51"/><line class="cls-1" x1="467.43" y1="409.33" x2="467.43" y2="440.73"/><line class="cls-1" x1="467.44" y1="519.24" x2="467.44" y2="487.81"/><ellipse class="cls-1" cx="553.74" cy="464.28" rx="39.23" ry="39.27"/><ellipse class="cls-1" cx="553.74" cy="464.28" rx="23.5" ry="23.53"/><ellipse class="cls-1" cx="553.74" cy="464.28" rx="7.84" ry="7.85"/><path class="cls-1" d="M247.91,473.77v61.15H169.46l0-16.5a54.88,54.88,0,0,1-91.79-54.12,55,55,0,0,1,52.59-70.68H396.85a55.23,55.23,0,0,1,7.87.56v-.56H530.18v4a69.42,69.42,0,0,1,23.52-4,70.5,70.5,0,0,1,23.52,4v-4l125.46,0"/><path class="cls-1" d="M687,409.33H640v8.19l-4.73-8.2H592.9v16.44a54.84,54.84,0,0,0-78.4.08V409.33H420.37v7.85a39,39,0,0,0-23.52-7.85H319.92l-1.48,5.3-1.48-5.3H270.51"/><path class="cls-1" d="M270.51,409.33H214.8l-6.07,9.51-6.07-9.51H146.91l3.55,5.58h0A39.24,39.24,0,0,0,94.4,464.34a39.15,39.15,0,1,0,71.82,0,39.21,39.21,0,0,0,3.29-15.76,38.24,38.24,0,0,0-.22-4.16l15.9,24.91v49.92h47V469.32l31.36-49.14v99.06H404.72l0-32.22a39.08,39.08,0,0,0,15.65-7.08v39.3h94.1V502.72a54.77,54.77,0,0,0,78.39,0v16.53H640v-8l4.63,8H687v-74.5l15.68,24.56v49.92h47V469.3l38.27-60H732.29l-6.07,9.5-6.07-9.5H683"/><path class="cls-1" d="M647.8,393.62H816.55l-51.16,80.18V534.9l-78.46,0,15.74,0-125.46,0v-4a70.9,70.9,0,0,1-47,0v4H247.91"/><line class="cls-1" x1="130.31" y1="377.9" x2="957.62" y2="377.94"/><polyline class="cls-1" points="130.31 566.33 796.75 566.33 796.75 482.8 863.81 377.94"/><polyline class="cls-1" points="318.46 597.75 828.11 597.75 828.11 491.82 900.93 377.94"/><path class="cls-1" d="M130.31,377.94a70.8,70.8,0,0,0-68.83,86.31,70.64,70.64,0,0,0,92.35,82.36v4H781.07V478.29l64.08-100.35"/><line class="cls-1" x1="216.55" y1="189.52" x2="216.55" y2="156.84"/><line class="cls-1" x1="-14.21" y1="79.64" x2="710.53" y2="79.64"/><line class="cls-1" x1="216.55" y1="79.64" x2="216.55" y2="109.75"/><line class="cls-1" x1="-14.21" y1="63.95" x2="710.53" y2="63.95"/><line class="cls-1" x1="-14.21" y1="48.25" x2="710.53" y2="48.25"/><line class="cls-1" x1="-14.21" y1="32.55" x2="710.53" y2="32.55"/><line class="cls-1" x1="-14.21" y1="16.86" x2="710.53" y2="16.86"/><polyline class="cls-1" points="710.53 189.52 169.25 189.52 169.25 126.73 153.59 126.73 153.59 189.52 106.62 189.52 106.62 126.73 -14.21 126.73"/><line class="cls-1" x1="-14.21" y1="205.21" x2="710.53" y2="205.21"/><polyline class="cls-1" points="-14.21 142.43 91.11 142.43 91.11 189.52 -14.21 189.52"/><polyline class="cls-1" points="-14.21 173.24 75.44 173.24 75.44 158.13 -14.21 158.13"/><path class="cls-1" d="M263.58,330.82V252.3h15.69v62.82h31.35v15.7Z"/><path class="cls-1" d="M442.42,268h-6.36v15.7h5.48c5,0,11.33-1.24,11.33-7.85C452.87,269.82,447.1,268,442.42,268Zm2.86-15.73h-24.9v78.51h15.68V299.42h5.05l12.73,31.4h15.77l-13.59-34a23.58,23.58,0,0,0-10.74-44.56"/><polygon class="cls-1" points="522.3 252.33 549.59 330.82 532.78 330.82 527.33 315.11 501.63 315.11 496.18 330.82 479.37 330.82 506.63 252.33 522.3 252.33"/><polygon class="cls-1" points="507.05 299.42 521.88 299.42 514.49 277.89 507.05 299.42"/><path class="cls-1" d="M567.37,346.51h49.06a54.84,54.84,0,0,0,47.05-26.64,55,55,0,1,0,0-56.6,54.83,54.83,0,0,0-47-26.63l-49.06,0,0,94.21h-1.21l-32.65-94.21h-38L484,269.68"/><path class="cls-1" d="M135.85,297.2a7.85,7.85,0,1,1,0-11.15"/><path class="cls-1" d="M146.94,308.21a23.55,23.55,0,1,1,0-33.3"/><path class="cls-1" d="M158,319.36A39.25,39.25,0,1,1,158,263.8"/><ellipse class="cls-1" cx="208.72" cy="291.65" rx="7.84" ry="7.85"/><ellipse class="cls-1" cx="208.71" cy="291.56" rx="23.52" ry="23.55"/><ellipse class="cls-1" cx="208.71" cy="291.56" rx="39.2" ry="39.25"/><path class="cls-1" d="M445.28,236.62A39.24,39.24,0,0,1,484,269.68"/><path class="cls-1" d="M616.43,268l-17.67,0v47.11h17.67a23.55,23.55,0,0,0,0-47.09Z"/><path class="cls-1" d="M616.43,252.3H583.05v78.55h33.38a39.28,39.28,0,0,0,0-78.55Z"/><ellipse class="cls-1" cx="365.49" cy="291.57" rx="23.52" ry="23.55"/><ellipse class="cls-1" cx="365.49" cy="291.57" rx="7.84" ry="7.85"/><ellipse class="cls-1" cx="365.51" cy="291.56" rx="39.21" ry="39.26"/><path class="cls-1" d="M310.62,291.56a54.88,54.88,0,0,1,94.14-38.41l0-16.54h40.56"/><path class="cls-1" d="M169.51,350.31a70.62,70.62,0,0,0,62.72,7.88v4H342v-4a70.82,70.82,0,0,0,47.07,0l-.05,4H616.38a70.27,70.27,0,0,0,47-18,70.68,70.68,0,1,0,0-105.29,70.25,70.25,0,0,0-47-18H551.64v20.31l-7.06-20.34H484.27l-4.3,12.4a54.66,54.66,0,0,0-34.74-12.4H389v4a70.62,70.62,0,0,0-78.4,22.24V220.91H232.17v4a70.5,70.5,0,0,0-62.66,7.88,70.65,70.65,0,1,0,0,117.5Z"/><path class="cls-1" d="M310.62,291.55a56.74,56.74,0,0,0,.55,7.87H294.94V236.61h-47v16.45a54.89,54.89,0,0,0-39.36-16.32,54.27,54.27,0,0,0-39,16.46c-.86-.88-1.74-1.73-2.66-2.55a55,55,0,1,0,.08,81.92c.89-.79,1.75-1.61,2.58-2.47a55,55,0,0,0,78.38-.14v16.5h78.38V330a54.84,54.84,0,0,0,78.46,0l0,16.54,101.66.05,5.45-15.74h5.32l5.45,15.74h45.23"/><path class="cls-1" d="M203.55,377.94a85.91,85.91,0,0,1-34.23-9.35,86.35,86.35,0,1,1,.19-154,85.93,85.93,0,0,1,39.21-9.41q4,0,7.83.35v-.35"/><path class="cls-1" d="M76,205.21A102.16,102.16,0,0,0,78.52,379.5h0a86.27,86.27,0,0,0-34.47,69.07,90.38,90.38,0,0,0,1.37,16,86.45,86.45,0,0,0,84.89,101.78"/><polyline class="cls-1" points="130.3 582.02 812.43 582.02 812.43 487.32 882.38 377.94"/><path class="cls-1" d="M49.42,205.21a118.46,118.46,0,0,0,4,176.3,101.73,101.73,0,0,0-25.09,67.06,103,103,0,0,0,1.2,15.71A102.65,102.65,0,0,0,28.37,480c0,53.72,42.8,102,101.93,102"/><path class="cls-1" d="M28.7,205.21a133.55,133.55,0,0,0,4.18,177.38,117.23,117.23,0,0,0-20.19,66,119,119,0,0,0,1.06,15.89A118.35,118.35,0,0,0,12.69,480c0,56.95,47,117.78,117.61,117.78H448"/><path class="cls-1" d="M987.54,377.71a290.43,290.43,0,0,0,13-86.35C1000.58,131,870.72,1,710.53,1q-3.93,0-7.85.11H-14.21"/><path class="cls-1" d="M1003.85,378a306.31,306.31,0,0,0,12.41-86.59c0-169-136.88-306.08-305.73-306.08q-3.93,0-7.85.1H-14.21"/><path class="cls-1" d="M1020.24,378a322.69,322.69,0,0,0,11.7-86.35c0-177.71-143.9-321.77-321.41-321.77q-3.93,0-7.85.09H-14.21"/><path class="cls-1" d="M1036.44,377.89a338.65,338.65,0,0,0,11.18-86.53C1047.62,105,896.7-46.11,710.53-46.11q-3.93,0-7.85.08H-14.21"/><path class="cls-1" d="M1052.62,378a354.59,354.59,0,0,0,10.68-86.59c0-195-157.94-353.17-352.77-353.17q-3.93,0-7.85.08H-14.21"/><path class="cls-1" d="M1068.85,377.89A370.15,370.15,0,0,0,1079,291.65C1079,87.93,914-77.21,710.53-77.21q-3.93,0-7.85.08H-14.21"/><path class="cls-1" d="M373.33,205.21v.35c-2.57-.23-5.19-.35-7.82-.35a85.88,85.88,0,0,0-39.22,9.42v-9.42"/><path class="cls-1" d="M8.85,205.21a149.31,149.31,0,0,0,4.69,178.93A133,133,0,0,0-3,448.57a134.32,134.32,0,0,0,1,15.1A134.87,134.87,0,0,0-3,480,133.34,133.34,0,0,0,130.31,613.39H843.82V496.3l75.67-118.36"/><path class="cls-1" d="M-17.31,460a150,150,0,0,0-1.33,20c0,82.35,66.69,149.12,149,149.12H859.49V500.49L937.8,378"/><path class="cls-1" d="M-33.14,460a167.34,167.34,0,0,0-1.2,20c0,91,73.71,164.83,164.64,164.83H875.18l0-40-.28-99,81.57-127.87"/><path class="cls-1" d="M-49,460.73A182.67,182.67,0,0,0-50,480c0,99.7,80.73,180.52,180.32,180.52H890.86l0-55.71,0-95,71.72-112.4"/><path class="cls-1" d="M-64.84,461.48q-.85,9.13-.86,18.5c0,108.37,87.75,196.22,196,196.22H906.54V514.34L973,410.17"/><path class="cls-1" d="M130.3,691.9C13.39,691.9-81.38,597-81.38,480"/><path class="cls-1" d="M130.3,707.59C4.73,707.59-97.06,605.69-97.06,480"/><path class="cls-1" d="M130.3,723.29c-134.23,0-243-108.93-243-243.31,0-.65,0-1.29,0-1.94"/></g></svg>