<svg xmlns="http://www.w3.org/2000/svg" viewBox="0 0 598.81 598.81"><defs><style>.cls-1{fill:none;stroke:#414042;stroke-miterlimit:10;stroke-width:2px;}</style></defs><g id="Layer_4" data-name="Layer 4"><polyline class="cls-1" points="-50.85 82.19 144.84 82.19 144.84 98.92 111.44 98.92 111.44 165.79 94.74 165.79 94.74 98.92 -50.85 98.92"/><polygon class="cls-1" points="211.65 165.79 211.65 130.98 178.25 130.98 178.25 165.79 161.55 165.79 161.55 82.19 178.25 82.19 178.25 114.26 211.65 114.26 211.65 82.19 228.35 82.19 228.35 165.79 211.65 165.79"/><polyline class="cls-1" points="721.13 165.79 244.63 165.79 244.63 82.19 721.13 82.19"/><polyline class="cls-1" points="721.13 132.35 261.3 132.35 261.3 149.07 721.13 149.07"/><polyline class="cls-1" points="721.13 98.91 261.3 98.91 261.3 115.63 721.13 115.63"/><path class="cls-1" d="M111.44,458.45a8.35,8.35,0,1,0-8.35,8.36"/><path class="cls-1" d="M94.74,491.89a8.35,8.35,0,1,0,8.35-8.36"/><path class="cls-1" d="M103.09,483.54a25.1,25.1,0,1,1,25.07-25.09"/><path class="cls-1" d="M103.09,466.81a25.08,25.08,0,1,1-25,25.08"/><polygon class="cls-1" points="221.99 433.37 194.95 475.74 194.95 517 178.25 517 178.25 475.74 151.21 433.37 171 433.37 186.6 457.81 202.2 433.37 221.99 433.37"/><polygon class="cls-1" points="286.94 433.37 261.75 433.37 261.75 517 278.45 517 278.45 458 278.73 458 295.15 517 311.85 517 328.26 458 328.55 458 328.55 517 345.25 517 345.24 433.37 320.05 433.37 317.75 433.37 304.1 482.48 302.9 482.48 289.21 433.37 286.94 433.37"/><path class="cls-1" d="M387,433.37a25.08,25.08,0,0,1,0,50.16h-8.35V517H362V433.37H387Z"/><path class="cls-1" d="M387,466.81a8.36,8.36,0,0,0,0-16.72h-8.35v16.72Z"/><polygon class="cls-1" points="478.89 516.97 478.89 482.16 445.49 482.16 445.49 516.97 428.79 516.97 428.79 433.37 445.49 433.37 445.49 465.44 478.89 465.44 478.89 433.37 495.59 433.37 495.59 516.97 478.89 516.97"/><line class="cls-1" x1="462.19" y1="416.65" x2="462.19" y2="450.09"/><line class="cls-1" x1="462.19" y1="533.72" x2="462.19" y2="500.25"/><ellipse class="cls-1" cx="554.12" cy="475.18" rx="41.78" ry="41.83"/><ellipse class="cls-1" cx="554.12" cy="475.18" rx="25.04" ry="25.06"/><ellipse class="cls-1" cx="554.12" cy="475.18" rx="8.35" ry="8.36"/><path class="cls-1" d="M228.35,485.29v65.13l-83.56,0,.06-17.59a58.45,58.45,0,0,1-100.23-41,58.87,58.87,0,0,1,2.45-16.68,58.58,58.58,0,0,1,56-75.28H387a59.5,59.5,0,0,1,8.39.59v-.59H529v4.24a74,74,0,0,1,25.05-4.27,74.81,74.81,0,0,1,25.06,4.28V399.9l133.63,0"/><path class="cls-1" d="M696.06,416.65H646v8.72l-5-8.73H595.83v17.51a58.42,58.42,0,0,0-83.51.08V416.65H412.06V425A41.55,41.55,0,0,0,387,416.65H305.05l-1.57,5.65-1.57-5.65H252.43"/><path class="cls-1" d="M252.43,416.65H193.09l-6.47,10.12-6.46-10.12H120.77l3.79,5.94h0a41.81,41.81,0,0,0-59.72,52.65,41.7,41.7,0,1,0,76.5,0,41.69,41.69,0,0,0,3.51-16.78,40.73,40.73,0,0,0-.24-4.44l16.94,26.53v53.18h50.1V480.54l33.4-52.34V533.72H395.39l0-34.32a41.43,41.43,0,0,0,16.67-7.54v41.86H512.32v-17.6a58.34,58.34,0,0,0,83.5,0v17.6H646v-8.55l4.92,8.55h45.18V454.36l16.7,26.17V533.7h50.11V480.53l40.76-63.88-39.55,0H744.3l-6.46,10.13-6.47-10.13H691.76"/><path class="cls-1" d="M654.31,399.91l179.75,0-54.49,85.4v65.08H696l16.76,0-133.63,0v-4.27a75.56,75.56,0,0,1-50.11,0v4.26H378.69l-150.34,0"/><line class="cls-1" x1="103.09" y1="383.17" x2="984.32" y2="383.21"/><polyline class="cls-1" points="103.09 583.88 812.97 583.88 812.97 494.9 884.4 383.21"/><polyline class="cls-1" points="303.5 617.35 846.37 617.35 846.37 504.51 923.94 383.21"/><path class="cls-1" d="M103.09,383.21a75.43,75.43,0,0,0-73.32,91.94,75.25,75.25,0,0,0,98.38,87.73v4.28H796.27v-77l68.25-106.9"/><line class="cls-1" x1="194.95" y1="182.51" x2="194.95" y2="147.7"/><line class="cls-1" x1="-50.85" y1="65.47" x2="721.13" y2="65.47"/><line class="cls-1" x1="194.95" y1="65.47" x2="194.95" y2="97.54"/><line class="cls-1" x1="-50.85" y1="48.75" x2="721.13" y2="48.75"/><line class="cls-1" x1="-50.85" y1="32.03" x2="721.13" y2="32.03"/><line class="cls-1" x1="-50.85" y1="15.31" x2="721.13" y2="15.31"/><polyline class="cls-1" points="721.13 182.51 144.56 182.51 144.56 115.63 127.89 115.63 127.89 182.51 77.86 182.51 77.86 115.63 -50.85 115.63"/><line class="cls-1" x1="-50.85" y1="199.23" x2="721.13" y2="199.23"/><polyline class="cls-1" points="-50.85 132.35 61.34 132.35 61.34 182.51 -50.85 182.51"/><polyline class="cls-1" points="-50.85 165.17 44.64 165.17 44.64 149.07 -50.85 149.07"/><path class="cls-1" d="M245.05,333V249.38h16.7V316.3h33.4V333Z"/><path class="cls-1" d="M435.54,266.14h-6.77v16.72h5.84c5.37,0,12.07-1.32,12.07-8.36C446.68,268,440.52,266.14,435.54,266.14Zm3-16.76H412.07V333h16.7V299.58h5.38L447.7,333h16.8L450,296.85a25.12,25.12,0,0,0-11.44-47.47"/><polygon class="cls-1" points="520.63 249.42 549.69 333.02 531.8 333.02 525.99 316.28 498.61 316.28 492.8 333.02 474.91 333.02 503.94 249.42 520.63 249.42"/><polygon class="cls-1" points="504.39 299.58 520.18 299.58 512.31 276.64 504.39 299.58"/><path class="cls-1" d="M568.63,349.73h52.26A58.42,58.42,0,0,0,671,321.36a58.53,58.53,0,1,0,0-60.3,58.42,58.42,0,0,0-50.11-28.36l-52.26,0V333h-1.29L532.55,232.67H492.06l-12.22,35.22"/><path class="cls-1" d="M109,297.21a8.37,8.37,0,1,1,0-11.87"/><path class="cls-1" d="M120.8,308.94a25.09,25.09,0,1,1,0-35.48"/><path class="cls-1" d="M132.56,320.81a41.81,41.81,0,1,1,.05-59.17"/><ellipse class="cls-1" cx="186.61" cy="291.3" rx="8.35" ry="8.36"/><ellipse class="cls-1" cx="186.61" cy="291.2" rx="25.06" ry="25.09"/><ellipse class="cls-1" cx="186.61" cy="291.2" rx="41.76" ry="41.81"/><path class="cls-1" d="M438.59,232.68a41.8,41.8,0,0,1,41.25,35.21"/><path class="cls-1" d="M620.89,249.38H585.33v83.67h35.56a41.84,41.84,0,0,0,0-83.67Z"/><ellipse class="cls-1" cx="353.6" cy="291.22" rx="25.05" ry="25.08"/><ellipse class="cls-1" cx="353.6" cy="291.22" rx="8.35" ry="8.36"/><ellipse class="cls-1" cx="353.62" cy="291.2" rx="41.77" ry="41.82"/><path class="cls-1" d="M295.15,291.2a58.46,58.46,0,0,1,100.28-40.92l0-17.61h43.2"/><path class="cls-1" d="M144.84,353.78a75.32,75.32,0,0,0,66.81,8.4v4.27h116.9v-4.28a75.48,75.48,0,0,0,50.14,0l-.06,4.3H620.84A74.81,74.81,0,0,0,671,347.29a75.29,75.29,0,1,0,0-112.15A74.78,74.78,0,0,0,620.84,216h-69v21.63L544.37,216H480.12l-4.58,13.2a58.24,58.24,0,0,0-37-13.2H378.6v4.27a75.23,75.23,0,0,0-83.51,23.69V216h-83.5v4.27a75.17,75.17,0,0,0-66.74,8.4,75.25,75.25,0,1,0,0,125.16Z"/><path class="cls-1" d="M295.15,291.19a59.5,59.5,0,0,0,.59,8.39H278.45V232.67h-50.1v17.52a58.47,58.47,0,0,0-41.92-17.38,57.81,57.81,0,0,0-41.58,17.53c-.92-.94-1.86-1.84-2.84-2.71a58.53,58.53,0,1,0,.09,87.26c.94-.85,1.86-1.73,2.75-2.63a58.58,58.58,0,0,0,83.49-.15v17.57h83.48V332.11a58.43,58.43,0,0,0,83.58-.05l0,17.62,108.28.05L509.46,333h5.66l5.81,16.77h48.18"/><path class="cls-1" d="M181.1,383.21a91.42,91.42,0,0,1-36.45-10,92,92,0,1,1,.19-164,91.58,91.58,0,0,1,41.77-10q4.21,0,8.34.37v-.37"/><path class="cls-1" d="M45.2,199.23a108.8,108.8,0,0,0,2.72,185.64h0A91.93,91.93,0,0,0,11.2,458.45a95.52,95.52,0,0,0,1.47,17,92.08,92.08,0,0,0,90.42,108.41"/><polyline class="cls-1" points="103.08 600.6 829.67 600.6 829.67 499.72 904.18 383.21"/><path class="cls-1" d="M16.93,199.23A126.2,126.2,0,0,0,21.23,387,108.39,108.39,0,0,0-5.5,458.45a109.9,109.9,0,0,0,1.28,16.73,109.64,109.64,0,0,0-1.27,16.71c0,57.22,45.59,108.71,108.57,108.71"/><path class="cls-1" d="M-5.15,199.23A142.24,142.24,0,0,0-.69,388.16,124.91,124.91,0,0,0-22.2,458.45a127.54,127.54,0,0,0,1.13,16.92,126.72,126.72,0,0,0-1.13,16.52c0,60.67,50.09,125.46,125.28,125.46H441.44"/><path class="cls-1" d="M1016.2,383a309.74,309.74,0,0,0,13.89-92c0-170.82-138.33-309.3-309-309.3-2.8,0-5.58,0-8.36.11H-50.85"/><path class="cls-1" d="M1033.57,383.22A326.45,326.45,0,0,0,1046.79,291c0-180.06-145.8-326-325.66-326-2.8,0-5.58,0-8.36.1H-50.85"/><path class="cls-1" d="M1051,383.23a343.25,343.25,0,0,0,12.47-92C1063.49,102,910.21-51.5,721.13-51.5q-4.18,0-8.36.1H-50.85"/><path class="cls-1" d="M1068.27,383.16A360.08,360.08,0,0,0,1080.19,291c0-198.52-160.76-359.46-359.06-359.46q-4.18,0-8.36.09H-50.85"/><path class="cls-1" d="M1085.51,383.22A377.36,377.36,0,0,0,1096.89,291c0-207.76-168.23-376.18-375.76-376.18q-4.18,0-8.37.09H-50.85"/><path class="cls-1" d="M1102.8,383.16a393.89,393.89,0,0,0,10.79-91.86c0-217-175.71-392.91-392.46-392.91q-4.18,0-8.37.09H-50.85"/><path class="cls-1" d="M362,199.23v.37q-4.11-.37-8.33-.37a91.46,91.46,0,0,0-41.77,10v-10"/><path class="cls-1" d="M-26.29,199.23a159,159,0,0,0,5,190.58,137.63,137.63,0,0,0-16.53,84.72,144.12,144.12,0,0,0-1,17.36c0,78.49,63.56,142.12,142,142.12h760V509.28l80.6-126.07"/><path class="cls-1" d="M-54.16,470.59a161,161,0,0,0-1.41,21.3c0,87.72,71,158.84,158.66,158.84H879.8v-137l83.4-130.53"/><path class="cls-1" d="M-71,470.59a176.46,176.46,0,0,0-1.28,21.31c0,97,78.51,175.57,175.37,175.57H896.51l0-42.62-.3-105.43,86.89-136.21"/><path class="cls-1" d="M-87.91,471.4A192.68,192.68,0,0,0-89,491.9c0,106.2,86,192.29,192.07,192.29H913.21l0-59.34,0-101.15L989.61,404"/><path class="cls-1" d="M-104.78,472.19q-.9,9.74-.91,19.71c0,115.43,93.47,209,208.77,209H929.91V528.5l70.81-111"/><path class="cls-1" d="M103.08,717.63c-124.53,0-225.48-101.06-225.48-225.73"/><path class="cls-1" d="M103.08,734.35C-30.67,734.35-139.1,625.8-139.1,491.9"/><path class="cls-1" d="M103.08,751.07c-143,0-258.88-116-258.88-259.17,0-.69,0-1.37,0-2.06"/></g></svg>