<svg id="Patches" xmlns="http://www.w3.org/2000/svg" xmlns:xlink="http://www.w3.org/1999/xlink" viewBox="0 0 1920 1920"><defs><style>.cls-1{fill:none;}.cls-2,.cls-44{fill:#fff;}.cls-3{clip-path:url(#clip-path);}.cls-4{fill:url(#linear-gradient);}.cls-5{clip-path:url(#clip-path-2);}.cls-6{fill:url(#New_Gradient_Swatch_copy);}.cls-7{fill:url(#New_Gradient_Swatch_copy_3);}.cls-8{fill:url(#New_Gradient_Swatch);}.cls-9{fill:url(#New_Gradient_Swatch_copy_2);}.cls-10{fill:url(#New_Gradient_Swatch-2);}.cls-11{fill:url(#New_Gradient_Swatch_copy_2-2);}.cls-12{fill:url(#New_Gradient_Swatch-3);}.cls-13{fill:url(#New_Gradient_Swatch_copy_2-3);}.cls-14{fill:url(#New_Gradient_Swatch-4);}.cls-15{fill:url(#New_Gradient_Swatch_copy_2-4);}.cls-16{fill:url(#New_Gradient_Swatch-5);}.cls-17{fill:url(#New_Gradient_Swatch_copy_2-5);}.cls-18{fill:url(#New_Gradient_Swatch-6);}.cls-19{fill:url(#New_Gradient_Swatch_copy_2-6);}.cls-20{fill:url(#New_Gradient_Swatch-7);}.cls-21{fill:url(#New_Gradient_Swatch_copy_2-7);}.cls-22{fill:url(#New_Gradient_Swatch-8);}.cls-23{fill:url(#New_Gradient_Swatch_copy_2-8);}.cls-24{fill:url(#New_Gradient_Swatch-9);}.cls-25{fill:url(#New_Gradient_Swatch_copy_2-9);}.cls-26{fill:url(#New_Gradient_Swatch-10);}.cls-27{fill:url(#New_Gradient_Swatch_copy_2-10);}.cls-28{fill:url(#New_Gradient_Swatch-11);}.cls-29{fill:url(#New_Gradient_Swatch_copy_2-11);}.cls-30{fill:url(#New_Gradient_Swatch-12);}.cls-31{fill:url(#New_Gradient_Swatch_copy_2-12);}.cls-32{fill:url(#New_Gradient_Swatch-13);}.cls-33{fill:url(#New_Gradient_Swatch_copy_2-13);}.cls-34{fill:url(#New_Gradient_Swatch-14);}.cls-35{fill:url(#New_Gradient_Swatch_copy_2-14);}.cls-36{fill:url(#New_Gradient_Swatch-15);}.cls-37{fill:url(#New_Gradient_Swatch_copy_2-15);}.cls-38{fill:url(#New_Gradient_Swatch-16);}.cls-39{fill:url(#New_Gradient_Swatch_copy_2-16);}.cls-40{fill:url(#New_Gradient_Swatch-17);}.cls-41{fill:url(#New_Gradient_Swatch_copy_2-17);}.cls-42{fill:url(#New_Gradient_Swatch-18);}.cls-43{fill:url(#New_Gradient_Swatch_copy_2-18);}.cls-44{font-size:105px;font-family:AkkuratStd-Bold, Akkurat Std;font-weight:700;}</style><clipPath id="clip-path"><circle id="Main_Mask" data-name="Main Mask" class="cls-1" cx="960" cy="960" r="731.67"/></clipPath><linearGradient id="linear-gradient" x1="878.11" y1="880.27" x2="1882.15" y2="532.27" gradientUnits="userSpaceOnUse"><stop offset="0" stop-color="#fff"/><stop offset="0.14" stop-color="#e1e1e1"/><stop offset="0.45" stop-color="#949494"/><stop offset="0.91" stop-color="#1a1a1a"/><stop offset="1"/></linearGradient><clipPath id="clip-path-2"><circle id="Moon_Mask" data-name="Moon Mask" class="cls-1" cx="1380.13" cy="706.27" r="531.18"/></clipPath><linearGradient id="New_Gradient_Swatch_copy" x1="527.03" y1="1404.13" x2="839.08" y2="1264.57" gradientUnits="userSpaceOnUse"><stop offset="0" stop-color="#00a9b3"/><stop offset="0.15" stop-color="#09a7b9"/><stop offset="0.4" stop-color="#23a0c9"/><stop offset="0.57" stop-color="#389bd7"/><stop offset="0.87" stop-color="#0075be"/><stop offset="0.99" stop-color="#005b97"/></linearGradient><linearGradient id="New_Gradient_Swatch_copy_3" x1="625.36" y1="1356.66" x2="787.13" y2="1283.93" gradientUnits="userSpaceOnUse"><stop offset="0" stop-color="#39b54a"/><stop offset="0.14" stop-color="#30af49"/><stop offset="0.36" stop-color="#16a047"/><stop offset="0.52" stop-color="#009245"/><stop offset="1" stop-color="#006837"/></linearGradient><linearGradient id="New_Gradient_Swatch" x1="987.18" y1="1328.24" x2="1094.94" y2="1328.24" gradientTransform="translate(2369.3 287.18) rotate(90)" gradientUnits="userSpaceOnUse"><stop offset="0" stop-color="#fcb721"/><stop offset="0.22" stop-color="#f5af18"/><stop offset="0.52" stop-color="#e59e03"/><stop offset="1" stop-color="#f1681c"/></linearGradient><linearGradient id="New_Gradient_Swatch_copy_2" x1="994.92" y1="1297.45" x2="1077.11" y2="1297.45" gradientTransform="translate(-261.43 2333.47) rotate(-90)" gradientUnits="userSpaceOnUse"><stop offset="0" stop-color="#ad511a"/><stop offset="0.18" stop-color="#b6541c"/><stop offset="0.48" stop-color="#d05e23"/><stop offset="0.48" stop-color="#d05e23"/><stop offset="0.73" stop-color="#e06e1a"/><stop offset="1" stop-color="#ed7b13"/></linearGradient><linearGradient id="New_Gradient_Swatch-2" x1="852.52" y1="1377.66" x2="921.94" y2="1377.66" gradientTransform="translate(2264.89 490.43) rotate(90)" xlink:href="#New_Gradient_Swatch"/><linearGradient id="New_Gradient_Swatch_copy_2-2" x1="857.1" y1="1357.65" x2="913.97" y2="1357.65" gradientTransform="translate(-472.12 2243.18) rotate(-90)" xlink:href="#New_Gradient_Swatch_copy_2"/><linearGradient id="New_Gradient_Swatch-3" x1="772.31" y1="1473.56" x2="829.95" y2="1473.56" gradientTransform="translate(2274.7 672.43) rotate(90)" xlink:href="#New_Gradient_Swatch"/><linearGradient id="New_Gradient_Swatch_copy_2-3" x1="775.85" y1="1456.11" x2="819.81" y2="1456.11" gradientTransform="translate(-658.28 2253.94) rotate(-90)" xlink:href="#New_Gradient_Swatch_copy_2"/><linearGradient id="New_Gradient_Swatch-4" x1="765.55" y1="1342.95" x2="808.73" y2="1342.95" gradientTransform="translate(2130.09 555.81) rotate(90)" xlink:href="#New_Gradient_Swatch"/><linearGradient id="New_Gradient_Swatch_copy_2-4" x1="768.2" y1="1329.87" x2="801.13" y2="1329.87" gradientTransform="translate(-545.21 2114.54) rotate(-90)" xlink:href="#New_Gradient_Swatch_copy_2"/><linearGradient id="New_Gradient_Swatch-5" x1="695.64" y1="1384.84" x2="736.23" y2="1384.84" gradientTransform="translate(2100.77 668.91) rotate(90)" xlink:href="#New_Gradient_Swatch"/><linearGradient id="New_Gradient_Swatch_copy_2-5" x1="698.13" y1="1372.55" x2="729.09" y2="1372.55" gradientTransform="translate(-658.94 2086.16) rotate(-90)" xlink:href="#New_Gradient_Swatch_copy_2"/><linearGradient id="New_Gradient_Swatch-6" x1="619.11" y1="1234.83" x2="627.23" y2="1234.83" gradientTransform="translate(1858 611.65) rotate(90)" xlink:href="#New_Gradient_Swatch"/><linearGradient id="New_Gradient_Swatch_copy_2-6" x1="619.61" y1="1232.37" x2="625.81" y2="1232.37" gradientTransform="translate(-609.66 1855.08) rotate(-90)" xlink:href="#New_Gradient_Swatch_copy_2"/><linearGradient id="New_Gradient_Swatch-7" x1="627.23" y1="1275.59" x2="637.79" y2="1275.59" gradientTransform="translate(1908.1 643.08) rotate(90)" xlink:href="#New_Gradient_Swatch"/><linearGradient id="New_Gradient_Swatch_copy_2-7" x1="627.88" y1="1272.39" x2="635.93" y2="1272.39" gradientTransform="translate(-640.48 1904.3) rotate(-90)" xlink:href="#New_Gradient_Swatch_copy_2"/><linearGradient id="New_Gradient_Swatch-8" x1="654.47" y1="1260.7" x2="666.99" y2="1260.7" gradientTransform="translate(1921.42 599.97) rotate(90)" xlink:href="#New_Gradient_Swatch"/><linearGradient id="New_Gradient_Swatch_copy_2-8" x1="655.23" y1="1256.91" x2="664.78" y2="1256.91" gradientTransform="translate(-596.9 1916.92) rotate(-90)" xlink:href="#New_Gradient_Swatch_copy_2"/><linearGradient id="New_Gradient_Swatch-9" x1="632.51" y1="1331" x2="649.97" y2="1331" gradientTransform="translate(1972.25 689.76) rotate(90)" xlink:href="#New_Gradient_Swatch"/><linearGradient id="New_Gradient_Swatch_copy_2-9" x1="633.58" y1="1325.72" x2="646.9" y2="1325.72" gradientTransform="translate(-685.48 1965.96) rotate(-90)" xlink:href="#New_Gradient_Swatch_copy_2"/><linearGradient id="New_Gradient_Swatch-10" x1="685.45" y1="1319.99" x2="707.48" y2="1319.99" gradientTransform="translate(2016.46 623.53) rotate(90)" xlink:href="#New_Gradient_Swatch"/><linearGradient id="New_Gradient_Swatch_copy_2-10" x1="686.81" y1="1313.33" x2="703.6" y2="1313.33" gradientTransform="translate(-618.12 2008.53) rotate(-90)" xlink:href="#New_Gradient_Swatch_copy_2"/><linearGradient id="New_Gradient_Swatch-11" x1="916.36" y1="1505.05" x2="1000.19" y2="1505.05" gradientTransform="translate(2463.33 546.77) rotate(90)" xlink:href="#New_Gradient_Swatch"/><linearGradient id="New_Gradient_Swatch_copy_2-11" x1="921.51" y1="1479.66" x2="985.44" y2="1479.66" gradientTransform="translate(-526.19 2433.14) rotate(-90)" xlink:href="#New_Gradient_Swatch_copy_2"/><linearGradient id="New_Gradient_Swatch-12" x1="1133.04" y1="1443.69" x2="1252.54" y2="1443.69" gradientTransform="translate(2636.48 250.9) rotate(90)" xlink:href="#New_Gradient_Swatch"/><linearGradient id="New_Gradient_Swatch_copy_2-12" x1="1140.37" y1="1407.51" x2="1231.52" y2="1407.51" gradientTransform="translate(-221.56 2593.45) rotate(-90)" xlink:href="#New_Gradient_Swatch_copy_2"/><linearGradient id="New_Gradient_Swatch-13" x1="1192.79" y1="1256.35" x2="1300.55" y2="1256.35" gradientTransform="translate(2503.02 9.68) rotate(90)" xlink:href="#New_Gradient_Swatch"/><linearGradient id="New_Gradient_Swatch_copy_2-13" x1="1199.4" y1="1223.72" x2="1281.6" y2="1223.72" gradientTransform="translate(16.78 2464.22) rotate(-90)" xlink:href="#New_Gradient_Swatch_copy_2"/><linearGradient id="New_Gradient_Swatch-14" x1="1055.92" y1="1173.57" x2="1145.51" y2="1173.57" gradientTransform="translate(2274.28 72.85) rotate(90)" xlink:href="#New_Gradient_Swatch"/><linearGradient id="New_Gradient_Swatch_copy_2-14" x1="1061.42" y1="1146.44" x2="1129.75" y2="1146.44" gradientTransform="translate(-50.86 2242.02) rotate(-90)" xlink:href="#New_Gradient_Swatch_copy_2"/><linearGradient id="New_Gradient_Swatch-15" x1="1263.82" y1="1094.68" x2="1337.29" y2="1094.68" gradientTransform="translate(2395.23 -205.88) rotate(90)" xlink:href="#New_Gradient_Swatch"/><linearGradient id="New_Gradient_Swatch_copy_2-15" x1="1268.32" y1="1072.43" x2="1324.37" y2="1072.43" gradientTransform="translate(223.92 2368.77) rotate(-90)" xlink:href="#New_Gradient_Swatch_copy_2"/><linearGradient id="New_Gradient_Swatch-16" x1="1375.54" y1="1186.2" x2="1454.62" y2="1186.2" gradientTransform="translate(2601.28 -228.87) rotate(90)" xlink:href="#New_Gradient_Swatch"/><linearGradient id="New_Gradient_Swatch_copy_2-16" x1="1380.39" y1="1162.26" x2="1440.7" y2="1162.26" gradientTransform="translate(248.29 2572.8) rotate(-90)" xlink:href="#New_Gradient_Swatch_copy_2"/><linearGradient id="New_Gradient_Swatch-17" x1="1140.37" y1="1047.72" x2="1207.26" y2="1047.72" gradientTransform="translate(2221.53 -126.1) rotate(90)" xlink:href="#New_Gradient_Swatch"/><linearGradient id="New_Gradient_Swatch_copy_2-17" x1="1144.48" y1="1027.46" x2="1195.49" y2="1027.46" gradientTransform="translate(142.52 2197.45) rotate(-90)" xlink:href="#New_Gradient_Swatch_copy_2"/><linearGradient id="New_Gradient_Swatch-18" x1="1414.72" y1="1052.66" x2="1481.96" y2="1052.66" gradientTransform="translate(2501 -395.68) rotate(90)" xlink:href="#New_Gradient_Swatch"/><linearGradient id="New_Gradient_Swatch_copy_2-18" x1="1418.84" y1="1032.3" x2="1470.13" y2="1032.3" gradientTransform="translate(412.19 2476.78) rotate(-90)" xlink:href="#New_Gradient_Swatch_copy_2"/></defs><g id="Patch_Idea_3" data-name="Patch Idea 3"><circle id="Blackground" cx="960" cy="960" r="910.89"/><g id="White_Ring" data-name="White Ring"><path class="cls-2" d="M960,228.33c404.09,0,731.67,327.58,731.67,731.67S1364.09,1691.67,960,1691.67,228.33,1364.09,228.33,960,555.91,228.33,960,228.33m0-11A739.24,739.24,0,0,0,544.76,344.18,744.85,744.85,0,0,0,275.7,670.92a741.68,741.68,0,0,0,68.48,704.32A744.85,744.85,0,0,0,670.92,1644.3a741.68,741.68,0,0,0,704.32-68.48,744.85,744.85,0,0,0,269.06-326.74,741.68,741.68,0,0,0-68.48-704.32A744.85,744.85,0,0,0,1249.08,275.7,738,738,0,0,0,960,217.33Z"/></g><g id="Main_Clip" data-name="Main Clip"><g class="cls-3"><g id="GLEE_white" data-name="GLEE white"><path class="cls-2" d="M1405.49,670.21H1235.2c-16.55,0-22.23,5.68-22.23,22.23v45.89h188.27v61.49H1213v50.61c0,16.56,5.68,22.24,22.23,22.24h172.18V937H1178c-30.75,0-50.14-15.14-50.14-50.62V657c0-35.48,19.39-51.09,50.14-51.09h227.52Z"/><path class="cls-2" d="M493.25,848.54c0,16.56-5.67,22.23-22.23,22.23H435.07c-66.22,0-88-21.28-88-99.33s21.76-99.34,88-99.34H568.78V605.88H402.43c-111.16,0-142.38,61.49-142.38,165.56S291.27,937,402.43,937H528.26c30.74,0,50.14-15.14,50.14-50.62V768.6H493.25Z"/><path class="cls-2" d="M833.6,932c-11-10.38-16.55-25.72-16.55-45.6V872.67H728.34c-16.56,0-22.23-5.68-22.23-22.23v-194c0-35.47-19.4-50.61-50.14-50.61H578.4V672.1h20.33c16.56,0,22.23,5.68,22.23,22.24v192c0,35.48,19.4,50.62,50.14,50.62H839.92A47.22,47.22,0,0,1,833.6,932Z"/><path class="cls-2" d="M1134.76,932c-11-10.38-16.55-25.72-16.55-45.6V872.67H934.05c-16.56,0-22.23-5.68-22.23-22.24V799.82h173.72V738.33H911.82V692.44c0-16.55,5.67-22.23,22.23-22.23H1089.8V605.88h-213c-30.74,0-50.14,15.61-50.14,51.09V886.38c0,35.48,19.4,50.62,50.14,50.62h264.27A46.6,46.6,0,0,1,1134.76,932Z"/></g><circle id="Moon" class="cls-4" cx="1380.13" cy="706.27" r="531.18"/><g id="Moon_Clip" data-name="Moon Clip"><g class="cls-5"><g id="GLEE_black" data-name="GLEE black"><path d="M1405.49,670.21H1235.2c-16.55,0-22.23,5.68-22.23,22.23v45.89h188.27v61.49H1213v50.61c0,16.56,5.68,22.24,22.23,22.24h172.18V937H1178c-30.75,0-50.14-15.14-50.14-50.62V657c0-35.48,19.39-51.09,50.14-51.09h227.52Z"/><path d="M493.25,848.54c0,16.56-5.67,22.23-22.23,22.23H435.07c-66.22,0-88-21.28-88-99.33s21.76-99.34,88-99.34H568.78V605.88H402.43c-111.16,0-142.38,61.49-142.38,165.56S291.27,937,402.43,937H528.26c30.74,0,50.14-15.14,50.14-50.62V768.6H493.25Z"/><path d="M833.6,932c-11-10.38-16.55-25.72-16.55-45.6V872.67H728.34c-16.56,0-22.23-5.68-22.23-22.23v-194c0-35.47-19.4-50.61-50.14-50.61H578.4V672.1h20.33c16.56,0,22.23,5.68,22.23,22.24v192c0,35.48,19.4,50.62,50.14,50.62H839.92A47.22,47.22,0,0,1,833.6,932Z"/><path d="M1134.76,932c-11-10.38-16.55-25.72-16.55-45.6V872.67H934.05c-16.56,0-22.23-5.68-22.23-22.24V799.82h173.72V738.33H911.82V692.44c0-16.55,5.67-22.23,22.23-22.23H1089.8V605.88h-213c-30.74,0-50.14,15.61-50.14,51.09V886.38c0,35.48,19.4,50.62,50.14,50.62h264.27A46.6,46.6,0,0,1,1134.76,932Z"/></g></g></g><g id="Stars_1" data-name="Stars 1"><circle class="cls-2" cx="849.83" cy="358.64" r="25.05"/><circle class="cls-2" cx="563.56" cy="547.62" r="25.05"/><circle class="cls-2" cx="610.98" cy="414.49" r="5.46"/><circle class="cls-2" cx="624.69" cy="424.55" r="5.46"/><circle class="cls-2" cx="639.63" cy="434.54" r="5.46"/><circle class="cls-2" cx="616.89" cy="455.15" r="5.46"/><circle class="cls-2" cx="500.5" cy="536.95" r="5.46"/><circle class="cls-2" cx="522.26" cy="563.35" r="5.46"/><circle class="cls-2" cx="707.92" cy="415.97" r="5.46"/><circle class="cls-2" cx="727.43" cy="297.22" r="5.46"/><circle class="cls-2" cx="761.26" cy="444.66" r="5.46"/><circle class="cls-2" cx="690.2" cy="364.11" r="7.2"/><circle class="cls-2" cx="759.94" cy="373.14" r="7.2"/><circle class="cls-2" cx="852.11" cy="497.01" r="7.2"/></g><g id="Stars_1-2" data-name="Stars 1"><circle class="cls-2" cx="1481.72" cy="1309.67" r="25.05"/><circle class="cls-2" cx="1427.94" cy="1443.6" r="25.05"/><circle class="cls-2" cx="1404.06" cy="1283.83" r="5.46"/><circle class="cls-2" cx="1277.44" cy="1421.28" r="5.46"/><circle class="cls-2" cx="1301.48" cy="1556.48" r="5.46"/><circle class="cls-2" cx="1098.51" cy="1453.62" r="5.46"/><circle class="cls-2" cx="1461.01" cy="1444.03" r="5.46"/><circle class="cls-2" cx="1278.45" cy="1352.21" r="5.46"/><circle class="cls-2" cx="1468.76" cy="1363.12" r="5.46"/><circle class="cls-2" cx="1414.23" cy="1414.59" r="5.46"/><circle class="cls-2" cx="1324.82" cy="1318.4" r="7.2"/><circle class="cls-2" cx="1324.82" cy="1362.17" r="7.2"/><circle class="cls-2" cx="1414.23" cy="1314.84" r="7.2"/><circle class="cls-2" cx="1501.63" cy="1352.28" r="7.2"/></g><g id="Stars_1-3" data-name="Stars 1"><circle class="cls-2" cx="331.98" cy="1243.8" r="25.05"/><circle class="cls-2" cx="406.82" cy="1269.18" r="5.46"/><circle class="cls-2" cx="391.44" cy="1200.61" r="5.46"/><circle class="cls-2" cx="440.76" cy="1131.54" r="5.46"/><circle class="cls-2" cx="395.09" cy="1035.78" r="5.46"/><circle class="cls-2" cx="396.94" cy="971.58" r="5.46"/><circle class="cls-2" cx="629.57" cy="1119.43" r="5.46"/><circle class="cls-2" cx="474.09" cy="1389.1" r="5.46"/><circle class="cls-2" cx="458.61" cy="1238.98" r="7.2"/><circle class="cls-2" cx="522.03" cy="1167.14" r="7.2"/><circle class="cls-2" cx="387.06" cy="1067.85" r="7.2"/><circle class="cls-2" cx="430.78" cy="1029.83" r="7.2"/></g><circle id="Earth" class="cls-6" cx="675.23" cy="1337.85" r="170.88"/><path class="cls-7" d="M685.25,1167.28c2.94,2.82,8.73,4,13.32,4.4s7.15,2.55,7.15,3.7,1.41,2.17,5.62,5.49,10,6.9,14,7.41c1.76.22,9.64,2.07,11.28,6.72,2,5.81,6.34,4.19,8.94,6.09,6.3,4.61,3.63,9.05-2.34,4.86-3.71-2.6-8.9.72-8.6-4.35.32-5.45-.89-6.13-3.58-3.55-2.11,2-6.61,1-7.4,2.65-.87,1.83,2.14,4.58,3.58,4.6,6.15.07,14.35,4,4.68,5.27-2.94.39-8.87,6-8.53,2.44.48-4.79-11.31-1.15-6.84,3.61,2,2.16.68,3.8-2.55,2.39-2.58-1.11-7,4-7.79,5-2.05,2.55-5.56,4.69-2.17,8.43,4,4.38-9.55,10.06-13.44,12.42-3.54,2.15-2.51,6.47-1.49,9.15s3.44,4,3.44,11.87-7.27,5.37-6.63,3.32-3.07-6.51-4.85-12.25-4.86-2-6.08-1.79-2.86-3.06-6.18-2.81-5.62.38-6.89,2.55-7.66,2.43-9.83.9-5.11-1.66-11.11,1.53-13.15,19.15-8.68,29.11,8.81,7.91,16.59,5.87-1.85-7.29,11.81-10.23,7,5.76,3.39,14.06,5.61,7.79,12.38,7.79,4.34,10.72,4.21,13.66-1.53,5.29,1.85,9.53c3.68,4.6,8.33,6,11.56,3.36,2.83-2.32,5.82-3,8-.51,8.83,9.74,8.7-2.4,16-6.77,6.82-4.06,12.68-5.61,17.28-1.78s13,2.55,19.27,1.91,14.3,5.23,16.73,9.45,5.87,7.53,11.23,6.38,12.26,3.19,13.41,10.6,5.74,11.87,22.46,17.74,8.69,18.64,5.24,23.75-8,17.61-14.55,30.51-15.07,12.25-21.32,18.89-9.71,13.28-17.49,20.68-16.6,14.81-23.11,16.85-12.38,5.49-21.57,11.62-18.13,15.06-21.83,15.06-8.68-2.3-7.92-5.87,2.94-6,12.64-17.87,13.53-26.3,16.47-39.83-4.85-14.43-10.85-16.73-7.66-10.21-11.49-18.12-6-9.83-8.81-13.66-4.6-8.94-2.94-19.15,7.66-10.73,12.26-17.49.25-12.89-2.68-20.17-7.15-.77-5.62,1-4.21,1.91-5.36.85S688,1336,682.87,1335s-2.1-2.38-4.59-4.64-6.26-1.24-6.34-4c-.15-4.63-1.1-4-4-7-3.77-3.86-4.09-5.5-9.11-5.58-4.65-.06-10.78-3-13.15-6.21-2.16-2.9-7.15-5.11-9.7-3.7s-6.51,1.15-10.85,0-10.21-5.62-17.11-9.19-6-5.11-5.49-11.75-4.46-9.83-7.27-13.27-5.75-10.47-7.41-15.83-2.8-.9-1.44,3.32,1.83,4.34,4.51,13.91-1.79,5.49-4.51-.89-7.36-18.51-6.47-24.39-4.34-5.61-4.47-13.91,4.09-14.55,7.92-18.64,9.31-15.19,14-27.59A170.09,170.09,0,0,1,675,1167Q680.17,1167,685.25,1167.28Zm10.69,115.85c2,2.42,5.11,4.6,10.59,5,7.64.53,13-.57,4.68-3.48-5.24-1.85-7.23-3-8.13-4s-4.08-3.49-5.23-3.36-2,.12-2.42-.3-10.48-4.32-19.87,3.1c-1.37,1.09.52,2.29,2.21,1.5,4.8-2.26,2.56,3.13,9.1,1C691.64,1281,694.37,1281.26,695.94,1283.13Zm4.68,12.17c.56.33,1,.21,1,.81s2.59,1.06,3.45.55a3.63,3.63,0,0,1,2.29-.13c.47,0,1.48-1,.81-1.49C705.44,1293,697.69,1293.56,700.62,1295.3Zm23.66,1c.41,1.49,1,2,2.12-.38a2.28,2.28,0,0,1,2.94-1.11,1.39,1.39,0,0,0,1.66-.51c.3-.47,2.41,0,3.32.21,1.11.31,3.34.76,2.47-1.94-.55-1.7-2.22-1.63-3.58-2.36s-2.08-.42-2-1.4-2-1.62-4.47-1-4.34,1.27-5.06.42-2.47-.42-3.75.47.68,1.24,1.2,1.53-.86,2.34-2.77,2.47c-2.35.17-2.19,1.74-.34,2.6,1.28.59,1.7-.51,4.3-.34C722.29,1295.09,723.94,1295.09,724.28,1296.32Z"/><rect class="cls-8" x="987.18" y="1274.35" width="107.76" height="107.76" transform="translate(-287.18 2369.3) rotate(-90)"/><rect class="cls-9" x="1022.45" y="1256.35" width="27.14" height="82.19" transform="translate(2333.47 261.43) rotate(90)"/><rect class="cls-10" x="852.52" y="1342.95" width="69.42" height="69.42" transform="translate(-490.43 2264.89) rotate(-90)"/><rect class="cls-11" x="876.14" y="1329.22" width="18.78" height="56.87" transform="translate(2243.18 472.12) rotate(90)"/><rect class="cls-12" x="772.31" y="1444.74" width="57.64" height="57.64" transform="translate(-672.43 2274.7) rotate(-90)"/><rect class="cls-13" x="790.58" y="1434.13" width="14.52" height="43.96" transform="translate(2253.94 658.28) rotate(90)"/><rect class="cls-14" x="765.55" y="1321.36" width="43.19" height="43.19" transform="translate(-555.81 2130.09) rotate(-90)"/><rect class="cls-15" x="779.23" y="1313.4" width="10.88" height="32.94" transform="translate(2114.54 545.21) rotate(90)"/><rect class="cls-16" x="695.64" y="1364.54" width="40.59" height="40.59" transform="translate(-668.91 2100.77) rotate(-90)"/><rect class="cls-17" x="708.5" y="1357.07" width="10.22" height="30.96" transform="translate(2086.16 658.94) rotate(90)"/><rect class="cls-18" x="619.11" y="1230.77" width="8.12" height="8.12" transform="translate(-611.65 1858) rotate(-90)"/><rect class="cls-19" x="621.68" y="1229.27" width="2.05" height="6.2" transform="translate(1855.08 609.66) rotate(90)"/><rect class="cls-20" x="627.23" y="1270.31" width="10.56" height="10.56" transform="translate(-643.08 1908.1) rotate(-90)"/><rect class="cls-21" x="630.58" y="1268.37" width="2.66" height="8.05" transform="translate(1904.3 640.48) rotate(90)"/><rect class="cls-22" x="654.47" y="1254.44" width="12.52" height="12.52" transform="translate(-599.97 1921.42) rotate(-90)"/><rect class="cls-23" x="658.43" y="1252.13" width="3.15" height="9.55" transform="translate(1916.92 596.9) rotate(90)"/><rect class="cls-24" x="632.51" y="1322.28" width="17.46" height="17.46" transform="translate(-689.76 1972.25) rotate(-90)"/><rect class="cls-25" x="638.04" y="1319.06" width="4.4" height="13.31" transform="translate(1965.96 685.48) rotate(90)"/><rect class="cls-26" x="685.45" y="1308.98" width="22.02" height="22.02" transform="translate(-623.53 2016.46) rotate(-90)"/><rect class="cls-27" x="692.43" y="1304.93" width="5.55" height="16.8" transform="translate(2008.53 618.12) rotate(90)"/><rect class="cls-28" x="916.36" y="1463.13" width="83.83" height="83.83" transform="translate(-546.77 2463.33) rotate(-90)"/><rect class="cls-29" x="942.92" y="1447.7" width="21.11" height="63.94" transform="translate(2433.14 526.19) rotate(90)"/><rect class="cls-30" x="1133.04" y="1383.94" width="119.5" height="119.5" transform="translate(-250.9 2636.48) rotate(-90)"/><rect class="cls-31" x="1170.9" y="1361.94" width="30.09" height="91.14" transform="translate(2593.45 221.56) rotate(90)"/><rect class="cls-32" x="1192.79" y="1202.47" width="107.76" height="107.76" transform="translate(-9.68 2503.02) rotate(-90)"/><rect class="cls-33" x="1226.93" y="1182.62" width="27.14" height="82.19" transform="translate(2464.22 -16.78) rotate(90)"/><rect class="cls-34" x="1055.92" y="1128.77" width="89.59" height="89.59" transform="translate(-72.85 2274.28) rotate(-90)"/><rect class="cls-35" x="1084.3" y="1112.27" width="22.56" height="68.33" transform="translate(2242.02 50.86) rotate(90)"/><rect class="cls-36" x="1263.82" y="1057.94" width="73.48" height="73.48" transform="translate(205.88 2395.23) rotate(-90)"/><rect class="cls-37" x="1287.09" y="1044.41" width="18.5" height="56.04" transform="translate(2368.77 -223.92) rotate(90)"/><rect class="cls-38" x="1375.54" y="1146.66" width="79.08" height="79.08" transform="translate(228.87 2601.28) rotate(-90)"/><rect class="cls-39" x="1400.59" y="1132.1" width="19.92" height="60.32" transform="translate(2572.8 -248.29) rotate(90)"/><rect class="cls-40" x="1140.37" y="1014.27" width="66.89" height="66.89" transform="translate(126.1 2221.53) rotate(-90)"/><rect class="cls-41" x="1161.56" y="1001.95" width="16.85" height="51.02" transform="translate(2197.45 -142.52) rotate(90)"/><rect class="cls-42" x="1414.72" y="1019.04" width="67.24" height="67.24" transform="translate(395.68 2501) rotate(-90)"/><rect class="cls-43" x="1436.02" y="1006.66" width="16.93" height="51.28" transform="translate(2476.78 -412.19) rotate(90)"/></g></g><text class="cls-44" transform="matrix(0.49, -0.87, 0.87, 0.49, 263.92, 615.05)">G</text><text class="cls-44" transform="translate(298.62 553.63) rotate(-56.85)">r</text><text class="cls-44" transform="translate(319.87 520.5) rotate(-53.32)">e</text><text class="cls-44" transform="matrix(0.65, -0.76, 0.76, 0.65, 353.97, 474.62)">a</text><text class="cls-44" transform="translate(391.71 431.38) rotate(-45.52)">t</text><text class="cls-44" transform="translate(420.75 402.07) rotate(-43.23)"> </text><text class="cls-44" transform="matrix(0.76, -0.65, 0.65, 0.76, 435.78, 387.3)">L</text><text class="cls-44" transform="translate(478.7 350.65) rotate(-36.06)">u</text><text class="cls-44" transform="matrix(0.85, -0.52, 0.52, 0.85, 527.63, 314.94)">n</text><text class="cls-44" transform="translate(579.34 283.14) rotate(-27.22)">a</text><text class="cls-44" transform="translate(630.91 256.88) rotate(-23.58)">r</text><text class="cls-44" transform="translate(668.34 240.75) rotate(-21.28)"> </text><text class="cls-44" transform="matrix(0.95, -0.31, 0.31, 0.95, 687.65, 232.53)">E</text><text class="cls-44" transform="matrix(0.97, -0.24, 0.24, 0.97, 749.1, 212.65)">x</text><text class="cls-44" transform="translate(800.42 199.91) rotate(-9.46)">p</text><text class="cls-44" transform="translate(861.34 189.8) rotate(-5.08)">e</text><text class="cls-44" transform="matrix(1, -0.02, 0.02, 1, 918.34, 184.72)">d</text><text class="cls-44" transform="translate(980.31 184.26) rotate(2.56)">i</text><text class="cls-44" transform="translate(1009.53 185.41) rotate(5.14)">t</text><text class="cls-44" transform="translate(1050.53 189.22) rotate(7.74)">i</text><text class="cls-44" transform="matrix(0.98, 0.19, -0.19, 0.98, 1079.35, 192.68)">o</text><text class="cls-44" transform="translate(1136.8 203.73) rotate(15.42)">n</text><text class="cls-44" transform="translate(1195.56 220.47) rotate(18.47)"> </text><text class="cls-44" transform="matrix(0.94, 0.35, -0.35, 0.94, 1215.78, 227.02)">f</text><text class="cls-44" transform="translate(1250.66 239.8) rotate(24.22)">o</text><text class="cls-44" transform="translate(1304.09 264.12) rotate(27.89)">r</text><text class="cls-44" transform="matrix(0.86, 0.5, -0.5, 0.86, 1340.03, 283.34)"> </text><text class="cls-44" transform="translate(1358.48 293.34) rotate(33.35)">E</text><text class="cls-44" transform="matrix(0.79, 0.61, -0.61, 0.79, 1411.5, 328.4)">v</text><text class="cls-44" transform="matrix(0.75, 0.66, -0.66, 0.75, 1452.97, 360.15)">e</text><text class="cls-44" transform="matrix(0.7, 0.71, -0.71, 0.7, 1495.72, 398.4)">r</text><text class="cls-44" transform="matrix(0.66, 0.75, -0.75, 0.66, 1524.37, 426.89)">y</text><text class="cls-44" transform="matrix(0.61, 0.8, -0.8, 0.61, 1559.4, 466.44)">o</text><text class="cls-44" transform="translate(1594.93 512.92) rotate(57.09)">n</text><text class="cls-44" transform="translate(1627.91 563.9) rotate(61.44)">e</text><text class="cls-44" transform="translate(245.39 1424.67) rotate(54.7)">C</text><text class="cls-44" transform="matrix(0.64, 0.76, -0.76, 0.64, 285.79, 1481.62)">O</text><text class="cls-44" transform="translate(333.52 1537.05) rotate(46.6)"> </text><text class="cls-44" transform="matrix(0.73, 0.69, -0.69, 0.73, 349.92, 1555.17)">S</text><text class="cls-44" transform="translate(400.86 1603.2) rotate(38.91)">p</text><text class="cls-44" transform="translate(452.77 1644.85) rotate(34.59)">a</text><text class="cls-44" transform="translate(504.13 1680.06) rotate(30.52)">c</text><text class="cls-44" transform="matrix(0.9, 0.45, -0.45, 0.9, 554.98, 1709.96)">e</text><text class="cls-44" transform="matrix(0.92, 0.4, -0.4, 0.92, 609.62, 1736.56)"> </text><text class="cls-44" transform="translate(631.94 1747.01) rotate(20.22)">G</text><text class="cls-44" transform="matrix(0.96, 0.28, -0.28, 0.96, 702.59, 1772.34)">r</text><text class="cls-44" transform="translate(744.07 1784.58) rotate(12.64)">a</text><text class="cls-44" transform="matrix(0.99, 0.14, -0.14, 0.99, 805.04, 1798.18)">n</text><text class="cls-44" transform="matrix(1, 0.08, -0.08, 1, 869.38, 1807.16)">t</text><text class="cls-44" transform="translate(913.04 1810.46) rotate(2.38)"> </text><text class="cls-44" transform="matrix(1, -0.02, 0.02, 1, 937.09, 1812.06)">-</text><text class="cls-44" transform="translate(987.5 1811.3) rotate(-2.54)"> </text><text class="cls-44" transform="translate(1012.25 1810.96) rotate(-6.03)">N</text><text class="cls-44" transform="translate(1092.83 1802.04) rotate(-11.16)">A</text><text class="cls-44" transform="translate(1161.83 1788.28) rotate(-15.9)">S</text><text class="cls-44" transform="translate(1228.76 1769.09) rotate(-20.64)">A</text><text class="cls-44" transform="translate(1293.66 1743.9) rotate(-23.83)"> </text><text class="cls-44" transform="translate(1315.68 1734.45) rotate(-26.35)">-</text><text class="cls-44" transform="matrix(0.88, -0.48, 0.48, 0.88, 1360.9, 1711.68)"> </text><text class="cls-44" transform="matrix(0.85, -0.53, 0.53, 0.85, 1382.6, 1700.35)">A</text><text class="cls-44" transform="translate(1441.79 1662.69) rotate(-35.88)">r</text><text class="cls-44" transform="matrix(0.78, -0.63, 0.63, 0.78, 1478.16, 1636.29)">t</text><text class="cls-44" transform="matrix(0.74, -0.67, 0.67, 0.74, 1512.31, 1608.97)">e</text><text class="cls-44" transform="matrix(0.67, -0.74, 0.74, 0.67, 1559.1, 1567.09)">m</text><text class="cls-44" transform="matrix(0.61, -0.79, 0.79, 0.61, 1622.93, 1494.91)">i</text><text class="cls-44" transform="translate(1643.07 1469.49) rotate(-55.07)">s</text></g></svg>