<svg xmlns="http://www.w3.org/2000/svg" xmlns:xlink="http://www.w3.org/1999/xlink" viewBox="0 0 1920 1920"><defs><style>.cls-1{fill:none;}.cls-2{fill:#1a1a1a;}.cls-3{fill:#fff;}.cls-4{clip-path:url(#clip-path);}.cls-5{fill:url(#linear-gradient);}.cls-6{clip-path:url(#clip-path-2);}.cls-7{fill:url(#New_Gradient_Swatch_copy);}.cls-8{fill:url(#New_Gradient_Swatch_copy_3);}.cls-9{fill:url(#New_Gradient_Swatch);}.cls-10{fill:url(#New_Gradient_Swatch_copy_2);}.cls-11{fill:url(#New_Gradient_Swatch-2);}.cls-12{fill:url(#New_Gradient_Swatch_copy_2-2);}.cls-13{fill:url(#New_Gradient_Swatch-3);}.cls-14{fill:url(#New_Gradient_Swatch_copy_2-3);}.cls-15{fill:url(#New_Gradient_Swatch-4);}.cls-16{fill:url(#New_Gradient_Swatch_copy_2-4);}.cls-17{fill:url(#New_Gradient_Swatch-5);}.cls-18{fill:url(#New_Gradient_Swatch_copy_2-5);}.cls-19{fill:url(#New_Gradient_Swatch-6);}.cls-20{fill:url(#New_Gradient_Swatch_copy_2-6);}.cls-21{fill:url(#New_Gradient_Swatch-7);}.cls-22{fill:url(#New_Gradient_Swatch_copy_2-7);}.cls-23{fill:url(#New_Gradient_Swatch-8);}.cls-24{fill:url(#New_Gradient_Swatch_copy_2-8);}.cls-25{fill:url(#New_Gradient_Swatch-9);}.cls-26{fill:url(#New_Gradient_Swatch_copy_2-9);}.cls-27{fill:url(#New_Gradient_Swatch-10);}.cls-28{fill:url(#New_Gradient_Swatch_copy_2-10);}.cls-29{fill:url(#New_Gradient_Swatch-11);}.cls-30{fill:url(#New_Gradient_Swatch_copy_2-11);}.cls-31{fill:url(#New_Gradient_Swatch-12);}.cls-32{fill:url(#New_Gradient_Swatch_copy_2-12);}.cls-33{fill:url(#New_Gradient_Swatch-13);}.cls-34{fill:url(#New_Gradient_Swatch_copy_2-13);}.cls-35{fill:url(#New_Gradient_Swatch-14);}.cls-36{fill:url(#New_Gradient_Swatch_copy_2-14);}.cls-37{fill:url(#New_Gradient_Swatch-15);}.cls-38{fill:url(#New_Gradient_Swatch_copy_2-15);}.cls-39{fill:url(#New_Gradient_Swatch-16);}.cls-40{fill:url(#New_Gradient_Swatch_copy_2-16);}.cls-41{fill:url(#New_Gradient_Swatch-17);}.cls-42{fill:url(#New_Gradient_Swatch_copy_2-17);}.cls-43{fill:url(#New_Gradient_Swatch-18);}.cls-44{fill:url(#New_Gradient_Swatch_copy_2-18);}</style><clipPath id="clip-path"><circle id="Main_Mask" data-name="Main Mask" class="cls-1" cx="960" cy="960" r="731.67"/></clipPath><linearGradient id="linear-gradient" x1="878.11" y1="880.27" x2="1882.15" y2="532.27" gradientUnits="userSpaceOnUse"><stop offset="0" stop-color="#fff"/><stop offset="0.14" stop-color="#e1e1e1"/><stop offset="0.45" stop-color="#949494"/><stop offset="0.91" stop-color="#1a1a1a"/><stop offset="1"/></linearGradient><clipPath id="clip-path-2"><circle id="Moon_Mask" data-name="Moon Mask" class="cls-1" cx="1380.13" cy="706.27" r="531.18"/></clipPath><linearGradient id="New_Gradient_Swatch_copy" x1="527.03" y1="1404.13" x2="839.08" y2="1264.57" gradientUnits="userSpaceOnUse"><stop offset="0" stop-color="#00a9b3"/><stop offset="0.15" stop-color="#09a7b9"/><stop offset="0.4" stop-color="#23a0c9"/><stop offset="0.57" stop-color="#389bd7"/><stop offset="0.87" stop-color="#0075be"/><stop offset="0.99" stop-color="#005b97"/></linearGradient><linearGradient id="New_Gradient_Swatch_copy_3" x1="625.36" y1="1356.66" x2="787.13" y2="1283.93" gradientUnits="userSpaceOnUse"><stop offset="0" stop-color="#39b54a"/><stop offset="0.14" stop-color="#30af49"/><stop offset="0.36" stop-color="#16a047"/><stop offset="0.52" stop-color="#009245"/><stop offset="1" stop-color="#006837"/></linearGradient><linearGradient id="New_Gradient_Swatch" x1="987.18" y1="1328.24" x2="1094.94" y2="1328.24" gradientTransform="translate(2369.3 287.18) rotate(90)" gradientUnits="userSpaceOnUse"><stop offset="0" stop-color="#fcb721"/><stop offset="0.22" stop-color="#f5af18"/><stop offset="0.52" stop-color="#e59e03"/><stop offset="1" stop-color="#f1681c"/></linearGradient><linearGradient id="New_Gradient_Swatch_copy_2" x1="994.92" y1="1297.45" x2="1077.11" y2="1297.45" gradientTransform="translate(-261.43 2333.47) rotate(-90)" gradientUnits="userSpaceOnUse"><stop offset="0" stop-color="#ad511a"/><stop offset="0.18" stop-color="#b6541c"/><stop offset="0.48" stop-color="#d05e23"/><stop offset="0.48" stop-color="#d05e23"/><stop offset="0.73" stop-color="#e06e1a"/><stop offset="1" stop-color="#ed7b13"/></linearGradient><linearGradient id="New_Gradient_Swatch-2" x1="852.52" y1="1377.66" x2="921.94" y2="1377.66" gradientTransform="translate(2264.89 490.43) rotate(90)" xlink:href="#New_Gradient_Swatch"/><linearGradient id="New_Gradient_Swatch_copy_2-2" x1="857.1" y1="1357.65" x2="913.97" y2="1357.65" gradientTransform="translate(-472.12 2243.18) rotate(-90)" xlink:href="#New_Gradient_Swatch_copy_2"/><linearGradient id="New_Gradient_Swatch-3" x1="772.31" y1="1473.56" x2="829.95" y2="1473.56" gradientTransform="translate(2274.7 672.43) rotate(90)" xlink:href="#New_Gradient_Swatch"/><linearGradient id="New_Gradient_Swatch_copy_2-3" x1="775.85" y1="1456.11" x2="819.81" y2="1456.11" gradientTransform="translate(-658.28 2253.94) rotate(-90)" xlink:href="#New_Gradient_Swatch_copy_2"/><linearGradient id="New_Gradient_Swatch-4" x1="765.55" y1="1342.95" x2="808.73" y2="1342.95" gradientTransform="translate(2130.09 555.81) rotate(90)" xlink:href="#New_Gradient_Swatch"/><linearGradient id="New_Gradient_Swatch_copy_2-4" x1="768.2" y1="1329.87" x2="801.13" y2="1329.87" gradientTransform="translate(-545.21 2114.54) rotate(-90)" xlink:href="#New_Gradient_Swatch_copy_2"/><linearGradient id="New_Gradient_Swatch-5" x1="695.64" y1="1384.84" x2="736.23" y2="1384.84" gradientTransform="translate(2100.77 668.91) rotate(90)" xlink:href="#New_Gradient_Swatch"/><linearGradient id="New_Gradient_Swatch_copy_2-5" x1="698.13" y1="1372.55" x2="729.09" y2="1372.55" gradientTransform="translate(-658.94 2086.16) rotate(-90)" xlink:href="#New_Gradient_Swatch_copy_2"/><linearGradient id="New_Gradient_Swatch-6" x1="619.11" y1="1234.83" x2="627.23" y2="1234.83" gradientTransform="translate(1858 611.65) rotate(90)" xlink:href="#New_Gradient_Swatch"/><linearGradient id="New_Gradient_Swatch_copy_2-6" x1="619.61" y1="1232.37" x2="625.81" y2="1232.37" gradientTransform="translate(-609.66 1855.08) rotate(-90)" xlink:href="#New_Gradient_Swatch_copy_2"/><linearGradient id="New_Gradient_Swatch-7" x1="627.23" y1="1275.59" x2="637.79" y2="1275.59" gradientTransform="translate(1908.1 643.08) rotate(90)" xlink:href="#New_Gradient_Swatch"/><linearGradient id="New_Gradient_Swatch_copy_2-7" x1="627.88" y1="1272.39" x2="635.93" y2="1272.39" gradientTransform="translate(-640.48 1904.3) rotate(-90)" xlink:href="#New_Gradient_Swatch_copy_2"/><linearGradient id="New_Gradient_Swatch-8" x1="654.47" y1="1260.7" x2="666.99" y2="1260.7" gradientTransform="translate(1921.42 599.97) rotate(90)" xlink:href="#New_Gradient_Swatch"/><linearGradient id="New_Gradient_Swatch_copy_2-8" x1="655.23" y1="1256.91" x2="664.78" y2="1256.91" gradientTransform="translate(-596.9 1916.92) rotate(-90)" xlink:href="#New_Gradient_Swatch_copy_2"/><linearGradient id="New_Gradient_Swatch-9" x1="632.51" y1="1331" x2="649.97" y2="1331" gradientTransform="translate(1972.25 689.76) rotate(90)" xlink:href="#New_Gradient_Swatch"/><linearGradient id="New_Gradient_Swatch_copy_2-9" x1="633.58" y1="1325.72" x2="646.9" y2="1325.72" gradientTransform="translate(-685.48 1965.96) rotate(-90)" xlink:href="#New_Gradient_Swatch_copy_2"/><linearGradient id="New_Gradient_Swatch-10" x1="685.45" y1="1319.99" x2="707.48" y2="1319.99" gradientTransform="translate(2016.46 623.53) rotate(90)" xlink:href="#New_Gradient_Swatch"/><linearGradient id="New_Gradient_Swatch_copy_2-10" x1="686.81" y1="1313.33" x2="703.6" y2="1313.33" gradientTransform="translate(-618.12 2008.53) rotate(-90)" xlink:href="#New_Gradient_Swatch_copy_2"/><linearGradient id="New_Gradient_Swatch-11" x1="916.36" y1="1505.05" x2="1000.19" y2="1505.05" gradientTransform="translate(2463.33 546.77) rotate(90)" xlink:href="#New_Gradient_Swatch"/><linearGradient id="New_Gradient_Swatch_copy_2-11" x1="921.51" y1="1479.66" x2="985.44" y2="1479.66" gradientTransform="translate(-526.19 2433.14) rotate(-90)" xlink:href="#New_Gradient_Swatch_copy_2"/><linearGradient id="New_Gradient_Swatch-12" x1="1133.04" y1="1443.69" x2="1252.54" y2="1443.69" gradientTransform="translate(2636.48 250.9) rotate(90)" xlink:href="#New_Gradient_Swatch"/><linearGradient id="New_Gradient_Swatch_copy_2-12" x1="1140.37" y1="1407.51" x2="1231.52" y2="1407.51" gradientTransform="translate(-221.56 2593.45) rotate(-90)" xlink:href="#New_Gradient_Swatch_copy_2"/><linearGradient id="New_Gradient_Swatch-13" x1="1192.79" y1="1256.35" x2="1300.55" y2="1256.35" gradientTransform="translate(2503.02 9.68) rotate(90)" xlink:href="#New_Gradient_Swatch"/><linearGradient id="New_Gradient_Swatch_copy_2-13" x1="1199.4" y1="1223.72" x2="1281.6" y2="1223.72" gradientTransform="translate(16.78 2464.22) rotate(-90)" xlink:href="#New_Gradient_Swatch_copy_2"/><linearGradient id="New_Gradient_Swatch-14" x1="1055.92" y1="1173.57" x2="1145.51" y2="1173.57" gradientTransform="translate(2274.28 72.85) rotate(90)" xlink:href="#New_Gradient_Swatch"/><linearGradient id="New_Gradient_Swatch_copy_2-14" x1="1061.42" y1="1146.44" x2="1129.75" y2="1146.44" gradientTransform="translate(-50.86 2242.02) rotate(-90)" xlink:href="#New_Gradient_Swatch_copy_2"/><linearGradient id="New_Gradient_Swatch-15" x1="1263.82" y1="1094.68" x2="1337.29" y2="1094.68" gradientTransform="translate(2395.23 -205.88) rotate(90)" xlink:href="#New_Gradient_Swatch"/><linearGradient id="New_Gradient_Swatch_copy_2-15" x1="1268.32" y1="1072.43" x2="1324.37" y2="1072.43" gradientTransform="translate(223.92 2368.77) rotate(-90)" xlink:href="#New_Gradient_Swatch_copy_2"/><linearGradient id="New_Gradient_Swatch-16" x1="1375.54" y1="1186.2" x2="1454.62" y2="1186.2" gradientTransform="translate(2601.28 -228.87) rotate(90)" xlink:href="#New_Gradient_Swatch"/><linearGradient id="New_Gradient_Swatch_copy_2-16" x1="1380.39" y1="1162.26" x2="1440.7" y2="1162.26" gradientTransform="translate(248.29 2572.8) rotate(-90)" xlink:href="#New_Gradient_Swatch_copy_2"/><linearGradient id="New_Gradient_Swatch-17" x1="1140.37" y1="1047.72" x2="1207.26" y2="1047.72" gradientTransform="translate(2221.53 -126.1) rotate(90)" xlink:href="#New_Gradient_Swatch"/><linearGradient id="New_Gradient_Swatch_copy_2-17" x1="1144.48" y1="1027.46" x2="1195.49" y2="1027.46" gradientTransform="translate(142.52 2197.45) rotate(-90)" xlink:href="#New_Gradient_Swatch_copy_2"/><linearGradient id="New_Gradient_Swatch-18" x1="1414.72" y1="1052.66" x2="1481.96" y2="1052.66" gradientTransform="translate(2501 -395.68) rotate(90)" xlink:href="#New_Gradient_Swatch"/><linearGradient id="New_Gradient_Swatch_copy_2-18" x1="1418.84" y1="1032.3" x2="1470.13" y2="1032.3" gradientTransform="translate(412.19 2476.78) rotate(-90)" xlink:href="#New_Gradient_Swatch_copy_2"/></defs><g id="Layer_1" data-name="Layer 1"><rect class="cls-2" width="1920" height="1920"/></g><g id="Patches"><g id="Patch_Idea_3" data-name="Patch Idea 3"><circle id="Blackground" cx="960" cy="960" r="910.89"/><g id="White_Ring" data-name="White Ring"><path class="cls-3" d="M960,228.33c404.09,0,731.67,327.58,731.67,731.67S1364.09,1691.67,960,1691.67,228.33,1364.09,228.33,960,555.91,228.33,960,228.33m0-11A739.24,739.24,0,0,0,544.76,344.18,744.85,744.85,0,0,0,275.7,670.92a741.68,741.68,0,0,0,68.48,704.32A744.85,744.85,0,0,0,670.92,1644.3a741.68,741.68,0,0,0,704.32-68.48,744.85,744.85,0,0,0,269.06-326.74,741.68,741.68,0,0,0-68.48-704.32A744.85,744.85,0,0,0,1249.08,275.7,738,738,0,0,0,960,217.33Z"/></g><g id="Main_Clip" data-name="Main Clip"><g class="cls-4"><g id="GLEE_white" data-name="GLEE white"><path class="cls-3" d="M1405.49,670.21H1235.2c-16.55,0-22.23,5.68-22.23,22.23v45.89h188.27v61.49H1213v50.61c0,16.56,5.68,22.24,22.23,22.24h172.18V937H1178c-30.75,0-50.14-15.14-50.14-50.62V657c0-35.48,19.39-51.09,50.14-51.09h227.52Z"/><path class="cls-3" d="M493.25,848.54c0,16.56-5.67,22.23-22.23,22.23H435.07c-66.22,0-88-21.28-88-99.33s21.76-99.34,88-99.34H568.78V605.88H402.43c-111.16,0-142.38,61.49-142.38,165.56S291.27,937,402.43,937H528.26c30.74,0,50.14-15.14,50.14-50.62V768.6H493.25Z"/><path class="cls-3" d="M833.6,932c-11-10.38-16.55-25.72-16.55-45.6V872.67H728.34c-16.56,0-22.23-5.68-22.23-22.23v-194c0-35.47-19.4-50.61-50.14-50.61H578.4V672.1h20.33c16.56,0,22.23,5.68,22.23,22.24v192c0,35.48,19.4,50.62,50.14,50.62H839.92A47.22,47.22,0,0,1,833.6,932Z"/><path class="cls-3" d="M1134.76,932c-11-10.38-16.55-25.72-16.55-45.6V872.67H934.05c-16.56,0-22.23-5.68-22.23-22.24V799.82h173.72V738.33H911.82V692.44c0-16.55,5.67-22.23,22.23-22.23H1089.8V605.88h-213c-30.74,0-50.14,15.61-50.14,51.09V886.38c0,35.48,19.4,50.62,50.14,50.62h264.27A46.6,46.6,0,0,1,1134.76,932Z"/></g><circle id="Moon" class="cls-5" cx="1380.13" cy="706.27" r="531.18"/><g id="Moon_Clip" data-name="Moon Clip"><g class="cls-6"><g id="GLEE_black" data-name="GLEE black"><path d="M1405.49,670.21H1235.2c-16.55,0-22.23,5.68-22.23,22.23v45.89h188.27v61.49H1213v50.61c0,16.56,5.68,22.24,22.23,22.24h172.18V937H1178c-30.75,0-50.14-15.14-50.14-50.62V657c0-35.48,19.39-51.09,50.14-51.09h227.52Z"/><path d="M493.25,848.54c0,16.56-5.67,22.23-22.23,22.23H435.07c-66.22,0-88-21.28-88-99.33s21.76-99.34,88-99.34H568.78V605.88H402.43c-111.16,0-142.38,61.49-142.38,165.56S291.27,937,402.43,937H528.26c30.74,0,50.14-15.14,50.14-50.62V768.6H493.25Z"/><path d="M833.6,932c-11-10.38-16.55-25.72-16.55-45.6V872.67H728.34c-16.56,0-22.23-5.68-22.23-22.23v-194c0-35.47-19.4-50.61-50.14-50.61H578.4V672.1h20.33c16.56,0,22.23,5.68,22.23,22.24v192c0,35.48,19.4,50.62,50.14,50.62H839.92A47.22,47.22,0,0,1,833.6,932Z"/><path d="M1134.76,932c-11-10.38-16.55-25.72-16.55-45.6V872.67H934.05c-16.56,0-22.23-5.68-22.23-22.24V799.82h173.72V738.33H911.82V692.44c0-16.55,5.67-22.23,22.23-22.23H1089.8V605.88h-213c-30.74,0-50.14,15.61-50.14,51.09V886.38c0,35.48,19.4,50.62,50.14,50.62h264.27A46.6,46.6,0,0,1,1134.76,932Z"/></g></g></g><g id="Stars_1" data-name="Stars 1"><path class="cls-3" d="M826.05,358.64c10.43,1.05,15.41,2.08,18.56,5.23s4.17,8.12,5.22,18.55c1-10.43,2.08-15.41,5.22-18.55s8.12-4.18,18.56-5.23c-10.44-1.05-15.42-2.08-18.56-5.22s-4.17-8.12-5.22-18.56c-1.05,10.44-2.08,15.42-5.22,18.56S836.48,357.59,826.05,358.64Z"/><path class="cls-3" d="M539.78,547.62c10.44,1,15.42,2.08,18.56,5.22s4.17,8.12,5.22,18.56c1.05-10.44,2.08-15.42,5.23-18.56s8.12-4.17,18.55-5.22c-10.43-1-15.41-2.08-18.55-5.23s-4.18-8.12-5.23-18.55c-1,10.43-2.08,15.41-5.22,18.55S550.22,546.57,539.78,547.62Z"/><circle class="cls-3" cx="610.98" cy="414.49" r="5.46"/><circle class="cls-3" cx="624.69" cy="424.55" r="5.46"/><circle class="cls-3" cx="639.63" cy="434.54" r="5.46"/><circle class="cls-3" cx="616.89" cy="455.15" r="5.46"/><circle class="cls-3" cx="500.5" cy="536.95" r="5.46"/><circle class="cls-3" cx="522.26" cy="563.35" r="5.46"/><circle class="cls-3" cx="707.92" cy="415.97" r="5.46"/><circle class="cls-3" cx="727.43" cy="297.22" r="5.46"/><circle class="cls-3" cx="761.26" cy="444.66" r="5.46"/><circle class="cls-3" cx="690.2" cy="364.11" r="7.2"/><circle class="cls-3" cx="759.94" cy="373.14" r="7.2"/><circle class="cls-3" cx="852.11" cy="497.01" r="7.2"/></g><g id="Stars_1-2" data-name="Stars 1"><path class="cls-3" d="M1404.16,1443.6c10.44,1.05,15.42,2.08,18.56,5.22s4.17,8.12,5.22,18.56c1-10.44,2.09-15.42,5.23-18.56s8.12-4.17,18.56-5.22c-10.44-1-15.42-2.08-18.56-5.22s-4.18-8.12-5.23-18.56c-1,10.44-2.08,15.42-5.22,18.56S1414.6,1442.55,1404.16,1443.6Z"/><path class="cls-3" d="M1457.94,1309.67c10.44,1,15.42,2.09,18.56,5.23s4.18,8.12,5.23,18.56c1-10.44,2.08-15.42,5.22-18.56s8.12-4.18,18.56-5.23c-10.44-1.05-15.42-2.08-18.56-5.22s-4.18-8.12-5.22-18.56c-1,10.44-2.09,15.42-5.23,18.56S1468.38,1308.62,1457.94,1309.67Z"/><circle class="cls-3" cx="1404.06" cy="1283.83" r="5.46"/><circle class="cls-3" cx="1277.44" cy="1421.28" r="5.46"/><circle class="cls-3" cx="1301.48" cy="1556.48" r="5.46"/><circle class="cls-3" cx="1098.51" cy="1453.62" r="5.46"/><circle class="cls-3" cx="1461.01" cy="1444.03" r="5.46"/><circle class="cls-3" cx="1278.45" cy="1352.21" r="5.46"/><circle class="cls-3" cx="1468.76" cy="1363.12" r="5.46"/><circle class="cls-3" cx="1414.23" cy="1414.59" r="5.46"/><circle class="cls-3" cx="1324.82" cy="1318.4" r="7.2"/><circle class="cls-3" cx="1324.82" cy="1362.17" r="7.2"/><circle class="cls-3" cx="1414.23" cy="1314.84" r="7.2"/><circle class="cls-3" cx="1501.63" cy="1352.28" r="7.2"/></g><g id="Stars_1-3" data-name="Stars 1"><path class="cls-3" d="M308.2,1243.8c10.44,1,15.42,2.08,18.56,5.22s4.17,8.12,5.22,18.56c1-10.44,2.08-15.42,5.22-18.56s8.12-4.17,18.56-5.22c-10.44-1-15.42-2.08-18.56-5.22S333,1230.46,332,1220c-1.05,10.44-2.08,15.42-5.22,18.56S318.64,1242.75,308.2,1243.8Z"/><circle class="cls-3" cx="406.82" cy="1269.18" r="5.46"/><circle class="cls-3" cx="391.44" cy="1200.61" r="5.46"/><circle class="cls-3" cx="440.76" cy="1131.54" r="5.46"/><circle class="cls-3" cx="395.09" cy="1035.78" r="5.46"/><circle class="cls-3" cx="396.94" cy="971.58" r="5.46"/><circle class="cls-3" cx="629.57" cy="1119.43" r="5.46"/><circle class="cls-3" cx="474.09" cy="1389.1" r="5.46"/><circle class="cls-3" cx="458.61" cy="1238.98" r="7.2"/><circle class="cls-3" cx="522.03" cy="1167.14" r="7.2"/><circle class="cls-3" cx="387.06" cy="1067.85" r="7.2"/><circle class="cls-3" cx="430.78" cy="1029.83" r="7.2"/></g><circle id="Earth" class="cls-7" cx="675.23" cy="1337.85" r="170.88"/><path class="cls-8" d="M685.25,1167.28c2.94,2.82,8.73,4,13.32,4.4s7.15,2.55,7.15,3.7,1.41,2.17,5.62,5.49,10,6.9,14,7.41c1.76.22,9.64,2.07,11.28,6.72,2,5.81,6.34,4.19,8.94,6.09,6.3,4.61,3.63,9.05-2.34,4.86-3.71-2.6-8.9.72-8.6-4.35.32-5.45-.89-6.13-3.58-3.55-2.11,2-6.61,1-7.4,2.65-.87,1.83,2.14,4.58,3.58,4.6,6.15.07,14.35,4,4.68,5.27-2.94.39-8.87,6-8.53,2.44.48-4.79-11.31-1.15-6.84,3.61,2,2.16.68,3.8-2.55,2.39-2.58-1.11-7,4-7.79,5-2.05,2.55-5.56,4.69-2.17,8.43,4,4.38-9.55,10.06-13.44,12.42-3.54,2.15-2.51,6.47-1.49,9.15s3.44,4,3.44,11.87-7.27,5.37-6.63,3.32-3.07-6.51-4.85-12.25-4.86-2-6.08-1.79-2.86-3.06-6.18-2.81-5.62.38-6.89,2.55-7.66,2.43-9.83.9-5.11-1.66-11.11,1.53-13.15,19.15-8.68,29.11,8.81,7.91,16.59,5.87-1.85-7.29,11.81-10.23,7,5.76,3.39,14.06,5.61,7.79,12.38,7.79,4.34,10.72,4.21,13.66-1.53,5.29,1.85,9.53c3.68,4.6,8.33,6,11.56,3.36,2.83-2.32,5.82-3,8-.51,8.83,9.74,8.7-2.4,16-6.77,6.82-4.06,12.68-5.61,17.28-1.78s13,2.55,19.27,1.91,14.3,5.23,16.73,9.45,5.87,7.53,11.23,6.38,12.26,3.19,13.41,10.6,5.74,11.87,22.46,17.74,8.69,18.64,5.24,23.75-8,17.61-14.55,30.51-15.07,12.25-21.32,18.89-9.71,13.28-17.49,20.68-16.6,14.81-23.11,16.85-12.38,5.49-21.57,11.62-18.13,15.06-21.83,15.06-8.68-2.3-7.92-5.87,2.94-6,12.64-17.87,13.53-26.3,16.47-39.83-4.85-14.43-10.85-16.73-7.66-10.21-11.49-18.12-6-9.83-8.81-13.66-4.6-8.94-2.94-19.15,7.66-10.73,12.26-17.49.25-12.89-2.68-20.17-7.15-.77-5.62,1-4.21,1.91-5.36.85S688,1336,682.87,1335s-2.1-2.38-4.59-4.64-6.26-1.24-6.34-4c-.15-4.63-1.1-4-4-7-3.77-3.86-4.09-5.5-9.11-5.58-4.65-.06-10.78-3-13.15-6.21-2.16-2.9-7.15-5.11-9.7-3.7s-6.51,1.15-10.85,0-10.21-5.62-17.11-9.19-6-5.11-5.49-11.75-4.46-9.83-7.27-13.27-5.75-10.47-7.41-15.83-2.8-.9-1.44,3.32,1.83,4.34,4.51,13.91-1.79,5.49-4.51-.89-7.36-18.51-6.47-24.39-4.34-5.61-4.47-13.91,4.09-14.55,7.92-18.64,9.31-15.19,14-27.59A170.09,170.09,0,0,1,675,1167Q680.17,1167,685.25,1167.28Zm10.69,115.85c2,2.42,5.11,4.6,10.59,5,7.64.53,13-.57,4.68-3.48-5.24-1.85-7.23-3-8.13-4s-4.08-3.49-5.23-3.36-2,.12-2.42-.3-10.48-4.32-19.87,3.1c-1.37,1.09.52,2.29,2.21,1.5,4.8-2.26,2.56,3.13,9.1,1C691.64,1281,694.37,1281.26,695.94,1283.13Zm4.68,12.17c.56.33,1,.21,1,.81s2.59,1.06,3.45.55a3.63,3.63,0,0,1,2.29-.13c.47,0,1.48-1,.81-1.49C705.44,1293,697.69,1293.56,700.62,1295.3Zm23.66,1c.41,1.49,1,2,2.12-.38a2.28,2.28,0,0,1,2.94-1.11,1.39,1.39,0,0,0,1.66-.51c.3-.47,2.41,0,3.32.21,1.11.31,3.34.76,2.47-1.94-.55-1.7-2.22-1.63-3.58-2.36s-2.08-.42-2-1.4-2-1.62-4.47-1-4.34,1.27-5.06.42-2.47-.42-3.75.47.68,1.24,1.2,1.53-.86,2.34-2.77,2.47c-2.35.17-2.19,1.74-.34,2.6,1.28.59,1.7-.51,4.3-.34C722.29,1295.09,723.94,1295.09,724.28,1296.32Z"/><rect class="cls-9" x="987.18" y="1274.35" width="107.76" height="107.76" transform="translate(-287.18 2369.3) rotate(-90)"/><rect class="cls-10" x="1022.45" y="1256.35" width="27.14" height="82.19" transform="translate(2333.47 261.43) rotate(90)"/><rect class="cls-11" x="852.52" y="1342.95" width="69.42" height="69.42" transform="translate(-490.43 2264.89) rotate(-90)"/><rect class="cls-12" x="876.14" y="1329.22" width="18.78" height="56.87" transform="translate(2243.18 472.12) rotate(90)"/><rect class="cls-13" x="772.31" y="1444.74" width="57.64" height="57.64" transform="translate(-672.43 2274.7) rotate(-90)"/><rect class="cls-14" x="790.58" y="1434.13" width="14.52" height="43.96" transform="translate(2253.94 658.28) rotate(90)"/><rect class="cls-15" x="765.55" y="1321.36" width="43.19" height="43.19" transform="translate(-555.81 2130.09) rotate(-90)"/><rect class="cls-16" x="779.23" y="1313.4" width="10.88" height="32.94" transform="translate(2114.54 545.21) rotate(90)"/><rect class="cls-17" x="695.64" y="1364.54" width="40.59" height="40.59" transform="translate(-668.91 2100.77) rotate(-90)"/><rect class="cls-18" x="708.5" y="1357.07" width="10.22" height="30.96" transform="translate(2086.16 658.94) rotate(90)"/><rect class="cls-19" x="619.11" y="1230.77" width="8.12" height="8.12" transform="translate(-611.65 1858) rotate(-90)"/><rect class="cls-20" x="621.68" y="1229.27" width="2.05" height="6.2" transform="translate(1855.08 609.66) rotate(90)"/><rect class="cls-21" x="627.23" y="1270.31" width="10.56" height="10.56" transform="translate(-643.08 1908.1) rotate(-90)"/><rect class="cls-22" x="630.58" y="1268.37" width="2.66" height="8.05" transform="translate(1904.3 640.48) rotate(90)"/><rect class="cls-23" x="654.47" y="1254.44" width="12.52" height="12.52" transform="translate(-599.97 1921.42) rotate(-90)"/><rect class="cls-24" x="658.43" y="1252.13" width="3.15" height="9.55" transform="translate(1916.92 596.9) rotate(90)"/><rect class="cls-25" x="632.51" y="1322.28" width="17.46" height="17.46" transform="translate(-689.76 1972.25) rotate(-90)"/><rect class="cls-26" x="638.04" y="1319.06" width="4.4" height="13.31" transform="translate(1965.96 685.48) rotate(90)"/><rect class="cls-27" x="685.45" y="1308.98" width="22.02" height="22.02" transform="translate(-623.53 2016.46) rotate(-90)"/><rect class="cls-28" x="692.43" y="1304.93" width="5.55" height="16.8" transform="translate(2008.53 618.12) rotate(90)"/><rect class="cls-29" x="916.36" y="1463.13" width="83.83" height="83.83" transform="translate(-546.77 2463.33) rotate(-90)"/><rect class="cls-30" x="942.92" y="1447.7" width="21.11" height="63.94" transform="translate(2433.14 526.19) rotate(90)"/><rect class="cls-31" x="1133.04" y="1383.94" width="119.5" height="119.5" transform="translate(-250.9 2636.48) rotate(-90)"/><rect class="cls-32" x="1170.9" y="1361.94" width="30.09" height="91.14" transform="translate(2593.45 221.56) rotate(90)"/><rect class="cls-33" x="1192.79" y="1202.47" width="107.76" height="107.76" transform="translate(-9.68 2503.02) rotate(-90)"/><rect class="cls-34" x="1226.93" y="1182.62" width="27.14" height="82.19" transform="translate(2464.22 -16.78) rotate(90)"/><rect class="cls-35" x="1055.92" y="1128.77" width="89.59" height="89.59" transform="translate(-72.85 2274.28) rotate(-90)"/><rect class="cls-36" x="1084.3" y="1112.27" width="22.56" height="68.33" transform="translate(2242.02 50.86) rotate(90)"/><rect class="cls-37" x="1263.82" y="1057.94" width="73.48" height="73.48" transform="translate(205.88 2395.23) rotate(-90)"/><rect class="cls-38" x="1287.09" y="1044.41" width="18.5" height="56.04" transform="translate(2368.77 -223.92) rotate(90)"/><rect class="cls-39" x="1375.54" y="1146.66" width="79.08" height="79.08" transform="translate(228.87 2601.28) rotate(-90)"/><rect class="cls-40" x="1400.59" y="1132.1" width="19.92" height="60.32" transform="translate(2572.8 -248.29) rotate(90)"/><rect class="cls-41" x="1140.37" y="1014.27" width="66.89" height="66.89" transform="translate(126.1 2221.53) rotate(-90)"/><rect class="cls-42" x="1161.56" y="1001.95" width="16.85" height="51.02" transform="translate(2197.45 -142.52) rotate(90)"/><rect class="cls-43" x="1414.72" y="1019.04" width="67.24" height="67.24" transform="translate(395.68 2501) rotate(-90)"/><rect class="cls-44" x="1436.02" y="1006.66" width="16.93" height="51.28" transform="translate(2476.78 -412.19) rotate(90)"/></g></g><path class="cls-3" d="M291.36,565.67l-7.92-2.6c2.69,4,3.72,12.76-.73,21-4.09,7.57-9.74,13.2-18,15.33-10.84,2.87-20.48-.33-31.13-6.24s-18.32-12-21.46-23c-2.2-7.72-.73-16.63,3.14-23.6,4.44-8,11.2-13.24,18.15-15.15a22.93,22.93,0,0,1,16.44,1.33l-6.73,12.12c-2.67-1.25-5.13-.93-7.55-.47-3.94.81-7.21,3.68-9.71,8.17a17.52,17.52,0,0,0-1.51,13.1c2.18,7.1,9.95,12.14,15.92,15.45s14.67,7.32,21.85,5.42c4.18-1,7.91-4.49,10-8.26a15,15,0,0,0,1.64-11.82c-1.73-5.53-5.36-8.5-10.32-11.26l-8.62,15.51L245,565.24l15-27,35.61,19.79Z"/><path class="cls-3" d="M282.07,500.44c-5.05,7.73-2.15,15.39,5.23,20.22l23,15-7.23,11.08-45.71-29.86,6.09-9.32,7.48,3.51c-3.89-5.55-2.53-12.44,1-17.8a26.94,26.94,0,0,1,2.51-3.26L285,496.94A23,23,0,0,0,282.07,500.44Z"/><path class="cls-3" d="M333.67,463.13l-21.83,29.31a14.44,14.44,0,0,0,11,3.2,11.54,11.54,0,0,0,7.53-4.48c2.26-3,3.05-5.33,2.66-8a10,10,0,0,0-2.14-4.87l7.53-10.1c2.42,2.2,4.55,6.54,5.32,9.73,1.62,7-.69,13.75-4.83,19.31a23.83,23.83,0,0,1-15.67,9.8c-7.47,1.24-15.38-1-22.53-6.31-7-5.2-11.66-11.95-12.82-19.36-.92-5.79.4-12.14,4.86-18.12,4.82-6.48,11.83-10.43,20-10,7.18.38,12.71,3.32,18.06,7.56C330.78,460.85,332.74,462.44,333.67,463.13Zm-25.11,1.73c-2.59.3-5.23,1.74-7.49,4.77a11.17,11.17,0,0,0-2.08,9.83,13.34,13.34,0,0,0,5.12,7.36l14.12-18.95C314.88,465.51,311.66,464.55,308.56,464.86Z"/><path class="cls-3" d="M386.85,437.94c-3.71,4.29-8.48,4.33-11.85,2,1.69,4.79.42,12-4.67,17.9-8.52,9.84-19.11,9.56-25.86,3.72-7.86-6.81-7.09-16.84-.84-25.18l9.65-12.9-2.54-2.2c-3.89-3.37-7.68-4.29-12.56,1.35-4,4.6-4.26,9.09-.66,12.63l-8.32,9.6c-8.8-8.6-6.54-19.55,1.44-28.76,6.12-7.06,13.56-11.17,21.82-8.19,3.51,1.23,6.58,3.62,9.36,6l15.32,13.26c1.91,1.65,3.17,1.64,4.61,0a8.07,8.07,0,0,0,.94-1.41l7.31,6.33A13.31,13.31,0,0,1,386.85,437.94Zm-26.19-8.1L352.38,441c-2.38,3.22-3.09,7.74.24,10.63s7.57,1.69,10.25-1.41c5.36-6.19,5.81-13.44-.31-18.74Z"/><path class="cls-3" d="M411.7,412.07c-7.72,7.86-16.05,7.34-23.54,0l-19.78-19.42-7,7.12-7.72-7.58,7-7.12-9.89-9.71,6.87-11.64,12.21,12,9.64-9.82,7.72,7.58-9.64,9.81,18.95,18.61c3,2.95,5.6,2.85,8.54-.15a66,66,0,0,0,5.58-6.43l7.87,7.72A45,45,0,0,1,411.7,412.07Z"/><path class="cls-3" d="M442.42,381.66,394.2,324.93l10.32-8.77,39.92,47,26.32-22.37,8.3,9.76Z"/><path class="cls-3" d="M513.33,325.43l-5-5.22c1,5.88-2,12-7.64,16.09-9.42,6.86-19.91,4.76-26.78-4.66L452.5,302.18l10.61-7.72,19.71,27.07c3.78,5.18,8.16,6.92,13.76,2.84a9,9,0,0,0,3.83-6.16c.82-4.23-1.41-8.71-4-12.28l-17-23.34L490,274.86,522.16,319Z"/><path class="cls-3" d="M563,293.16l-17.55-28.52c-3.36-5.46-7.18-7.67-13.09-4-3.93,2.42-5,6.52-4.41,10.86.64,4.65,3.7,9.43,6.12,13.36l11.67,19-11.18,6.88L506,264.16l9.39-5.78,4.49,5.5c-.26-6.63,3.91-12.28,9.28-15.58,9.93-6.1,20-2.71,26,6.95l19.1,31Z"/><path class="cls-3" d="M623.52,261.36c-5,2.59-9.48.86-11.73-2.59-.22,5.07-4.09,11.31-11,14.87-11.58,6-21.3,1.75-25.38-6.19-4.76-9.24-.31-18.26,8.6-23.67l13.76-8.38-1.54-3c-2.35-4.57-5.53-6.84-12.16-3.43-5.41,2.79-7.34,6.85-5.31,11.48l-11.3,5.81c-5-11.26,1.22-20.58,12-26.16,8.31-4.27,16.75-5.31,23.3.53,2.8,2.46,4.76,5.82,6.44,9.09l9.27,18c1.16,2.24,2.34,2.69,4.3,1.69a8.27,8.27,0,0,0,1.39-1l4.42,8.59A13.27,13.27,0,0,1,623.52,261.36Zm-21.29-17.28-11.84,7.28c-3.4,2.1-5.75,6-3.74,9.95,1.92,3.73,6.39,4.39,10,2.51,7.28-3.74,10.4-10.31,6.7-17.5Z"/><path class="cls-3" d="M646.24,203.33C637.77,207,636,215,639.52,223.11l11,25.21-12.13,5.29-21.84-50,10.2-4.45,4.33,7c-.21-6.78,4.71-11.79,10.58-14.35a25.79,25.79,0,0,1,3.88-1.35l5,11.55A21.46,21.46,0,0,0,646.24,203.33Z"/><path class="cls-3" d="M695.92,229.84l-23.11-70.77,50.4-16.46L727,154.29,689.5,166.55,694.88,183l33-10.78,3.78,11.57-33,10.79L705,214l37.53-12.25,3.81,11.68Z"/><path class="cls-3" d="M776.6,177.41l24.73,22.5L787,203.42l-16.17-14.86-7.3,20.59-14,3.4,12-31.56-25-21.45L751.15,156l16,14.25,7.34-19.95,14-3.41Z"/><path class="cls-3" d="M848.16,188.87a20.49,20.49,0,0,1-12.43,6.54c-6.42,1.07-12-.34-15-2.93L824.86,217l-13,2.15L799.5,144.71l11.19-1.86,1.81,5.76c2.38-5.5,8-8.68,13.93-9.66a20.55,20.55,0,0,1,13.81,2.38c7.3,4.21,11.86,11.76,13.55,21.91C855.55,173.8,853.7,182.52,848.16,188.87Zm-13.1-35.82a10.79,10.79,0,0,0-9.41-2.8c-10.15,1.69-10.61,11.67-9.32,19.44s5,16.95,15.11,15.26a10.77,10.77,0,0,0,8-5.69c2.1-4,2-9,1.24-13.62S838.34,156.12,835.06,153.05Z"/><path class="cls-3" d="M913.34,161.89l-36.4,3.23a14.4,14.4,0,0,0,4.93,10.31,11.5,11.5,0,0,0,8.35,2.64c3.76-.34,6-1.28,7.71-3.32a10,10,0,0,0,2.21-4.84l12.55-1.11c0,3.27-1.84,7.75-3.71,10.44-4.12,5.85-10.72,8.65-17.62,9.27a23.85,23.85,0,0,1-17.75-5.17c-5.9-4.75-9.51-12.12-10.3-21-.77-8.68,1.16-16.66,5.91-22.45,3.71-4.55,9.32-7.79,16.75-8.45,8-.71,15.66,1.88,20.76,8.28,4.5,5.6,6,11.69,6.39,18.51C913.12,158.22,913.24,160.74,913.34,161.89Zm-18-17.59c-1.94-1.72-4.77-2.74-8.54-2.4a11.17,11.17,0,0,0-8.72,5,13.38,13.38,0,0,0-2.08,8.72l23.54-2.09C899.06,149.45,897.63,146.42,895.33,144.3Z"/><path class="cls-3" d="M961.91,184l-.93-6c-3.18,5.09-9.23,7.39-15.21,7.49a20.88,20.88,0,0,1-13.41-4.4c-6.6-5.25-9.88-13.39-10.05-23.67-.17-10.71,3-19.06,9.37-24.52a20.63,20.63,0,0,1,13.26-4.63c6.93-.11,12,2.12,14.36,4.92l-.41-25L972,108l1.23,75.79ZM947.64,139.3a10.76,10.76,0,0,0-8.75,4.44c-2.67,3.62-3.33,8.56-3.25,13.29s.89,9.75,3.68,13.27a10.79,10.79,0,0,0,8.89,4.17c10.29-.17,12.23-10,12.1-17.84S957.93,139.13,947.64,139.3Z"/><path class="cls-3" d="M988.7,184.64l2.45-54.55,13.32.6L1002,185.23Zm2.36-62.12.61-13.53,14.06.63-.61,13.53Z"/><path class="cls-3" d="M1037.18,188.64c-11-1-15.85-7.75-14.91-18.21l2.48-27.61-9.93-.9,1-10.77,9.93.9,1.25-13.81,13.36-2.06-1.53,17,13.7,1.24-1,10.77-13.7-1.23-2.39,26.46c-.37,4.18,1.35,6.13,5.53,6.5a64.39,64.39,0,0,0,8.52.24l-1,11A44.09,44.09,0,0,1,1037.18,188.64Z"/><path class="cls-3" d="M1058.85,190.35l7.35-54.11,13.21,1.8-7.34,54.11Zm8-61.65,1.82-13.43,14,1.9-1.83,13.42Z"/><path class="cls-3" d="M1128.85,195c-4.59,3.82-12.24,6.29-20.38,4.71s-14.31-6.73-17.14-12c-3-5.83-4.21-11.94-2.45-21s5.13-14.3,10.13-18.57c4.59-3.81,12.24-6.29,20.38-4.71s14.31,6.74,17.14,12c3,5.83,4.21,11.94,2.45,21S1133.85,190.74,1128.85,195Zm-4.16-35.35a11.66,11.66,0,0,0-16.28-3.16c-3.76,2.8-5.46,7.71-6.44,12.76s-1.24,10.24,1.2,14.24a11.63,11.63,0,0,0,16.28,3.16c3.75-2.8,5.45-7.71,6.44-12.76S1127.12,163.66,1124.69,159.66Z"/><path class="cls-3" d="M1176.89,214.79l8.9-32.3c1.7-6.17.71-10.47-6-12.32-4.46-1.22-8.17.8-11,4.17-3,3.65-4.37,9.15-5.59,13.6l-5.92,21.46-12.66-3.49,14.52-52.64,10.63,2.93-1,7c4.67-4.71,11.64-5.51,17.72-3.83,11.23,3.1,15.64,12.81,12.62,23.74l-9.68,35.12Z"/><path class="cls-3" d="M1268.36,176.08c-4.42-1.67-7.64,0-9,3.66l-1.79,4.71,13.65,5.16-3.82,10.12-13.65-5.16-15.49,41L1226,230.88l15.49-41-8.64-3.26,3.82-10.12,8.65,3.27,1.85-4.91c3.57-9.43,12.48-13.69,23.48-9.53a44.2,44.2,0,0,1,9.21,4.72l-3.71,9.82A41.56,41.56,0,0,0,1268.36,176.08Z"/><path class="cls-3" d="M1298.31,253.4c-5.34,2.66-13.35,3.32-20.92-.08s-12.39-9.83-13.94-15.6c-1.62-6.37-1.36-12.59,2.43-21S1274.15,204,1280,201c5.35-2.67,13.36-3.32,20.92.08s12.39,9.83,13.94,15.6c1.63,6.37,1.36,12.58-2.43,21S1304.16,250.39,1298.31,253.4Zm4-35.37a11.66,11.66,0,0,0-15.13-6.8c-4.29,1.86-7.08,6.25-9.19,11s-3.55,9.68-2.1,14.14a11.67,11.67,0,0,0,15.13,6.8c4.3-1.87,7.08-6.26,9.19-11S1303.81,222.48,1302.36,218Z"/><path class="cls-3" d="M1355.55,242.76c-8.17-4.32-15.53-.73-19.66,7.06L1323,274.14,1311.33,268l25.54-48.26,9.84,5.21-2.81,7.77c5.17-4.38,12.16-3.66,17.82-.66a28.06,28.06,0,0,1,3.47,2.19l-5.89,11.14A22.33,22.33,0,0,0,1355.55,242.76Z"/><path class="cls-3" d="M1365.76,298.13l40.92-62.19,44.3,29.15-6.76,10.27-33-21.71-9.52,14.47,29,19.11-6.69,10.17-29-19.1-11.19,17,33,21.71-6.75,10.26Z"/><path class="cls-3" d="M1438.63,349.28l-11.07-8.52,17.25-55.63,11,8.46-12.62,38.78,33.68-22.58,10.73,8.27Z"/><path class="cls-3" d="M1509,378.82l-27.32-24.26a14.4,14.4,0,0,0-4.13,10.66,11.53,11.53,0,0,0,3.82,7.88c2.83,2.51,5,3.49,7.71,3.33a9.8,9.8,0,0,0,5-1.71l9.42,8.37c-2.39,2.22-6.9,4-10.14,4.47-7.08,1-13.65-1.87-18.83-6.47a23.81,23.81,0,0,1-8.42-16.46c-.6-7.55,2.29-15.23,8.22-21.9s12.9-10.59,20.38-11.11c5.85-.42,12.06,1.44,17.64,6.39,6,5.37,9.38,12.68,8.23,20.78-1,7.13-4.4,12.39-9.09,17.35C1511.47,376.14,1509.72,378,1509,378.82Zm.44-25.17a11,11,0,0,0-4.11-7.86,11.18,11.18,0,0,0-9.62-2.92,13.37,13.37,0,0,0-7.77,4.48L1505.56,363C1508.2,359.9,1509.43,356.78,1509.39,353.65Z"/><path class="cls-3" d="M1551.2,393.3c-6.51-6.55-14.61-5.32-20.87.9l-19.51,19.4-9.33-9.39,38.73-38.49,7.85,7.9-5,6.59c6.25-2.66,12.7.11,17.21,4.65A27.56,27.56,0,0,1,1563,388l-8.94,8.88A22.33,22.33,0,0,0,1551.2,393.3Z"/><path class="cls-3" d="M1538.22,456.78c-7.16,2.66-15,3.57-21.35-3.6a37.17,37.17,0,0,1-5.63-8.47l8.2-7.22c1.82,3,2.2,3.94,4.15,6.15a6.27,6.27,0,0,0,7.23,2l7.84-2.69,26.7-52.16,9.5,10.8-20.21,36.8,38.66-15.83,8.81,10Z"/><path class="cls-3" d="M1594.79,501.12c-6-.21-13.32-3.45-18.35-10.05s-6.2-14.55-4.81-20.36c1.61-6.37,4.81-11.71,12.16-17.31s13.34-7.26,19.91-7.12c6,.21,13.32,3.45,18.35,10.05s6.2,14.55,4.81,20.35c-1.61,6.38-4.8,11.72-12.15,17.31S1601.36,501.26,1594.79,501.12ZM1615.22,472a11.66,11.66,0,0,0-10.06-13.2c-4.66-.4-9.2,2.13-13.29,5.25s-7.74,6.82-8.59,11.42a11.66,11.66,0,0,0,10,13.2c4.67.41,9.21-2.13,13.3-5.24S1614.37,476.57,1615.22,472Z"/><path class="cls-3" d="M1617.52,547.83l28.12-18.2c5.38-3.48,7.5-7.36,3.73-13.18-2.51-3.87-6.63-4.83-10.95-4.16-4.64.75-9.34,3.92-13.22,6.43l-18.69,12.09-7.13-11,45.84-29.66,6,9.25-5.4,4.62c6.62-.41,12.36,3.63,15.79,8.92,6.33,9.79,3.16,20-6.36,26.13l-30.59,19.8Z"/><path class="cls-3" d="M1674.24,600.47l-17.47-32.09a14.4,14.4,0,0,0-7.5,8.62,11.52,11.52,0,0,0,.91,8.71c1.81,3.32,3.56,5,6.12,5.75a9.9,9.9,0,0,0,5.32.1l6,11.07c-3,1.28-7.85,1.4-11.06.76-7-1.45-12.21-6.39-15.52-12.48a23.81,23.81,0,0,1-2.33-18.33c2-7.31,7.33-13.56,15.17-17.82,7.65-4.17,15.73-5.58,22.94-3.53,5.65,1.59,10.86,5.45,14.42,12,3.87,7.1,4.52,15.11.69,22.34-3.35,6.37-8.34,10.16-14.44,13.24C1677.51,598.81,1675.25,599.92,1674.24,600.47Zm9-23.52c.81-2.47.61-5.47-1.2-8.79a11.2,11.2,0,0,0-8.06-6,13.3,13.3,0,0,0-8.82,1.58l11.29,20.75C1680,582.42,1682.16,579.9,1683.19,577Z"/><path class="cls-3" d="M283.75,1466a30,30,0,0,1-19.51-12.3c-4.61-6.52-6.78-14.12-5.43-22,1.93-11.27,9.4-18,19.34-25s18.75-11.85,30-9.93a29.25,29.25,0,0,1,19.05,12.37,29.77,29.77,0,0,1,5.29,22.37,27.05,27.05,0,0,1-9.07,15.17l-8-11.31a13.8,13.8,0,0,0,4.49-7.29c1.09-3.73-.06-8.07-2.73-11.84a15.72,15.72,0,0,0-10.64-6.49c-7.34-1.1-14.88,4.24-20.45,8.18s-13.11,9.28-14.51,16.58a15.73,15.73,0,0,0,2.59,12.19c2.67,3.77,6.46,6.23,10.34,6.44a14.82,14.82,0,0,0,8.63-2l8,11.31C296,1465.26,289.84,1466.92,283.75,1466Z"/><path class="cls-3" d="M327.71,1520.43a31.52,31.52,0,0,1-27.61-32.75c1-11.39,7.64-18.8,16.95-26.65s17.82-13.23,29.21-12.26a31.5,31.5,0,0,1,27.61,32.75c-1,11.4-7.71,18.87-17,26.72S339.11,1521.41,327.71,1520.43Zm33.19-40.61a16.47,16.47,0,0,0-15.16-18c-7.41-.48-14.6,5.31-19.82,9.71s-12.07,10.45-12.85,17.83a16.48,16.48,0,0,0,15.16,18c7.41.49,14.53-5.24,19.75-9.64S360.13,1487.21,360.9,1479.82Z"/><path class="cls-3" d="M395.61,1589.4c-8,.21-15.93-4.11-22.56-10.4-5.71-5.42-10.28-12.65-10.87-20.88a23.74,23.74,0,0,1,6.28-17.92l10.06,9.54a13.08,13.08,0,0,0-3.47,9.3c.12,4.45,3.2,8.53,6.32,11.49,3.74,3.55,8,6.18,12.12,6a9.26,9.26,0,0,0,7.05-3.16c3.76-4,2.44-8.68-.33-12.47-3-4.15-7.59-8.79-10.59-12.79-6.31-8.3-7.93-19.11.59-28.1a20.59,20.59,0,0,1,14.85-6.18c6.9-.11,14.94,3.32,21.26,9.32,5.79,5.49,9.7,12.66,10.1,19.56.31,6.08-1.24,12.14-5.43,16.71l-10.05-9.54a12.05,12.05,0,0,0,2.69-7.57c0-3.49-2.58-8-5.48-10.7s-7.2-5.53-11.58-5.34a8.59,8.59,0,0,0-6.16,2.83c-3.33,3.51-2.77,7.51-.08,11.07,2.92,3.79,7.36,8.72,10.43,12.5,7,8.81,8.79,20.5,0,29.71A21,21,0,0,1,395.61,1589.4Z"/><path class="cls-3" d="M440.84,1631.57a20.54,20.54,0,0,1-13.14-5c-5.07-4.08-7.7-9.18-7.75-13.13l-15.63,19.36-10.22-8.25,47.43-58.74,8.82,7.13-3.1,5.18c5.7-1.87,11.82.24,16.48,4a20.56,20.56,0,0,1,7.39,11.9c1.7,8.26-.91,16.68-7.38,24.68C457,1627.08,449.27,1631.49,440.84,1631.57ZM458.92,1598a10.78,10.78,0,0,0-4.16-8.89c-8-6.47-15.78-.19-20.72,5.94s-9.39,15-1.38,21.42a10.77,10.77,0,0,0,9.57,2.2c4.37-1.07,8-4.45,11-8.12S458.8,1602.48,458.92,1598Z"/><path class="cls-3" d="M492.84,1673.5c-4.67-3.22-5.24-8-3.26-11.56-4.58,2.2-11.91,1.74-18.31-2.67-10.71-7.4-11.6-18-6.53-25.3,5.9-8.56,16-8.9,24.93-3.6l13.88,8.17,1.91-2.77c2.92-4.23,3.42-8.1-2.72-12.33-5-3.46-9.5-3.24-12.62.73L479.66,1617c7.58-9.7,18.72-8.65,28.75-1.73,7.69,5.3,12.59,12.26,10.53,20.79-.84,3.62-2.87,6.94-5,10l-11.51,16.68c-1.43,2.08-1.27,3.33.54,4.58a7.61,7.61,0,0,0,1.51.78l-5.49,8A13.31,13.31,0,0,1,492.84,1673.5Zm5.17-26.92-12-7c-3.46-2-8-2.23-10.53,1.4-2.39,3.46-.85,7.71,2.52,10,6.74,4.65,14,4.3,18.59-2.36Z"/><path class="cls-3" d="M549.34,1698.05a23.88,23.88,0,0,1-20.47-2.07,24.89,24.89,0,0,1-12-17.07c-.92-6.51.92-13.35,5-20.22s9.15-11.8,15.29-14.15a24.9,24.9,0,0,1,20.74,2.23,23.84,23.84,0,0,1,11.73,16.91,21.36,21.36,0,0,1-2.4,12.35l-11.13-6.55a10.65,10.65,0,0,0,1.2-5.15c-.13-2.88-1.72-5.76-5.15-7.79a10.7,10.7,0,0,0-8.59-1.16c-4.47,1.39-7.59,5.65-10.2,10.08s-4.77,9.13-3.82,13.71a10.71,10.71,0,0,0,5.12,7c3.44,2,6.73,2,9.31.74a10.59,10.59,0,0,0,3.92-3.54L559,1690A21.29,21.29,0,0,1,549.34,1698.05Z"/><path class="cls-3" d="M613.92,1713.36l-32.71-16.28a14.4,14.4,0,0,0-1.2,11.37,11.55,11.55,0,0,0,5.74,6.61c3.39,1.68,5.78,2.06,8.32,1.2a9.88,9.88,0,0,0,4.4-3l11.28,5.61c-1.73,2.77-5.62,5.65-8.62,7-6.57,2.83-13.66,1.76-19.87-1.33a23.82,23.82,0,0,1-12.42-13.68c-2.55-7.13-1.77-15.31,2.21-23.3,3.88-7.8,9.69-13.59,16.77-16,5.54-1.94,12-1.77,18.7,1.55,7.24,3.61,12.37,9.8,13.37,17.92.9,7.13-1,13.1-4.24,19.12C615.65,1710.12,614.44,1712.33,613.92,1713.36ZM607.77,1689a11,11,0,0,0-6-6.51,11.2,11.2,0,0,0-10-.31,13.35,13.35,0,0,0-6.33,6.35L606.52,1699C608.25,1695.29,608.62,1692,607.77,1689Z"/><path class="cls-3" d="M685,1766.54l1.35-8.23c-3.55,3.27-12,5.63-20.84,2.5-8.11-2.87-14.54-7.59-17.92-15.44-4.5-10.27-2.82-20.28,1.39-31.71s9-20,19.4-24.74c7.28-3.36,16.32-3.28,23.8-.52,8.57,3.15,14.8,9,17.75,15.6a22.78,22.78,0,0,1,1.22,16.44l-13-4.78c.82-2.84.13-5.22-.69-7.53-1.41-3.77-4.75-6.56-9.57-8.34a17.53,17.53,0,0,0-13.18.52c-6.67,3.25-10.46,11.7-12.82,18.1s-5,15.63-2,22.43c1.67,4,5.66,7.12,9.7,8.61a15,15,0,0,0,11.93-.2c5.19-2.56,7.58-6.6,9.54-11.92l-16.65-6.14,3.88-10.54,29,10.67-14.08,38.23Z"/><path class="cls-3" d="M748.63,1741c-8.88-2.57-15.36,2.44-17.81,10.91l-7.66,26.42-12.7-3.68,15.19-52.44,10.69,3.1-1.17,8.19c4.17-5.35,11.16-6.06,17.31-4.28a27,27,0,0,1,3.84,1.44l-3.5,12.1A22.44,22.44,0,0,0,748.63,1741Z"/><path class="cls-3" d="M791.94,1796.18c-5.53-1.24-7.83-5.41-7.34-9.5-3.42,3.75-10.4,6.06-18,4.36-12.71-2.85-17.47-12.31-15.52-21,2.28-10.14,11.48-14.22,21.78-12.66l15.93,2.39.74-3.28c1.12-5,.14-8.79-7.14-10.42-5.94-1.33-10,.55-11.43,5.4l-12.4-2.78c3.41-11.83,14.13-15,26-12.36,9.12,2,16.26,6.67,17.54,15.35.57,3.68-.07,7.51-.87,11.1l-4.44,19.78c-.55,2.45.06,3.56,2.21,4a7.79,7.79,0,0,0,1.69.17l-2.12,9.42A13.24,13.24,0,0,1,791.94,1796.18Zm-5.27-26.9-13.75-2c-4-.56-8.28.94-9.25,5.25-.92,4.09,2.09,7.46,6.09,8.36,8,1.79,14.59-1.25,16.36-9.14Z"/><path class="cls-3" d="M846.18,1804.19l4.84-33.14c.93-6.34-.59-10.49-7.45-11.49-4.57-.67-8,1.8-10.35,5.49-2.49,4-3.21,9.61-3.88,14.18l-3.21,22-13-1.9,7.89-54,10.91,1.59-.08,7.1c4.06-5.25,10.88-6.9,17.11-6,11.53,1.68,17.1,10.77,15.46,22l-5.26,36Z"/><path class="cls-3" d="M897.06,1810.14c-11-.89-15.93-7.61-15.08-18.08l2.24-27.63-10-.8.88-10.78,9.94.8,1.12-13.81,13.34-2.19-1.38,17.06,13.71,1.11L911,1766.6l-13.71-1.11L895.16,1792c-.34,4.19,1.4,6.12,5.58,6.46a65.82,65.82,0,0,0,8.52.16l-.88,11A44.54,44.54,0,0,1,897.06,1810.14Z"/><path class="cls-3" d="M943,1785.5l-.19-11.76,36-.58.19,11.76Z"/><path class="cls-3" d="M1066.23,1805.25l-37.43-47.46,5.37,50.85-13.26,1.4-7.82-74,14.31-1.51,36.93,46.78-5.3-50.12,13.27-1.41,7.82,74Z"/><path class="cls-3" d="M1144.75,1791.8l-7.5-13.08-29,5.73-2,15-13.39,2.64,11.24-78.1,14.53-2.86,40.06,68Zm-30.46-53-4.33,32.85,20.81-4.11Z"/><path class="cls-3" d="M1214.55,1766.38c-3.9,7-11.65,11.62-20.43,14.12-7.57,2.16-16.13,2.41-23.51-1.27a23.79,23.79,0,0,1-12.22-14.54l13.33-3.79a13.14,13.14,0,0,0,6.24,7.72c3.89,2.16,9,1.59,13.11.41,5-1.41,9.41-3.77,11.33-7.37a9.26,9.26,0,0,0,.87-7.67c-1.5-5.26-6.22-6.53-10.9-6.07-5.1.47-11.42,2-16.4,2.6-10.36,1.2-20.48-2.91-23.87-14.82a20.58,20.58,0,0,1,2.23-15.92c3.43-6,10.47-11.17,18.85-13.56,7.67-2.18,15.84-1.89,22,1.27,5.39,2.84,9.82,7.25,11.61,13.18l-13.33,3.8a12.1,12.1,0,0,0-5.14-6.18c-3-1.76-8.16-1.82-12-.73-4,1.15-8.42,3.38-10.49,7.25a8.58,8.58,0,0,0-.7,6.75c1.33,4.64,5,6.2,9.49,5.7,4.74-.59,11.25-1.89,16.07-2.61,11.13-1.54,22.1,2.87,25.58,15.09A20.93,20.93,0,0,1,1214.55,1766.38Z"/><path class="cls-3" d="M1278.29,1750.44l-9.56-11.67L1241,1749.21l.51,15.07-12.77,4.81L1227,1690.2l13.86-5.22,50.71,60.46Zm-38.78-47.23,1.15,33.12,19.85-7.47Z"/><path class="cls-3" d="M1309.58,1707.94l-5.22-10.54,32.28-16,5.22,10.54Z"/><path class="cls-3" d="M1427.47,1672.29l-11.67-9.55-25.1,15.7,3.48,14.67-11.58,7.24-17.31-77,12.56-7.85,61.64,49.25Zm-47.33-38.64,7.66,32.24,18-11.25Z"/><path class="cls-3" d="M1445.36,1607.11c-7.48,5.41-7.52,13.6-2.35,20.75l16.12,22.29-10.72,7.75-32-44.24,9-6.52,5.74,6c-1.65-6.58,2.08-12.53,7.27-16.28a27.24,27.24,0,0,1,3.51-2.15l7.38,10.21A22.36,22.36,0,0,0,1445.36,1607.11Z"/><path class="cls-3" d="M1500.27,1619.38c-8.58,6.93-16.78,5.45-23.38-2.72l-17.41-21.57-7.76,6.26-6.79-8.41,7.76-6.27-8.71-10.78,8.17-10.78,10.75,13.32,10.71-8.64,6.79,8.42-10.71,8.64,16.69,20.67c2.64,3.27,5.23,3.47,8.5.83a66,66,0,0,0,6.29-5.75l6.92,8.58A44.57,44.57,0,0,1,1500.27,1619.38Z"/><path class="cls-3" d="M1536.75,1555.26l-27,24.63a14.43,14.43,0,0,0,10.17,5.22,11.53,11.53,0,0,0,8.24-3c2.79-2.55,4-4.65,4.12-7.32a9.93,9.93,0,0,0-1.17-5.18l9.3-8.49c2,2.62,3.24,7.28,3.38,10.56.27,7.15-3.28,13.37-8.4,18a23.83,23.83,0,0,1-17.25,6.65c-7.57-.2-14.91-3.88-20.93-10.47s-9.17-14-8.9-21.44c.19-5.87,2.7-11.85,8.2-16.87,6-5.45,13.6-8,21.54-6,7,1.73,11.85,5.67,16.29,10.85C1534.35,1552.47,1536,1554.41,1536.75,1555.26Zm-25-3.08c-2.59-.19-5.45.72-8.25,3.27a11.18,11.18,0,0,0-3.91,9.26,13.38,13.38,0,0,0,3.64,8.19L1520.7,1557C1517.86,1554,1514.88,1552.47,1511.77,1552.18Z"/><path class="cls-3" d="M1607.91,1513.4l-25.1-22.81c-5-4.52-9-5.81-13.5-.92-5,5.52-1.38,13.22,3.67,17.82l22.07,20.06-8.76,9.63-25.09-22.81c-5-4.53-9-5.82-13.5-.92-5,5.51-1.45,13.3,3.6,17.89l22.07,20.06-8.76,9.63-40.41-36.73,7.35-8.08,6.07,4.1a17.51,17.51,0,0,1,4.08-17.29c5.16-5.67,11.17-7.3,17.13-5.57-2-6.23-.46-12.77,4.48-18.21,7.84-8.62,17.69-7.9,26.08-.27l27.27,24.79Z"/><path class="cls-3" d="M1578.8,1450.41l-10.68-8.33,8.65-11.1,10.68,8.33Zm49.29,37.88L1585,1454.72l8.19-10.51,43.07,33.56Z"/><path class="cls-3" d="M1665.3,1429c1.09,6.14-1.27,12.82-5.54,18.93-4,5.69-9.15,9.62-15.26,10.86a18.05,18.05,0,0,1-13.73-2.54l7-10.07a8.82,8.82,0,0,0,6.93,1.26c2.58-.77,4.57-2.32,6.73-5.42,2.53-3.62,5.6-9.67.69-13.1-2.58-1.8-5.5-1.28-7.86,1.17-3.37,3.54-6.75,7.84-10.38,11.2-5.56,5.21-13.44,5.85-19.12,1.89a15.55,15.55,0,0,1-6.88-11.6c-.56-5.26,1.11-11.13,5-16.73,3.73-5.34,9.24-9.56,15-10.36a17,17,0,0,1,12,2.47l-7.16,10.24a7.5,7.5,0,0,0-5.48-1.14,10.55,10.55,0,0,0-6.15,4.42,13.39,13.39,0,0,0-2.56,5.13,6.25,6.25,0,0,0,2.33,6.75c3.18,2.22,6.06.13,8.08-2,3.35-3.69,4.21-4.75,8-8.66,6-6.28,14.13-8.31,21.19-3.38A16.26,16.26,0,0,1,1665.3,1429Z"/></g></g></svg>