<svg id="Layer_1" data-name="Layer 1" xmlns="http://www.w3.org/2000/svg" viewBox="0 0 327.33 327.33"><defs><style>.cls-1,.cls-10,.cls-11,.cls-2,.cls-3,.cls-5,.cls-7{isolation:isolate;}.cls-10,.cls-11,.cls-2,.cls-3,.cls-5,.cls-7{font-size:12px;font-family:AkkuratStd-Regular, Akkurat Std;}.cls-10,.cls-11,.cls-2,.cls-3,.cls-5,.cls-7,.cls-9{fill:#fff;}.cls-3{letter-spacing:-0.01em;}.cls-4,.cls-8{fill:none;stroke:#fff;}.cls-4{stroke-miterlimit:10;}.cls-5{letter-spacing:-0.03em;}.cls-6{letter-spacing:0em;}.cls-7{letter-spacing:-0.01em;}.cls-8{stroke-miterlimit:10;}.cls-10{letter-spacing:-0.02em;}.cls-11{letter-spacing:0.01em;}</style></defs><rect x="-226.78" y="-141" width="1139.67" height="603.67"/><g class="cls-1"><text class="cls-2" transform="translate(16.78 50.33)">C</text><text class="cls-3" transform="translate(24.39 50.33)">r</text><text class="cls-2" transform="translate(28.88 50.33)">e</text><text class="cls-3" transform="translate(35.49 50.33)">a</text><text class="cls-3" transform="translate(42.14 50.33)">t</text><text class="cls-2" transform="translate(46.64 50.33)">e</text><text class="cls-2" transform="translate(16.78 64.73)">account</text></g><rect class="cls-4" x="12.29" y="36.97" width="53.78" height="33.78"/><g class="cls-1"><text class="cls-5" transform="translate(120.82 50.33)">V</text><text class="cls-2" transform="translate(127.47 50.33)">erify</text><text class="cls-3" transform="translate(120.82 64.73)">E</text><text class="cls-2" transform="translate(128.26 64.73)">-Mail</text></g><rect class="cls-4" x="112.29" y="36.97" width="53.78" height="33.78"/><g class="cls-1"><text class="cls-2" transform="translate(246.34 147.46)"><tspan class="cls-6">A</tspan><tspan x="7.39" y="0">d</tspan></text><text class="cls-2" transform="translate(260.81 147.46)">d plants</text><text class="cls-3" transform="translate(246.34 161.86)">t</text><text class="cls-2" transform="translate(250.84 161.86)">o col</text><text class="cls-3" transform="translate(276.87 161.86)">l</text><text class="cls-2" transform="translate(280.3 161.86)">e</text><text class="cls-7" transform="translate(286.91 161.86)">c</text><text class="cls-2" transform="translate(293.24 161.86)">tion</text></g><rect class="cls-4" x="242.13" y="134.1" width="76.92" height="33.78"/><line class="cls-4" x1="324.51" y1="151.91" x2="349.78" y2="151.91"/><g class="cls-1"><text class="cls-2" transform="translate(19.86 148.07)">Splash</text><text class="cls-2" transform="translate(19.86 162.47)">sc</text><text class="cls-3" transform="translate(32.5 162.47)">r</text><text class="cls-2" transform="translate(36.98 162.47)">een</text></g><rect class="cls-8" x="14.3" y="126.6" width="50" height="50" transform="translate(-95.68 72.19) rotate(-45)"/><polygon class="cls-9" points="5.34 54.17 -4.61 58.23 -2.25 54.17 -4.61 50.1 5.34 54.17"/><line class="cls-4" x1="88.12" y1="151.6" x2="120.05" y2="151.6"/><polygon class="cls-9" points="81.06 151.6 91.01 155.66 88.65 151.6 91.01 147.53 81.06 151.6"/><polygon class="cls-9" points="127.11 151.6 117.16 155.66 119.52 151.6 117.16 147.53 127.11 151.6"/><line class="cls-4" x1="73.01" y1="54.17" x2="98.29" y2="54.17"/><polygon class="cls-9" points="105.35 54.17 95.4 58.23 97.76 54.17 95.4 50.1 105.35 54.17"/><polyline class="cls-4" points="174.23 54.17 280.59 54.17 280.59 114.49"/><polygon class="cls-9" points="280.59 121.55 276.52 111.6 280.59 113.96 284.65 111.6 280.59 121.55"/><line class="cls-4" x1="202.85" y1="151.91" x2="228.12" y2="151.91"/><polygon class="cls-9" points="235.18 151.91 225.23 155.98 227.59 151.91 225.23 147.85 235.18 151.91"/><line class="cls-4" x1="190.75" y1="284.24" x2="216.02" y2="284.24"/><polygon class="cls-9" points="223.08 284.24 213.13 288.31 215.49 284.24 213.13 280.18 223.08 284.24"/><g class="cls-1"><text class="cls-2" transform="translate(138.6 147.46)">Vi</text><text class="cls-2" transform="translate(148.82 147.46)">e</text><text class="cls-2" transform="translate(155.38 147.46)">w ca</text><text class="cls-3" transform="translate(180.43 147.46)">r</text><text class="cls-2" transform="translate(184.92 147.46)">e</text><text class="cls-2" transform="translate(138.6 161.86)">ca</text><text class="cls-2" transform="translate(151.69 161.86)">l</text><text class="cls-2" transform="translate(155.12 161.86)">endar</text></g><rect class="cls-4" x="134.51" y="134.1" width="60.38" height="33.78"/><g class="cls-1"><text class="cls-2" transform="translate(18.51 280.94)">Vi</text><text class="cls-2" transform="translate(28.73 280.94)">e</text><text class="cls-2" transform="translate(35.29 280.94)">w</text><text class="cls-10" transform="translate(18.51 295.34)">f</text><text class="cls-2" transform="translate(22.72 295.34)">o</text><text class="cls-3" transform="translate(29.42 295.34)">r</text><text class="cls-2" transform="translate(33.91 295.34)">ums</text></g><rect class="cls-4" x="14.42" y="267.58" width="48.24" height="33.78"/><g class="cls-1"><text class="cls-2" transform="translate(109.5 280.71)">W</text><text class="cls-2" transform="translate(119.78 280.71)">ri</text><text class="cls-3" transform="translate(127.67 280.71)">t</text><text class="cls-2" transform="translate(132.17 280.71)">e n</text><text class="cls-2" transform="translate(148.56 280.71)">e</text><text class="cls-2" transform="translate(155.11 280.71)">w</text><text class="cls-2" transform="translate(109.5 295.11)">jou</text><text class="cls-2" transform="translate(126.58 295.11)">r</text><text class="cls-2" transform="translate(131.24 295.11)">nal en</text><text class="cls-11" transform="translate(164.85 295.11)">r</text><text class="cls-2" transform="translate(169.58 295.11)">ty</text></g><rect class="cls-4" x="105.91" y="266.91" width="77.67" height="34.67"/><g class="cls-1"><text class="cls-2" transform="translate(233.84 280.71)">Vi</text><text class="cls-2" transform="translate(244.06 280.71)">e</text><text class="cls-2" transform="translate(250.62 280.71)">w </text><text class="cls-2" transform="translate(233.84 295.11)">en</text><text class="cls-11" transform="translate(247.47 295.11)">r</text><text class="cls-2" transform="translate(252.2 295.11)">ties</text></g><rect class="cls-4" x="230.25" y="266.91" width="46.33" height="34.67"/><polyline class="cls-4" points="39.3 194.85 39.3 220.62 145.5 220.62 145.5 253.01"/><polygon class="cls-9" points="145.5 260.07 141.44 250.12 145.5 252.48 149.57 250.12 145.5 260.07"/><line class="cls-4" x1="39.3" y1="220.62" x2="39.3" y2="255.1"/><polygon class="cls-9" points="39.3 262.16 35.23 252.21 39.3 254.57 43.36 252.21 39.3 262.16"/><polyline class="cls-4" points="39.3 307.34 39.3 333.1 -66.9 333.1 -66.9 365.5"/></svg>