<svg xmlns="http://www.w3.org/2000/svg" viewBox="0 0 393.52 393.52"><defs><style>.cls-1{fill:#fff;}.cls-2{font-size:100.31px;font-family:ObjektivMk2-Medium, Objektiv Mk2;font-weight:500;}.cls-3{letter-spacing:-0.02em;}.cls-4{letter-spacing:0em;}.cls-5{letter-spacing:0em;}.cls-6{letter-spacing:0.01em;}.cls-7{fill:none;stroke:#4d4d4d;stroke-miterlimit:10;}</style></defs><g id="Layer_1" data-name="Layer 1"><rect class="cls-1" width="393.52" height="393.52"/><text class="cls-2" transform="translate(-246.66 214.79)">Hambu<tspan class="cls-3" x="373.24" y="0">r</tspan><tspan class="cls-4" x="414.36" y="0">g</tspan><tspan class="cls-5" x="480.56" y="0">e</tspan><tspan class="cls-3" x="540.84" y="0">f</tspan><tspan x="580.86" y="0">on</tspan><tspan class="cls-6" x="706.34" y="0">s</tspan><tspan class="cls-4" x="754.99" y="0">tiv</tspan></text></g><g id="Layer_2" data-name="Layer 2"><line class="cls-7" x1="266.41" y1="176.11" x2="352.67" y2="69.12"/><line class="cls-7" x1="366.15" y1="186.4" x2="352.67" y2="69.12"/><line class="cls-7" x1="-294.59" y1="138.62" x2="685.2" y2="138.62"/><line class="cls-7" x1="-294.59" y1="133.54" x2="685.2" y2="133.54"/><line class="cls-7" x1="-294.59" y1="164.09" x2="685.2" y2="164.09"/><line class="cls-7" x1="-294.65" y1="214.79" x2="685.27" y2="214.79"/><line class="cls-7" x1="-294.5" y1="240.27" x2="685.11" y2="240.27"/><line class="cls-7" x1="10.68" y1="214.75" x2="46.17" y2="271.33"/><line class="cls-7" x1="46.17" y1="271.33" x2="77.21" y2="271.33"/><line class="cls-7" x1="63.02" y1="133.54" x2="118.94" y2="101.25"/><line class="cls-7" x1="118.94" y1="101.25" x2="161.45" y2="101.25"/><line class="cls-7" x1="391.68" y1="163.6" x2="426.97" y2="101.25"/><line class="cls-7" x1="44.55" y1="303.7" x2="75.58" y2="303.7"/><line class="cls-7" x1="44.55" y1="303.7" x2="-98.14" y2="219.28"/><circle class="cls-7" cx="285.31" cy="207.14" r="9.56"/><line class="cls-7" x1="500.8" y1="303.7" x2="293.42" y2="212.2"/><line class="cls-7" x1="352.67" y1="69.12" x2="394.6" y2="69.12"/><circle class="cls-7" cx="197.09" cy="233.9" r="9.56"/><line class="cls-7" x1="297.98" y1="303.7" x2="271.04" y2="303.7"/><line class="cls-7" x1="201.85" y1="242.19" x2="271.04" y2="303.7"/><circle class="cls-7" cx="264.51" cy="178.47" r="3.04"/><circle class="cls-7" cx="366.15" cy="189.44" r="3.04"/><circle class="cls-7" cx="12.97" cy="138.62" r="9.56"/><line class="cls-7" x1="16.14" y1="129.6" x2="62.22" y2="69.12"/><line class="cls-7" x1="102.89" y1="69.12" x2="62.22" y2="69.12"/></g><g id="Layer_3" data-name="Layer 3"><path d="M301.45,308V296.86h4.18a7.13,7.13,0,0,1,3.23.67,4.76,4.76,0,0,1,2.06,1.91,6.59,6.59,0,0,1,0,6,4.75,4.75,0,0,1-2.12,1.91,7.84,7.84,0,0,1-3.38.66Zm4-9.65h-2.14v8.14h2.13q4.32,0,4.32-4.07T305.41,298.37Z"/><path d="M317.31,308.26a4.91,4.91,0,0,1-2.25-.48,3.43,3.43,0,0,1-1.46-1.36,4,4,0,0,1-.52-2.08,4.28,4.28,0,0,1,.48-2.07,3.49,3.49,0,0,1,1.33-1.39,3.7,3.7,0,0,1,1.94-.51,3.56,3.56,0,0,1,1.82.45,3.18,3.18,0,0,1,1.21,1.28,4.23,4.23,0,0,1,.42,1.94,6.34,6.34,0,0,1,0,.74h-5.48a2.21,2.21,0,0,0,.83,1.57,3,3,0,0,0,1.87.53,5.72,5.72,0,0,0,2.5-.57l.18,1.32a5.12,5.12,0,0,1-1.29.46A7.2,7.2,0,0,1,317.31,308.26Zm-.54-6.58a1.9,1.9,0,0,0-1.36.51,2.41,2.41,0,0,0-.67,1.46h3.94a1.39,1.39,0,0,0,0-.3,2,2,0,0,0-.6-1.24A1.84,1.84,0,0,0,316.77,301.68Z"/><path d="M326.1,308.22a4.51,4.51,0,0,1-2.14-.48,3.49,3.49,0,0,1-1.42-1.35,4,4,0,0,1-.51-2,4.06,4.06,0,0,1,.51-2.06,3.79,3.79,0,0,1,1.43-1.38,4.37,4.37,0,0,1,2.12-.5,5.15,5.15,0,0,1,1.22.15,4.13,4.13,0,0,1,1.08.4l-.22,1.44a4.64,4.64,0,0,0-1-.36,4.74,4.74,0,0,0-1-.13,2.43,2.43,0,0,0-1.78.65,2.33,2.33,0,0,0-.66,1.75,2.28,2.28,0,0,0,.67,1.75,2.53,2.53,0,0,0,1.84.64,4.92,4.92,0,0,0,1-.11,6.87,6.87,0,0,0,1.07-.34l.19,1.39a4.21,4.21,0,0,1-1.13.43A5.53,5.53,0,0,1,326.1,308.22Z"/><path d="M334.11,308.26a5,5,0,0,1-2.26-.48,3.43,3.43,0,0,1-1.46-1.36,4.08,4.08,0,0,1-.51-2.08,4.39,4.39,0,0,1,.47-2.07,3.56,3.56,0,0,1,1.33-1.39,3.72,3.72,0,0,1,1.94-.51,3.53,3.53,0,0,1,1.82.45,3.11,3.11,0,0,1,1.21,1.28,4.24,4.24,0,0,1,.43,1.94,6.42,6.42,0,0,1-.05.74h-5.48a2.25,2.25,0,0,0,.83,1.57,3.05,3.05,0,0,0,1.87.53,5.69,5.69,0,0,0,2.5-.57l.18,1.32a4.85,4.85,0,0,1-1.29.46A7.1,7.1,0,0,1,334.11,308.26Zm-.55-6.58a1.87,1.87,0,0,0-1.35.51,2.35,2.35,0,0,0-.67,1.46h3.93a1.39,1.39,0,0,0,0-.3,1.9,1.9,0,0,0-.6-1.24A1.84,1.84,0,0,0,333.56,301.68Z"/><path d="M339.12,308V300.6h1.63v1.15a2.41,2.41,0,0,1,.94-1,2.72,2.72,0,0,1,1.43-.37,2.49,2.49,0,0,1,2,.81,3.56,3.56,0,0,1,.69,2.35V308h-1.69v-4.18c0-1.32-.51-2-1.53-2a1.59,1.59,0,0,0-1.31.56,2.3,2.3,0,0,0-.48,1.55v4Z"/><path d="M351.17,308.26a3.21,3.21,0,0,1-1.8-.51,3.48,3.48,0,0,1-1.24-1.39,4.47,4.47,0,0,1-.45-2,4.14,4.14,0,0,1,.48-2,3.71,3.71,0,0,1,1.3-1.42,3.33,3.33,0,0,1,1.82-.53,2.87,2.87,0,0,1,1.45.37,2.66,2.66,0,0,1,1,1v-5.65h1.69V308h-1.63l0-1.22A2.83,2.83,0,0,1,351.17,308.26Zm.47-1.51a2.09,2.09,0,0,0,1.62-.69,2.78,2.78,0,0,0,0-3.5,2.12,2.12,0,0,0-1.62-.68,2.08,2.08,0,0,0-1.61.68,2.75,2.75,0,0,0,0,3.5A2.06,2.06,0,0,0,351.64,306.75Z"/><path d="M361.61,308.26a4.91,4.91,0,0,1-2.25-.48,3.46,3.46,0,0,1-1.47-1.36,4.08,4.08,0,0,1-.51-2.08,4.28,4.28,0,0,1,.48-2.07,3.49,3.49,0,0,1,1.33-1.39,3.67,3.67,0,0,1,1.94-.51,3.59,3.59,0,0,1,1.82.45,3.09,3.09,0,0,1,1.2,1.28,4.11,4.11,0,0,1,.43,1.94c0,.24,0,.48,0,.74h-5.49a2.25,2.25,0,0,0,.83,1.57,3.06,3.06,0,0,0,1.88.53,5.75,5.75,0,0,0,2.5-.57l.17,1.32a4.9,4.9,0,0,1-1.28.46A7.27,7.27,0,0,1,361.61,308.26Zm-.54-6.58a1.9,1.9,0,0,0-1.36.51,2.41,2.41,0,0,0-.67,1.46H363a1.39,1.39,0,0,0,0-.3,2,2,0,0,0-.6-1.24A1.85,1.85,0,0,0,361.07,301.68Z"/><path d="M366.62,308V300.6h1.62v1.49a2.58,2.58,0,0,1,.85-1.18,2.09,2.09,0,0,1,1.28-.42,2.59,2.59,0,0,1,.48,0,1.5,1.5,0,0,1,.39.12l-.16,1.58a2.53,2.53,0,0,0-.91-.17,1.62,1.62,0,0,0-1.38.65,3,3,0,0,0-.49,1.82V308Z"/><path d="M82.1,275.66V264.49h4.06a4.05,4.05,0,0,1,2.59.74,2.57,2.57,0,0,1,.92,2.1,2.47,2.47,0,0,1-.43,1.44,2.55,2.55,0,0,1-1.17.94,2.68,2.68,0,0,1,1.6,1,2.77,2.77,0,0,1,.59,1.78,2.9,2.9,0,0,1-1,2.38,4.38,4.38,0,0,1-2.88.84ZM86,265.87H83.81v3.34h2.1a2.27,2.27,0,0,0,1.53-.44,1.66,1.66,0,0,0,.49-1.33C87.93,266.4,87.27,265.87,86,265.87Zm.25,4.67H83.81v3.74h2.55a2.24,2.24,0,0,0,1.55-.5,1.74,1.74,0,0,0,.54-1.37C88.45,271.17,87.7,270.54,86.2,270.54Z"/><path d="M95.31,275.89a3.29,3.29,0,0,1-1.8-.5,3.57,3.57,0,0,1-1.23-1.4,4.43,4.43,0,0,1-.45-2,4.15,4.15,0,0,1,.48-2,3.71,3.71,0,0,1,1.3-1.42,3.29,3.29,0,0,1,1.82-.53,2.84,2.84,0,0,1,1.47.39A2.87,2.87,0,0,1,98,269.46l0-1.22h1.64v7.42H98l0-1.22A2.83,2.83,0,0,1,95.31,275.89Zm.47-1.51a2.09,2.09,0,0,0,1.62-.68,2.5,2.5,0,0,0,.63-1.76,2.47,2.47,0,0,0-.63-1.75,2.28,2.28,0,0,0-3.23,0,2.47,2.47,0,0,0-.62,1.75,2.49,2.49,0,0,0,.62,1.76A2.1,2.1,0,0,0,95.78,274.38Z"/><path d="M104.07,275.89a5.8,5.8,0,0,1-1.49-.19,3.48,3.48,0,0,1-1.16-.51l.22-1.35a4.53,4.53,0,0,0,1.15.55,4.26,4.26,0,0,0,1.23.2,2.13,2.13,0,0,0,1.11-.24.74.74,0,0,0,.39-.66.81.81,0,0,0-.12-.46,1.06,1.06,0,0,0-.47-.34,8,8,0,0,0-1-.33,4.53,4.53,0,0,1-1.84-.91,1.89,1.89,0,0,1-.55-1.4,2,2,0,0,1,.78-1.65,3.41,3.41,0,0,1,2.13-.6,5.5,5.5,0,0,1,1.32.17,3.92,3.92,0,0,1,1.08.42l-.24,1.31a4.16,4.16,0,0,0-2.11-.59c-.88,0-1.32.27-1.32.82a.72.72,0,0,0,.3.61,4,4,0,0,0,1.15.48,4.89,4.89,0,0,1,2,1,1.87,1.87,0,0,1,.58,1.45,1.9,1.9,0,0,1-.85,1.65A3.84,3.84,0,0,1,104.07,275.89Z"/><path d="M112.79,275.89a5,5,0,0,1-2.25-.47,3.49,3.49,0,0,1-1.46-1.36,4,4,0,0,1-.52-2.09,4.26,4.26,0,0,1,.48-2.06,3.52,3.52,0,0,1,1.33-1.4,3.7,3.7,0,0,1,1.94-.51,3.49,3.49,0,0,1,1.82.46,3.11,3.11,0,0,1,1.21,1.28,4.2,4.2,0,0,1,.42,1.94,6.18,6.18,0,0,1,0,.73h-5.48a2.19,2.19,0,0,0,.83,1.57,3,3,0,0,0,1.87.53,5.72,5.72,0,0,0,2.5-.57l.18,1.32a4.75,4.75,0,0,1-1.29.46A6.61,6.61,0,0,1,112.79,275.89Zm-.54-6.58a1.9,1.9,0,0,0-1.36.51,2.43,2.43,0,0,0-.67,1.46h3.94a1.23,1.23,0,0,0,0-.29,2,2,0,0,0-.6-1.25A1.88,1.88,0,0,0,112.25,269.31Z"/><path d="M117.8,275.66v-11.9h1.69v11.9Z"/><path d="M122.71,266.52a1.06,1.06,0,0,1-.76-.3,1.1,1.1,0,0,1,0-1.51,1.15,1.15,0,0,1,1.53,0,1.06,1.06,0,0,1-.77,1.81Zm-.84,9.14v-7.42h1.69v7.42Z"/><path d="M125.94,275.66v-7.42h1.64v1.14a2.35,2.35,0,0,1,.94-1A2.79,2.79,0,0,1,130,268a2.44,2.44,0,0,1,2,.82,3.51,3.51,0,0,1,.69,2.34v4.5H131v-4.19c0-1.31-.51-2-1.52-2a1.66,1.66,0,0,0-1.32.56,2.31,2.31,0,0,0-.48,1.56v4Z"/><path d="M138.74,275.89a5,5,0,0,1-2.25-.47,3.52,3.52,0,0,1-1.47-1.36,4.12,4.12,0,0,1-.51-2.09,4.26,4.26,0,0,1,.48-2.06,3.45,3.45,0,0,1,1.33-1.4,3.67,3.67,0,0,1,1.94-.51,3.49,3.49,0,0,1,1.82.46,3,3,0,0,1,1.2,1.28,4.08,4.08,0,0,1,.43,1.94,6.25,6.25,0,0,1-.05.73h-5.48A2.23,2.23,0,0,0,137,274a3,3,0,0,0,1.88.53,5.67,5.67,0,0,0,2.49-.57l.18,1.32a4.56,4.56,0,0,1-1.28.46A6.67,6.67,0,0,1,138.74,275.89Zm-.54-6.58a1.9,1.9,0,0,0-1.36.51,2.43,2.43,0,0,0-.67,1.46h3.94a1.23,1.23,0,0,0,0-.29,2,2,0,0,0-.6-1.25A1.9,1.9,0,0,0,138.2,269.31Z"/><path d="M165.56,105.58,170,94.41h2l4.48,11.17h-2l-1.17-3.13h-4.79l-1.18,3.13Zm3.55-4.59h3.72L171,96Z"/><path d="M180.07,105.81a5.72,5.72,0,0,1-1.48-.19,3.39,3.39,0,0,1-1.16-.51l.22-1.36a4,4,0,0,0,1.14.56,4.35,4.35,0,0,0,1.24.19,2.14,2.14,0,0,0,1.11-.23.74.74,0,0,0,.39-.66.79.79,0,0,0-.13-.47,1.07,1.07,0,0,0-.47-.33,5.65,5.65,0,0,0-1-.33,4.67,4.67,0,0,1-1.84-.91,1.88,1.88,0,0,1-.54-1.4,2,2,0,0,1,.78-1.65,3.41,3.41,0,0,1,2.13-.6,5.56,5.56,0,0,1,1.32.17,3.92,3.92,0,0,1,1.08.42l-.24,1.31a4.19,4.19,0,0,0-2.12-.59c-.88,0-1.32.27-1.32.82a.72.72,0,0,0,.3.61,4.11,4.11,0,0,0,1.16.48,5,5,0,0,1,2,1,2.07,2.07,0,0,1-.27,3.11A3.87,3.87,0,0,1,180.07,105.81Z"/><path d="M188.64,105.77a4.58,4.58,0,0,1-2.15-.48,3.5,3.5,0,0,1-1.41-1.34,4.38,4.38,0,0,1,0-4.1,3.65,3.65,0,0,1,1.43-1.38,4.25,4.25,0,0,1,2.11-.5,5.8,5.8,0,0,1,1.23.14,4.13,4.13,0,0,1,1.08.4l-.22,1.44a5,5,0,0,0-2-.49,2.43,2.43,0,0,0-1.78.65,2.33,2.33,0,0,0-.66,1.75,2.28,2.28,0,0,0,.67,1.75,2.53,2.53,0,0,0,1.84.64,4.15,4.15,0,0,0,1-.11,6,6,0,0,0,1.08-.34l.19,1.39a4.35,4.35,0,0,1-1.13.43A5.53,5.53,0,0,1,188.64,105.77Z"/><path d="M196.65,105.81a4.93,4.93,0,0,1-2.26-.48,3.41,3.41,0,0,1-1.46-1.35,4.13,4.13,0,0,1-.52-2.09,4.3,4.3,0,0,1,.48-2.07,3.56,3.56,0,0,1,1.33-1.39,3.72,3.72,0,0,1,1.94-.51,3.47,3.47,0,0,1,1.82.46,3.11,3.11,0,0,1,1.21,1.28,4.18,4.18,0,0,1,.42,1.94,6.29,6.29,0,0,1,0,.73h-5.48a2.21,2.21,0,0,0,.83,1.57,3,3,0,0,0,1.87.53,5.72,5.72,0,0,0,2.5-.57l.18,1.32a4.63,4.63,0,0,1-1.29.46A6.53,6.53,0,0,1,196.65,105.81Zm-.55-6.58a1.9,1.9,0,0,0-1.36.51,2.49,2.49,0,0,0-.67,1.46H198a1.39,1.39,0,0,0,0-.3,2,2,0,0,0-.6-1.24A1.84,1.84,0,0,0,196.1,99.23Z"/><path d="M201.66,105.58V98.16h1.63V99.3a2.41,2.41,0,0,1,.94-1,2.7,2.7,0,0,1,1.43-.37,2.46,2.46,0,0,1,2,.82,3.51,3.51,0,0,1,.69,2.34v4.5h-1.69v-4.19c0-1.31-.51-2-1.53-2a1.66,1.66,0,0,0-1.32.56,2.31,2.31,0,0,0-.47,1.56v4Z"/><path d="M213.7,105.81a3.34,3.34,0,0,1-1.8-.5,3.57,3.57,0,0,1-1.23-1.4,4.44,4.44,0,0,1-.45-2,4.14,4.14,0,0,1,.48-2,3.79,3.79,0,0,1,1.3-1.42,3.33,3.33,0,0,1,1.82-.53,2.85,2.85,0,0,1,2.5,1.4V93.68H218v11.9h-1.63l0-1.22A2.83,2.83,0,0,1,213.7,105.81Zm.47-1.51a2.1,2.1,0,0,0,1.63-.69,2.78,2.78,0,0,0,0-3.5,2.13,2.13,0,0,0-1.63-.68,2.08,2.08,0,0,0-1.6.68,2.75,2.75,0,0,0,0,3.5A2.05,2.05,0,0,0,214.17,104.3Z"/><path d="M224.15,105.81a5,5,0,0,1-2.26-.48,3.47,3.47,0,0,1-1.46-1.35,4.12,4.12,0,0,1-.51-2.09,4.3,4.3,0,0,1,.48-2.07,3.49,3.49,0,0,1,1.33-1.39,3.67,3.67,0,0,1,1.94-.51,3.49,3.49,0,0,1,1.82.46,3,3,0,0,1,1.2,1.28,4.06,4.06,0,0,1,.43,1.94,6.4,6.4,0,0,1-.05.73h-5.48a2.25,2.25,0,0,0,.83,1.57,3.06,3.06,0,0,0,1.88.53,5.67,5.67,0,0,0,2.49-.57l.18,1.32a4.52,4.52,0,0,1-1.29.46A6.53,6.53,0,0,1,224.15,105.81Zm-.54-6.58a1.88,1.88,0,0,0-1.36.51,2.43,2.43,0,0,0-.67,1.46h3.94a1.39,1.39,0,0,0,0-.3,2,2,0,0,0-.61-1.24A1.83,1.83,0,0,0,223.61,99.23Z"/><path d="M229.16,105.58V98.16h1.62v1.48a2.63,2.63,0,0,1,.85-1.18,2.07,2.07,0,0,1,1.28-.42,2.59,2.59,0,0,1,.48,0,1.5,1.5,0,0,1,.39.12l-.16,1.59a2.34,2.34,0,0,0-.91-.18,1.64,1.64,0,0,0-1.38.65,2.94,2.94,0,0,0-.49,1.82v3.5Z"/><path d="M238.93,105.58V94.41h1.84v9.64H246v1.53Z"/><path d="M248.55,96.44a1,1,0,0,1-.75-.3,1,1,0,0,1-.3-.76,1.08,1.08,0,0,1,1.82-.75,1.05,1.05,0,0,1,.29.75,1.07,1.07,0,0,1-.29.76A1,1,0,0,1,248.55,96.44Zm-.83,9.14V98.16h1.69v7.42Z"/><path d="M251.79,105.58V98.16h1.63V99.3a2.41,2.41,0,0,1,.94-1,2.7,2.7,0,0,1,1.43-.37,2.44,2.44,0,0,1,2,.82,3.46,3.46,0,0,1,.7,2.34v4.5H256.8v-4.19c0-1.31-.51-2-1.53-2A1.66,1.66,0,0,0,254,100a2.31,2.31,0,0,0-.47,1.56v4Z"/><path d="M264.58,105.81a4.91,4.91,0,0,1-2.25-.48,3.41,3.41,0,0,1-1.46-1.35,4,4,0,0,1-.52-2.09,4.3,4.3,0,0,1,.48-2.07,3.56,3.56,0,0,1,1.33-1.39,3.7,3.7,0,0,1,1.94-.51,3.49,3.49,0,0,1,1.82.46,3,3,0,0,1,1.2,1.28,4.06,4.06,0,0,1,.43,1.94,6.29,6.29,0,0,1,0,.73H262a2.21,2.21,0,0,0,.83,1.57,3,3,0,0,0,1.87.53,5.75,5.75,0,0,0,2.5-.57l.17,1.32a4.56,4.56,0,0,1-1.28.46A6.67,6.67,0,0,1,264.58,105.81ZM264,99.23a1.9,1.9,0,0,0-1.36.51,2.43,2.43,0,0,0-.67,1.46H266a1.39,1.39,0,0,0,0-.3,2,2,0,0,0-.6-1.24A1.84,1.84,0,0,0,264,99.23Z"/><path d="M83.42,308.26a8.07,8.07,0,0,1-1.36-.12,8,8,0,0,1-1.3-.32,5,5,0,0,1-1-.47l.19-1.59a6.48,6.48,0,0,0,1.64.7,6.35,6.35,0,0,0,1.77.27,2.94,2.94,0,0,0,1.73-.45,1.44,1.44,0,0,0,.63-1.24,1.42,1.42,0,0,0-.21-.78,1.94,1.94,0,0,0-.74-.59,9.28,9.28,0,0,0-1.46-.57,8.69,8.69,0,0,1-2-.83,2.88,2.88,0,0,1-1.06-1,3.06,3.06,0,0,1-.32-1.44,2.9,2.9,0,0,1,.48-1.67,3.18,3.18,0,0,1,1.34-1.1,4.93,4.93,0,0,1,2-.39,7.46,7.46,0,0,1,1.73.22,6,6,0,0,1,1.52.6L86.78,299a6,6,0,0,0-1.41-.6,5.6,5.6,0,0,0-1.53-.22,2.67,2.67,0,0,0-1.55.4,1.33,1.33,0,0,0-.56,1.14,1.36,1.36,0,0,0,.19.74,1.7,1.7,0,0,0,.66.55,10.13,10.13,0,0,0,1.31.52,10.92,10.92,0,0,1,2.14.9,3.23,3.23,0,0,1,1.16,1.09,2.79,2.79,0,0,1,.36,1.43,3,3,0,0,1-1.1,2.45A4.73,4.73,0,0,1,83.42,308.26Z"/><path d="M92.65,308.26a3.21,3.21,0,0,1-1.8-.51,3.48,3.48,0,0,1-1.24-1.39,4.47,4.47,0,0,1-.45-2,4.14,4.14,0,0,1,.48-2,3.71,3.71,0,0,1,1.3-1.42,3.33,3.33,0,0,1,1.82-.53,2.93,2.93,0,0,1,1.47.38,2.87,2.87,0,0,1,1.06,1.07l0-1.22H97V308H95.32l0-1.22A2.83,2.83,0,0,1,92.65,308.26Zm.47-1.51a2.09,2.09,0,0,0,1.62-.69,2.78,2.78,0,0,0,0-3.5,2.12,2.12,0,0,0-1.62-.68,2.08,2.08,0,0,0-1.61.68,2.75,2.75,0,0,0,0,3.5A2.06,2.06,0,0,0,93.12,306.75Z"/><path d="M99.33,308V300.6H101l0,1.15a2.29,2.29,0,0,1,.94-1,2.66,2.66,0,0,1,1.42-.37,2.49,2.49,0,0,1,2,.81,3.56,3.56,0,0,1,.69,2.35V308h-1.69v-4.18c0-1.32-.51-2-1.53-2a1.61,1.61,0,0,0-1.31.56A2.3,2.3,0,0,0,101,304v4Z"/><path d="M108.16,304.57V303h4.42v1.54Z"/><path d="M118,308.26a8.69,8.69,0,0,1-2.65-.44,4.89,4.89,0,0,1-1-.47l.19-1.59a6.64,6.64,0,0,0,1.64.7,6.35,6.35,0,0,0,1.77.27,2.91,2.91,0,0,0,1.73-.45,1.51,1.51,0,0,0,.42-2,1.9,1.9,0,0,0-.73-.59,10.15,10.15,0,0,0-1.46-.57,8.5,8.5,0,0,1-2-.83,2.88,2.88,0,0,1-1.06-1,3.29,3.29,0,0,1,.15-3.11,3.15,3.15,0,0,1,1.35-1.1,4.9,4.9,0,0,1,2-.39,7.38,7.38,0,0,1,1.72.22,5.88,5.88,0,0,1,1.52.6L121.4,299a6.07,6.07,0,0,0-1.42-.6,5.48,5.48,0,0,0-1.52-.22,2.7,2.7,0,0,0-1.56.4,1.33,1.33,0,0,0-.56,1.14,1.36,1.36,0,0,0,.2.74,1.56,1.56,0,0,0,.66.55,10.51,10.51,0,0,0,1.3.52,10.41,10.41,0,0,1,2.14.9,3.15,3.15,0,0,1,1.16,1.09,2.79,2.79,0,0,1,.36,1.43,3,3,0,0,1-1.1,2.45A4.69,4.69,0,0,1,118,308.26Z"/><path d="M128,308.26a4.91,4.91,0,0,1-2.25-.48,3.46,3.46,0,0,1-1.47-1.36,4.08,4.08,0,0,1-.51-2.08,4.28,4.28,0,0,1,.48-2.07,3.49,3.49,0,0,1,1.33-1.39,3.67,3.67,0,0,1,1.94-.51,3.59,3.59,0,0,1,1.82.45,3.09,3.09,0,0,1,1.2,1.28A4.11,4.11,0,0,1,131,304a6.42,6.42,0,0,1,0,.74h-5.48a2.25,2.25,0,0,0,.83,1.57,3.06,3.06,0,0,0,1.88.53,5.75,5.75,0,0,0,2.5-.57l.17,1.32a4.9,4.9,0,0,1-1.28.46A7.27,7.27,0,0,1,128,308.26Zm-.54-6.58a1.9,1.9,0,0,0-1.36.51,2.41,2.41,0,0,0-.67,1.46h3.94a1.39,1.39,0,0,0,0-.3,2,2,0,0,0-.6-1.24A1.85,1.85,0,0,0,127.47,301.68Z"/><path d="M133,308V300.6h1.62v1.49a2.58,2.58,0,0,1,.85-1.18,2.09,2.09,0,0,1,1.28-.42,2.59,2.59,0,0,1,.48,0,1.5,1.5,0,0,1,.39.12l-.16,1.58a2.53,2.53,0,0,0-.91-.17,1.62,1.62,0,0,0-1.38.65,2.92,2.92,0,0,0-.49,1.82V308Z"/><path d="M140.13,298.89a1.07,1.07,0,0,1-.76-.31,1,1,0,0,1-.3-.75,1,1,0,0,1,.3-.75,1.13,1.13,0,0,1,1.53,0,1,1,0,0,1,.29.75,1,1,0,0,1-1.06,1.06Zm-.84,9.13V300.6H141V308Z"/><path d="M143.94,308v-6h-1.43V300.6h1.43v-1a3.91,3.91,0,0,1,.78-2.61,2.86,2.86,0,0,1,2.27-.9,4.33,4.33,0,0,1,.89.09,3.08,3.08,0,0,1,.74.23l-.16,1.38a3.27,3.27,0,0,0-.6-.16,3.42,3.42,0,0,0-.62-.06,1.4,1.4,0,0,0-1.23.52,2.83,2.83,0,0,0-.38,1.69v.86h2.14V302h-2.14v6Z"/><path d="M104.47,73.44,109,62.27h2l4.48,11.17h-2l-1.18-3.13h-4.79l-1.17,3.13ZM108,68.86h3.71l-1.86-5Z"/><path d="M120.37,73.63a4.58,4.58,0,0,1-2.15-.48,3.38,3.38,0,0,1-1.41-1.34,4,4,0,0,1-.51-2,4,4,0,0,1,.51-2.06,3.65,3.65,0,0,1,1.43-1.38,4.36,4.36,0,0,1,2.11-.5,5.17,5.17,0,0,1,1.23.15,4.13,4.13,0,0,1,1.08.39l-.22,1.44a5.12,5.12,0,0,0-1-.35,4,4,0,0,0-1-.13,2.43,2.43,0,0,0-1.78.64,2.36,2.36,0,0,0-.66,1.75,2.31,2.31,0,0,0,.67,1.76,2.53,2.53,0,0,0,1.84.64,4.75,4.75,0,0,0,1-.11,6.74,6.74,0,0,0,1.08-.35l.19,1.4a4.2,4.2,0,0,1-1.13.42A5.53,5.53,0,0,1,120.37,73.63Z"/><path d="M128.38,73.68a4.93,4.93,0,0,1-2.26-.48,3.43,3.43,0,0,1-1.46-1.36,4.1,4.1,0,0,1-.52-2.09,4.26,4.26,0,0,1,.48-2.06,3.58,3.58,0,0,1,1.33-1.4,3.72,3.72,0,0,1,1.94-.5,3.56,3.56,0,0,1,1.82.45,3.11,3.11,0,0,1,1.21,1.28,4.2,4.2,0,0,1,.42,1.94,6.18,6.18,0,0,1,0,.73h-5.48a2.23,2.23,0,0,0,.83,1.58,3,3,0,0,0,1.87.52,5.72,5.72,0,0,0,2.5-.57L131.2,73a5,5,0,0,1-1.29.47A7.1,7.1,0,0,1,128.38,73.68Zm-.55-6.59a1.86,1.86,0,0,0-1.36.52,2.43,2.43,0,0,0-.67,1.45h3.94a1.29,1.29,0,0,0,0-.29,2,2,0,0,0-.6-1.24A1.84,1.84,0,0,0,127.83,67.09Z"/><path d="M133.39,73.44V66H135v1.15a2.5,2.5,0,0,1,.94-1,2.79,2.79,0,0,1,1.43-.36,2.49,2.49,0,0,1,2,.81,3.53,3.53,0,0,1,.69,2.34v4.5H138.4V69.25c0-1.31-.51-2-1.53-2a1.66,1.66,0,0,0-1.32.56,2.36,2.36,0,0,0-.47,1.56v4Z"/><path d="M145.43,73.68a3.26,3.26,0,0,1-1.8-.51,3.5,3.5,0,0,1-1.23-1.4,4.43,4.43,0,0,1-.45-2,4.18,4.18,0,0,1,.48-2,3.86,3.86,0,0,1,1.3-1.42,3.33,3.33,0,0,1,1.82-.52,3,3,0,0,1,1.45.36,2.88,2.88,0,0,1,1.05,1V61.54h1.69v11.9h-1.63l0-1.22A2.84,2.84,0,0,1,145.43,73.68Zm.47-1.52a2.13,2.13,0,0,0,1.63-.68,2.79,2.79,0,0,0,0-3.51,2.12,2.12,0,0,0-1.63-.67,2.07,2.07,0,0,0-1.6.67,2.76,2.76,0,0,0,0,3.51A2.08,2.08,0,0,0,145.9,72.16Z"/><path d="M155.88,73.68a5,5,0,0,1-2.26-.48,3.49,3.49,0,0,1-1.46-1.36,4.1,4.1,0,0,1-.51-2.09,4.26,4.26,0,0,1,.48-2.06,3.51,3.51,0,0,1,1.33-1.4,3.67,3.67,0,0,1,1.94-.5,3.59,3.59,0,0,1,1.82.45,3,3,0,0,1,1.2,1.28,4.08,4.08,0,0,1,.43,1.94,6.25,6.25,0,0,1,0,.73h-5.48a2.27,2.27,0,0,0,.83,1.58,3.06,3.06,0,0,0,1.88.52,5.67,5.67,0,0,0,2.49-.57L158.7,73a4.89,4.89,0,0,1-1.28.47A7.27,7.27,0,0,1,155.88,73.68Zm-.54-6.59a1.85,1.85,0,0,0-1.36.52,2.38,2.38,0,0,0-.67,1.45h3.94a1.29,1.29,0,0,0,0-.29,2,2,0,0,0-.6-1.24A1.86,1.86,0,0,0,155.34,67.09Z"/><path d="M160.89,73.44V66h1.62V67.5a2.69,2.69,0,0,1,.85-1.18,2.09,2.09,0,0,1,1.28-.42,2.61,2.61,0,0,1,.48,0,2.1,2.1,0,0,1,.39.11l-.16,1.59a2.34,2.34,0,0,0-.91-.17,1.64,1.64,0,0,0-1.38.64,2.94,2.94,0,0,0-.49,1.82v3.5Z"/></g></svg>