<svg id="Layer_1" data-name="Layer 1" xmlns="http://www.w3.org/2000/svg" viewBox="0 0 520.83 520.83"><defs><style>.cls-1{fill:#8c8e90;}.cls-2{fill:#ffda00;}.cls-3{fill:#231f20;}</style></defs><rect class="cls-1" x="-22.6" y="-365.67" width="573.61" height="886.5"/><rect class="cls-2" x="118" y="-365.58" width="14.53" height="886.33"/><path class="cls-3" d="M29.4,520.83V470.67H-70.93l-30.47,50.16H-207.82L30.33,173.92H118V520.83Zm0-216.58h-.94l-57.2,96.1H29.4Z"/><path class="cls-3" d="M132.53,520.83V173.92h88.6V400.35h.94l147.2-226.43H475.69L237.54,520.83Z"/><path class="cls-3" d="M491.61,520.83V470.67H391.29l-30.47,50.16H254.4L492.55,173.92h87.66V520.83Zm0-216.58h-.94l-57.19,96.1h58.13Z"/><polygon class="cls-2" points="237.54 520.83 254.4 520.83 551.01 88.76 551.01 64.2 237.54 520.83"/></svg>