<svg xmlns="http://www.w3.org/2000/svg" viewBox="0 0 909.96 387.04"><defs><style>.cls-1{fill:none;stroke:#fff;stroke-miterlimit:10;stroke-width:5px;}.cls-2{font-size:12px;fill:#fff;font-family:AkkuratStd-Bold, Akkurat Std;font-weight:700;}.cls-3{letter-spacing:-0.07em;}.cls-4{letter-spacing:-0.03em;}.cls-5{letter-spacing:0em;}.cls-6{letter-spacing:-0.02em;}.cls-7{letter-spacing:-0.02em;}.cls-8{letter-spacing:0.03em;}</style></defs><g id="Layer_1" data-name="Layer 1"><rect width="909.96" height="387.04"/><line class="cls-1" x1="104.51" y1="124.36" x2="50.97" y2="124.36"/><line class="cls-1" x1="96.44" y1="114.12" x2="59.04" y2="114.12"/><line class="cls-1" x1="88.37" y1="103.88" x2="67.1" y2="103.88"/><line class="cls-1" x1="104.51" y1="103.88" x2="50.97" y2="103.88"/><line class="cls-1" x1="96.44" y1="93.65" x2="59.04" y2="93.65"/><polyline class="cls-1" points="98.61 76.98 77.74 76.98 77.74 93.65"/><polyline class="cls-1" points="136.63 141.02 77.74 141.02 77.74 124.36"/><line class="cls-1" x1="140.16" y1="156.26" x2="171.36" y2="141.02"/><circle class="cls-1" cx="171.36" cy="141.02" r="1"/><circle class="cls-1" cx="136.64" cy="141.02" r="1"/><line class="cls-1" x1="223.28" y1="109" x2="250.56" y2="109"/><polyline class="cls-1" points="171.36 141.02 222.88 141.02 222.88 76.95 194.6 76.95 189.26 84.6 178.64 69.37 167.96 84.6 157.28 69.37 146.66 84.6 135.98 69.37 125.31 84.6 119.97 76.95 98.61 76.98"/><text class="cls-2" transform="translate(256.55 113.19)">PIN 13 (DIGI<tspan class="cls-3" x="66.02" y="0">T</tspan><tspan x="71.92" y="0">A</tspan><tspan class="cls-4" x="79.58" y="0">L</tspan><tspan class="cls-5" x="85.88" y="0" xml:space="preserve"> IN)</tspan></text><line class="cls-1" x1="104.48" y1="259.56" x2="50.97" y2="259.56"/><line class="cls-1" x1="96.41" y1="249.33" x2="59.03" y2="249.33"/><line class="cls-1" x1="88.35" y1="239.1" x2="67.1" y2="239.1"/><line class="cls-1" x1="104.48" y1="239.1" x2="50.97" y2="239.1"/><line class="cls-1" x1="96.41" y1="228.86" x2="59.03" y2="228.86"/><polyline class="cls-1" points="134.56 212.21 77.72 212.21 77.72 228.86"/><polyline class="cls-1" points="134.56 276.21 77.72 276.21 77.72 259.56"/><rect class="cls-1" x="727.66" y="74.48" width="84.77" height="211.11"/><line class="cls-1" x1="696.2" y1="92.19" x2="727.66" y2="92.19"/><polyline class="cls-1" points="727.66 267.89 696.2 267.89 646.6 267.89 646.6 333.94"/><line class="cls-1" x1="696.2" y1="242.79" x2="727.66" y2="242.79"/><polyline class="cls-1" points="727.66 217.69 696.2 217.69 438.38 217.69 438.38 88.32 457.73 88.32"/><line class="cls-1" x1="696.2" y1="192.59" x2="727.66" y2="192.59"/><polyline class="cls-1" points="727.66 167.49 696.2 167.49 585.53 167.49 585.53 49"/><polyline class="cls-1" points="727.66 142.39 696.2 142.39 593.57 142.39"/><line class="cls-1" x1="696.2" y1="117.29" x2="727.66" y2="117.29"/><line class="cls-1" x1="812.43" y1="92.19" x2="843.88" y2="92.19"/><line class="cls-1" x1="812.43" y1="267.89" x2="843.88" y2="267.89"/><line class="cls-1" x1="812.43" y1="242.79" x2="843.88" y2="242.79"/><line class="cls-1" x1="812.43" y1="217.69" x2="843.88" y2="217.69"/><line class="cls-1" x1="812.43" y1="192.59" x2="843.88" y2="192.59"/><line class="cls-1" x1="812.43" y1="167.49" x2="843.88" y2="167.49"/><line class="cls-1" x1="812.43" y1="142.39" x2="843.88" y2="142.39"/><line class="cls-1" x1="812.43" y1="117.29" x2="843.88" y2="117.29"/><text class="cls-2" transform="translate(752.38 180.04)">L293D<tspan x="-9.58" y="14.4">H BRIDGE</tspan></text><line class="cls-1" x1="614.31" y1="49" x2="556.76" y2="49"/><line class="cls-1" x1="605.64" y1="39.4" x2="565.43" y2="39.4"/><line class="cls-1" x1="596.96" y1="29.8" x2="574.1" y2="29.8"/><text class="cls-2" transform="translate(639.61 349.53)">5<tspan class="cls-6" x="6.84" y="0">V</tspan></text><line class="cls-1" x1="635.17" y1="333.94" x2="658.03" y2="333.94"/><circle class="cls-1" cx="493.47" cy="88.32" r="18.89"/><path class="cls-1" d="M474.58,88.32a18.82,18.82,0,0,1,5-12.77H457.73v25.54h21.84A18.82,18.82,0,0,1,474.58,88.32Z"/><path class="cls-1" d="M507.37,75.55a18.81,18.81,0,0,1,0,25.54h21.85V75.55Z"/><text class="cls-2" transform="translate(463.99 59.98)">DC M<tspan class="cls-7" x="28.79" y="0">OT</tspan><tspan class="cls-5" x="42.98" y="0">OR</tspan></text><polyline class="cls-1" points="577.5 142.39 551.73 142.39 551.73 88.32 529.22 88.32"/><text class="cls-2" transform="translate(611.24 95.6)">D5 (PWM OUT)</text><text class="cls-2" transform="translate(597.29 120.38)">D4 (DIGI<tspan class="cls-3" x="45.04" y="0">T</tspan><tspan x="50.93" y="0">A</tspan><tspan class="cls-4" x="58.6" y="0">L</tspan><tspan class="cls-5" x="64.9" y="0" xml:space="preserve"> OUT)</tspan></text><text class="cls-2" transform="translate(597.29 245.63)">D3 (DIGI<tspan class="cls-3" x="45.04" y="0">T</tspan><tspan x="50.93" y="0">A</tspan><tspan class="cls-4" x="58.6" y="0">L</tspan><tspan class="cls-5" x="64.9" y="0" xml:space="preserve"> OUT)</tspan></text></g><g id="Isolation_Mode" data-name="Isolation Mode"><rect class="cls-1" x="135.71" y="200.32" width="87.77" height="87.77"/><polygon class="cls-1" points="206.71 260.25 200.09 262.15 199.08 268.96 192.23 268.35 188.82 274.33 182.66 271.28 177.32 275.63 172.67 270.55 166.13 272.68 163.62 266.27 156.75 265.89 156.73 259.01 150.46 256.18 152.93 249.75 148.11 244.84 152.73 239.74 150.01 233.42 156.16 230.34 155.9 223.46 162.75 222.81 165 216.3 171.62 218.17 176.06 212.91 181.57 217.04 187.61 213.75 191.25 219.59 198.07 218.7 199.36 225.46 206.04 227.1 204.79 233.86 210.44 237.8 206.83 243.66 210.67 249.38 205.19 253.54 206.71 260.25"/><line class="cls-1" x1="223.49" y1="244.27" x2="250.56" y2="244.27"/><text class="cls-2" transform="translate(257.15 247.89)">PIN <tspan class="cls-8" x="22.36" y="0">A</tspan><tspan x="30.32" y="0">0 (ANA</tspan><tspan class="cls-7" x="67.74" y="0">L</tspan><tspan x="74.04" y="0">OG IN)</tspan></text></g></svg>