<svg id="Layer_1" data-name="Layer 1" xmlns="http://www.w3.org/2000/svg" viewBox="0 0 754 638"><defs><style>.cls-1,.cls-5,.cls-6,.cls-7,.cls-8{fill:none;}.cls-1{stroke:#fff;}.cls-1,.cls-5,.cls-6,.cls-7,.cls-8,.cls-9{stroke-miterlimit:10;}.cls-1,.cls-5,.cls-6,.cls-7,.cls-9{stroke-width:5px;}.cls-2,.cls-3{fill:#fff;}.cls-3{font-size:36px;font-family:AkkuratStd-Bold, Akkurat Std;font-weight:700;letter-spacing:0.3em;}.cls-4{letter-spacing:0.29em;}.cls-5{stroke:#de2d14;}.cls-6,.cls-9{stroke:#7ac943;}.cls-7{stroke:#1c53c9;}.cls-8{stroke:#000;stroke-width:10px;}.cls-9{fill:#1c53c9;}</style></defs><rect x="-186" y="-216" width="1080" height="1080"/><rect class="cls-1" x="409.23" y="126.08" width="162.07" height="58.62"/><path class="cls-2" d="M564.8,204.46a3.43,3.43,0,0,1-1-2.44,3.33,3.33,0,0,1,1-2.41,6.16,6.16,0,0,1,6.91,0,3.34,3.34,0,0,1,1,2.41,3.42,3.42,0,0,1-1,2.44,3.06,3.06,0,0,1-1.84.81v-1.58a1.58,1.58,0,0,0,1.43-1.67,1.82,1.82,0,0,0-.57-1.31,5.44,5.44,0,0,0-4.89,0,1.82,1.82,0,0,0-.57,1.31,1.63,1.63,0,0,0,.54,1.28,1.73,1.73,0,0,0,.94.39v1.58A3.11,3.11,0,0,1,564.8,204.46Z"/><path class="cls-2" d="M564.76,211.21a2.93,2.93,0,0,1,0-4.36,4,4,0,0,1,4.61,0,2.93,2.93,0,0,1,0,4.36,4,4,0,0,1-4.61,0Zm3.88-1.23A1.34,1.34,0,0,0,569,209a1.33,1.33,0,0,0-.39-.95,3,3,0,0,0-3.14,0,1.29,1.29,0,0,0-.4.95,1.31,1.31,0,0,0,.4.95,3,3,0,0,0,3.14,0Z"/><path class="cls-2" d="M564,220.74h3.87c.77,0,1.21-.21,1.21-1s-.9-1.22-1.67-1.22H564v-1.49h3.87c.77,0,1.21-.21,1.21-1s-.9-1.24-1.67-1.24H564v-1.48h6.24v1.24l-.83.12a2,2,0,0,1,1,1.78,1.86,1.86,0,0,1-1,1.79,2.06,2.06,0,0,1,1,1.88,1.94,1.94,0,0,1-2.18,2H564Z"/><path class="cls-2" d="M564,231.36h3.87c.77,0,1.21-.21,1.21-1s-.9-1.23-1.67-1.23H564v-1.48h3.87c.77,0,1.21-.21,1.21-1s-.9-1.24-1.67-1.24H564V224h6.24v1.24l-.83.12a2,2,0,0,1,1,1.78,1.86,1.86,0,0,1-1,1.79,2.06,2.06,0,0,1,1,1.88,1.94,1.94,0,0,1-2.18,2H564Z"/><path class="cls-2" d="M564.76,239.29a2.93,2.93,0,0,1,0-4.36,4,4,0,0,1,4.61,0,2.93,2.93,0,0,1,0,4.36,4,4,0,0,1-4.61,0Zm3.88-1.23a1.34,1.34,0,0,0,.39-.95,1.33,1.33,0,0,0-.39-1,3,3,0,0,0-3.14,0,1.29,1.29,0,0,0-.4,1,1.31,1.31,0,0,0,.4.95,3,3,0,0,0,3.14,0Z"/><path class="cls-2" d="M564,245.28h3.83c.73,0,1.17-.24,1.17-1a1.16,1.16,0,0,0-.79-1.08,4.27,4.27,0,0,0-1.67-.21H564v-1.49h6.24v1.26l-.81.1a2.06,2.06,0,0,1,1,1.84,2,2,0,0,1-2.23,2.11H564Z"/><path class="cls-2" d="M564.8,256.51a3.41,3.41,0,0,1-1-2.43,3.29,3.29,0,0,1,1-2.41,6.16,6.16,0,0,1,6.91,0,3.3,3.3,0,0,1,1,2.41,3.39,3.39,0,0,1-1,2.43,3.13,3.13,0,0,1-1.84.82v-1.59a1.59,1.59,0,0,0,.9-.38,1.62,1.62,0,0,0,.53-1.28,1.78,1.78,0,0,0-.57-1.31,5.36,5.36,0,0,0-4.89,0,1.78,1.78,0,0,0-.57,1.31,1.66,1.66,0,0,0,.54,1.28,1.71,1.71,0,0,0,.94.38v1.59A3.19,3.19,0,0,1,564.8,256.51Z"/><path class="cls-2" d="M563.85,263.29a1,1,0,0,1,.88-1.05,2.18,2.18,0,0,1-.94-1.9,2,2,0,1,1,3.91-.14l.13,1.83h.39c.59,0,1-.2,1-1s-.31-1.11-.89-1.14v-1.45c1.41.08,2,1.19,2,2.59a2.23,2.23,0,0,1-1.27,2.33,3.38,3.38,0,0,1-1.26.18H565.5c-.29,0-.4.1-.4.35a1,1,0,0,0,0,.19H564A1.47,1.47,0,0,1,563.85,263.29Zm2.87-1.26-.12-1.58a.87.87,0,0,0-.82-.9.82.82,0,0,0-.78.89,1.41,1.41,0,0,0,1.43,1.59Z"/><path class="cls-2" d="M563.87,267.53a1.7,1.7,0,0,1,1.91-1.88H569v-1.14h1.24v1.14h1.58l.37,1.49h-1.95v1.58H569v-1.58h-3c-.48,0-.69.22-.69.7a7.16,7.16,0,0,0,.06,1H564A5.47,5.47,0,0,1,563.87,267.53Z"/><path class="cls-2" d="M564,273.9h3.85c.72,0,1.16-.24,1.16-1s-1-1.29-1.72-1.29H564v-1.49h8.66v1.49h-3.08a2.12,2.12,0,0,1,.81,1.71,2,2,0,0,1-2.23,2.11H564Z"/><path class="cls-2" d="M564.76,281.84a2.93,2.93,0,0,1,0-4.36,4,4,0,0,1,4.61,0,2.93,2.93,0,0,1,0,4.36,4,4,0,0,1-4.61,0Zm3.88-1.23a1.35,1.35,0,0,0,0-1.9,3,3,0,0,0-3.14,0,1.33,1.33,0,0,0,0,1.9,3,3,0,0,0,3.14,0Z"/><path class="cls-2" d="M564,288.06l.68-.1a2,2,0,0,1-.83-1.75,2.39,2.39,0,0,1,.53-1.52,3.38,3.38,0,0,1,2.73-1.1,3.43,3.43,0,0,1,2.78,1.11,2.35,2.35,0,0,1,.5,1.52,2.11,2.11,0,0,1-.59,1.64h2.86v1.49H564Zm5.13-1.55a1.23,1.23,0,0,0-.49-1,3.14,3.14,0,0,0-3,0,1.23,1.23,0,0,0-.5,1c0,1.18,1.12,1.42,2,1.42S569.08,287.69,569.08,286.51Z"/><path class="cls-2" d="M566.6,296.49v-4.17a1.64,1.64,0,0,0-1.22.46,1.27,1.27,0,0,0-.39.92,1.18,1.18,0,0,0,.3.91,1.14,1.14,0,0,0,.53.3v1.44a2.52,2.52,0,0,1-1.15-.53,2.64,2.64,0,0,1-.88-2.1,2.7,2.7,0,0,1,.77-2,3.37,3.37,0,0,1,2.5-1,3.49,3.49,0,0,1,2.49.9,2.71,2.71,0,0,1,.79,2,2.64,2.64,0,0,1-1.15,2.28,3.56,3.56,0,0,1-2.17.54Zm2.18-1.87a1.22,1.22,0,0,0,.36-.94,1.29,1.29,0,0,0-.48-1.05,1.53,1.53,0,0,0-1-.32V295A1.6,1.6,0,0,0,568.78,294.62Z"/><path class="cls-2" d="M549.55,201.13v-1.62l7,3.27v-4.14h1.34v5.74h-1.19Z"/><path class="cls-2" d="M552.57,205.63h1.35v4.12h-1.35Z"/><path class="cls-2" d="M550.3,217a3.81,3.81,0,0,1-.91-2.69,3.7,3.7,0,0,1,.88-2.54,2.67,2.67,0,0,1,2-.89v1.58a1.5,1.5,0,0,0-1,.45,2,2,0,0,0-.46,1.42,2,2,0,0,0,.46,1.48,1,1,0,0,0,.81.34c.62,0,.91-.48,1-1s.13-1.32.23-1.88a2.33,2.33,0,0,1,2.37-2.16,2.36,2.36,0,0,1,1.68.74,3.63,3.63,0,0,1,.9,2.49,3.52,3.52,0,0,1-.83,2.38,2.57,2.57,0,0,1-1.81.86v-1.58a1.4,1.4,0,0,0,.84-.37,2,2,0,0,0,.46-1.3,1.92,1.92,0,0,0-.47-1.38,1,1,0,0,0-.72-.28.91.91,0,0,0-.93.86c-.08.54-.14,1.29-.21,1.85a2.47,2.47,0,0,1-2.46,2.33A2.4,2.4,0,0,1,550.3,217Z"/><path class="cls-2" d="M552.2,224.26v-4.18a1.64,1.64,0,0,0-1.22.46,1.27,1.27,0,0,0-.39.92,1.18,1.18,0,0,0,.3.91,1.14,1.14,0,0,0,.53.3v1.44a2.43,2.43,0,0,1-1.15-.53,2.67,2.67,0,0,1-.88-2.1,2.7,2.7,0,0,1,.77-2,3.37,3.37,0,0,1,2.5-1,3.49,3.49,0,0,1,2.49.9,2.71,2.71,0,0,1,.79,2,2.64,2.64,0,0,1-1.15,2.28,3.56,3.56,0,0,1-2.17.54Zm2.18-1.88a1.22,1.22,0,0,0,.36-.94,1.29,1.29,0,0,0-.48-1.05,1.53,1.53,0,0,0-1-.32v2.7A1.6,1.6,0,0,0,554.38,222.38Z"/><path class="cls-2" d="M546.63,228.16a3.8,3.8,0,0,1,.52-2.21,1.61,1.61,0,0,1,1.37-.76,1.39,1.39,0,0,1,1.27.75,1.24,1.24,0,0,1,1.07-.63,1.42,1.42,0,0,1,1.26.75,2.09,2.09,0,0,1,1.53-.63,2.31,2.31,0,0,1,2.29,2.56,2.78,2.78,0,0,1-.38,1.41,1.36,1.36,0,0,1,.78,1.27,1.84,1.84,0,0,1,0,.41h-1.16s0-.08,0-.12c0-.34-.09-.66-.39-.75a2.19,2.19,0,0,1-1.13.32,2.34,2.34,0,0,1-2.27-2.54,3.06,3.06,0,0,1,.17-1,.56.56,0,0,0-.44-.31c-.38,0-.46.37-.46.68v1a3.57,3.57,0,0,1-.42,2,1.72,1.72,0,0,1-1.5.76C547.08,231.17,546.63,229.55,546.63,228.16Zm2.82.1v-1.17a.76.76,0,0,0-.76-.56c-.8,0-.87,1-.87,1.57s0,1.65.87,1.65S549.45,228.83,549.45,228.26Zm5.36-.27a1.16,1.16,0,1,0-1.16,1.1A1.07,1.07,0,0,0,554.81,228Z"/><path class="cls-2" d="M549.55,239.64h3.87c.77,0,1.21-.21,1.21-1s-.9-1.23-1.67-1.23h-3.41V236h3.87c.77,0,1.21-.21,1.21-1s-.9-1.24-1.67-1.24h-3.41v-1.48h6.24v1.24l-.83.12a2,2,0,0,1,1,1.78,1.83,1.83,0,0,1-1,1.78,2.09,2.09,0,0,1,1,1.89,1.94,1.94,0,0,1-2.18,2h-4.21Z"/><path class="cls-2" d="M552.2,248.17V244a1.63,1.63,0,0,0-1.22.45,1.31,1.31,0,0,0-.39.93,1.19,1.19,0,0,0,.3.91,1.14,1.14,0,0,0,.53.3V248a2.52,2.52,0,0,1-1.15-.53,2.7,2.7,0,0,1-.88-2.1,2.74,2.74,0,0,1,.77-2,3.41,3.41,0,0,1,2.5-1,3.49,3.49,0,0,1,2.49.9,2.71,2.71,0,0,1,.79,2,2.62,2.62,0,0,1-1.15,2.28,3.43,3.43,0,0,1-2.17.54Zm2.18-1.87a1.24,1.24,0,0,0,.36-1,1.27,1.27,0,0,0-.48-1,1.47,1.47,0,0,0-1-.32v2.69A1.6,1.6,0,0,0,554.38,246.3Z"/><path class="cls-2" d="M549.55,253.4h3.83c.73,0,1.17-.24,1.17-1a1.18,1.18,0,0,0-.79-1.08,4.46,4.46,0,0,0-1.67-.2h-2.54v-1.5h6.24v1.26L555,251a2.15,2.15,0,0,1-1.27,3.94h-4.16Z"/><path class="cls-2" d="M549.46,258.92a1.72,1.72,0,0,1,1.92-1.88h3.17V255.9h1.24V257h1.58l.37,1.5h-2v1.57h-1.24v-1.57h-3c-.48,0-.69.22-.69.7a7.16,7.16,0,0,0,.06,1h-1.26A5.49,5.49,0,0,1,549.46,258.92Z"/><path class="cls-2" d="M550.46,269.75a3.27,3.27,0,0,1-.91-2.39v-3.31h8.5v3.31a3.27,3.27,0,0,1-.91,2.39,6.13,6.13,0,0,1-6.68,0Zm5.72-1.19a1.68,1.68,0,0,0,.48-1.2V265.6h-5.72v1.76a1.68,1.68,0,0,0,.48,1.2,3.36,3.36,0,0,0,2.39.61A3.31,3.31,0,0,0,556.18,268.56Z"/><path class="cls-2" d="M549.55,272.22h6.24v1.52h-6.24Zm7.1-.05h1.55v1.61h-1.55Z"/><path class="cls-2" d="M550.11,279.94a3,3,0,0,1-.72-2.14,2.84,2.84,0,0,1,.72-2,2.08,2.08,0,0,1,1.45-.66v1.4a1,1,0,0,0-.73.33,1.42,1.42,0,0,0-.27.95c0,.51.1,1.27.79,1.27a.66.66,0,0,0,.66-.62c.08-.55.12-1.18.24-1.73a1.72,1.72,0,0,1,1.67-1.42,1.79,1.79,0,0,1,1.4.63,2.91,2.91,0,0,1,.62,1.9,2.68,2.68,0,0,1-.73,2,1.92,1.92,0,0,1-1.28.55v-1.42a.81.81,0,0,0,.58-.26,1.19,1.19,0,0,0,.29-.81,1.65,1.65,0,0,0-.09-.65.73.73,0,0,0-.66-.48c-.45,0-.58.38-.63.72-.07.56-.08.72-.18,1.33a1.8,1.8,0,0,1-1.76,1.7A1.88,1.88,0,0,1,550.11,279.94Z"/><path class="cls-2" d="M549.9,286.53a2.34,2.34,0,0,1-.51-1.52,2.18,2.18,0,0,1,.61-1.63h-2.84v-1.5h8.63v1.3l-.69.09a2,2,0,0,1,.83,1.75,2.34,2.34,0,0,1-.53,1.51,3.33,3.33,0,0,1-2.72,1.12A3.4,3.4,0,0,1,549.9,286.53Zm4.28-.8a1.21,1.21,0,0,0,.49-1c0-1.17-1.12-1.41-2-1.41s-2,.24-2,1.41a1.24,1.24,0,0,0,.49,1,3.09,3.09,0,0,0,3,0Z"/><path class="cls-2" d="M549.48,290.76a1.51,1.51,0,0,1,1.68-1.7h7.06v1.51h-6.81c-.36,0-.6.08-.6.6,0,.13,0,.17,0,.25h-1.26A2.48,2.48,0,0,1,549.48,290.76Z"/><path class="cls-2" d="M549.45,297.41a1,1,0,0,1,.88-1.06,2.2,2.2,0,0,1-.94-1.89,2,2,0,0,1,2-2.26,2,2,0,0,1,1.95,2.11l.14,1.84h.38c.59,0,1-.21,1-1.06,0-.69-.31-1.1-.88-1.14V292.5c1.4.08,2,1.2,2,2.59a2.24,2.24,0,0,1-1.27,2.34,3.35,3.35,0,0,1-1.26.18H551.1c-.29,0-.4.1-.4.35a1.13,1.13,0,0,0,0,.19h-1.1A1.47,1.47,0,0,1,549.45,297.41Zm2.87-1.26-.12-1.59a.88.88,0,0,0-.82-.9.82.82,0,0,0-.78.89,1.41,1.41,0,0,0,1.43,1.6Z"/><path class="cls-2" d="M548.48,302a2,2,0,0,1-1.56-1.92,4,4,0,0,1,.16-1.16h1.25a3.4,3.4,0,0,0-.11.84.7.7,0,0,0,.47.72l.87.36,6.23-2.45v1.64l-4.51,1.63,4.51,1.56v1.52Z"/><path class="cls-2" d="M655.24,454.83h-1.8v3.05h-1.53v-8.5h3.33c2,0,3,1.09,3,2.72S657.19,454.83,655.24,454.83Zm-.06-4.1h-1.74v2.75h1.74c1,0,1.5-.55,1.5-1.37S656.21,450.73,655.18,450.73Z"/><path class="cls-2" d="M664.6,457.88,660.92,452v5.84h-1.53v-8.5H661l3.63,5.75v-5.75h1.52v8.5Z"/><path class="cls-2" d="M671.52,454.83h-1.8v3.05h-1.53v-8.5h3.33c2,0,3,1.09,3,2.72S673.48,454.83,671.52,454.83Zm-.06-4.1h-1.74v2.75h1.74c1,0,1.5-.55,1.5-1.37S672.5,450.73,671.46,450.73Z"/><path class="cls-2" d="M680.85,450.82v7.06H679.3v-7.06h-2.52v-1.44h6.59v1.44Z"/><path class="cls-2" d="M686.54,453a1.58,1.58,0,0,0-1.61,1.77v3.14h-1.51v-6.24h1.27l.13.94a1.79,1.79,0,0,1,1.76-1,3.59,3.59,0,0,1,.47,0V453A3.07,3.07,0,0,0,686.54,453Z"/><path class="cls-2" d="M692.73,458a1,1,0,0,1-1.06-.87,2.2,2.2,0,0,1-1.89.94,2,2,0,1,1-.15-3.92l1.84-.13v-.38c0-.59-.21-1-1.06-1-.69,0-1.1.31-1.14.88h-1.45c.09-1.4,1.2-2,2.59-2a2.24,2.24,0,0,1,2.34,1.27,3.35,3.35,0,0,1,.18,1.26v2.31c0,.29.1.4.35.4a.78.78,0,0,0,.19,0v1.11A1.48,1.48,0,0,1,692.73,458Zm-1.26-2.86-1.59.12a.87.87,0,0,0-.9.81.82.82,0,0,0,.89.78,1.41,1.41,0,0,0,1.6-1.42Z"/><path class="cls-2" d="M698.59,457.88v-3.83c0-.73-.24-1.17-1-1.17a1.18,1.18,0,0,0-1.08.79,4.46,4.46,0,0,0-.2,1.67v2.54h-1.5v-6.24H696l.11.81a2.15,2.15,0,0,1,3.94,1.27v4.16Z"/><path class="cls-2" d="M706.18,457.32A3,3,0,0,1,704,458a2.84,2.84,0,0,1-2-.72,2.08,2.08,0,0,1-.66-1.45h1.4a1,1,0,0,0,.34.73,1.4,1.4,0,0,0,.95.27c.5,0,1.27-.11,1.27-.79a.66.66,0,0,0-.63-.66c-.55-.08-1.17-.12-1.72-.24a1.73,1.73,0,0,1-1.43-1.67,1.77,1.77,0,0,1,.63-1.4,2.85,2.85,0,0,1,1.9-.62,2.68,2.68,0,0,1,1.95.73,1.94,1.94,0,0,1,.56,1.28h-1.43a.88.88,0,0,0-.25-.59,1.21,1.21,0,0,0-.82-.28,1.68,1.68,0,0,0-.65.09.73.73,0,0,0-.48.66c0,.45.39.58.72.63.57.07.72.08,1.33.18a1.79,1.79,0,0,1,1.71,1.76A1.89,1.89,0,0,1,706.18,457.32Z"/><path class="cls-2" d="M708.1,450.78v-1.55h1.61v1.55Zm0,7.1v-6.24h1.52v6.24Z"/><path class="cls-2" d="M715.86,457.32a3,3,0,0,1-2.13.72,2.88,2.88,0,0,1-2-.72,2.08,2.08,0,0,1-.66-1.45h1.41a1,1,0,0,0,.33.73,1.42,1.42,0,0,0,1,.27c.5,0,1.27-.11,1.27-.79a.66.66,0,0,0-.62-.66c-.55-.08-1.18-.12-1.73-.24a1.74,1.74,0,0,1-1.43-1.67,1.78,1.78,0,0,1,.64-1.4,2.81,2.81,0,0,1,1.89-.62,2.7,2.7,0,0,1,2,.73,2,2,0,0,1,.55,1.28h-1.43a.84.84,0,0,0-.25-.59,1.19,1.19,0,0,0-.81-.28,1.65,1.65,0,0,0-.65.09.71.71,0,0,0-.48.66c0,.45.38.58.72.63.56.07.72.08,1.33.18a1.79,1.79,0,0,1,1.7,1.76A1.85,1.85,0,0,1,715.86,457.32Z"/><path class="cls-2" d="M720,458a1.71,1.71,0,0,1-1.88-1.92v-3.16H717v-1.24h1.14v-1.58l1.5-.37v1.95h1.57v1.24h-1.57v3c0,.48.21.69.69.69a9,9,0,0,0,1-.06v1.25A4.88,4.88,0,0,1,720,458Z"/><path class="cls-2" d="M727.09,457.06a2.91,2.91,0,0,1-4.36,0,3.35,3.35,0,0,1-.73-2.3,3.39,3.39,0,0,1,.73-2.3,2.93,2.93,0,0,1,4.36,0,3.39,3.39,0,0,1,.74,2.3A3.36,3.36,0,0,1,727.09,457.06Zm-1.23-3.87a1.29,1.29,0,0,0-1-.4,1.31,1.31,0,0,0-.95.4,3,3,0,0,0,0,3.14,1.31,1.31,0,0,0,.95.4,1.29,1.29,0,0,0,1-.4,3,3,0,0,0,0-3.14Z"/><path class="cls-2" d="M732.39,453a1.58,1.58,0,0,0-1.61,1.77v3.14h-1.51v-6.24h1.27l.13.94a1.79,1.79,0,0,1,1.76-1,3.59,3.59,0,0,1,.47,0V453A3.07,3.07,0,0,0,732.39,453Z"/><path class="cls-2" d="M739.59,454.71l2.13,3.17H740l-1.39-2.09-1.37,2.09h-1.64l2.18-3.18-2.19-3.06h1.72l1.4,2,1.35-2h1.64Z"/><path class="cls-2" d="M747.31,456.2v1.68h-1.49V456.2H742.1v-1.41l3.06-5.25h1.63l-3.11,5.31h2.14v-2h1.49v2h1.06v1.35Z"/><line class="cls-1" x1="448.49" y1="110.88" x2="448.49" y2="126.08"/><line class="cls-1" x1="465.2" y1="110.88" x2="465.2" y2="126.08"/><line class="cls-1" x1="481.91" y1="110.88" x2="481.91" y2="126.08"/><line class="cls-1" x1="498.62" y1="110.88" x2="498.62" y2="126.08"/><line class="cls-1" x1="515.33" y1="110.88" x2="515.33" y2="126.08"/><line class="cls-1" x1="532.04" y1="110.88" x2="532.04" y2="126.08"/><line class="cls-1" x1="448.49" y1="184.7" x2="448.49" y2="199.91"/><line class="cls-1" x1="465.2" y1="184.7" x2="465.2" y2="199.91"/><line class="cls-1" x1="481.91" y1="184.7" x2="481.91" y2="199.91"/><line class="cls-1" x1="498.62" y1="184.7" x2="498.62" y2="199.91"/><line class="cls-1" x1="515.33" y1="184.7" x2="515.33" y2="199.91"/><line class="cls-1" x1="532.04" y1="184.7" x2="532.04" y2="199.91"/><text class="cls-3" transform="translate(430.92 167.12)">XXX<tspan class="cls-4" x="97.52" y="0">X</tspan></text><polyline class="cls-5" points="448.49 199.91 448.49 276.69 115.27 276.69"/><polyline class="cls-5" points="465.2 199.91 465.2 293.41 115.27 293.41"/><polyline class="cls-5" points="481.91 199.91 481.91 310.12 115.27 310.12"/><polyline class="cls-5" points="498.62 199.91 498.62 326.83 115.27 326.83"/><polyline class="cls-5" points="515.33 199.91 515.33 343.54 115.27 343.54"/><line class="cls-1" x1="695.54" y1="630.21" x2="695.54" y2="580.43"/><line class="cls-1" x1="705.14" y1="623.48" x2="705.14" y2="587.16"/><line class="cls-1" x1="714.74" y1="616.75" x2="714.74" y2="593.89"/><polyline class="cls-6" points="163.27 482.76 163.27 427.1 163.27 360.25 115.27 360.25"/><g id="Transitor"><circle class="cls-1" cx="201.83" cy="482.76" r="25.04"/><line class="cls-1" x1="195.83" y1="467.25" x2="195.83" y2="498.28"/><polyline class="cls-1" points="195.83 482.76 163.27 482.76 163.27 499.22"/><polygon class="cls-1" points="202.93 489.86 205.09 497.92 210.99 492.02 202.93 489.86"/><polyline class="cls-1" points="195.83 482.76 225.27 512.2 225.27 520.75"/><polyline class="cls-1" points="225.27 447.33 225.27 453.32 195.83 482.76"/></g><polyline class="cls-1" points="225.3 605.32 225.3 582.51 215.69 578.59 234.84 570.79 215.69 562.96 234.84 555.12 215.69 547.32 234.84 539.48 215.69 531.64 225.3 527.72 225.27 520.75"/><polyline class="cls-1" points="163.27 499.22 163.3 505.46 155.42 508.97 171.12 515.99 155.42 523.01 171.12 529.99 155.42 537 171.12 544.02 171.12 544.02 155.42 551.04 171.12 558.02 155.42 565.04 171.12 572.05 155.42 579.03 163.3 582.54 163.3 604.33 695.53 604.33"/><path class="cls-2" d="M245.14,536.75a2.66,2.66,0,0,1,2.56-2.83v1.5a1.25,1.25,0,0,0-1.24,1.34,1.21,1.21,0,0,0,1.24,1.32c.87,0,1.26-.68,1.26-1.46V536h1.31v.63c0,.81.34,1.28,1.12,1.28a1.1,1.1,0,0,0,1.09-1.14c0-.74-.37-1.27-1.13-1.28V534a2.51,2.51,0,0,1,2.43,2.79,2.42,2.42,0,0,1-2.36,2.66,1.89,1.89,0,0,1-1.79-1.2,2,2,0,0,1-1.95,1.37A2.54,2.54,0,0,1,245.14,536.75Z"/><path class="cls-2" d="M245.14,543.59a2.66,2.66,0,0,1,2.56-2.83v1.5a1.25,1.25,0,0,0-1.24,1.34,1.21,1.21,0,0,0,1.24,1.32c.87,0,1.26-.68,1.26-1.46v-.63h1.31v.63c0,.81.34,1.28,1.12,1.28a1.1,1.1,0,0,0,1.09-1.14c0-.74-.37-1.27-1.13-1.28v-1.51a2.51,2.51,0,0,1,2.43,2.79,2.42,2.42,0,0,1-2.36,2.66,1.89,1.89,0,0,1-1.79-1.2,2,2,0,0,1-1.95,1.37A2.54,2.54,0,0,1,245.14,543.59Z"/><path class="cls-2" d="M245.88,552.44a2.91,2.91,0,0,1,0-3.88c.83-.86,2.22-1,3.59-1s2.76.14,3.58,1a2.94,2.94,0,0,1,0,3.88c-.82.87-2.22,1-3.58,1S246.71,553.31,245.88,552.44Zm6.53-1.94c0-1.55-1.86-1.41-2.94-1.41s-2.94-.14-2.94,1.41,1.86,1.42,2.94,1.42S252.41,552.05,252.41,550.5Z"/><path class="cls-2" d="M246.1,562.91a3.61,3.61,0,0,1,0-4.9,6.08,6.08,0,0,1,6.89,0,3.61,3.61,0,0,1,0,4.9,6,6,0,0,1-6.89,0ZM252,561.8a1.88,1.88,0,0,0,0-2.68,5.21,5.21,0,0,0-4.89,0,1.88,1.88,0,0,0,0,2.68,5.13,5.13,0,0,0,4.89,0Z"/><path class="cls-2" d="M245.29,569.25h3.85c.72,0,1.17-.25,1.17-1s-1-1.28-1.73-1.28h-3.29v-1.5H254v1.5h-3.08a2.09,2.09,0,0,1,.82,1.7,2,2,0,0,1-2.23,2.11h-4.17Z"/><path class="cls-2" d="M245.29,579.88h3.88c.76,0,1.21-.21,1.21-1s-.9-1.23-1.68-1.23h-3.41v-1.48h3.88c.76,0,1.21-.21,1.21-1s-.9-1.24-1.68-1.24h-3.41v-1.49h6.24v1.25l-.83.12a2,2,0,0,1,1,1.78,1.85,1.85,0,0,1-1,1.78,2.09,2.09,0,0,1,1,1.88,1.94,1.94,0,0,1-2.19,2h-4.21Z"/><path class="cls-2" d="M181,535h6.56l-1.33-1.83h1.63l1.48,2v1.28H181Z"/><path class="cls-2" d="M181.58,544a2.9,2.9,0,0,1,0-3.89c.83-.86,2.22-1,3.58-1s2.76.13,3.59,1a3,3,0,0,1,0,3.89c-.83.86-2.22,1-3.59,1S182.41,544.87,181.58,544Zm6.52-1.94c0-1.55-1.86-1.42-2.94-1.42s-2.93-.13-2.93,1.42,1.85,1.41,2.93,1.41S188.1,543.61,188.1,542.07Z"/><path class="cls-2" d="M181,552.1l4-2.31-1.72-1.46H181v-1.55h8.5v1.55h-3.92l3.92,3.39v1.89l-3.21-2.74-5.29,3Z"/><path class="cls-2" d="M181.79,562.91a3.61,3.61,0,0,1,0-4.9,6.1,6.1,0,0,1,6.9,0,3.61,3.61,0,0,1,0,4.9,6.05,6.05,0,0,1-6.9,0Zm5.89-1.11a1.86,1.86,0,0,0,0-2.68,5.18,5.18,0,0,0-4.88,0,1.88,1.88,0,0,0,0,2.68,5.11,5.11,0,0,0,4.88,0Z"/><path class="cls-2" d="M181,569.25h3.85c.72,0,1.16-.25,1.16-1s-1-1.28-1.72-1.28H181v-1.5h8.66v1.5h-3.08a2.11,2.11,0,0,1,.81,1.7,2,2,0,0,1-2.23,2.11H181Z"/><path class="cls-2" d="M181,579.88h3.87c.77,0,1.22-.21,1.22-1s-.9-1.23-1.68-1.23H181v-1.48h3.87c.77,0,1.22-.21,1.22-1s-.9-1.24-1.68-1.24H181v-1.49h6.24v1.25l-.83.12a2,2,0,0,1,1,1.78,1.83,1.83,0,0,1-1,1.78,2.08,2.08,0,0,1,1,1.88,1.93,1.93,0,0,1-2.18,2H181Z"/><polyline class="cls-7" points="532.04 199.91 532.04 360.25 225.27 360.25 225.27 427.1 225.27 447.33"/><polyline id="Shadow" class="cls-8" points="298.53 482.76 298.53 427.1 298.53 376.96 163.27 376.96 115.27 376.96"/><polyline class="cls-6" points="298.53 482.76 298.53 427.1 298.53 376.96 163.27 376.96 115.27 376.96"/><g id="Transitor-2" data-name="Transitor"><circle class="cls-1" cx="337.09" cy="482.76" r="25.04"/><line class="cls-1" x1="331.09" y1="467.25" x2="331.09" y2="498.28"/><polyline class="cls-1" points="331.09 482.76 298.53 482.76 298.53 499.22"/><polygon class="cls-1" points="338.18 489.86 340.34 497.92 346.24 492.02 338.18 489.86"/><polyline class="cls-1" points="331.09 482.76 360.53 512.2 360.53 520.75"/><polyline class="cls-1" points="360.53 447.33 360.53 453.32 331.09 482.76"/></g><polyline class="cls-1" points="360.56 605.32 360.56 582.51 350.95 578.59 370.1 570.79 350.95 562.96 370.1 555.12 350.95 547.32 370.1 539.48 350.95 531.64 360.56 527.72 360.53 520.75"/><polyline class="cls-1" points="298.56 604.33 298.56 582.54 290.68 579.03 306.38 572.05 290.68 565.04 306.38 558.02 290.68 551.04 306.38 544.02 306.38 544.02 290.68 537 306.38 529.99 290.68 523.01 306.38 515.99 290.68 508.97 298.56 505.46 298.53 499.22"/><path class="cls-2" d="M380.39,536.75a2.66,2.66,0,0,1,2.57-2.83v1.5a1.26,1.26,0,0,0-1.25,1.34,1.22,1.22,0,0,0,1.25,1.32c.87,0,1.26-.68,1.26-1.46V536h1.31v.63c0,.81.33,1.28,1.11,1.28a1.1,1.1,0,0,0,1.09-1.14c0-.74-.37-1.27-1.12-1.28V534a2.51,2.51,0,0,1,2.43,2.79,2.42,2.42,0,0,1-2.36,2.66,1.88,1.88,0,0,1-1.79-1.2,2,2,0,0,1-1.95,1.37A2.55,2.55,0,0,1,380.39,536.75Z"/><path class="cls-2" d="M380.39,543.59a2.66,2.66,0,0,1,2.57-2.83v1.5a1.26,1.26,0,0,0-1.25,1.34,1.22,1.22,0,0,0,1.25,1.32c.87,0,1.26-.68,1.26-1.46v-.63h1.31v.63c0,.81.33,1.28,1.11,1.28a1.1,1.1,0,0,0,1.09-1.14c0-.74-.37-1.27-1.12-1.28v-1.51A2.51,2.51,0,0,1,389,543.6a2.42,2.42,0,0,1-2.36,2.66,1.88,1.88,0,0,1-1.79-1.2,2,2,0,0,1-1.95,1.37A2.55,2.55,0,0,1,380.39,543.59Z"/><path class="cls-2" d="M381.14,552.44a2.88,2.88,0,0,1,0-3.88c.83-.86,2.22-1,3.58-1s2.76.14,3.59,1a2.94,2.94,0,0,1,0,3.88c-.83.87-2.22,1-3.59,1S382,553.31,381.14,552.44Zm6.52-1.94c0-1.55-1.86-1.41-2.94-1.41s-2.93-.14-2.93,1.41,1.86,1.42,2.93,1.42S387.66,552.05,387.66,550.5Z"/><path class="cls-2" d="M381.35,562.91a3.61,3.61,0,0,1,0-4.9,6.1,6.1,0,0,1,6.9,0,3.61,3.61,0,0,1,0,4.9,6.05,6.05,0,0,1-6.9,0Zm5.89-1.11a1.86,1.86,0,0,0,0-2.68,5.18,5.18,0,0,0-4.88,0,1.88,1.88,0,0,0,0,2.68,5.11,5.11,0,0,0,4.88,0Z"/><path class="cls-2" d="M380.55,569.25h3.85c.72,0,1.16-.25,1.16-1s-1-1.28-1.72-1.28h-3.29v-1.5h8.66v1.5h-3.08a2.09,2.09,0,0,1,.81,1.7,2,2,0,0,1-2.23,2.11h-4.16Z"/><path class="cls-2" d="M380.55,579.88h3.87c.77,0,1.22-.21,1.22-1s-.9-1.23-1.68-1.23h-3.41v-1.48h3.87c.77,0,1.22-.21,1.22-1S384.74,574,384,574h-3.41v-1.49h6.24v1.25l-.83.12a2,2,0,0,1,1,1.78,1.83,1.83,0,0,1-1,1.78,2.08,2.08,0,0,1,1,1.88,1.93,1.93,0,0,1-2.18,2h-4.21Z"/><path class="cls-2" d="M316.25,535h6.56l-1.33-1.83h1.63l1.47,2v1.28h-8.33Z"/><path class="cls-2" d="M316.84,544a2.9,2.9,0,0,1,0-3.89c.82-.86,2.21-1,3.58-1s2.76.13,3.59,1a3,3,0,0,1,0,3.89c-.83.86-2.22,1-3.59,1S317.66,544.87,316.84,544Zm6.52-1.94c0-1.55-1.86-1.42-2.94-1.42s-2.94-.13-2.94,1.42,1.86,1.41,2.94,1.41S323.36,543.61,323.36,542.07Z"/><path class="cls-2" d="M316.25,552.1l4-2.31-1.72-1.46h-2.3v-1.55h8.5v1.55h-3.92l3.92,3.39v1.89l-3.21-2.74-5.29,3Z"/><path class="cls-2" d="M317.05,562.91a3.61,3.61,0,0,1,0-4.9,4.44,4.44,0,0,1,3.44-1.07A4.49,4.49,0,0,1,324,558a3.61,3.61,0,0,1,0,4.9,4.5,4.5,0,0,1-3.46,1.08A4.44,4.44,0,0,1,317.05,562.91Zm5.89-1.11a1.88,1.88,0,0,0,0-2.68,3.58,3.58,0,0,0-2.45-.61,3.52,3.52,0,0,0-2.43.61,1.88,1.88,0,0,0,0,2.68,3.53,3.53,0,0,0,2.43.62A3.58,3.58,0,0,0,322.94,561.8Z"/><path class="cls-2" d="M316.25,569.25h3.85c.72,0,1.16-.25,1.16-1s-1-1.28-1.73-1.28h-3.28v-1.5h8.66v1.5h-3.08a2.11,2.11,0,0,1,.81,1.7,2,2,0,0,1-2.23,2.11h-4.16Z"/><path class="cls-2" d="M316.25,579.88h3.87c.77,0,1.21-.21,1.21-1s-.9-1.23-1.68-1.23h-3.4v-1.48h3.87c.77,0,1.21-.21,1.21-1s-.9-1.24-1.68-1.24h-3.4v-1.49h6.23v1.25l-.82.12a2,2,0,0,1,1,1.78,1.83,1.83,0,0,1-1,1.78,2.08,2.08,0,0,1,1,1.88,1.94,1.94,0,0,1-2.18,2h-4.21Z"/><polyline class="cls-7" points="515.33 110.88 515.33 93.42 597.62 93.42 597.62 376.96 360.53 376.96 360.53 427.1 360.53 447.33"/><polyline id="Shadow-2" data-name="Shadow" class="cls-8" points="433.79 482.76 433.79 427.1 433.79 393.67 163.27 393.67 115.27 393.67"/><polyline class="cls-6" points="433.79 482.76 433.79 427.1 433.79 393.67 163.27 393.67 115.27 393.67"/><g id="Transitor-3" data-name="Transitor"><circle class="cls-1" cx="472.34" cy="482.76" r="25.04"/><line class="cls-1" x1="466.34" y1="467.25" x2="466.34" y2="498.28"/><polyline class="cls-1" points="466.34 482.76 433.79 482.76 433.79 499.22"/><polygon class="cls-1" points="473.44 489.86 475.6 497.92 481.5 492.02 473.44 489.86"/><polyline class="cls-1" points="466.34 482.76 495.78 512.2 495.78 520.75"/><polyline class="cls-1" points="495.78 447.33 495.78 453.32 466.34 482.76"/></g><polyline class="cls-1" points="495.82 605.32 495.82 582.51 486.21 578.59 505.36 570.79 486.21 562.96 505.36 555.12 486.21 547.32 505.36 539.48 486.21 531.64 495.82 527.72 495.78 520.75"/><polyline class="cls-1" points="433.82 604.33 433.82 582.54 425.94 579.03 441.64 572.05 425.94 565.04 441.64 558.02 425.94 551.04 441.64 544.02 441.64 544.02 425.94 537 441.64 529.99 425.94 523.01 441.64 515.99 425.94 508.97 433.82 505.46 433.79 499.22"/><path class="cls-2" d="M515.65,536.75a2.66,2.66,0,0,1,2.57-2.83v1.5a1.26,1.26,0,0,0-1.25,1.34,1.22,1.22,0,0,0,1.25,1.32c.86,0,1.26-.68,1.26-1.46V536h1.31v.63c0,.81.33,1.28,1.11,1.28a1.1,1.1,0,0,0,1.09-1.14c0-.74-.37-1.27-1.12-1.28V534a2.51,2.51,0,0,1,2.43,2.79,2.42,2.42,0,0,1-2.36,2.66,1.87,1.87,0,0,1-1.79-1.2,2,2,0,0,1-1.95,1.37A2.55,2.55,0,0,1,515.65,536.75Z"/><path class="cls-2" d="M515.65,543.59a2.66,2.66,0,0,1,2.57-2.83v1.5A1.26,1.26,0,0,0,517,543.6a1.22,1.22,0,0,0,1.25,1.32c.86,0,1.26-.68,1.26-1.46v-.63h1.31v.63c0,.81.33,1.28,1.11,1.28A1.1,1.1,0,0,0,523,543.6c0-.74-.37-1.27-1.12-1.28v-1.51a2.51,2.51,0,0,1,2.43,2.79,2.42,2.42,0,0,1-2.36,2.66,1.87,1.87,0,0,1-1.79-1.2,2,2,0,0,1-1.95,1.37A2.55,2.55,0,0,1,515.65,543.59Z"/><path class="cls-2" d="M516.4,552.44a2.88,2.88,0,0,1,0-3.88c.82-.86,2.22-1,3.58-1s2.76.14,3.59,1a2.94,2.94,0,0,1,0,3.88c-.83.87-2.22,1-3.59,1S517.22,553.31,516.4,552.44Zm6.52-1.94c0-1.55-1.86-1.41-2.94-1.41S517,549,517,550.5s1.86,1.42,2.94,1.42S522.92,552.05,522.92,550.5Z"/><path class="cls-2" d="M516.61,562.91a3.61,3.61,0,0,1,0-4.9,6.1,6.1,0,0,1,6.9,0,3.61,3.61,0,0,1,0,4.9,6.05,6.05,0,0,1-6.9,0Zm5.89-1.11a1.88,1.88,0,0,0,0-2.68,3.58,3.58,0,0,0-2.45-.61,3.52,3.52,0,0,0-2.43.61,1.88,1.88,0,0,0,0,2.68,3.53,3.53,0,0,0,2.43.62A3.58,3.58,0,0,0,522.5,561.8Z"/><path class="cls-2" d="M515.81,569.25h3.85c.72,0,1.16-.25,1.16-1s-1-1.28-1.73-1.28h-3.28v-1.5h8.66v1.5h-3.08a2.11,2.11,0,0,1,.81,1.7,2,2,0,0,1-2.23,2.11h-4.16Z"/><path class="cls-2" d="M515.81,579.88h3.87c.77,0,1.21-.21,1.21-1s-.9-1.23-1.68-1.23h-3.4v-1.48h3.87c.77,0,1.21-.21,1.21-1S520,574,519.21,574h-3.4v-1.49H522v1.25l-.82.12a2,2,0,0,1,1,1.78,1.83,1.83,0,0,1-1,1.78,2.08,2.08,0,0,1,1,1.88,1.94,1.94,0,0,1-2.18,2h-4.21Z"/><path class="cls-2" d="M451.5,535h6.56l-1.33-1.83h1.63l1.48,2v1.28H451.5Z"/><path class="cls-2" d="M452.09,544a2.93,2.93,0,0,1,0-3.89c.83-.86,2.22-1,3.59-1s2.76.13,3.58,1a2.93,2.93,0,0,1,0,3.89c-.82.86-2.22,1-3.58,1S452.92,544.87,452.09,544Zm6.53-1.94c0-1.55-1.86-1.42-2.94-1.42s-2.94-.13-2.94,1.42,1.86,1.41,2.94,1.41S458.62,543.61,458.62,542.07Z"/><path class="cls-2" d="M451.5,552.1l4-2.31-1.71-1.46H451.5v-1.55H460v1.55h-3.93l3.93,3.39v1.89l-3.22-2.74-5.29,3Z"/><path class="cls-2" d="M452.31,562.91a3.61,3.61,0,0,1,0-4.9,6.08,6.08,0,0,1,6.89,0,3.61,3.61,0,0,1,0,4.9,6,6,0,0,1-6.89,0Zm5.89-1.11a1.88,1.88,0,0,0,0-2.68,5.21,5.21,0,0,0-4.89,0,1.88,1.88,0,0,0,0,2.68,5.13,5.13,0,0,0,4.89,0Z"/><path class="cls-2" d="M451.5,569.25h3.85c.72,0,1.17-.25,1.17-1s-1-1.28-1.73-1.28H451.5v-1.5h8.66v1.5h-3.08a2.09,2.09,0,0,1,.82,1.7,2,2,0,0,1-2.23,2.11H451.5Z"/><path class="cls-2" d="M451.5,579.88h3.88c.77,0,1.21-.21,1.21-1s-.9-1.23-1.68-1.23H451.5v-1.48h3.88c.77,0,1.21-.21,1.21-1s-.9-1.24-1.68-1.24H451.5v-1.49h6.24v1.25l-.83.12a2,2,0,0,1,1,1.78,1.85,1.85,0,0,1-1,1.78,2.09,2.09,0,0,1,1,1.88,1.94,1.94,0,0,1-2.19,2H451.5Z"/><polyline class="cls-7" points="498.62 110.88 498.62 76.71 614.33 76.71 614.33 393.67 495.78 393.67 495.78 427.1 495.78 447.33"/><line class="cls-9" x1="569.05" y1="482.76" x2="569.05" y2="427.09"/><polyline id="Shadow-3" data-name="Shadow" class="cls-8" points="115.27 410.38 569.04 410.38 569.04 427.1"/><polyline class="cls-6" points="115.27 410.38 569.04 410.38 569.04 427.1"/><g id="Transitor-4" data-name="Transitor"><circle class="cls-1" cx="607.6" cy="482.76" r="25.04"/><line class="cls-1" x1="601.6" y1="467.25" x2="601.6" y2="498.28"/><polyline class="cls-1" points="601.6 482.76 569.04 482.76 569.04 499.22"/><polygon class="cls-1" points="608.7 489.86 610.86 497.92 616.76 492.02 608.7 489.86"/><polyline class="cls-1" points="601.6 482.76 631.04 512.2 631.04 520.75"/><polyline class="cls-1" points="631.04 447.33 631.04 453.32 601.6 482.76"/></g><polyline class="cls-1" points="631.08 605.32 631.08 582.51 621.47 578.59 640.62 570.79 621.47 562.96 640.62 555.12 621.47 547.32 640.62 539.48 621.47 531.64 631.08 527.72 631.04 520.75"/><polyline class="cls-1" points="569.07 604.33 569.07 582.54 561.2 579.03 576.89 572.05 561.2 565.04 576.89 558.02 561.2 551.04 576.89 544.02 576.89 544.02 561.2 537 576.89 529.99 561.2 523.01 576.89 515.99 561.2 508.97 569.07 505.46 569.04 499.22"/><path class="cls-2" d="M650.91,536.75a2.66,2.66,0,0,1,2.57-2.83v1.5a1.26,1.26,0,0,0-1.25,1.34,1.22,1.22,0,0,0,1.25,1.32c.86,0,1.26-.68,1.26-1.46V536H656v.63c0,.81.34,1.28,1.12,1.28a1.1,1.1,0,0,0,1.09-1.14c0-.74-.37-1.27-1.13-1.28V534a2.52,2.52,0,0,1,2.44,2.79,2.42,2.42,0,0,1-2.36,2.66,1.87,1.87,0,0,1-1.79-1.2,2,2,0,0,1-2,1.37A2.55,2.55,0,0,1,650.91,536.75Z"/><path class="cls-2" d="M650.91,543.59a2.66,2.66,0,0,1,2.57-2.83v1.5a1.26,1.26,0,0,0-1.25,1.34,1.22,1.22,0,0,0,1.25,1.32c.86,0,1.26-.68,1.26-1.46v-.63H656v.63c0,.81.34,1.28,1.12,1.28a1.1,1.1,0,0,0,1.09-1.14c0-.74-.37-1.27-1.13-1.28v-1.51a2.52,2.52,0,0,1,2.44,2.79,2.42,2.42,0,0,1-2.36,2.66,1.87,1.87,0,0,1-1.79-1.2,2,2,0,0,1-2,1.37A2.55,2.55,0,0,1,650.91,543.59Z"/><path class="cls-2" d="M651.65,552.44a2.91,2.91,0,0,1,0-3.88c.83-.86,2.22-1,3.59-1s2.76.14,3.59,1a2.94,2.94,0,0,1,0,3.88c-.83.87-2.22,1-3.59,1S652.48,553.31,651.65,552.44Zm6.53-1.94c0-1.55-1.86-1.41-2.94-1.41s-2.94-.14-2.94,1.41,1.86,1.42,2.94,1.42S658.18,552.05,658.18,550.5Z"/><path class="cls-2" d="M651.87,562.91a3.61,3.61,0,0,1,0-4.9,4.44,4.44,0,0,1,3.44-1.07,4.49,4.49,0,0,1,3.46,1.07,3.61,3.61,0,0,1,0,4.9,4.5,4.5,0,0,1-3.46,1.08A4.44,4.44,0,0,1,651.87,562.91Zm5.89-1.11a1.88,1.88,0,0,0,0-2.68,3.58,3.58,0,0,0-2.45-.61,3.52,3.52,0,0,0-2.43.61,1.86,1.86,0,0,0,0,2.68,3.53,3.53,0,0,0,2.43.62A3.58,3.58,0,0,0,657.76,561.8Z"/><path class="cls-2" d="M651.07,569.25h3.85c.72,0,1.16-.25,1.16-1s-1-1.28-1.73-1.28h-3.28v-1.5h8.66v1.5h-3.09a2.09,2.09,0,0,1,.82,1.7,2,2,0,0,1-2.23,2.11h-4.16Z"/><path class="cls-2" d="M651.07,579.88h3.87c.77,0,1.21-.21,1.21-1s-.9-1.23-1.68-1.23h-3.4v-1.48h3.87c.77,0,1.21-.21,1.21-1s-.9-1.24-1.68-1.24h-3.4v-1.49h6.23v1.25l-.82.12a2,2,0,0,1,1,1.78,1.83,1.83,0,0,1-1,1.78,2.08,2.08,0,0,1,1,1.88,1.94,1.94,0,0,1-2.18,2h-4.21Z"/><path class="cls-2" d="M586.76,535h6.56L592,533.2h1.63l1.48,2v1.28h-8.34Z"/><path class="cls-2" d="M587.35,544a2.93,2.93,0,0,1,0-3.89c.83-.86,2.22-1,3.59-1s2.75.13,3.58,1a3,3,0,0,1,0,3.89c-.83.86-2.22,1-3.58,1S588.18,544.87,587.35,544Zm6.52-1.94c0-1.55-1.86-1.42-2.93-1.42s-2.94-.13-2.94,1.42,1.86,1.41,2.94,1.41S593.87,543.61,593.87,542.07Z"/><path class="cls-2" d="M586.76,552.1l4-2.31-1.72-1.46h-2.3v-1.55h8.5v1.55h-3.92l3.92,3.39v1.89l-3.21-2.74-5.29,3Z"/><path class="cls-2" d="M587.57,562.91a3.61,3.61,0,0,1,0-4.9,6.08,6.08,0,0,1,6.89,0,3.61,3.61,0,0,1,0,4.9,6,6,0,0,1-6.89,0Zm5.88-1.11a1.86,1.86,0,0,0,0-2.68,5.18,5.18,0,0,0-4.88,0,1.88,1.88,0,0,0,0,2.68,5.11,5.11,0,0,0,4.88,0Z"/><path class="cls-2" d="M586.76,569.25h3.85c.72,0,1.17-.25,1.17-1s-1-1.28-1.73-1.28h-3.29v-1.5h8.66v1.5h-3.08a2.09,2.09,0,0,1,.81,1.7,2,2,0,0,1-2.23,2.11h-4.16Z"/><path class="cls-2" d="M586.76,579.88h3.88c.76,0,1.21-.21,1.21-1s-.9-1.23-1.68-1.23h-3.41v-1.48h3.88c.76,0,1.21-.21,1.21-1S591,574,590.17,574h-3.41v-1.49H593v1.25l-.83.12a2,2,0,0,1,1,1.78,1.83,1.83,0,0,1-1,1.78,2.08,2.08,0,0,1,1,1.88,1.93,1.93,0,0,1-2.18,2h-4.21Z"/><polyline class="cls-7" points="448.49 110.88 448.49 60 631.04 60 631.04 447.33"/><path class="cls-2" d="M17.19,410.76h-1.8v3.05H13.85V405.3h3.34c1.95,0,3,1.09,3,2.73S19.14,410.76,17.19,410.76Zm-.07-4.1H15.39v2.75h1.73c1,0,1.5-.56,1.5-1.37S18.16,406.66,17.12,406.66Z"/><path class="cls-2" d="M21.25,406.71v-1.55h1.61v1.55Zm.05,7.1v-6.24h1.53v6.24Z"/><path class="cls-2" d="M28.52,413.81V410c0-.73-.24-1.17-1-1.17a1.18,1.18,0,0,0-1.08.79,4.43,4.43,0,0,0-.2,1.66v2.55h-1.5v-6.24H26l.11.8A2.15,2.15,0,0,1,30,409.64v4.17Z"/><path class="cls-2" d="M34.12,413.81v-1.2l3.25-3.88a1.67,1.67,0,0,0,.43-1.06,1,1,0,0,0-1-1.05,1.11,1.11,0,0,0-1.12,1.2H34.09a2.42,2.42,0,0,1,2.67-2.5,2.34,2.34,0,0,1,2.56,2.33,3.38,3.38,0,0,1-.91,2l-2.3,2.76h3.33v1.36Z"/><path class="cls-2" d="M45.69,415.82a8.82,8.82,0,0,1,0-11.63l.85.63a8.4,8.4,0,0,0,0,10.37Z"/><path class="cls-2" d="M53.35,412.9a3.27,3.27,0,0,1-2.39.91H47.65V405.3H51a3.27,3.27,0,0,1,2.39.91,6.09,6.09,0,0,1,0,6.69Zm-1.19-5.73a1.69,1.69,0,0,0-1.2-.48H49.2v5.73H51a1.69,1.69,0,0,0,1.2-.48,4.9,4.9,0,0,0,0-4.77Z"/><path class="cls-2" d="M55.78,406.71v-1.55h1.61v1.55Zm0,7.1v-6.24h1.52v6.24Z"/><path class="cls-2" d="M61.72,416.72a3.79,3.79,0,0,1-2.21-.51,1.61,1.61,0,0,1-.76-1.37,1.39,1.39,0,0,1,.75-1.27,1.25,1.25,0,0,1-.63-1.07,1.4,1.4,0,0,1,.75-1.26,2.09,2.09,0,0,1-.63-1.53,2.31,2.31,0,0,1,2.56-2.3,2.78,2.78,0,0,1,1.41.39,1.37,1.37,0,0,1,1.28-.78,2.68,2.68,0,0,1,.4,0v1.17l-.12,0c-.34,0-.66.1-.75.4a2.19,2.19,0,0,1,.32,1.13A2.34,2.34,0,0,1,61.55,412a3.34,3.34,0,0,1-1-.16.56.56,0,0,0-.31.44c0,.37.37.45.68.45h1a3.66,3.66,0,0,1,2,.42,1.73,1.73,0,0,1,.76,1.5C64.73,416.28,63.11,416.72,61.72,416.72Zm.1-2.82H60.65a.77.77,0,0,0-.56.77c0,.79,1,.86,1.57.86s1.65,0,1.65-.86S62.39,413.9,61.82,413.9Zm-.27-5.36a1.07,1.07,0,0,0-1.1,1.17,1.1,1.1,0,1,0,2.2,0A1.07,1.07,0,0,0,61.55,408.54Z"/><path class="cls-2" d="M65.82,406.71v-1.55h1.61v1.55Zm.05,7.1v-6.24h1.52v6.24Z"/><path class="cls-2" d="M71.52,413.89A1.71,1.71,0,0,1,69.64,412v-3.16H68.5v-1.24h1.14V406l1.5-.37v1.95h1.57v1.24H71.14v3c0,.48.21.68.69.68a7.07,7.07,0,0,0,1-.06v1.26A5,5,0,0,1,71.52,413.89Z"/><path class="cls-2" d="M78.77,413.9a1,1,0,0,1-1.06-.87,2.2,2.2,0,0,1-1.89.93,2,2,0,1,1-.15-3.91l1.84-.13v-.38c0-.59-.21-1-1.06-1-.69,0-1.1.32-1.14.89H73.86c.09-1.4,1.2-2,2.59-2a2.25,2.25,0,0,1,2.34,1.28,3.33,3.33,0,0,1,.18,1.25v2.32c0,.29.1.4.35.4a.68.68,0,0,0,.19,0v1.1A1.47,1.47,0,0,1,78.77,413.9ZM77.51,411l-1.58.12a.87.87,0,0,0-.9.81.82.82,0,0,0,.88.78,1.41,1.41,0,0,0,1.6-1.43Z"/><path class="cls-2" d="M82.49,413.88a1.51,1.51,0,0,1-1.7-1.68v-7.06H82.3V412c0,.36.08.6.6.6h.25v1.25A2.5,2.5,0,0,1,82.49,413.88Z"/><path class="cls-2" d="M92.5,413a3.61,3.61,0,0,1-4.9,0,6,6,0,0,1,0-6.89,3.61,3.61,0,0,1,4.9,0,6.08,6.08,0,0,1,0,6.89Zm-1.11-5.89a1.88,1.88,0,0,0-2.68,0,5.13,5.13,0,0,0,0,4.89,1.88,1.88,0,0,0,2.68,0,5.21,5.21,0,0,0,0-4.89Z"/><path class="cls-2" d="M99,413.81l-.11-.82a1.94,1.94,0,0,1-1.79,1,2.06,2.06,0,0,1-2.16-2.23v-4.16h1.5v3.83c0,.73.29,1.18,1.08,1.18a1,1,0,0,0,.77-.31,1.9,1.9,0,0,0,.45-1.4v-3.3h1.5v6.24Z"/><path class="cls-2" d="M104.34,413.89a1.71,1.71,0,0,1-1.88-1.92v-3.16h-1.14v-1.24h1.14V406l1.5-.37v1.95h1.57v1.24H104v3c0,.48.21.68.69.68a7.07,7.07,0,0,0,1-.06v1.26A5,5,0,0,1,104.34,413.89Z"/><path class="cls-2" d="M106.93,415.82l-.85-.63a8.4,8.4,0,0,0,0-10.37l.85-.63a8.82,8.82,0,0,1,0,11.63Z"/><path class="cls-2" d="M17.19,394.05h-1.8v3H13.85v-8.5h3.34c1.95,0,3,1.09,3,2.72S19.14,394.05,17.19,394.05Zm-.07-4.1H15.39v2.74h1.73c1,0,1.5-.55,1.5-1.36S18.16,390,17.12,390Z"/><path class="cls-2" d="M21.25,390v-1.54h1.61V390Zm.05,7.1v-6.23h1.53v6.23Z"/><path class="cls-2" d="M28.52,397.09v-3.82c0-.73-.24-1.18-1-1.18a1.2,1.2,0,0,0-1.08.79,4.49,4.49,0,0,0-.2,1.67v2.54h-1.5v-6.23H26l.11.8A2.15,2.15,0,0,1,30,392.93v4.16Z"/><path class="cls-2" d="M36.72,397.25a2.67,2.67,0,0,1-2.83-2.57h1.5a1.26,1.26,0,0,0,1.34,1.25,1.21,1.21,0,0,0,1.32-1.25c0-.86-.68-1.26-1.46-1.26H36v-1.3h.62c.81,0,1.28-.34,1.28-1.12a1.1,1.1,0,0,0-1.14-1.09c-.74,0-1.27.37-1.28,1.13H33.94a2.52,2.52,0,0,1,2.79-2.44A2.43,2.43,0,0,1,39.4,391a1.88,1.88,0,0,1-1.2,1.78,2,2,0,0,1,1.36,2A2.54,2.54,0,0,1,36.72,397.25Z"/><path class="cls-2" d="M45.69,399.11a8.82,8.82,0,0,1,0-11.63l.85.63a8.39,8.39,0,0,0,0,10.36Z"/><path class="cls-2" d="M53.35,396.18a3.23,3.23,0,0,1-2.39.91H47.65v-8.5H51a3.27,3.27,0,0,1,2.39.91,6.08,6.08,0,0,1,0,6.68Zm-1.19-5.72A1.65,1.65,0,0,0,51,390H49.2v5.72H51a1.65,1.65,0,0,0,1.2-.48,4.88,4.88,0,0,0,0-4.76Z"/><path class="cls-2" d="M55.78,390v-1.54h1.61V390Zm0,7.1v-6.23h1.52v6.23Z"/><path class="cls-2" d="M61.72,400a3.72,3.72,0,0,1-2.21-.52,1.6,1.6,0,0,1-.76-1.36,1.4,1.4,0,0,1,.75-1.28,1.22,1.22,0,0,1-.63-1.06,1.4,1.4,0,0,1,.75-1.26A2.11,2.11,0,0,1,59,393a2.31,2.31,0,0,1,2.56-2.29,2.78,2.78,0,0,1,1.41.39,1.37,1.37,0,0,1,1.28-.78,2.68,2.68,0,0,1,.4,0v1.16h-.12c-.34,0-.66.1-.75.4a2.12,2.12,0,0,1,.32,1.12,2.34,2.34,0,0,1-2.54,2.27,3.06,3.06,0,0,1-1-.17.58.58,0,0,0-.31.45c0,.37.37.45.68.45h1a3.66,3.66,0,0,1,2,.42,1.72,1.72,0,0,1,.76,1.5C64.73,399.57,63.11,400,61.72,400Zm.1-2.82H60.65a.77.77,0,0,0-.56.77c0,.79,1,.86,1.57.86s1.65,0,1.65-.86S62.39,397.19,61.82,397.19Zm-.27-5.36a1.07,1.07,0,0,0-1.1,1.16,1.1,1.1,0,1,0,2.2,0A1.07,1.07,0,0,0,61.55,391.83Z"/><path class="cls-2" d="M65.82,390v-1.54h1.61V390Zm.05,7.1v-6.23h1.52v6.23Z"/><path class="cls-2" d="M71.52,397.18a1.71,1.71,0,0,1-1.88-1.92v-3.17H68.5v-1.23h1.14v-1.58l1.5-.38v2h1.57v1.23H71.14v3c0,.48.21.68.69.68a7.07,7.07,0,0,0,1-.06V397A5,5,0,0,1,71.52,397.18Z"/><path class="cls-2" d="M78.77,397.19a1,1,0,0,1-1.06-.87,2.2,2.2,0,0,1-1.89.93,2,2,0,1,1-.15-3.91l1.84-.13v-.38c0-.59-.21-1-1.06-1-.69,0-1.1.31-1.14.89H73.86c.09-1.4,1.2-2,2.59-2A2.26,2.26,0,0,1,78.79,392a3.38,3.38,0,0,1,.18,1.26v2.32c0,.28.1.39.35.39a1,1,0,0,0,.19,0V397A1.47,1.47,0,0,1,78.77,397.19Zm-1.26-2.87-1.58.12a.88.88,0,0,0-.9.82.82.82,0,0,0,.88.78,1.41,1.41,0,0,0,1.6-1.43Z"/><path class="cls-2" d="M82.49,397.17a1.51,1.51,0,0,1-1.7-1.68v-7.07H82.3v6.82c0,.36.08.59.6.59h.25v1.26A2.5,2.5,0,0,1,82.49,397.17Z"/><path class="cls-2" d="M92.5,396.29a3.61,3.61,0,0,1-4.9,0,4.44,4.44,0,0,1-1.08-3.44,4.5,4.5,0,0,1,1.08-3.46,3.63,3.63,0,0,1,4.9,0,4.49,4.49,0,0,1,1.07,3.46A4.44,4.44,0,0,1,92.5,396.29Zm-1.11-5.89a1.88,1.88,0,0,0-2.68,0,3.58,3.58,0,0,0-.62,2.45,3.53,3.53,0,0,0,.62,2.43,1.86,1.86,0,0,0,2.68,0,3.52,3.52,0,0,0,.61-2.43A3.58,3.58,0,0,0,91.39,390.4Z"/><path class="cls-2" d="M99,397.09l-.11-.81a1.94,1.94,0,0,1-1.79,1A2.06,2.06,0,0,1,94.92,395v-4.16h1.5v3.82c0,.74.29,1.19,1.08,1.19a1,1,0,0,0,.77-.31,1.91,1.91,0,0,0,.45-1.4v-3.3h1.5v6.23Z"/><path class="cls-2" d="M104.34,397.18a1.71,1.71,0,0,1-1.88-1.92v-3.17h-1.14v-1.23h1.14v-1.58l1.5-.38v2h1.57v1.23H104v3c0,.48.21.68.69.68a7.07,7.07,0,0,0,1-.06V397A5,5,0,0,1,104.34,397.18Z"/><path class="cls-2" d="M106.93,399.11l-.85-.64a8.39,8.39,0,0,0,0-10.36l.85-.63a8.82,8.82,0,0,1,0,11.63Z"/><path class="cls-2" d="M17.19,377.34h-1.8v3H13.85v-8.5h3.34c1.95,0,3,1.09,3,2.72S19.14,377.34,17.19,377.34Zm-.07-4.1H15.39V376h1.73c1,0,1.5-.55,1.5-1.36S18.16,373.24,17.12,373.24Z"/><path class="cls-2" d="M21.25,373.28v-1.54h1.61v1.54Zm.05,7.1v-6.23h1.53v6.23Z"/><path class="cls-2" d="M28.52,380.38v-3.82c0-.73-.24-1.18-1-1.18a1.2,1.2,0,0,0-1.08.79,4.49,4.49,0,0,0-.2,1.67v2.54h-1.5v-6.23H26l.11.8A2.15,2.15,0,0,1,30,376.22v4.16Z"/><path class="cls-2" d="M38.92,378.71v1.67h-1.5v-1.67H33.7v-1.42l3.06-5.24h1.63l-3.11,5.3h2.14v-2h1.5v2h1v1.36Z"/><path class="cls-2" d="M45.69,382.4a8.83,8.83,0,0,1,0-11.64l.85.64a8.39,8.39,0,0,0,0,10.36Z"/><path class="cls-2" d="M53.35,379.47a3.23,3.23,0,0,1-2.39.91H47.65v-8.5H51a3.23,3.23,0,0,1,2.39.91,6.08,6.08,0,0,1,0,6.68Zm-1.19-5.72a1.65,1.65,0,0,0-1.2-.48H49.2V379H51a1.65,1.65,0,0,0,1.2-.48,4.88,4.88,0,0,0,0-4.76Z"/><path class="cls-2" d="M55.78,373.28v-1.54h1.61v1.54Zm0,7.1v-6.23h1.52v6.23Z"/><path class="cls-2" d="M61.72,383.3a3.72,3.72,0,0,1-2.21-.52,1.6,1.6,0,0,1-.76-1.36,1.4,1.4,0,0,1,.75-1.28,1.23,1.23,0,0,1-.63-1.06,1.4,1.4,0,0,1,.75-1.26,2.11,2.11,0,0,1-.63-1.54A2.31,2.31,0,0,1,61.55,374a2.69,2.69,0,0,1,1.41.39,1.35,1.35,0,0,1,1.28-.78,2.68,2.68,0,0,1,.4,0v1.16h-.12c-.34,0-.66.1-.75.4a2.12,2.12,0,0,1,.32,1.12,2.34,2.34,0,0,1-2.54,2.27,3.06,3.06,0,0,1-1-.17.58.58,0,0,0-.31.45c0,.37.37.45.68.45h1a3.57,3.57,0,0,1,2,.42,1.72,1.72,0,0,1,.76,1.5C64.73,382.85,63.11,383.3,61.72,383.3Zm.1-2.82H60.65a.77.77,0,0,0-.56.77c0,.79,1,.86,1.57.86s1.65,0,1.65-.86S62.39,380.48,61.82,380.48Zm-.27-5.36a1.16,1.16,0,1,0,1.1,1.16A1.07,1.07,0,0,0,61.55,375.12Z"/><path class="cls-2" d="M65.82,373.28v-1.54h1.61v1.54Zm.05,7.1v-6.23h1.52v6.23Z"/><path class="cls-2" d="M71.52,380.47a1.71,1.71,0,0,1-1.88-1.92v-3.17H68.5v-1.23h1.14v-1.59l1.5-.37v2h1.57v1.23H71.14v3c0,.48.21.68.69.68a7.07,7.07,0,0,0,1-.06v1.26A5,5,0,0,1,71.52,380.47Z"/><path class="cls-2" d="M78.77,380.48a1,1,0,0,1-1.06-.88,2.18,2.18,0,0,1-1.89.94,2,2,0,1,1-.15-3.91l1.84-.13v-.39c0-.58-.21-1-1.06-1-.69,0-1.1.31-1.14.89H73.86c.09-1.4,1.2-2,2.59-2a2.26,2.26,0,0,1,2.34,1.27,3.38,3.38,0,0,1,.18,1.26v2.32c0,.28.1.39.35.39a1,1,0,0,0,.19,0v1.1A1.47,1.47,0,0,1,78.77,380.48Zm-1.26-2.87-1.58.12a.87.87,0,0,0-.9.82.82.82,0,0,0,.88.78,1.41,1.41,0,0,0,1.6-1.43Z"/><path class="cls-2" d="M82.49,380.46a1.51,1.51,0,0,1-1.7-1.68v-7.07H82.3v6.81c0,.36.08.6.6.6h.25v1.26A2.5,2.5,0,0,1,82.49,380.46Z"/><path class="cls-2" d="M92.5,379.58a3.61,3.61,0,0,1-4.9,0,4.44,4.44,0,0,1-1.08-3.44,4.5,4.5,0,0,1,1.08-3.46,3.61,3.61,0,0,1,4.9,0,4.49,4.49,0,0,1,1.07,3.46A4.44,4.44,0,0,1,92.5,379.58Zm-1.11-5.89a1.88,1.88,0,0,0-2.68,0,3.58,3.58,0,0,0-.62,2.45,3.53,3.53,0,0,0,.62,2.43,1.86,1.86,0,0,0,2.68,0,3.52,3.52,0,0,0,.61-2.43A3.58,3.58,0,0,0,91.39,373.69Z"/><path class="cls-2" d="M99,380.38l-.11-.81a1.94,1.94,0,0,1-1.79,1,2.06,2.06,0,0,1-2.16-2.23v-4.16h1.5V378c0,.74.29,1.19,1.08,1.19a1,1,0,0,0,.77-.31,1.91,1.91,0,0,0,.45-1.4v-3.3h1.5v6.23Z"/><path class="cls-2" d="M104.34,380.47a1.71,1.71,0,0,1-1.88-1.92v-3.17h-1.14v-1.23h1.14v-1.59l1.5-.37v2h1.57v1.23H104v3c0,.48.21.68.69.68a7.07,7.07,0,0,0,1-.06v1.26A5,5,0,0,1,104.34,380.47Z"/><path class="cls-2" d="M106.93,382.4l-.85-.64a8.39,8.39,0,0,0,0-10.36l.85-.64a8.83,8.83,0,0,1,0,11.64Z"/><path class="cls-2" d="M17.19,360.63h-1.8v3H13.85v-8.5h3.34c1.95,0,3,1.09,3,2.72S19.14,360.63,17.19,360.63Zm-.07-4.11H15.39v2.75h1.73c1,0,1.5-.55,1.5-1.37S18.16,356.52,17.12,356.52Z"/><path class="cls-2" d="M21.25,356.57V355h1.61v1.54Zm.05,7.1v-6.23h1.53v6.23Z"/><path class="cls-2" d="M28.52,363.67v-3.82c0-.73-.24-1.18-1-1.18a1.2,1.2,0,0,0-1.08.79,4.49,4.49,0,0,0-.2,1.67v2.54h-1.5v-6.23H26l.11.8A2.15,2.15,0,0,1,30,359.51v4.16Z"/><path class="cls-2" d="M36.87,363.84a2.7,2.7,0,0,1-2.9-2.6h1.5a1.28,1.28,0,0,0,1.41,1.27c1,0,1.36-.73,1.36-1.63s-.4-1.51-1.36-1.51a1.49,1.49,0,0,0-1.25.67H34.15l.18-4.7H39.4v1.34H35.63l-.1,1.91a2.32,2.32,0,0,1,1.66-.54,2.52,2.52,0,0,1,2.58,2.79A2.75,2.75,0,0,1,36.87,363.84Z"/><path class="cls-2" d="M45.69,365.69a8.83,8.83,0,0,1,0-11.64l.85.64a8.39,8.39,0,0,0,0,10.36Z"/><path class="cls-2" d="M53.35,362.76a3.23,3.23,0,0,1-2.39.91H47.65v-8.5H51a3.23,3.23,0,0,1,2.39.91,6.08,6.08,0,0,1,0,6.68ZM52.16,357a1.65,1.65,0,0,0-1.2-.48H49.2v5.72H51a1.65,1.65,0,0,0,1.2-.48,4.88,4.88,0,0,0,0-4.76Z"/><path class="cls-2" d="M55.78,356.57V355h1.61v1.54Zm0,7.1v-6.23h1.52v6.23Z"/><path class="cls-2" d="M61.72,366.59a3.72,3.72,0,0,1-2.21-.52,1.6,1.6,0,0,1-.76-1.37,1.4,1.4,0,0,1,.75-1.27,1.23,1.23,0,0,1-.63-1.06,1.4,1.4,0,0,1,.75-1.26,2.11,2.11,0,0,1-.63-1.54,2.31,2.31,0,0,1,2.56-2.29,2.78,2.78,0,0,1,1.41.38,1.37,1.37,0,0,1,1.28-.78,1.8,1.8,0,0,1,.4,0v1.16h-.12c-.34,0-.66.1-.75.4a2.12,2.12,0,0,1,.32,1.12,2.34,2.34,0,0,1-2.54,2.27,3.06,3.06,0,0,1-1-.17.58.58,0,0,0-.31.45c0,.37.37.45.68.45h1a3.57,3.57,0,0,1,2,.42,1.72,1.72,0,0,1,.76,1.5C64.73,366.14,63.11,366.59,61.72,366.59Zm.1-2.82H60.65a.77.77,0,0,0-.56.77c0,.79,1,.86,1.57.86s1.65,0,1.65-.86S62.39,363.77,61.82,363.77Zm-.27-5.36a1.16,1.16,0,1,0,1.1,1.16A1.07,1.07,0,0,0,61.55,358.41Z"/><path class="cls-2" d="M65.82,356.57V355h1.61v1.54Zm.05,7.1v-6.23h1.52v6.23Z"/><path class="cls-2" d="M71.52,363.76a1.71,1.71,0,0,1-1.88-1.92v-3.17H68.5v-1.23h1.14v-1.59l1.5-.37v2h1.57v1.23H71.14v3c0,.48.21.68.69.68a7.07,7.07,0,0,0,1-.06v1.26A5,5,0,0,1,71.52,363.76Z"/><path class="cls-2" d="M78.77,363.77a1,1,0,0,1-1.06-.88,2.18,2.18,0,0,1-1.89.94,2,2,0,1,1-.15-3.91l1.84-.13v-.39c0-.58-.21-1-1.06-1-.69,0-1.1.31-1.14.89H73.86c.09-1.41,1.2-2,2.59-2a2.26,2.26,0,0,1,2.34,1.27,3.38,3.38,0,0,1,.18,1.26v2.32c0,.28.1.39.35.39a1,1,0,0,0,.19,0v1.1A1.47,1.47,0,0,1,78.77,363.77Zm-1.26-2.87-1.58.12a.87.87,0,0,0-.9.82.82.82,0,0,0,.88.78,1.41,1.41,0,0,0,1.6-1.43Z"/><path class="cls-2" d="M82.49,363.75a1.51,1.51,0,0,1-1.7-1.68V355H82.3v6.81c0,.36.08.6.6.6h.25v1.26A2.5,2.5,0,0,1,82.49,363.75Z"/><path class="cls-2" d="M92.5,362.87a3.61,3.61,0,0,1-4.9,0,4.44,4.44,0,0,1-1.08-3.44A4.5,4.5,0,0,1,87.6,356a3.61,3.61,0,0,1,4.9,0,4.49,4.49,0,0,1,1.07,3.46A4.44,4.44,0,0,1,92.5,362.87ZM91.39,357a1.88,1.88,0,0,0-2.68,0,3.58,3.58,0,0,0-.62,2.45,3.53,3.53,0,0,0,.62,2.43,1.86,1.86,0,0,0,2.68,0,3.52,3.52,0,0,0,.61-2.43A3.58,3.58,0,0,0,91.39,357Z"/><path class="cls-2" d="M99,363.67l-.11-.81a1.94,1.94,0,0,1-1.79,1,2.06,2.06,0,0,1-2.16-2.23v-4.16h1.5v3.82c0,.73.29,1.19,1.08,1.19a1,1,0,0,0,.77-.31,1.92,1.92,0,0,0,.45-1.41v-3.29h1.5v6.23Z"/><path class="cls-2" d="M104.34,363.76a1.71,1.71,0,0,1-1.88-1.92v-3.17h-1.14v-1.23h1.14v-1.59l1.5-.37v2h1.57v1.23H104v3c0,.48.21.68.69.68a7.07,7.07,0,0,0,1-.06v1.26A5,5,0,0,1,104.34,363.76Z"/><path class="cls-2" d="M106.93,365.69l-.85-.64a8.39,8.39,0,0,0,0-10.36l.85-.64a8.83,8.83,0,0,1,0,11.64Z"/><path class="cls-2" d="M17.19,343.92h-1.8v3H13.85v-8.5h3.34c1.95,0,3,1.09,3,2.72S19.14,343.92,17.19,343.92Zm-.07-4.11H15.39v2.75h1.73c1,0,1.5-.55,1.5-1.37S18.16,339.81,17.12,339.81Z"/><path class="cls-2" d="M21.25,339.86v-1.55h1.61v1.55Zm.05,7.1v-6.23h1.53V347Z"/><path class="cls-2" d="M28.52,347v-3.82c0-.74-.24-1.18-1-1.18a1.2,1.2,0,0,0-1.08.79,4.46,4.46,0,0,0-.2,1.67V347h-1.5v-6.23H26l.11.8A2.15,2.15,0,0,1,30,342.8V347Z"/><path class="cls-2" d="M36.93,347.12a2.84,2.84,0,0,1-2.82-2.63,8.3,8.3,0,0,1-.14-1.56c0-1.22.08-2.72.93-3.63a2.57,2.57,0,0,1,2-.83,2.65,2.65,0,0,1,1.9.67,2.23,2.23,0,0,1,.71,1.54H38a1,1,0,0,0-.29-.64,1.16,1.16,0,0,0-.88-.3,1.1,1.1,0,0,0-.83.34,2.57,2.57,0,0,0-.58,1.9,2.18,2.18,0,0,1,1.58-.61,2.58,2.58,0,0,1,2.75,2.85A2.69,2.69,0,0,1,36.93,347.12Zm0-4.52c-.8,0-1.29.68-1.29,1.56s.43,1.61,1.32,1.61,1.34-.64,1.34-1.61A1.37,1.37,0,0,0,36.9,342.6Z"/><path class="cls-2" d="M45.69,349a8.83,8.83,0,0,1,0-11.64l.85.64a8.39,8.39,0,0,0,0,10.36Z"/><path class="cls-2" d="M53.35,346.05A3.23,3.23,0,0,1,51,347H47.65v-8.5H51a3.23,3.23,0,0,1,2.39.91,6.08,6.08,0,0,1,0,6.68Zm-1.19-5.72a1.65,1.65,0,0,0-1.2-.48H49.2v5.72H51a1.65,1.65,0,0,0,1.2-.48,3.36,3.36,0,0,0,.62-2.39A3.31,3.31,0,0,0,52.16,340.33Z"/><path class="cls-2" d="M55.78,339.86v-1.55h1.61v1.55Zm0,7.1v-6.23h1.52V347Z"/><path class="cls-2" d="M61.72,349.88a3.72,3.72,0,0,1-2.21-.52,1.61,1.61,0,0,1-.76-1.37,1.39,1.39,0,0,1,.75-1.27,1.24,1.24,0,0,1-.63-1.07,1.4,1.4,0,0,1,.75-1.25,2.11,2.11,0,0,1-.63-1.54,2.31,2.31,0,0,1,2.56-2.29A2.78,2.78,0,0,1,63,341a1.37,1.37,0,0,1,1.28-.78,1.8,1.8,0,0,1,.4,0v1.16h-.12c-.34,0-.66.1-.75.4a2.12,2.12,0,0,1,.32,1.12,2.34,2.34,0,0,1-2.54,2.27,3.06,3.06,0,0,1-1-.17.56.56,0,0,0-.31.45c0,.37.37.45.68.45h1a3.57,3.57,0,0,1,2,.42,1.72,1.72,0,0,1,.76,1.5C64.73,349.43,63.11,349.88,61.72,349.88Zm.1-2.82H60.65a.77.77,0,0,0-.56.77c0,.79,1,.86,1.57.86s1.65,0,1.65-.86S62.39,347.06,61.82,347.06Zm-.27-5.36a1.16,1.16,0,1,0,1.1,1.16A1.07,1.07,0,0,0,61.55,341.7Z"/><path class="cls-2" d="M65.82,339.86v-1.55h1.61v1.55Zm.05,7.1v-6.23h1.52V347Z"/><path class="cls-2" d="M71.52,347.05a1.71,1.71,0,0,1-1.88-1.92V342H68.5v-1.23h1.14v-1.59l1.5-.37v2h1.57V342H71.14v3c0,.47.21.68.69.68a7.07,7.07,0,0,0,1-.06v1.26A5,5,0,0,1,71.52,347.05Z"/><path class="cls-2" d="M78.77,347.06a1,1,0,0,1-1.06-.88,2.18,2.18,0,0,1-1.89.94,2,2,0,1,1-.15-3.91l1.84-.13v-.39c0-.59-.21-1-1.06-1-.69,0-1.1.31-1.14.89H73.86c.09-1.41,1.2-2,2.59-2a2.26,2.26,0,0,1,2.34,1.27A3.38,3.38,0,0,1,79,343.1v2.32c0,.28.1.39.35.39a1,1,0,0,0,.19,0v1.1A1.47,1.47,0,0,1,78.77,347.06Zm-1.26-2.87-1.58.12a.87.87,0,0,0-.9.82.82.82,0,0,0,.88.78,1.41,1.41,0,0,0,1.6-1.43Z"/><path class="cls-2" d="M82.49,347a1.51,1.51,0,0,1-1.7-1.68v-7.06H82.3v6.81c0,.36.08.6.6.6h.25V347A2.48,2.48,0,0,1,82.49,347Z"/><path class="cls-2" d="M92.5,346.16a3.61,3.61,0,0,1-4.9,0,4.45,4.45,0,0,1-1.08-3.44,4.5,4.5,0,0,1,1.08-3.46,3.61,3.61,0,0,1,4.9,0,4.49,4.49,0,0,1,1.07,3.46A4.45,4.45,0,0,1,92.5,346.16Zm-1.11-5.89a1.88,1.88,0,0,0-2.68,0,3.58,3.58,0,0,0-.62,2.45,3.53,3.53,0,0,0,.62,2.43,1.88,1.88,0,0,0,2.68,0,3.52,3.52,0,0,0,.61-2.43A3.58,3.58,0,0,0,91.39,340.27Z"/><path class="cls-2" d="M99,347l-.11-.81a1.94,1.94,0,0,1-1.79,1,2.06,2.06,0,0,1-2.16-2.23v-4.16h1.5v3.82c0,.73.29,1.19,1.08,1.19a1,1,0,0,0,.77-.31,1.92,1.92,0,0,0,.45-1.41v-3.29h1.5V347Z"/><path class="cls-2" d="M104.34,347.05a1.71,1.71,0,0,1-1.88-1.92V342h-1.14v-1.23h1.14v-1.59l1.5-.37v2h1.57V342H104v3c0,.47.21.68.69.68a7.07,7.07,0,0,0,1-.06v1.26A5,5,0,0,1,104.34,347.05Z"/><path class="cls-2" d="M106.93,349l-.85-.64a8.39,8.39,0,0,0,0-10.36l.85-.64a8.83,8.83,0,0,1,0,11.64Z"/><path class="cls-2" d="M17.19,327.2h-1.8v3.05H13.85v-8.5h3.34c1.95,0,3,1.09,3,2.72S19.14,327.2,17.19,327.2Zm-.07-4.1H15.39v2.75h1.73c1,0,1.5-.55,1.5-1.37S18.16,323.1,17.12,323.1Z"/><path class="cls-2" d="M21.25,323.15V321.6h1.61v1.55Zm.05,7.1V324h1.53v6.24Z"/><path class="cls-2" d="M28.52,330.25v-3.83c0-.73-.24-1.17-1-1.17a1.18,1.18,0,0,0-1.08.79,4.46,4.46,0,0,0-.2,1.67v2.54h-1.5V324H26l.11.81A2.15,2.15,0,0,1,30,326.09v4.16Z"/><path class="cls-2" d="M36.43,330.25H34.81l3.27-7H33.94v-1.34h5.74v1.19Z"/><path class="cls-2" d="M45.69,332.26a8.82,8.82,0,0,1,0-11.63l.85.64a8.39,8.39,0,0,0,0,10.36Z"/><path class="cls-2" d="M53.35,329.34a3.23,3.23,0,0,1-2.39.91H47.65v-8.5H51a3.23,3.23,0,0,1,2.39.91,6.08,6.08,0,0,1,0,6.68Zm-1.19-5.72a1.65,1.65,0,0,0-1.2-.48H49.2v5.72H51a1.65,1.65,0,0,0,1.2-.48,3.36,3.36,0,0,0,.62-2.39A3.31,3.31,0,0,0,52.16,323.62Z"/><path class="cls-2" d="M55.78,323.15V321.6h1.61v1.55Zm0,7.1V324h1.52v6.24Z"/><path class="cls-2" d="M61.72,333.16a3.79,3.79,0,0,1-2.21-.51,1.61,1.61,0,0,1-.76-1.37A1.39,1.39,0,0,1,59.5,330a1.25,1.25,0,0,1-.63-1.07,1.42,1.42,0,0,1,.75-1.26,2.09,2.09,0,0,1-.63-1.53,2.31,2.31,0,0,1,2.56-2.29,2.78,2.78,0,0,1,1.41.38,1.37,1.37,0,0,1,1.28-.78,1.8,1.8,0,0,1,.4,0v1.16h-.12c-.34,0-.66.09-.75.39a2.19,2.19,0,0,1,.32,1.13,2.34,2.34,0,0,1-2.54,2.27,3.06,3.06,0,0,1-1-.17.56.56,0,0,0-.31.44c0,.37.37.46.68.46h1a3.57,3.57,0,0,1,2,.42,1.72,1.72,0,0,1,.76,1.5C64.73,332.72,63.11,333.16,61.72,333.16Zm.1-2.81H60.65a.76.76,0,0,0-.56.76c0,.8,1,.87,1.57.87s1.65,0,1.65-.87S62.39,330.35,61.82,330.35ZM61.55,325a1.16,1.16,0,1,0,1.1,1.16A1.07,1.07,0,0,0,61.55,325Z"/><path class="cls-2" d="M65.82,323.15V321.6h1.61v1.55Zm.05,7.1V324h1.52v6.24Z"/><path class="cls-2" d="M71.52,330.33a1.71,1.71,0,0,1-1.88-1.91v-3.17H68.5V324h1.14v-1.58l1.5-.37V324h1.57v1.24H71.14v3c0,.48.21.69.69.69a7.07,7.07,0,0,0,1-.06v1.26A5.47,5.47,0,0,1,71.52,330.33Z"/><path class="cls-2" d="M78.77,330.35a1,1,0,0,1-1.06-.88,2.2,2.2,0,0,1-1.89.94,2,2,0,1,1-.15-3.91l1.84-.14V326c0-.59-.21-1-1.06-1-.69,0-1.1.31-1.14.88H73.86c.09-1.4,1.2-2,2.59-2a2.24,2.24,0,0,1,2.34,1.27,3.35,3.35,0,0,1,.18,1.26v2.31c0,.29.1.4.35.4a.68.68,0,0,0,.19,0v1.11A1.47,1.47,0,0,1,78.77,330.35Zm-1.26-2.87-1.58.12a.87.87,0,0,0-.9.82.82.82,0,0,0,.88.77,1.41,1.41,0,0,0,1.6-1.42Z"/><path class="cls-2" d="M82.49,330.32a1.51,1.51,0,0,1-1.7-1.68v-7.06H82.3v6.81c0,.36.08.6.6.6h.25v1.26A2.48,2.48,0,0,1,82.49,330.32Z"/><path class="cls-2" d="M92.5,329.45a3.61,3.61,0,0,1-4.9,0,6.05,6.05,0,0,1,0-6.9,3.61,3.61,0,0,1,4.9,0,6.1,6.1,0,0,1,0,6.9Zm-1.11-5.89a1.86,1.86,0,0,0-2.68,0,5.11,5.11,0,0,0,0,4.88,1.88,1.88,0,0,0,2.68,0,5.19,5.19,0,0,0,0-4.88Z"/><path class="cls-2" d="M99,330.25l-.11-.82a1.92,1.92,0,0,1-1.79,1,2.06,2.06,0,0,1-2.16-2.24V324h1.5v3.83c0,.73.29,1.19,1.08,1.19a1,1,0,0,0,.77-.32,1.88,1.88,0,0,0,.45-1.4V324h1.5v6.24Z"/><path class="cls-2" d="M104.34,330.33a1.71,1.71,0,0,1-1.88-1.91v-3.17h-1.14V324h1.14v-1.58l1.5-.37V324h1.57v1.24H104v3c0,.48.21.69.69.69a7.07,7.07,0,0,0,1-.06v1.26A5.47,5.47,0,0,1,104.34,330.33Z"/><path class="cls-2" d="M106.93,332.26l-.85-.63a8.39,8.39,0,0,0,0-10.36l.85-.64a8.82,8.82,0,0,1,0,11.63Z"/><path class="cls-2" d="M17.19,310.49h-1.8v3.05H13.85V305h3.34c1.95,0,3,1.09,3,2.72S19.14,310.49,17.19,310.49Zm-.07-4.1H15.39v2.75h1.73c1,0,1.5-.55,1.5-1.37S18.16,306.39,17.12,306.39Z"/><path class="cls-2" d="M21.25,306.44v-1.55h1.61v1.55Zm.05,7.1V307.3h1.53v6.24Z"/><path class="cls-2" d="M28.52,313.54v-3.83c0-.73-.24-1.17-1-1.17a1.18,1.18,0,0,0-1.08.79,4.46,4.46,0,0,0-.2,1.67v2.54h-1.5V307.3H26l.11.81A2.15,2.15,0,0,1,30,309.38v4.16Z"/><path class="cls-2" d="M36.79,313.71a2.62,2.62,0,0,1-2.88-2.51,2.14,2.14,0,0,1,1.22-2,2.14,2.14,0,0,1-1.05-1.8,2.42,2.42,0,0,1,2.71-2.36,2.42,2.42,0,0,1,2.71,2.36,2.15,2.15,0,0,1-1,1.8,2.15,2.15,0,0,1,1.21,2A2.62,2.62,0,0,1,36.79,313.71Zm0-3.84a1.22,1.22,0,0,0-1.36,1.23,1.37,1.37,0,0,0,2.73,0A1.23,1.23,0,0,0,36.79,309.87Zm0-3.51a1.05,1.05,0,0,0-1.2,1.07,1.2,1.2,0,0,0,2.4,0A1.06,1.06,0,0,0,36.79,306.36Z"/><path class="cls-2" d="M45.69,315.55a8.82,8.82,0,0,1,0-11.63l.85.64a8.39,8.39,0,0,0,0,10.36Z"/><path class="cls-2" d="M53.35,312.63a3.27,3.27,0,0,1-2.39.91H47.65V305H51a3.23,3.23,0,0,1,2.39.91,6.08,6.08,0,0,1,0,6.68Zm-1.19-5.72a1.65,1.65,0,0,0-1.2-.48H49.2v5.72H51a1.65,1.65,0,0,0,1.2-.48,3.36,3.36,0,0,0,.62-2.39A3.31,3.31,0,0,0,52.16,306.91Z"/><path class="cls-2" d="M55.78,306.44v-1.55h1.61v1.55Zm0,7.1V307.3h1.52v6.24Z"/><path class="cls-2" d="M61.72,316.45a3.79,3.79,0,0,1-2.21-.51,1.61,1.61,0,0,1-.76-1.37,1.39,1.39,0,0,1,.75-1.27,1.25,1.25,0,0,1-.63-1.07,1.4,1.4,0,0,1,.75-1.26,2.09,2.09,0,0,1-.63-1.53,2.31,2.31,0,0,1,2.56-2.29,2.78,2.78,0,0,1,1.41.38,1.37,1.37,0,0,1,1.28-.78,2.68,2.68,0,0,1,.4,0v1.17h-.12c-.34,0-.66.09-.75.39a2.19,2.19,0,0,1,.32,1.13,2.34,2.34,0,0,1-2.54,2.27,3.06,3.06,0,0,1-1-.17.56.56,0,0,0-.31.44c0,.37.37.46.68.46h1a3.57,3.57,0,0,1,2,.42,1.72,1.72,0,0,1,.76,1.5C64.73,316,63.11,316.45,61.72,316.45Zm.1-2.82H60.65a.78.78,0,0,0-.56.77c0,.79,1,.87,1.57.87s1.65,0,1.65-.87S62.39,313.63,61.82,313.63Zm-.27-5.36a1.08,1.08,0,0,0-1.1,1.17,1.1,1.1,0,1,0,2.2,0A1.08,1.08,0,0,0,61.55,308.27Z"/><path class="cls-2" d="M65.82,306.44v-1.55h1.61v1.55Zm.05,7.1V307.3h1.52v6.24Z"/><path class="cls-2" d="M71.52,313.62a1.71,1.71,0,0,1-1.88-1.92v-3.16H68.5V307.3h1.14v-1.58l1.5-.37v1.95h1.57v1.24H71.14v3c0,.48.21.69.69.69a9.12,9.12,0,0,0,1-.06v1.26A5.47,5.47,0,0,1,71.52,313.62Z"/><path class="cls-2" d="M78.77,313.63a1,1,0,0,1-1.06-.87,2.2,2.2,0,0,1-1.89.94,2,2,0,1,1-.15-3.91l1.84-.14v-.38c0-.59-.21-1-1.06-1-.69,0-1.1.31-1.14.88H73.86c.09-1.4,1.2-2,2.59-2a2.24,2.24,0,0,1,2.34,1.27,3.35,3.35,0,0,1,.18,1.26V312c0,.29.1.4.35.4a.68.68,0,0,0,.19,0v1.11A1.48,1.48,0,0,1,78.77,313.63Zm-1.26-2.86-1.58.12a.87.87,0,0,0-.9.81.82.82,0,0,0,.88.78,1.41,1.41,0,0,0,1.6-1.42Z"/><path class="cls-2" d="M82.49,313.61a1.51,1.51,0,0,1-1.7-1.68v-7.06H82.3v6.81c0,.36.08.6.6.6h.25v1.26A2.48,2.48,0,0,1,82.49,313.61Z"/><path class="cls-2" d="M92.5,312.74a3.61,3.61,0,0,1-4.9,0,6.05,6.05,0,0,1,0-6.9,3.61,3.61,0,0,1,4.9,0,6.1,6.1,0,0,1,0,6.9Zm-1.11-5.89a1.86,1.86,0,0,0-2.68,0,5.11,5.11,0,0,0,0,4.88,1.88,1.88,0,0,0,2.68,0,5.18,5.18,0,0,0,0-4.88Z"/><path class="cls-2" d="M99,313.54l-.11-.82a1.94,1.94,0,0,1-1.79,1,2.06,2.06,0,0,1-2.16-2.24V307.3h1.5v3.83c0,.73.29,1.19,1.08,1.19a1,1,0,0,0,.77-.32,1.9,1.9,0,0,0,.45-1.4v-3.3h1.5v6.24Z"/><path class="cls-2" d="M104.34,313.62a1.71,1.71,0,0,1-1.88-1.92v-3.16h-1.14V307.3h1.14v-1.58l1.5-.37v1.95h1.57v1.24H104v3c0,.48.21.69.69.69a9.12,9.12,0,0,0,1-.06v1.26A5.47,5.47,0,0,1,104.34,313.62Z"/><path class="cls-2" d="M106.93,315.55l-.85-.63a8.39,8.39,0,0,0,0-10.36l.85-.64a8.82,8.82,0,0,1,0,11.63Z"/><path class="cls-2" d="M17.19,293.78h-1.8v3.05H13.85v-8.51h3.34c1.95,0,3,1.1,3,2.73S19.14,293.78,17.19,293.78Zm-.07-4.1H15.39v2.75h1.73c1,0,1.5-.56,1.5-1.37S18.16,289.68,17.12,289.68Z"/><path class="cls-2" d="M21.25,289.73v-1.55h1.61v1.55Zm.05,7.1v-6.24h1.53v6.24Z"/><path class="cls-2" d="M28.52,296.83V293c0-.73-.24-1.17-1-1.17a1.18,1.18,0,0,0-1.08.79,4.43,4.43,0,0,0-.2,1.66v2.55h-1.5v-6.24H26l.11.8A2.15,2.15,0,0,1,30,292.67v4.16Z"/><path class="cls-2" d="M38.71,296.14a2.58,2.58,0,0,1-2,.84,2.65,2.65,0,0,1-1.9-.68,2.2,2.2,0,0,1-.71-1.54h1.51a1,1,0,0,0,.29.64,1.17,1.17,0,0,0,.89.3,1.06,1.06,0,0,0,.82-.34,2.57,2.57,0,0,0,.58-1.9,2.18,2.18,0,0,1-1.58.61,2.57,2.57,0,0,1-2.75-2.84,2.68,2.68,0,0,1,2.87-2.89A2.82,2.82,0,0,1,39.5,291a8.3,8.3,0,0,1,.14,1.56C39.64,293.73,39.56,295.23,38.71,296.14Zm-2-6.47c-.9,0-1.35.64-1.35,1.62a1.38,1.38,0,0,0,1.37,1.56c.8,0,1.29-.69,1.29-1.56S37.57,289.67,36.69,289.67Z"/><path class="cls-2" d="M45.69,298.84a8.82,8.82,0,0,1,0-11.63l.85.63a8.4,8.4,0,0,0,0,10.37Z"/><path class="cls-2" d="M53.35,295.92a3.27,3.27,0,0,1-2.39.91H47.65v-8.51H51a3.24,3.24,0,0,1,2.39.92,4.52,4.52,0,0,1,1,3.33A4.59,4.59,0,0,1,53.35,295.92Zm-1.19-5.73a1.69,1.69,0,0,0-1.2-.48H49.2v5.73H51a1.69,1.69,0,0,0,1.2-.48,4.9,4.9,0,0,0,0-4.77Z"/><path class="cls-2" d="M55.78,289.73v-1.55h1.61v1.55Zm0,7.1v-6.24h1.52v6.24Z"/><path class="cls-2" d="M61.72,299.74a3.79,3.79,0,0,1-2.21-.51,1.61,1.61,0,0,1-.76-1.37,1.39,1.39,0,0,1,.75-1.27,1.25,1.25,0,0,1-.63-1.07,1.4,1.4,0,0,1,.75-1.26,2.09,2.09,0,0,1-.63-1.53,2.31,2.31,0,0,1,2.56-2.3,2.78,2.78,0,0,1,1.41.39,1.37,1.37,0,0,1,1.28-.78,2.68,2.68,0,0,1,.4,0v1.17l-.12,0c-.34,0-.66.1-.75.4a2.19,2.19,0,0,1,.32,1.13A2.33,2.33,0,0,1,61.55,295a3.34,3.34,0,0,1-1-.16.56.56,0,0,0-.31.44c0,.37.37.46.68.46h1a3.57,3.57,0,0,1,2,.42,1.7,1.7,0,0,1,.76,1.49C64.73,299.3,63.11,299.74,61.72,299.74Zm.1-2.82H60.65a.77.77,0,0,0-.56.77c0,.79,1,.86,1.57.86s1.65,0,1.65-.86S62.39,296.92,61.82,296.92Zm-.27-5.36a1.07,1.07,0,0,0-1.1,1.17,1.1,1.1,0,1,0,2.2,0A1.07,1.07,0,0,0,61.55,291.56Z"/><path class="cls-2" d="M65.82,289.73v-1.55h1.61v1.55Zm.05,7.1v-6.24h1.52v6.24Z"/><path class="cls-2" d="M71.52,296.91A1.71,1.71,0,0,1,69.64,295v-3.16H68.5v-1.24h1.14V289l1.5-.37v1.95h1.57v1.24H71.14v3c0,.48.21.68.69.68a7.07,7.07,0,0,0,1-.06v1.26A5,5,0,0,1,71.52,296.91Z"/><path class="cls-2" d="M78.77,296.92a1,1,0,0,1-1.06-.87,2.2,2.2,0,0,1-1.89.93,2,2,0,1,1-.15-3.91l1.84-.13v-.38c0-.59-.21-1-1.06-1-.69,0-1.1.32-1.14.89H73.86c.09-1.4,1.2-2,2.59-2a2.25,2.25,0,0,1,2.34,1.28A3.33,3.33,0,0,1,79,293v2.32c0,.29.1.4.35.4a.68.68,0,0,0,.19,0v1.1A1.47,1.47,0,0,1,78.77,296.92Zm-1.26-2.86-1.58.12a.87.87,0,0,0-.9.81.82.82,0,0,0,.88.78,1.41,1.41,0,0,0,1.6-1.43Z"/><path class="cls-2" d="M82.49,296.9a1.51,1.51,0,0,1-1.7-1.68v-7.06H82.3V295c0,.36.08.6.6.6h.25v1.26A2.48,2.48,0,0,1,82.49,296.9Z"/><path class="cls-2" d="M92.5,296a3.61,3.61,0,0,1-4.9,0,6,6,0,0,1,0-6.89,3.61,3.61,0,0,1,4.9,0,6.08,6.08,0,0,1,0,6.89Zm-1.11-5.89a1.88,1.88,0,0,0-2.68,0,5.13,5.13,0,0,0,0,4.89,1.88,1.88,0,0,0,2.68,0,5.21,5.21,0,0,0,0-4.89Z"/><path class="cls-2" d="M99,296.83l-.11-.82a1.94,1.94,0,0,1-1.79,1,2.06,2.06,0,0,1-2.16-2.23v-4.16h1.5v3.83c0,.73.29,1.18,1.08,1.18a1,1,0,0,0,.77-.31,1.9,1.9,0,0,0,.45-1.4v-3.3h1.5v6.24Z"/><path class="cls-2" d="M104.34,296.91a1.71,1.71,0,0,1-1.88-1.92v-3.16h-1.14v-1.24h1.14V289l1.5-.37v1.95h1.57v1.24H104v3c0,.48.21.68.69.68a7.07,7.07,0,0,0,1-.06v1.26A5,5,0,0,1,104.34,296.91Z"/><path class="cls-2" d="M106.93,298.84l-.85-.63a8.4,8.4,0,0,0,0-10.37l.85-.63a8.82,8.82,0,0,1,0,11.63Z"/><path class="cls-2" d="M10.35,277.07H8.55v3.05H7v-8.51h3.34c2,0,3,1.09,3,2.72S12.3,277.07,10.35,277.07Zm-.06-4.1H8.55v2.74h1.74c1,0,1.49-.55,1.49-1.36A1.3,1.3,0,0,0,10.29,273Z"/><path class="cls-2" d="M14.42,273v-1.55H16V273Zm0,7.1v-6.24H16v6.24Z"/><path class="cls-2" d="M21.69,280.12v-3.83c0-.73-.25-1.17-1-1.17a1.18,1.18,0,0,0-1.08.79,4.43,4.43,0,0,0-.2,1.66v2.55h-1.5v-6.24h1.26l.11.8A2.15,2.15,0,0,1,23.18,276v4.17Z"/><path class="cls-2" d="M29.76,280.12v-6.56l-1.83,1.33v-1.63L30,271.78h1.28v8.34Z"/><path class="cls-2" d="M38.74,279.53a2.69,2.69,0,0,1-2,.74,2.65,2.65,0,0,1-1.94-.74c-.86-.83-1-2.22-1-3.59s.14-2.76,1-3.58a2.65,2.65,0,0,1,1.94-.74,2.69,2.69,0,0,1,2,.74c.86.82,1,2.22,1,3.58S39.6,278.7,38.74,279.53Zm-2-6.53c-1.54,0-1.41,1.86-1.41,2.94s-.13,2.94,1.41,2.94,1.42-1.86,1.42-2.94S38.34,273,36.79,273Z"/><path class="cls-2" d="M45.69,282.13a8.82,8.82,0,0,1,0-11.63l.85.63a8.4,8.4,0,0,0,0,10.37Z"/><path class="cls-2" d="M53.35,279.21a3.27,3.27,0,0,1-2.39.91H47.65v-8.51H51a3.27,3.27,0,0,1,2.39.91,6.09,6.09,0,0,1,0,6.69Zm-1.19-5.73A1.69,1.69,0,0,0,51,273H49.2v5.72H51a1.68,1.68,0,0,0,1.2-.47,4.9,4.9,0,0,0,0-4.77Z"/><path class="cls-2" d="M55.78,273v-1.55h1.61V273Zm0,7.1v-6.24h1.52v6.24Z"/><path class="cls-2" d="M61.72,283a3.72,3.72,0,0,1-2.21-.52,1.58,1.58,0,0,1-.76-1.36,1.39,1.39,0,0,1,.75-1.27,1.25,1.25,0,0,1-.63-1.07,1.4,1.4,0,0,1,.75-1.26A2.09,2.09,0,0,1,59,276a2.31,2.31,0,0,1,2.56-2.29,2.78,2.78,0,0,1,1.41.39,1.37,1.37,0,0,1,1.28-.78,2.68,2.68,0,0,1,.4,0v1.17l-.12,0c-.34,0-.66.1-.75.4a2.19,2.19,0,0,1,.32,1.13,2.34,2.34,0,0,1-2.54,2.26,3.06,3.06,0,0,1-1-.17.59.59,0,0,0-.31.45c0,.37.37.45.68.45h1a3.66,3.66,0,0,1,2,.42,1.73,1.73,0,0,1,.76,1.5C64.73,282.59,63.11,283,61.72,283Zm.1-2.82H60.65a.77.77,0,0,0-.56.77c0,.79,1,.86,1.57.86s1.65,0,1.65-.86S62.39,280.21,61.82,280.21Zm-.27-5.36a1.16,1.16,0,1,0,1.1,1.16A1.07,1.07,0,0,0,61.55,274.85Z"/><path class="cls-2" d="M65.82,273v-1.55h1.61V273Zm.05,7.1v-6.24h1.52v6.24Z"/><path class="cls-2" d="M71.52,280.2a1.71,1.71,0,0,1-1.88-1.92v-3.16H68.5v-1.24h1.14V272.3l1.5-.38v2h1.57v1.24H71.14v3c0,.48.21.68.69.68a7.07,7.07,0,0,0,1-.06V280A5,5,0,0,1,71.52,280.2Z"/><path class="cls-2" d="M78.77,280.21a1,1,0,0,1-1.06-.87,2.2,2.2,0,0,1-1.89.93,2,2,0,1,1-.15-3.91l1.84-.13v-.38c0-.59-.21-1-1.06-1-.69,0-1.1.31-1.14.89H73.86c.09-1.4,1.2-2,2.59-2A2.25,2.25,0,0,1,78.79,275a3.3,3.3,0,0,1,.18,1.25v2.32c0,.29.1.39.35.39a1,1,0,0,0,.19,0V280A1.47,1.47,0,0,1,78.77,280.21Zm-1.26-2.86-1.58.12a.87.87,0,0,0-.9.81.82.82,0,0,0,.88.78,1.41,1.41,0,0,0,1.6-1.43Z"/><path class="cls-2" d="M82.49,280.19a1.51,1.51,0,0,1-1.7-1.68v-7.06H82.3v6.81c0,.36.08.6.6.6.13,0,.16,0,.25,0v1.26A2.5,2.5,0,0,1,82.49,280.19Z"/><path class="cls-2" d="M92.5,279.31a3.61,3.61,0,0,1-4.9,0,6,6,0,0,1,0-6.89,3.61,3.61,0,0,1,4.9,0,6.08,6.08,0,0,1,0,6.89Zm-1.11-5.89a1.88,1.88,0,0,0-2.68,0,5.13,5.13,0,0,0,0,4.89,1.88,1.88,0,0,0,2.68,0,5.21,5.21,0,0,0,0-4.89Z"/><path class="cls-2" d="M99,280.12l-.11-.82a1.94,1.94,0,0,1-1.79,1A2.06,2.06,0,0,1,94.92,278v-4.16h1.5v3.83c0,.73.29,1.18,1.08,1.18a1,1,0,0,0,.77-.31,1.9,1.9,0,0,0,.45-1.4v-3.3h1.5v6.24Z"/><path class="cls-2" d="M104.34,280.2a1.71,1.71,0,0,1-1.88-1.92v-3.16h-1.14v-1.24h1.14V272.3l1.5-.38v2h1.57v1.24H104v3c0,.48.21.68.69.68a7.07,7.07,0,0,0,1-.06V280A5,5,0,0,1,104.34,280.2Z"/><path class="cls-2" d="M106.93,282.13l-.85-.63a8.4,8.4,0,0,0,0-10.37l.85-.63a8.82,8.82,0,0,1,0,11.63Z"/><path class="cls-2" d="M10.35,260.36H8.55v3H7v-8.5h3.34c2,0,3,1.09,3,2.72S12.3,260.36,10.35,260.36Zm-.06-4.1H8.55V259h1.74c1,0,1.49-.55,1.49-1.36A1.3,1.3,0,0,0,10.29,256.26Z"/><path class="cls-2" d="M14.42,256.3v-1.54H16v1.54Zm0,7.1v-6.23H16v6.23Z"/><path class="cls-2" d="M21.69,263.4v-3.82c0-.73-.25-1.18-1-1.18a1.2,1.2,0,0,0-1.08.79,4.49,4.49,0,0,0-.2,1.67v2.54h-1.5v-6.23h1.26l.11.8a2.15,2.15,0,0,1,3.94,1.27v4.16Z"/><path class="cls-2" d="M29.76,263.4v-6.56l-1.83,1.34v-1.64L30,255.07h1.28v8.33Z"/><path class="cls-2" d="M36.6,263.4v-6.56l-1.83,1.34v-1.64l2-1.47H38.1v8.33Z"/><path class="cls-2" d="M45.69,265.42a8.82,8.82,0,0,1,0-11.63l.85.63a8.39,8.39,0,0,0,0,10.36Z"/><path class="cls-2" d="M53.35,262.49a3.23,3.23,0,0,1-2.39.91H47.65v-8.5H51a3.27,3.27,0,0,1,2.39.91,6.08,6.08,0,0,1,0,6.68Zm-1.19-5.72a1.65,1.65,0,0,0-1.2-.48H49.2V262H51a1.65,1.65,0,0,0,1.2-.48,4.88,4.88,0,0,0,0-4.76Z"/><path class="cls-2" d="M55.78,256.3v-1.54h1.61v1.54Zm0,7.1v-6.23h1.52v6.23Z"/><path class="cls-2" d="M61.72,266.32a3.72,3.72,0,0,1-2.21-.52,1.6,1.6,0,0,1-.76-1.36,1.4,1.4,0,0,1,.75-1.28,1.22,1.22,0,0,1-.63-1.06,1.4,1.4,0,0,1,.75-1.26A2.11,2.11,0,0,1,59,259.3,2.31,2.31,0,0,1,61.55,257a2.78,2.78,0,0,1,1.41.39,1.37,1.37,0,0,1,1.28-.78,2.68,2.68,0,0,1,.4,0v1.16h-.12c-.34,0-.66.1-.75.4a2.15,2.15,0,0,1,.32,1.12,2.34,2.34,0,0,1-2.54,2.27,3.06,3.06,0,0,1-1-.17.58.58,0,0,0-.31.45c0,.37.37.45.68.45h1a3.66,3.66,0,0,1,2,.42,1.72,1.72,0,0,1,.76,1.5C64.73,265.88,63.11,266.32,61.72,266.32Zm.1-2.82H60.65a.77.77,0,0,0-.56.77c0,.79,1,.86,1.57.86s1.65,0,1.65-.86S62.39,263.5,61.82,263.5Zm-.27-5.36a1.07,1.07,0,0,0-1.1,1.16,1.1,1.1,0,1,0,2.2,0A1.07,1.07,0,0,0,61.55,258.14Z"/><path class="cls-2" d="M65.82,256.3v-1.54h1.61v1.54Zm.05,7.1v-6.23h1.52v6.23Z"/><path class="cls-2" d="M71.52,263.49a1.71,1.71,0,0,1-1.88-1.92V258.4H68.5v-1.23h1.14v-1.58l1.5-.38v2h1.57v1.23H71.14v3c0,.48.21.68.69.68a7.07,7.07,0,0,0,1-.06v1.26A5,5,0,0,1,71.52,263.49Z"/><path class="cls-2" d="M78.77,263.5a1,1,0,0,1-1.06-.87,2.2,2.2,0,0,1-1.89.93,2,2,0,1,1-.15-3.91l1.84-.13v-.38c0-.59-.21-1-1.06-1-.69,0-1.1.31-1.14.89H73.86c.09-1.4,1.2-2,2.59-2a2.26,2.26,0,0,1,2.34,1.27,3.38,3.38,0,0,1,.18,1.26v2.32c0,.29.1.39.35.39a1,1,0,0,0,.19,0v1.1A1.47,1.47,0,0,1,78.77,263.5Zm-1.26-2.87-1.58.12a.88.88,0,0,0-.9.82.82.82,0,0,0,.88.78,1.41,1.41,0,0,0,1.6-1.43Z"/><path class="cls-2" d="M82.49,263.48a1.51,1.51,0,0,1-1.7-1.68v-7.07H82.3v6.82c0,.36.08.6.6.6.13,0,.16,0,.25,0v1.26A2.5,2.5,0,0,1,82.49,263.48Z"/><path class="cls-2" d="M92.5,262.6a3.61,3.61,0,0,1-4.9,0,4.44,4.44,0,0,1-1.08-3.44,4.5,4.5,0,0,1,1.08-3.46,3.63,3.63,0,0,1,4.9,0,4.49,4.49,0,0,1,1.07,3.46A4.44,4.44,0,0,1,92.5,262.6Zm-1.11-5.89a1.88,1.88,0,0,0-2.68,0,3.58,3.58,0,0,0-.62,2.45,3.53,3.53,0,0,0,.62,2.43,1.86,1.86,0,0,0,2.68,0,3.52,3.52,0,0,0,.61-2.43A3.58,3.58,0,0,0,91.39,256.71Z"/><path class="cls-2" d="M99,263.4l-.11-.81a1.94,1.94,0,0,1-1.79,1,2.06,2.06,0,0,1-2.16-2.23v-4.16h1.5V261c0,.74.29,1.19,1.08,1.19a1,1,0,0,0,.77-.31,1.91,1.91,0,0,0,.45-1.4v-3.3h1.5v6.23Z"/><path class="cls-2" d="M104.34,263.49a1.71,1.71,0,0,1-1.88-1.92V258.4h-1.14v-1.23h1.14v-1.58l1.5-.38v2h1.57v1.23H104v3c0,.48.21.68.69.68a7.07,7.07,0,0,0,1-.06v1.26A5,5,0,0,1,104.34,263.49Z"/><path class="cls-2" d="M106.93,265.42l-.85-.64a8.39,8.39,0,0,0,0-10.36l.85-.63a8.82,8.82,0,0,1,0,11.63Z"/><path class="cls-2" d="M10.35,243.65H8.55v3H7v-8.5h3.34c2,0,3,1.09,3,2.72S12.3,243.65,10.35,243.65Zm-.06-4.11H8.55v2.75h1.74c1,0,1.49-.55,1.49-1.37A1.3,1.3,0,0,0,10.29,239.54Z"/><path class="cls-2" d="M14.42,239.59v-1.54H16v1.54Zm0,7.1v-6.23H16v6.23Z"/><path class="cls-2" d="M21.69,246.69v-3.82c0-.73-.25-1.18-1-1.18a1.2,1.2,0,0,0-1.08.79,4.49,4.49,0,0,0-.2,1.67v2.54h-1.5v-6.23h1.26l.11.8a2.15,2.15,0,0,1,3.94,1.27v4.16Z"/><path class="cls-2" d="M29.76,246.69v-6.56l-1.83,1.33v-1.63L30,238.36h1.28v8.33Z"/><path class="cls-2" d="M34.12,246.69v-1.2l3.25-3.87a1.69,1.69,0,0,0,.43-1.07,1,1,0,0,0-1-1,1.11,1.11,0,0,0-1.12,1.2H34.1a2.41,2.41,0,0,1,2.66-2.51,2.35,2.35,0,0,1,2.56,2.34,3.4,3.4,0,0,1-.91,2l-2.3,2.76h3.33v1.35Z"/><path class="cls-2" d="M45.69,248.71a8.83,8.83,0,0,1,0-11.64l.85.64a8.39,8.39,0,0,0,0,10.36Z"/><path class="cls-2" d="M53.35,245.78a3.23,3.23,0,0,1-2.39.91H47.65v-8.5H51a3.23,3.23,0,0,1,2.39.91,6.08,6.08,0,0,1,0,6.68Zm-1.19-5.72a1.65,1.65,0,0,0-1.2-.48H49.2v5.72H51a1.65,1.65,0,0,0,1.2-.48,4.88,4.88,0,0,0,0-4.76Z"/><path class="cls-2" d="M55.78,239.59v-1.54h1.61v1.54Zm0,7.1v-6.23h1.52v6.23Z"/><path class="cls-2" d="M61.72,249.61a3.72,3.72,0,0,1-2.21-.52,1.6,1.6,0,0,1-.76-1.37,1.4,1.4,0,0,1,.75-1.27,1.23,1.23,0,0,1-.63-1.06,1.4,1.4,0,0,1,.75-1.26,2.11,2.11,0,0,1-.63-1.54,2.31,2.31,0,0,1,2.56-2.29,2.78,2.78,0,0,1,1.41.38,1.36,1.36,0,0,1,1.28-.77,2.68,2.68,0,0,1,.4,0v1.16h-.12c-.34,0-.66.1-.75.4a2.12,2.12,0,0,1,.32,1.12,2.34,2.34,0,0,1-2.54,2.27,3.06,3.06,0,0,1-1-.17.58.58,0,0,0-.31.45c0,.37.37.45.68.45h1a3.57,3.57,0,0,1,2,.42,1.72,1.72,0,0,1,.76,1.5C64.73,249.16,63.11,249.61,61.72,249.61Zm.1-2.82H60.65a.77.77,0,0,0-.56.77c0,.79,1,.86,1.57.86s1.65,0,1.65-.86S62.39,246.79,61.82,246.79Zm-.27-5.36a1.16,1.16,0,1,0,1.1,1.16A1.07,1.07,0,0,0,61.55,241.43Z"/><path class="cls-2" d="M65.82,239.59v-1.54h1.61v1.54Zm.05,7.1v-6.23h1.52v6.23Z"/><path class="cls-2" d="M71.52,246.78a1.71,1.71,0,0,1-1.88-1.92v-3.17H68.5v-1.23h1.14v-1.59l1.5-.37v2h1.57v1.23H71.14v3c0,.48.21.68.69.68a7.07,7.07,0,0,0,1-.06v1.26A5,5,0,0,1,71.52,246.78Z"/><path class="cls-2" d="M78.77,246.79a1,1,0,0,1-1.06-.88,2.18,2.18,0,0,1-1.89.94,2,2,0,1,1-.15-3.91l1.84-.13v-.39c0-.58-.21-1-1.06-1-.69,0-1.1.31-1.14.89H73.86c.09-1.41,1.2-2,2.59-2a2.26,2.26,0,0,1,2.34,1.27,3.38,3.38,0,0,1,.18,1.26v2.32c0,.28.1.39.35.39a1,1,0,0,0,.19,0v1.1A1.47,1.47,0,0,1,78.77,246.79Zm-1.26-2.87-1.58.12a.87.87,0,0,0-.9.82.82.82,0,0,0,.88.78,1.41,1.41,0,0,0,1.6-1.43Z"/><path class="cls-2" d="M82.49,246.77a1.51,1.51,0,0,1-1.7-1.68V238H82.3v6.81c0,.36.08.6.6.6h.25v1.26A2.5,2.5,0,0,1,82.49,246.77Z"/><path class="cls-2" d="M92.5,245.89a3.61,3.61,0,0,1-4.9,0,4.44,4.44,0,0,1-1.08-3.44A4.5,4.5,0,0,1,87.6,239a3.61,3.61,0,0,1,4.9,0,4.49,4.49,0,0,1,1.07,3.46A4.44,4.44,0,0,1,92.5,245.89ZM91.39,240a1.88,1.88,0,0,0-2.68,0,3.58,3.58,0,0,0-.62,2.45,3.53,3.53,0,0,0,.62,2.43,1.86,1.86,0,0,0,2.68,0,3.52,3.52,0,0,0,.61-2.43A3.58,3.58,0,0,0,91.39,240Z"/><path class="cls-2" d="M99,246.69l-.11-.81a1.94,1.94,0,0,1-1.79,1,2.06,2.06,0,0,1-2.16-2.23v-4.16h1.5v3.82c0,.73.29,1.19,1.08,1.19a1,1,0,0,0,.77-.31,1.92,1.92,0,0,0,.45-1.41v-3.29h1.5v6.23Z"/><path class="cls-2" d="M104.34,246.78a1.71,1.71,0,0,1-1.88-1.92v-3.17h-1.14v-1.23h1.14v-1.59l1.5-.37v2h1.57v1.23H104v3c0,.48.21.68.69.68a7.07,7.07,0,0,0,1-.06v1.26A5,5,0,0,1,104.34,246.78Z"/><path class="cls-2" d="M106.93,248.71l-.85-.64a8.39,8.39,0,0,0,0-10.36l.85-.64a8.83,8.83,0,0,1,0,11.64Z"/><path class="cls-2" d="M10.35,226.94H8.55v3H7v-8.5h3.34c2,0,3,1.09,3,2.72S12.3,226.94,10.35,226.94Zm-.06-4.11H8.55v2.75h1.74c1,0,1.49-.55,1.49-1.37A1.3,1.3,0,0,0,10.29,222.83Z"/><path class="cls-2" d="M14.42,222.88v-1.55H16v1.55Zm0,7.1v-6.23H16V230Z"/><path class="cls-2" d="M21.69,230v-3.82c0-.74-.25-1.18-1-1.18a1.2,1.2,0,0,0-1.08.79,4.46,4.46,0,0,0-.2,1.67V230h-1.5v-6.23h1.26l.11.8a2.15,2.15,0,0,1,3.94,1.27V230Z"/><path class="cls-2" d="M29.76,230v-6.56l-1.83,1.33v-1.63L30,221.65h1.28V230Z"/><path class="cls-2" d="M36.72,230.14a2.67,2.67,0,0,1-2.83-2.57h1.5a1.26,1.26,0,0,0,1.34,1.25,1.22,1.22,0,0,0,1.32-1.25c0-.86-.68-1.26-1.46-1.26H36V225h.62c.82,0,1.28-.33,1.28-1.11a1.1,1.1,0,0,0-1.14-1.09c-.74,0-1.27.37-1.28,1.13H33.94a2.51,2.51,0,0,1,2.79-2.44,2.42,2.42,0,0,1,2.67,2.36,1.89,1.89,0,0,1-1.2,1.79,2,2,0,0,1,1.36,2A2.55,2.55,0,0,1,36.72,230.14Z"/><path class="cls-2" d="M45.69,232a8.83,8.83,0,0,1,0-11.64l.85.64a8.39,8.39,0,0,0,0,10.36Z"/><path class="cls-2" d="M53.35,229.07A3.23,3.23,0,0,1,51,230H47.65v-8.5H51a3.23,3.23,0,0,1,2.39.91,6.08,6.08,0,0,1,0,6.68Zm-1.19-5.72a1.65,1.65,0,0,0-1.2-.48H49.2v5.72H51a1.65,1.65,0,0,0,1.2-.48,3.36,3.36,0,0,0,.62-2.39A3.31,3.31,0,0,0,52.16,223.35Z"/><path class="cls-2" d="M55.78,222.88v-1.55h1.61v1.55Zm0,7.1v-6.23h1.52V230Z"/><path class="cls-2" d="M61.72,232.9a3.72,3.72,0,0,1-2.21-.52,1.61,1.61,0,0,1-.76-1.37,1.39,1.39,0,0,1,.75-1.27,1.24,1.24,0,0,1-.63-1.07,1.4,1.4,0,0,1,.75-1.25,2.11,2.11,0,0,1-.63-1.54,2.31,2.31,0,0,1,2.56-2.29A2.78,2.78,0,0,1,63,224a1.37,1.37,0,0,1,1.28-.78,1.8,1.8,0,0,1,.4,0v1.16h-.12c-.34,0-.66.1-.75.4a2.12,2.12,0,0,1,.32,1.12,2.34,2.34,0,0,1-2.54,2.27,3.06,3.06,0,0,1-1-.17.56.56,0,0,0-.31.45c0,.37.37.45.68.45h1a3.57,3.57,0,0,1,2,.42,1.72,1.72,0,0,1,.76,1.5C64.73,232.45,63.11,232.9,61.72,232.9Zm.1-2.82H60.65a.77.77,0,0,0-.56.77c0,.79,1,.86,1.57.86s1.65,0,1.65-.86S62.39,230.08,61.82,230.08Zm-.27-5.36a1.16,1.16,0,1,0,1.1,1.16A1.07,1.07,0,0,0,61.55,224.72Z"/><path class="cls-2" d="M65.82,222.88v-1.55h1.61v1.55Zm.05,7.1v-6.23h1.52V230Z"/><path class="cls-2" d="M71.52,230.07a1.71,1.71,0,0,1-1.88-1.92V225H68.5v-1.23h1.14v-1.59l1.5-.37v2h1.57V225H71.14v3c0,.47.21.68.69.68a7.07,7.07,0,0,0,1-.06v1.26A5,5,0,0,1,71.52,230.07Z"/><path class="cls-2" d="M78.77,230.08a1,1,0,0,1-1.06-.88,2.18,2.18,0,0,1-1.89.94,2,2,0,1,1-.15-3.91l1.84-.13v-.39c0-.59-.21-1-1.06-1-.69,0-1.1.31-1.14.89H73.86c.09-1.41,1.2-2,2.59-2a2.26,2.26,0,0,1,2.34,1.27,3.38,3.38,0,0,1,.18,1.26v2.32c0,.28.1.39.35.39a1,1,0,0,0,.19,0v1.1A1.47,1.47,0,0,1,78.77,230.08Zm-1.26-2.87-1.58.12a.87.87,0,0,0-.9.82.82.82,0,0,0,.88.78,1.41,1.41,0,0,0,1.6-1.43Z"/><path class="cls-2" d="M82.49,230.05a1.51,1.51,0,0,1-1.7-1.68v-7.06H82.3v6.81c0,.36.08.6.6.6h.25V230A2.48,2.48,0,0,1,82.49,230.05Z"/><path class="cls-2" d="M92.5,229.18a3.61,3.61,0,0,1-4.9,0,4.45,4.45,0,0,1-1.08-3.44,4.5,4.5,0,0,1,1.08-3.46,3.61,3.61,0,0,1,4.9,0,4.49,4.49,0,0,1,1.07,3.46A4.45,4.45,0,0,1,92.5,229.18Zm-1.11-5.89a1.88,1.88,0,0,0-2.68,0,3.58,3.58,0,0,0-.62,2.45,3.53,3.53,0,0,0,.62,2.43,1.88,1.88,0,0,0,2.68,0,3.52,3.52,0,0,0,.61-2.43A3.58,3.58,0,0,0,91.39,223.29Z"/><path class="cls-2" d="M99,230l-.11-.81a1.94,1.94,0,0,1-1.79,1,2.06,2.06,0,0,1-2.16-2.23v-4.16h1.5v3.82c0,.73.29,1.19,1.08,1.19a1,1,0,0,0,.77-.31,1.92,1.92,0,0,0,.45-1.41v-3.29h1.5V230Z"/><path class="cls-2" d="M104.34,230.07a1.71,1.71,0,0,1-1.88-1.92V225h-1.14v-1.23h1.14v-1.59l1.5-.37v2h1.57V225H104v3c0,.47.21.68.69.68a7.07,7.07,0,0,0,1-.06v1.26A5,5,0,0,1,104.34,230.07Z"/><path class="cls-2" d="M106.93,232l-.85-.64a8.39,8.39,0,0,0,0-10.36l.85-.64a8.83,8.83,0,0,1,0,11.64Z"/><path class="cls-2" d="M74.44,165.69a4.29,4.29,0,0,1-5.23,0,2.71,2.71,0,0,1-.89-2H69.9a1.45,1.45,0,0,0,.45,1,2,2,0,0,0,1.42.46,2.06,2.06,0,0,0,1.48-.46,1.05,1.05,0,0,0,.33-.81c0-.63-.48-.92-1-1s-1.32-.13-1.89-.23a2.35,2.35,0,0,1-2.16-2.37,2.31,2.31,0,0,1,.75-1.68,3.88,3.88,0,0,1,4.87-.08,2.6,2.6,0,0,1,.86,1.82H73.43a1.38,1.38,0,0,0-.37-.84,2,2,0,0,0-1.3-.46,1.92,1.92,0,0,0-1.38.47,1,1,0,0,0-.29.72.9.9,0,0,0,.87.92c.54.09,1.29.14,1.84.22a2.46,2.46,0,0,1,2.34,2.46A2.42,2.42,0,0,1,74.44,165.69Z"/><path class="cls-2" d="M81.92,165.59a3.39,3.39,0,0,1-2.43,1,3.33,3.33,0,0,1-2.41-.95,6.14,6.14,0,0,1,0-6.9,3.5,3.5,0,0,1,4.84,0,3.1,3.1,0,0,1,.82,1.85H81.16a1.58,1.58,0,0,0-1.67-1.43,1.81,1.81,0,0,0-1.31.56,5.38,5.38,0,0,0,0,4.9,1.81,1.81,0,0,0,1.31.56,1.59,1.59,0,0,0,1.28-.54,1.66,1.66,0,0,0,.39-.93h1.58A3.1,3.1,0,0,1,81.92,165.59Z"/><path class="cls-2" d="M84.07,166.45v-8.51h1.55v7h3.95v1.47Z"/><path class="cls-2" d="M96.22,163.4h-1.8v3H92.88v-8.51h3.34c2,0,3,1.09,3,2.73S98.17,163.4,96.22,163.4Zm-.06-4.1H94.42V162h1.74c1,0,1.5-.55,1.5-1.36S97.19,159.3,96.16,159.3Z"/><path class="cls-2" d="M100.29,159.35V157.8h1.6v1.55Zm0,7.1v-6.24h1.53v6.24Z"/><path class="cls-2" d="M107.56,166.45v-3.83c0-.73-.24-1.17-1-1.17a1.18,1.18,0,0,0-1.08.79,4.43,4.43,0,0,0-.2,1.66v2.55h-1.5v-6.24H105l.11.8a2.15,2.15,0,0,1,3.94,1.27v4.17Z"/><path class="cls-2" d="M72.52,149a4.29,4.29,0,0,1-5.23,0,2.71,2.71,0,0,1-.89-2H68a1.45,1.45,0,0,0,.45,1,2,2,0,0,0,1.42.46,2.06,2.06,0,0,0,1.48-.46,1.06,1.06,0,0,0,.33-.82c0-.62-.48-.91-1-1s-1.32-.14-1.89-.23a2.35,2.35,0,0,1-2.16-2.38,2.31,2.31,0,0,1,.75-1.67,3.59,3.59,0,0,1,2.49-.9,3.53,3.53,0,0,1,2.38.82,2.59,2.59,0,0,1,.86,1.81H71.51a1.4,1.4,0,0,0-.37-.84,2,2,0,0,0-1.3-.45,1.92,1.92,0,0,0-1.38.47,1,1,0,0,0-.29.72.9.9,0,0,0,.87.92c.54.08,1.29.14,1.84.22a2.46,2.46,0,0,1,2.34,2.45A2.43,2.43,0,0,1,72.52,149Z"/><path class="cls-2" d="M80.31,148.82a3.23,3.23,0,0,1-2.38.91H74.62v-8.5h3.31a3.27,3.27,0,0,1,2.38.91,6.08,6.08,0,0,1,0,6.68Zm-1.18-5.72a1.68,1.68,0,0,0-1.2-.48H76.17v5.72h1.76a1.68,1.68,0,0,0,1.2-.48,4.95,4.95,0,0,0,0-4.76Z"/><path class="cls-2" d="M87.75,149.73l-.55-1.63H83.82l-.55,1.63H81.71l3-8.5h1.69l3,8.5Zm-2.24-6.6-1.21,3.58h2.42Z"/><path class="cls-2" d="M96.22,146.69h-1.8v3H92.88v-8.5h3.34c2,0,3,1.09,3,2.72S98.17,146.69,96.22,146.69Zm-.06-4.1H94.42v2.74h1.74c1,0,1.5-.55,1.5-1.36S97.19,142.59,96.16,142.59Z"/><path class="cls-2" d="M100.29,142.63v-1.54h1.6v1.54Zm0,7.1V143.5h1.53v6.23Z"/><path class="cls-2" d="M107.56,149.73v-3.82c0-.73-.24-1.18-1-1.18a1.2,1.2,0,0,0-1.08.79,4.49,4.49,0,0,0-.2,1.67v2.54h-1.5V143.5H105l.11.8a2.15,2.15,0,0,1,3.94,1.27v4.16Z"/><path class="cls-2" d="M88.73,116.47a2.66,2.66,0,0,1-2.83-2.57h1.5a1.26,1.26,0,0,0,1.34,1.25,1.22,1.22,0,0,0,1.32-1.25c0-.86-.68-1.26-1.46-1.26H88v-1.31h.63c.81,0,1.28-.33,1.28-1.11a1.1,1.1,0,0,0-1.14-1.09c-.74,0-1.27.37-1.28,1.13H86a2.51,2.51,0,0,1,2.79-2.44,2.42,2.42,0,0,1,2.66,2.36A1.87,1.87,0,0,1,90.2,112a2,2,0,0,1,1.37,2A2.55,2.55,0,0,1,88.73,116.47Z"/><path class="cls-2" d="M93.06,116.31v-1.87h1.82v1.87Z"/><path class="cls-2" d="M99.08,116.47a2.67,2.67,0,0,1-2.83-2.57h1.5a1.26,1.26,0,0,0,1.35,1.25,1.22,1.22,0,0,0,1.32-1.25c0-.86-.69-1.26-1.47-1.26h-.62v-1.31H99c.82,0,1.29-.33,1.29-1.11a1.1,1.1,0,0,0-1.14-1.09,1.13,1.13,0,0,0-1.29,1.13H96.3a2.52,2.52,0,0,1,2.8-2.44,2.42,2.42,0,0,1,2.66,2.36,1.87,1.87,0,0,1-1.2,1.79,2,2,0,0,1,1.37,2A2.55,2.55,0,0,1,99.08,116.47Z"/><path class="cls-2" d="M107.1,116.31h-1.7l-2.82-8.5h1.64l2.06,6.49,2-6.49h1.56Z"/><polyline class="cls-5" points="465.2 110.88 465.2 43.29 389.77 43.29 389.77 260 389.77 260 115.27 260"/><polyline class="cls-5" points="481.91 110.88 481.91 26.58 373.06 26.58 373.06 243.28 115.27 243.28"/><polyline class="cls-5" points="532.04 110.88 532.04 9.87 356.35 9.87 356.35 9.87 356.35 226.57 115.27 226.57"/><rect class="cls-1" x="176.55" y="92.09" width="91.11" height="91.11" transform="translate(359.76 -84.46) rotate(90)"/><rect class="cls-1" x="203.74" y="126.36" width="36.73" height="22.57" transform="translate(359.76 -84.46) rotate(90)"/><path class="cls-2" d="M279.46,97.58a2.61,2.61,0,0,1-2,.84,2.66,2.66,0,0,1-1.91-.68,2.22,2.22,0,0,1-.71-1.54h1.51a1.06,1.06,0,0,0,.29.64,1.17,1.17,0,0,0,.89.3,1.1,1.1,0,0,0,.83-.34,2.61,2.61,0,0,0,.57-1.9,2.18,2.18,0,0,1-1.58.61,2.57,2.57,0,0,1-2.75-2.84,2.68,2.68,0,0,1,2.87-2.89,2.83,2.83,0,0,1,2.82,2.61,9.21,9.21,0,0,1,.13,1.56C280.38,95.17,280.31,96.67,279.46,97.58Zm-2-6.47c-.9,0-1.35.64-1.35,1.62a1.35,1.35,0,1,0,2.67,0C278.75,91.81,278.32,91.11,277.43,91.11Z"/><path class="cls-2" d="M288,97.35a3.26,3.26,0,0,1-2.39.92h-3.31V89.76h3.31a3.29,3.29,0,0,1,2.39.91,6.08,6.08,0,0,1,0,6.68Zm-1.19-5.72a1.69,1.69,0,0,0-1.2-.48H283.8v5.73h1.76a1.69,1.69,0,0,0,1.2-.48,5,5,0,0,0,0-4.77Z"/><path class="cls-2" d="M295.07,97.45a2.95,2.95,0,0,1-4.37,0,3.39,3.39,0,0,1-.73-2.3,3.35,3.35,0,0,1,.73-2.3,2.93,2.93,0,0,1,4.37,0,3.4,3.4,0,0,1,.73,2.3A3.44,3.44,0,0,1,295.07,97.45Zm-1.24-3.87a1.32,1.32,0,0,0-1.89,0,3,3,0,0,0,0,3.14,1.32,1.32,0,0,0,1.89,0,3,3,0,0,0,0-3.14Z"/><path class="cls-2" d="M298.85,91.17v2.28h3.86v1.4h-3.86v3.42H297.3V89.76h5.88v1.41Z"/><path class="cls-2" d="M306.69,98.27V89.76h1.57v8.51Z"/><path class="cls-2" d="M317.29,98.27V92.2l-2.21,6h-1.14l-2.19-6v6.14h-1.5V89.76h2.09l2.23,6.06,2.24-6.06h2v8.51Z"/><path class="cls-2" d="M323.88,98.42A3.11,3.11,0,0,1,320.54,95V89.76h1.55V95c0,1.21.55,2,1.79,2s1.79-.83,1.79-2V89.76h1.54V95A3.1,3.1,0,0,1,323.88,98.42Z"/><line class="cls-1" x1="115.27" y1="162.71" x2="176.55" y2="162.71"/><line class="cls-1" x1="115.27" y1="146" x2="176.55" y2="146"/><line class="cls-1" x1="50.67" y1="129.29" x2="176.55" y2="129.29"/><line class="cls-1" x1="115.27" y1="112.58" x2="176.55" y2="112.58"/><line class="cls-1" x1="50.67" y1="104.4" x2="50.67" y2="154.18"/><line class="cls-1" x1="41.07" y1="111.13" x2="41.07" y2="147.45"/><line class="cls-1" x1="31.46" y1="117.86" x2="31.46" y2="140.72"/></svg>