<?xml version="1.0" encoding="utf-8"?>
<!-- Generator: Adobe Illustrator 25.4.1, SVG Export Plug-In . SVG Version: 6.00 Build 0)  -->
<svg version="1.1" id="Layer_1" xmlns="http://www.w3.org/2000/svg" xmlns:xlink="http://www.w3.org/1999/xlink" x="0px" y="0px"
	 viewBox="0 0 1369 493" style="enable-background:new 0 0 1369 493;" xml:space="preserve">
<style type="text/css">
	.st0{fill:none;stroke:#FFFFFF;stroke-width:10;stroke-miterlimit:10;}
	.st1{fill:none;stroke:#FFFFFF;stroke-width:7;stroke-miterlimit:10;}
	.st2{fill:#FFFFFF;}
	.st3{font-family:'AkkuratStd-Bold';}
	.st4{font-size:24.139px;}
</style>
<g>
	<rect width="1369" height="493"/>
</g>
<g id="Batt_00000008147791648630078900000001668529472148074669_">
	<line class="st0" x1="-251.6" y1="460.2" x2="-193.8" y2="460.2"/>
	<line class="st0" x1="-281.3" y1="440.3" x2="-164" y2="440.3"/>
	<line class="st0" x1="-251.6" y1="420.4" x2="-193.8" y2="420.4"/>
	<line class="st0" x1="-281.3" y1="400.6" x2="-164" y2="400.6"/>
</g>
<g id="Switch_00000018944838956877263510000010732312272489632152_">
	<line class="st0" x1="-186.2" y1="-69.9" x2="-137.8" y2="20.7"/>
	<circle class="st0" cx="-186.2" cy="-69.9" r="4"/>
	<circle class="st0" cx="-186.2" cy="32.8" r="4"/>
</g>
<g>
	<g id="Batt">
		<line class="st1" x1="927.8" y1="71.7" x2="927.8" y2="117"/>
		<line class="st1" x1="943.4" y1="48.3" x2="943.4" y2="140.3"/>
		<line class="st1" x1="959" y1="71.7" x2="959" y2="117"/>
		<line class="st1" x1="974.6" y1="48.3" x2="974.6" y2="140.3"/>
	</g>
	<line class="st1" x1="1053" y1="360.7" x2="1131.4" y2="360.7"/>
	<polyline class="st1" points="927.8,94.3 862,94.3 862,418.3 912.9,418.3 	"/>
	<g id="Switch">
		<line class="st1" x1="993.4" y1="418.3" x2="922.4" y2="456.2"/>
		<circle class="st1" cx="993.4" cy="418.3" r="3.1"/>
		<circle class="st1" cx="912.9" cy="418.3" r="3.1"/>
	</g>
	<text transform="matrix(1 0 0 1 1179.9922 357.26)"><tspan x="0" y="0" class="st2 st3 st4">PIN 5</tspan><tspan x="-38.3" y="29" class="st2 st3 st4">(DIGITAL IN)</tspan></text>
	<polyline class="st1" points="993.4,418.3 1053,418.3 1053,302.3 1031,293.1 1075,274.5 1031,256 1075,237.5 1031,219 1075,200.5 
		1031,182 1053,172.8 1053,94.3 974.6,94.3 	"/>
</g>
<g>
	<text transform="matrix(1 0 0 1 90.4203 117.388)"><tspan x="0" y="0" class="st2 st3 st4">PIN 13 (5V) </tspan><tspan x="0" y="37" class="st2 st3 st4">PIN 12 (5V)</tspan><tspan x="0" y="74" class="st2 st3 st4">PIN 11 (5V)</tspan></text>
	<text transform="matrix(1 0 0 1 1092.2185 243.7946)" class="st2 st3 st4">1,000 Ohm </text>
	<text transform="matrix(1 0 0 1 334.428 260.0161)" class="st2 st3 st4">220 Ohm </text>
	<text transform="matrix(1 0 0 1 577.853 260.0161)" class="st2 st3 st4">RGB LEDs</text>
	<text transform="matrix(1 0 0 1 988.7452 54.1133)"><tspan x="0" y="0" class="st2 st3 st4">5V &amp; Ground From </tspan><tspan x="0" y="24" class="st2 st3 st4">Microcontroller</tspan></text>
	<polyline class="st1" points="563.4,110.3 448.5,110.3 439,123.9 420.1,96.8 401.1,123.9 382.1,96.8 363.2,123.9 344.2,96.8 
		325.2,123.9 315.7,110.3 220.9,110.3 	"/>
	<line class="st1" x1="652.8" y1="147.3" x2="862" y2="147.3"/>
	<polyline class="st1" points="618.9,147.3 448.5,147.3 439,160.8 420.1,133.7 401.1,160.8 382.1,133.7 363.2,160.8 344.2,133.7 
		325.2,160.8 315.7,147.3 220.9,147.3 	"/>
	<rect x="535.5" y="69" class="st1" width="191.7" height="156.5"/>
	<g>
		<polygon class="st1" points="592.3,110.3 577.9,118.7 563.4,127 563.4,110.3 563.4,93.6 577.9,101.9 		"/>
		<line class="st1" x1="597.3" y1="86.2" x2="597.3" y2="134.4"/>
	</g>
	<polyline class="st1" points="220.9,184.2 315.7,184.2 325.2,197.8 344.2,170.7 363.2,197.8 382.1,170.7 401.1,197.8 420.1,170.7 
		439,197.8 448.5,184.2 563.4,184.2 	"/>
	<g>
		<polygon class="st1" points="592.3,184.2 577.9,192.6 563.4,201 563.4,184.2 563.4,167.5 577.9,175.9 		"/>
		<line class="st1" x1="597.3" y1="160.2" x2="597.3" y2="208.3"/>
	</g>
	<g>
		<polygon class="st1" points="647.9,147.3 633.4,155.6 618.9,164 618.9,147.3 618.9,130.5 633.4,138.9 		"/>
		<line class="st1" x1="652.8" y1="123.2" x2="652.8" y2="171.3"/>
	</g>
	<polyline class="st1" points="597.3,184.2 696.3,184.2 696.3,110.3 598.5,110.3 	"/>
	<text transform="matrix(1 0 0 1 90.4203 327.3779)"><tspan x="0" y="0" class="st2 st3 st4">PIN 10 (5V)</tspan><tspan x="0" y="37" class="st2 st3 st4">PIN 9    (5V)</tspan><tspan x="0" y="74" class="st2 st3 st4">PIN 8    (5V)</tspan></text>
	<polyline class="st1" points="563.4,320.3 448.5,320.3 439,333.8 420.1,306.8 401.1,333.8 382.1,306.8 363.2,333.8 344.2,306.8 
		325.2,333.8 315.7,320.3 220.9,320.3 	"/>
	<line class="st1" x1="652.8" y1="357.3" x2="862" y2="357.3"/>
	<polyline class="st1" points="618.9,357.3 448.5,357.3 439,370.8 420.1,343.7 401.1,370.8 382.1,343.7 363.2,370.8 344.2,343.7 
		325.2,370.8 315.7,357.3 220.9,357.3 	"/>
	<rect x="535.5" y="279" class="st1" width="191.7" height="156.5"/>
	<g>
		<polygon class="st1" points="592.3,320.3 577.9,328.7 563.4,337 563.4,320.3 563.4,303.6 577.9,311.9 		"/>
		<line class="st1" x1="597.3" y1="296.2" x2="597.3" y2="344.4"/>
	</g>
	<polyline class="st1" points="220.9,394.2 315.7,394.2 325.2,407.8 344.2,380.7 363.2,407.8 382.1,380.7 401.1,407.8 420.1,380.7 
		439,407.8 448.5,394.2 563.4,394.2 	"/>
	<g>
		<polygon class="st1" points="592.3,394.2 577.9,402.6 563.4,411 563.4,394.2 563.4,377.5 577.9,385.9 		"/>
		<line class="st1" x1="597.3" y1="370.1" x2="597.3" y2="418.3"/>
	</g>
	<g>
		<polygon class="st1" points="647.9,357.3 633.4,365.6 618.9,374 618.9,357.3 618.9,340.5 633.4,348.9 		"/>
		<line class="st1" x1="652.8" y1="333.2" x2="652.8" y2="381.3"/>
	</g>
	<polyline class="st1" points="597.3,394.2 696.3,394.2 696.3,320.3 598.5,320.3 	"/>
</g>
</svg>
