<svg id="Layer_1" data-name="Layer 1" xmlns="http://www.w3.org/2000/svg" viewBox="0 0 1735 911.12"><defs><style>.cls-1,.cls-2,.cls-20,.cls-7{fill:#fff;}.cls-2{font-size:24px;}.cls-2,.cls-7{font-family:AkkuratStd-Regular, Akkurat Std;}.cls-3{letter-spacing:-0.02em;}.cls-4{letter-spacing:0em;}.cls-5{letter-spacing:-0.01em;}.cls-6{letter-spacing:-0.03em;}.cls-7{font-size:23.9px;}.cls-8{letter-spacing:-0.02em;}.cls-9{letter-spacing:0em;}.cls-10{letter-spacing:-0.01em;}.cls-11{letter-spacing:0em;}.cls-12{letter-spacing:-0.01em;}.cls-13{letter-spacing:0em;}.cls-14{letter-spacing:-0.01em;}.cls-15{letter-spacing:-0.02em;}.cls-16{letter-spacing:0.01em;}.cls-17{letter-spacing:0em;}.cls-18{letter-spacing:-0.02em;}.cls-19{letter-spacing:-0.01em;}.cls-20{font-size:29.31px;font-family:AkkuratStd-Bold, Akkurat Std;font-weight:700;}.cls-21{letter-spacing:-0.02em;}.cls-22{letter-spacing:0em;}.cls-23{letter-spacing:0em;}.cls-24{letter-spacing:0em;}.cls-25{fill:#39b54a;}.cls-26{fill:#ed1c24;}</style></defs><rect width="1735" height="911.12"/><rect class="cls-1" width="5" height="911.12"/><rect class="cls-1" x="192.22" width="5" height="911.12"/><rect class="cls-1" x="384.44" width="5" height="911.12"/><rect class="cls-1" x="576.67" width="5" height="911.12"/><rect class="cls-1" x="768.89" width="5" height="911.12"/><rect class="cls-1" x="961.11" width="5" height="911.12"/><rect class="cls-1" x="1153.33" width="5" height="911.12"/><rect class="cls-1" x="1345.56" width="5" height="911.12"/><rect class="cls-1" x="1537.78" width="5" height="911.12"/><rect class="cls-1" x="1730" width="5" height="911.12"/><rect class="cls-1" width="1735" height="5"/><rect class="cls-1" y="181.22" width="1735" height="5"/><rect class="cls-1" y="362.45" width="1735" height="5"/><rect class="cls-1" y="543.67" width="1735" height="5"/><rect class="cls-1" y="724.9" width="1735" height="5"/><rect class="cls-1" y="906.12" width="1735" height="5"/><text class="cls-2" transform="translate(62.1 68.35)">PLAN<tspan class="cls-3" x="60.62" y="0">T</tspan><tspan class="cls-4" x="72.94" y="0"> </tspan><tspan x="-46.31" y="28.8">MAN</tspan><tspan class="cls-5" x="7.33" y="28.8">A</tspan><tspan x="21.88" y="28.8">GEMEN</tspan><tspan class="cls-6" x="106.93" y="28.8">T</tspan><tspan x="119.24" y="28.8"> </tspan><tspan x="14.15" y="57.6">AP</tspan><tspan class="cls-5" x="44.1" y="57.6">P</tspan></text><text class="cls-7" transform="translate(73.95 450.92)">GKH<tspan x="-31.95" y="28.68">Ga</tspan><tspan class="cls-8" x="-2.34" y="28.68">r</tspan><tspan x="6.41" y="28.68">dening</tspan></text><text class="cls-7" transform="translate(58.7 634.36)">Ga<tspan class="cls-8" x="29.61" y="0">r</tspan><tspan x="38.36" y="0">den</tspan><tspan x="-7.1" y="28.68">An</tspan><tspan class="cls-9" x="21.72" y="28.68">sw</tspan><tspan x="52.27" y="28.68">e</tspan><tspan class="cls-10" x="65.44" y="28.68">r</tspan><tspan x="74.38" y="28.68">s</tspan></text><text class="cls-7" transform="translate(58.7 817.8)">Ga<tspan class="cls-8" x="29.61" y="0">r</tspan><tspan x="38.36" y="0">den</tspan><tspan x="-2.94" y="28.68">Planner</tspan></text><text class="cls-2" transform="translate(232.58 102.34)">Jou<tspan class="cls-11" x="39.19" y="0">r</tspan><tspan x="48.53" y="0">naling</tspan></text><text class="cls-2" transform="translate(412.6 87.94)">Social Media<tspan x="32.83" y="28.8">Aspe</tspan><tspan class="cls-12" x="87.74" y="28.8">c</tspan><tspan class="cls-13" x="100.39" y="28.8">t</tspan></text><text class="cls-2" transform="translate(615.85 87.94)"><tspan class="cls-14">W</tspan><tspan class="cls-12" x="20.45" y="0">a</tspan><tspan class="cls-14" x="33.74" y="0">t</tspan><tspan x="42.74" y="0">ering &amp;</tspan><tspan x="-26.96" y="28.8">Ca</tspan><tspan class="cls-14" x="1.67" y="28.8">r</tspan><tspan x="10.64" y="28.8">e </tspan><tspan class="cls-14" x="29.39" y="28.8">R</tspan><tspan class="cls-4" x="45.04" y="28.8">eminde</tspan><tspan class="cls-14" x="127.43" y="28.8">r</tspan><tspan x="136.4" y="28.8">s</tspan></text><text class="cls-2" transform="translate(796.72 87.94)">Plant &amp; Plant<tspan x="23.5" y="28.8">Ca</tspan><tspan class="cls-14" x="52.13" y="28.8">r</tspan><tspan x="61.1" y="28.8">e In</tspan><tspan class="cls-15" x="100.87" y="28.8">f</tspan><tspan x="109.29" y="28.8">o</tspan></text><text class="cls-2" transform="translate(986.83 102.34)">Expe<tspan class="cls-16" x="54.46" y="0">r</tspan><tspan class="cls-13" x="63.91" y="0">t </tspan><tspan class="cls-17" x="78.67" y="0">A</tspan><tspan class="cls-4" x="93.45" y="0">dvice</tspan></text><text class="cls-2" transform="translate(1215.76 73.54)">Ga<tspan class="cls-18" x="29.74" y="0">r</tspan><tspan x="38.52" y="0">den</tspan><tspan x="2.82" y="28.8">L</tspan><tspan class="cls-19" x="15.88" y="28.8">a</tspan><tspan class="cls-5" x="29.05" y="28.8">y</tspan><tspan x="40.64" y="28.8">out</tspan><tspan x="-8.51" y="57.6">Planning</tspan></text><text class="cls-2" transform="translate(1392.05 73.54)"><tspan class="cls-14">R<tspan class="cls-4" x="15.65" y="0">eal</tspan><tspan class="cls-6" x="49.27" y="0"> </tspan><tspan class="cls-13" x="54.19" y="0">Time </tspan></tspan><tspan x="-16.54" y="28.8">Soil Moi</tspan><tspan class="cls-12" x="72.22" y="28.8">s</tspan><tspan class="cls-13" x="84.6" y="28.8">tu</tspan><tspan class="cls-19" x="107.81" y="28.8">r</tspan><tspan x="116.78" y="28.8">e</tspan><tspan x="35.32" y="57.6">In</tspan><tspan class="cls-15" x="56.34" y="57.6">f</tspan><tspan x="64.76" y="57.6">o</tspan></text><text class="cls-2" transform="translate(1583.37 73.54)">P<tspan class="cls-14" x="15.05" y="0">r</tspan><tspan class="cls-4" x="24.02" y="0">edi</tspan><tspan class="cls-17" x="58.08" y="0">c</tspan><tspan x="70.73" y="0">ti</tspan><tspan class="cls-17" x="86.52" y="0">v</tspan><tspan class="cls-13" x="98.06" y="0">e </tspan><tspan x="0.86" y="28.8">Plant Ca</tspan><tspan class="cls-19" x="93.74" y="28.8">r</tspan><tspan class="cls-13" x="102.72" y="28.8">e</tspan><tspan class="cls-17" x="-1.93" y="57.6">A</tspan><tspan class="cls-4" x="12.85" y="57.6">l</tspan><tspan class="cls-12" x="19.84" y="57.6">g</tspan><tspan x="32.68" y="57.6">orithms</tspan></text><text class="cls-20" transform="translate(77.93 248.29)">My<tspan x="-42.06" y="35.18">P</tspan><tspan class="cls-21" x="-23.77" y="35.18">r</tspan><tspan class="cls-22" x="-12.72" y="35.18">oudu</tspan><tspan class="cls-23" x="56.19" y="35.18">c</tspan><tspan x="71.61" y="35.18">t</tspan><tspan x="-51.02" y="70.35">(G</tspan><tspan class="cls-21" x="-21.35" y="70.35">r</tspan><tspan class="cls-24" x="-10.3" y="70.35">o</tspan><tspan x="6.26" y="70.35">wA</tspan><tspan class="cls-23" x="47.59" y="70.35">p</tspan><tspan class="cls-22" x="65.06" y="70.35">p)</tspan></text><polygon class="cls-25" points="279.17 332.34 228.53 281.7 237.01 273.22 277.24 313.44 343.76 212.36 353.78 218.96 279.17 332.34"/><polygon class="cls-25" points="279.17 512.93 228.53 462.29 237.01 453.81 277.24 494.03 343.76 392.95 353.78 399.54 279.17 512.93"/><polygon class="cls-25" points="279.17 693.87 228.53 643.23 237.01 634.75 277.24 674.97 343.76 573.89 353.78 580.48 279.17 693.87"/><polygon class="cls-25" points="857.25 332.34 806.61 281.7 815.1 273.22 855.32 313.44 921.84 212.36 931.87 218.96 857.25 332.34"/><polygon class="cls-25" points="1435.33 332.34 1384.7 281.7 1393.18 273.22 1433.41 313.44 1499.93 212.36 1509.95 218.96 1435.33 332.34"/><polygon class="cls-25" points="1628.03 332.34 1577.39 281.7 1585.88 273.22 1626.1 313.44 1692.62 212.36 1702.64 218.96 1628.03 332.34"/><polygon class="cls-25" points="857.09 512.93 806.45 462.29 814.93 453.81 855.16 494.03 921.68 392.95 931.7 399.54 857.09 512.93"/><polygon class="cls-25" points="857.09 693.87 806.45 643.23 814.93 634.75 855.16 674.97 921.68 573.89 931.7 580.48 857.09 693.87"/><polygon class="cls-25" points="279.17 873.56 228.53 822.92 237.01 814.43 277.24 854.66 343.76 753.57 353.78 760.17 279.17 873.56"/><polygon class="cls-25" points="1049.72 693.87 999.09 643.23 1007.57 634.75 1047.8 674.97 1114.32 573.89 1124.34 580.48 1049.72 693.87"/><polygon class="cls-25" points="1049.94 873.56 999.31 822.92 1007.79 814.43 1048.02 854.66 1114.54 753.57 1124.56 760.17 1049.94 873.56"/><polygon class="cls-25" points="1242.64 873.56 1192 822.92 1200.49 814.43 1240.71 854.66 1307.23 753.57 1317.26 760.17 1242.64 873.56"/><polygon class="cls-25" points="471.86 332.34 421.22 281.7 429.71 273.22 469.93 313.44 536.45 212.36 546.48 218.96 471.86 332.34"/><polygon class="cls-25" points="471.81 512.93 421.17 462.29 429.65 453.81 469.88 494.03 536.4 392.95 546.42 399.54 471.81 512.93"/><polygon class="cls-25" points="471.86 873.56 421.22 822.92 429.71 814.43 469.93 854.66 536.45 753.57 546.48 760.17 471.86 873.56"/><rect class="cls-26" x="477.8" y="561.73" width="12" height="138.14" transform="translate(-304.34 526.85) rotate(-45)"/><rect class="cls-26" x="414.73" y="624.8" width="138.14" height="12" transform="translate(-304.35 526.9) rotate(-45)"/><polygon class="cls-25" points="664.56 332.34 613.92 281.7 622.4 273.22 662.63 313.44 729.15 212.36 739.17 218.96 664.56 332.34"/><polygon class="cls-25" points="664.45 512.93 613.81 462.29 622.29 453.81 662.52 494.03 729.04 392.95 739.06 399.54 664.45 512.93"/><polygon class="cls-25" points="664.56 873.56 613.92 822.92 622.4 814.43 662.63 854.66 729.15 753.57 739.17 760.17 664.56 873.56"/><rect class="cls-26" x="670.44" y="561.73" width="12" height="138.14" transform="translate(-247.92 663.07) rotate(-45)"/><rect class="cls-26" x="607.37" y="624.8" width="138.14" height="12" transform="translate(-247.92 663.12) rotate(-45)"/><rect class="cls-26" x="1248.35" y="561.73" width="12" height="138.14" transform="translate(-78.65 1071.72) rotate(-45)"/><rect class="cls-26" x="1185.28" y="624.8" width="138.14" height="12" transform="translate(-78.65 1071.72) rotate(-45)"/><rect class="cls-26" x="1055.71" y="380.79" width="12" height="138.14" transform="translate(-7.13 882.51) rotate(-45)"/><rect class="cls-26" x="992.64" y="443.86" width="138.14" height="12" transform="translate(-7.13 882.51) rotate(-45)"/><rect class="cls-26" x="1055.93" y="200.21" width="12" height="138.14" transform="translate(120.62 829.77) rotate(-45)"/><rect class="cls-26" x="992.86" y="263.28" width="138.14" height="12" transform="translate(120.59 829.72) rotate(-45)"/><rect class="cls-26" x="1248.63" y="200.21" width="12" height="138.14" transform="translate(177.06 966.02) rotate(-45)"/><rect class="cls-26" x="1185.56" y="263.28" width="138.14" height="12" transform="translate(177.02 965.96) rotate(-45)"/><rect class="cls-26" x="1248.35" y="380.79" width="12" height="138.14" transform="translate(49.29 1018.73) rotate(-45)"/><rect class="cls-26" x="1185.28" y="443.86" width="138.14" height="12" transform="translate(49.29 1018.72) rotate(-45)"/><polygon class="cls-25" points="1628.03 873.56 1577.39 822.92 1585.88 814.43 1626.1 854.66 1692.62 753.57 1702.64 760.17 1628.03 873.56"/><rect class="cls-26" x="1633.63" y="561.73" width="12" height="138.14" transform="translate(34.19 1344.15) rotate(-45)"/><rect class="cls-26" x="1570.56" y="624.8" width="138.14" height="12" transform="translate(34.19 1344.15) rotate(-45)"/><rect class="cls-26" x="1633.63" y="380.79" width="12" height="138.14" transform="translate(162.14 1291.16) rotate(-45)"/><rect class="cls-26" x="1570.56" y="443.86" width="138.14" height="12" transform="translate(162.14 1291.16) rotate(-45)"/><rect class="cls-26" x="1440.99" y="561.73" width="12" height="138.14" transform="translate(-22.23 1207.94) rotate(-45)"/><rect class="cls-26" x="1377.92" y="624.8" width="138.14" height="12" transform="translate(-22.23 1207.94) rotate(-45)"/><rect class="cls-26" x="1440.99" y="380.79" width="12" height="138.14" transform="translate(105.72 1154.94) rotate(-45)"/><rect class="cls-26" x="1377.92" y="443.86" width="138.14" height="12" transform="translate(105.71 1154.94) rotate(-45)"/><rect class="cls-26" x="863.24" y="741.42" width="12" height="138.14" transform="translate(-318.51 852.04) rotate(-45)"/><rect class="cls-26" x="800.17" y="804.49" width="138.14" height="12" transform="translate(-318.51 852.1) rotate(-45)"/><rect class="cls-26" x="1441.32" y="741.42" width="12" height="138.14" transform="translate(-149.19 1260.8) rotate(-45)"/><rect class="cls-26" x="1378.25" y="804.49" width="138.14" height="12" transform="translate(-149.19 1260.8) rotate(-45)"/></svg>