<svg id="Layer_1" data-name="Layer 1" xmlns="http://www.w3.org/2000/svg" viewBox="0 0 1139.67 603.67"><defs><style>.cls-1{font-size:12px;font-family:AkkuratStd-Regular, Akkurat Std;}.cls-1,.cls-15{fill:#fff;}.cls-2{letter-spacing:-0.02em;}.cls-3{letter-spacing:-0.03em;}.cls-4{letter-spacing:0em;}.cls-5{letter-spacing:-0.05em;}.cls-6{letter-spacing:-0.07em;}.cls-7{letter-spacing:-0.02em;}.cls-8{letter-spacing:-0.01em;}.cls-9{letter-spacing:-0.01em;}.cls-10{fill:none;stroke:#fff;stroke-miterlimit:10;}.cls-11{letter-spacing:0em;}.cls-12{letter-spacing:-0.08em;}.cls-13{letter-spacing:0em;}.cls-14{letter-spacing:0em;}.cls-16{letter-spacing:-0.01em;}.cls-17{letter-spacing:-0.02em;}.cls-18{letter-spacing:-0.01em;}.cls-19{letter-spacing:-0.02em;}.cls-20{letter-spacing:-0.03em;}.cls-21{letter-spacing:-0.02em;}.cls-22{letter-spacing:0.01em;}.cls-23{letter-spacing:0.01em;}.cls-24{letter-spacing:-0.01em;}.cls-25{letter-spacing:-0.05em;}</style></defs><rect width="1139.67" height="603.67"/><text class="cls-1" transform="translate(36.23 59.16)">HAP<tspan class="cls-2" x="23.59" y="0">P</tspan><tspan class="cls-3" x="30.88" y="0">Y</tspan><tspan class="cls-4" x="37.37" y="0"> </tspan><tspan class="cls-5" x="40.13" y="0">P</tspan><tspan class="cls-6" x="47.09" y="0">A</tspan><tspan x="53.7" y="0">TH</tspan></text><text class="cls-1" transform="translate(36.23 169.58)">USER F<tspan class="cls-7" x="41" y="0">L</tspan><tspan class="cls-8" x="47.23" y="0">O</tspan><tspan x="55.21" y="0">W</tspan></text><text class="cls-1" transform="translate(243.56 191.33)">C<tspan class="cls-9" x="7.61" y="0">r</tspan><tspan x="12.1" y="0">e</tspan><tspan class="cls-8" x="18.71" y="0">a</tspan><tspan class="cls-9" x="25.36" y="0">t</tspan><tspan class="cls-4" x="29.86" y="0">e</tspan><tspan x="0" y="14.4">account</tspan></text><rect class="cls-10" x="239.07" y="177.97" width="53.78" height="33.78"/><text class="cls-1" transform="translate(39.26 80.3)">C<tspan class="cls-9" x="7.61" y="0">r</tspan><tspan x="12.1" y="0">e</tspan><tspan class="cls-8" x="18.71" y="0">a</tspan><tspan class="cls-9" x="25.36" y="0">t</tspan><tspan class="cls-4" x="29.86" y="0">e</tspan><tspan x="0" y="14.4">account</tspan></text><rect class="cls-10" x="34.77" y="66.95" width="53.78" height="33.78"/><text class="cls-1" transform="translate(347.6 191.33)"><tspan class="cls-7">V</tspan><tspan x="6.65" y="0">erify</tspan><tspan class="cls-8" x="0" y="14.4">E</tspan><tspan x="7.44" y="14.4">-Mail</tspan></text><rect class="cls-10" x="339.07" y="177.97" width="53.78" height="33.78"/><text class="cls-1" transform="translate(138.52 80.3)"><tspan class="cls-11">Ad<tspan class="cls-4" x="14.47" y="0">d plants</tspan></tspan><tspan class="cls-9" x="0" y="14.4">t</tspan><tspan x="4.5" y="14.4">o col</tspan><tspan class="cls-8" x="30.53" y="14.4">l</tspan><tspan class="cls-4" x="33.96" y="14.4">e</tspan><tspan class="cls-8" x="40.57" y="14.4">c</tspan><tspan x="46.9" y="14.4">tion</tspan></text><rect class="cls-10" x="134.32" y="66.95" width="76.92" height="33.78"/><text class="cls-1" transform="translate(258.58 80.3)">Gene<tspan class="cls-9" x="28.4" y="0">r</tspan><tspan class="cls-8" x="32.89" y="0">a</tspan><tspan class="cls-9" x="39.54" y="0">t</tspan><tspan x="44.04" y="0">e ca</tspan><tspan class="cls-9" x="66.5" y="0">r</tspan><tspan x="70.99" y="0">e</tspan><tspan x="0" y="14.4">ca</tspan><tspan class="cls-11" x="13.09" y="14.4">l</tspan><tspan x="16.52" y="14.4">endar</tspan></text><rect class="cls-10" x="254.49" y="66.95" width="85.78" height="33.78"/><text class="cls-1" transform="translate(386.76 80.3)"><tspan class="cls-12">T</tspan><tspan x="5.5" y="0">u</tspan><tspan class="cls-13" x="12.48" y="0">r</tspan><tspan x="17.15" y="0">n on desi</tspan><tspan class="cls-9" x="66.68" y="0">r</tspan><tspan x="71.17" y="0">ed</tspan><tspan x="0" y="14.4">n</tspan><tspan class="cls-11" x="7.02" y="14.4">o</tspan><tspan class="cls-14" x="13.66" y="14.4">tific</tspan><tspan class="cls-8" x="35.59" y="14.4">a</tspan><tspan class="cls-14" x="42.24" y="14.4">tions</tspan></text><rect class="cls-10" x="383.53" y="66.95" width="91.39" height="33.78"/><text class="cls-1" transform="translate(1016.75 288.46)"><tspan class="cls-12">T</tspan><tspan x="5.5" y="0">u</tspan><tspan class="cls-13" x="12.48" y="0">r</tspan><tspan x="17.15" y="0">n on desi</tspan><tspan class="cls-9" x="66.68" y="0">r</tspan><tspan x="71.17" y="0">ed</tspan><tspan x="0" y="14.4">n</tspan><tspan class="cls-11" x="7.02" y="14.4">o</tspan><tspan class="cls-14" x="13.66" y="14.4">tific</tspan><tspan class="cls-8" x="35.59" y="14.4">a</tspan><tspan class="cls-14" x="42.24" y="14.4">tions</tspan></text><rect class="cls-10" x="1013.51" y="275.1" width="91.39" height="33.78"/><line class="cls-10" x1="96.52" y1="83.84" x2="121.8" y2="83.84"/><polygon class="cls-15" points="128.86 83.83 118.91 87.9 121.27 83.83 118.91 79.77 128.86 83.83"/><line class="cls-10" x1="216.7" y1="83.84" x2="241.97" y2="83.84"/><polygon class="cls-15" points="249.03 83.83 239.08 87.9 241.44 83.83 239.08 79.77 249.03 83.83"/><text class="cls-1" transform="translate(473.12 288.46)"><tspan class="cls-11">Ad<tspan class="cls-4" x="14.47" y="0">d plants</tspan></tspan><tspan class="cls-9" x="0" y="14.4">t</tspan><tspan x="4.5" y="14.4">o col</tspan><tspan class="cls-8" x="30.53" y="14.4">l</tspan><tspan class="cls-4" x="33.96" y="14.4">e</tspan><tspan class="cls-8" x="40.57" y="14.4">c</tspan><tspan x="46.9" y="14.4">tion</tspan></text><rect class="cls-10" x="468.91" y="275.1" width="76.92" height="33.78"/><text class="cls-1" transform="translate(616.66 400.71)">Conne<tspan class="cls-11" x="34.96" y="0">c</tspan><tspan class="cls-14" x="41.28" y="0">t</tspan><tspan x="0" y="14.4">moi</tspan><tspan class="cls-8" x="20.51" y="14.4">s</tspan><tspan x="26.7" y="14.4">tu</tspan><tspan class="cls-9" x="38.3" y="14.4">r</tspan><tspan x="42.79" y="14.4">e</tspan><tspan x="0" y="28.8">senso</tspan><tspan class="cls-16" x="32.83" y="28.8">r</tspan><tspan x="37.32" y="28.8">s </tspan></text><rect class="cls-10" x="612.42" y="387.69" width="57.9" height="47.51"/><text class="cls-1" transform="translate(760.66 282.18)"><tspan class="cls-16">P</tspan><tspan class="cls-14" x="7.4" y="0">u</tspan><tspan class="cls-17" x="14.39" y="0">r</tspan><tspan class="cls-18" x="18.78" y="0">c</tspan><tspan x="25.08" y="0">hase</tspan><tspan x="0" y="14.4">moi</tspan><tspan class="cls-8" x="20.51" y="14.4">s</tspan><tspan x="26.7" y="14.4">tu</tspan><tspan class="cls-9" x="38.3" y="14.4">r</tspan><tspan x="42.79" y="14.4">e</tspan><tspan x="0" y="28.8">senso</tspan><tspan class="cls-16" x="32.83" y="28.8">r</tspan><tspan class="cls-19" x="37.32" y="28.8">s</tspan><tspan class="cls-20" x="43.39" y="28.8">?</tspan><tspan x="49.08" y="28.8"> </tspan></text><rect class="cls-10" x="750.35" y="258.88" width="72.46" height="68.06" transform="translate(437.51 -470.41) rotate(45)"/><line class="cls-10" x1="551.29" y1="292.91" x2="576.56" y2="292.91"/><polygon class="cls-15" points="583.63 292.91 573.68 296.98 576.04 292.91 573.68 288.85 583.63 292.91"/><line class="cls-10" x1="699.11" y1="292.91" x2="724.38" y2="292.91"/><polygon class="cls-15" points="731.44 292.91 721.49 296.98 723.85 292.91 721.49 288.85 731.44 292.91"/><line class="cls-10" x1="844.77" y1="292.91" x2="870.05" y2="292.91"/><polygon class="cls-15" points="877.11 292.91 867.16 296.98 869.52 292.91 867.16 288.85 877.11 292.91"/><line class="cls-10" x1="675.44" y1="411.44" x2="863.52" y2="411.44"/><polygon class="cls-15" points="870.58 411.44 860.63 415.51 862.99 411.44 860.63 407.38 870.58 411.44"/><line class="cls-10" x1="927.37" y1="384.69" x2="927.37" y2="324.25"/><polygon class="cls-15" points="927.37 317.19 931.44 327.14 927.37 324.78 923.31 327.14 927.37 317.19"/><line class="cls-10" x1="345.73" y1="83.84" x2="371" y2="83.84"/><polygon class="cls-15" points="378.06 83.83 368.12 87.9 370.48 83.83 368.12 79.77 378.06 83.83"/><text class="cls-1" transform="translate(41.68 191.33)">Splash<tspan x="0" y="14.4">sc</tspan><tspan class="cls-16" x="12.64" y="14.4">r</tspan><tspan x="17.12" y="14.4">een</tspan></text><rect class="cls-10" x="37.19" y="177.97" width="48.93" height="33.78"/><text class="cls-1" transform="translate(246.64 289.07)">Splash<tspan x="0" y="14.4">sc</tspan><tspan class="cls-16" x="12.64" y="14.4">r</tspan><tspan x="17.12" y="14.4">een</tspan></text><rect class="cls-10" x="241.08" y="267.6" width="50" height="50" transform="translate(284.83 -102.45) rotate(45)"/><text class="cls-1" transform="translate(880.25 407.91)">Map moi<tspan class="cls-8" x="47.68" y="0">s</tspan><tspan x="53.87" y="0">tu</tspan><tspan class="cls-9" x="65.47" y="0">r</tspan><tspan class="cls-4" x="69.96" y="0">e</tspan><tspan x="0" y="14.4">senso</tspan><tspan class="cls-16" x="32.83" y="14.4">r</tspan><tspan x="37.32" y="14.4">s </tspan><tspan class="cls-9" x="46.33" y="14.4">t</tspan><tspan x="50.83" y="14.4">o plants</tspan></text><rect class="cls-10" x="875.75" y="394.55" width="103.23" height="33.78"/><line class="cls-10" x1="199.79" y1="195.17" x2="225.06" y2="195.17"/><polygon class="cls-15" points="232.12 195.17 222.17 199.23 224.53 195.17 222.17 191.1 232.12 195.17"/><line class="cls-10" x1="314.9" y1="292.6" x2="346.83" y2="292.6"/><polygon class="cls-15" points="307.84 292.6 317.79 296.66 315.43 292.6 317.79 288.53 307.84 292.6"/><polygon class="cls-15" points="353.89 292.6 343.94 296.66 346.3 292.6 343.94 288.53 353.89 292.6"/><line class="cls-10" x1="299.79" y1="195.17" x2="325.07" y2="195.17"/><polygon class="cls-15" points="332.13 195.17 322.18 199.23 324.54 195.17 322.18 191.1 332.13 195.17"/><polyline class="cls-10" points="213.92 292.6 162.07 292.6 162.07 232.5"/><polygon class="cls-15" points="220.98 292.6 211.03 288.53 213.39 292.6 211.03 296.66 220.98 292.6"/><polyline class="cls-10" points="401.01 195.17 507.37 195.17 507.37 255.49"/><polygon class="cls-15" points="507.37 262.55 503.3 252.6 507.37 254.96 511.43 252.6 507.37 262.55"/><line class="cls-10" x1="92.03" y1="194.86" x2="117.3" y2="194.86"/><polygon class="cls-15" points="124.36 194.86 114.41 198.93 116.77 194.86 114.41 190.79 124.36 194.86"/><line class="cls-10" x1="429.63" y1="292.91" x2="454.9" y2="292.91"/><polygon class="cls-15" points="461.96 292.91 452.01 296.98 454.37 292.91 452.01 288.85 461.96 292.91"/><line class="cls-10" x1="417.53" y1="425.24" x2="442.8" y2="425.24"/><polygon class="cls-15" points="449.86 425.24 439.91 429.31 442.27 425.24 439.91 421.18 449.86 425.24"/><text class="cls-1" transform="translate(888.57 288.46)">Gene<tspan class="cls-9" x="28.4" y="0">r</tspan><tspan class="cls-8" x="32.89" y="0">a</tspan><tspan class="cls-9" x="39.54" y="0">t</tspan><tspan x="44.04" y="0">e ca</tspan><tspan class="cls-9" x="66.5" y="0">r</tspan><tspan x="70.99" y="0">e</tspan><tspan x="0" y="14.4">ca</tspan><tspan class="cls-11" x="13.09" y="14.4">l</tspan><tspan x="16.52" y="14.4">endar</tspan></text><rect class="cls-10" x="884.48" y="275.1" width="85.78" height="33.78"/><text class="cls-1" transform="translate(772.62 187.46)">Shop</text><rect class="cls-10" x="768.53" y="174.1" width="36.1" height="18.82"/><text class="cls-1" transform="translate(365.38 288.46)">Vi<tspan class="cls-11" x="10.22" y="0">e</tspan><tspan x="16.78" y="0">w ca</tspan><tspan class="cls-16" x="41.83" y="0">r</tspan><tspan x="46.32" y="0">e</tspan><tspan x="0" y="14.4">ca</tspan><tspan class="cls-11" x="13.09" y="14.4">l</tspan><tspan x="16.52" y="14.4">endar</tspan></text><rect class="cls-10" x="361.29" y="275.1" width="60.38" height="33.78"/><text class="cls-1" transform="translate(245.29 421.94)">Vi<tspan class="cls-11" x="10.22" y="0">e</tspan><tspan x="16.78" y="0">w</tspan><tspan class="cls-19" x="0" y="14.4">f</tspan><tspan class="cls-4" x="4.21" y="14.4">o</tspan><tspan class="cls-9" x="10.91" y="14.4">r</tspan><tspan x="15.4" y="14.4">ums</tspan></text><rect class="cls-10" x="241.2" y="408.58" width="48.24" height="33.78"/><text class="cls-1" transform="translate(247.54 534.34)">C<tspan class="cls-9" x="7.61" y="0">r</tspan><tspan x="12.1" y="0">e</tspan><tspan class="cls-8" x="18.71" y="0">a</tspan><tspan class="cls-9" x="25.36" y="0">t</tspan><tspan class="cls-4" x="29.86" y="0">e</tspan><tspan x="0" y="14.4">po</tspan><tspan class="cls-8" x="13.84" y="14.4">s</tspan><tspan x="20.03" y="14.4">t</tspan></text><rect class="cls-10" x="243.45" y="520.98" width="45.26" height="33.78"/><text class="cls-1" transform="translate(140.19 534.34)">Sea<tspan class="cls-21" x="20.94" y="0">r</tspan><tspan class="cls-18" x="25.33" y="0">c</tspan><tspan x="31.63" y="0">h</tspan><tspan class="cls-19"><tspan x="0" y="14.4">f</tspan><tspan class="cls-4" x="4.21" y="14.4">ou</tspan><tspan class="cls-22" x="17.89" y="14.4">r</tspan><tspan class="cls-14" x="22.56" y="14.4">ms</tspan></tspan></text><rect class="cls-10" x="136.1" y="520.98" width="47.54" height="33.78"/><text class="cls-1" transform="translate(336.28 421.71)"><tspan class="cls-11">W</tspan><tspan x="10.28" y="0">ri</tspan><tspan class="cls-9" x="18.17" y="0">t</tspan><tspan x="22.67" y="0">e n</tspan><tspan class="cls-11" x="39.06" y="0">e</tspan><tspan x="45.61" y="0">w</tspan><tspan x="0" y="14.4">jou</tspan><tspan class="cls-13" x="17.08" y="14.4">r</tspan><tspan x="21.74" y="14.4">nal en</tspan><tspan class="cls-23" x="55.35" y="14.4">r</tspan><tspan x="60.08" y="14.4">ty</tspan></text><rect class="cls-10" x="332.69" y="407.91" width="77.67" height="34.67"/><text class="cls-1" transform="translate(460.62 421.71)">Vi<tspan class="cls-11" x="10.22" y="0">e</tspan><tspan x="16.78" y="0">w </tspan><tspan x="0" y="14.4">en</tspan><tspan class="cls-23" x="13.63" y="14.4">r</tspan><tspan x="18.36" y="14.4">ties</tspan></text><rect class="cls-10" x="457.03" y="407.91" width="46.33" height="34.67"/><line class="cls-10" x1="975.72" y1="291.99" x2="1000.99" y2="291.99"/><polygon class="cls-15" points="1008.05 291.99 998.11 296.05 1000.47 291.99 998.11 287.92 1008.05 291.99"/><rect class="cls-10" x="140.32" y="173.1" width="43.51" height="43.51" transform="translate(185.26 -57.53) rotate(45)"/><text class="cls-1" transform="translate(149.79 191.33)">N<tspan class="cls-8" x="8.81" y="0">e</tspan><tspan x="15.36" y="0">w</tspan><tspan x="-2.79" y="14.4">user</tspan><tspan class="cls-20" x="21.67" y="14.4">?</tspan></text><rect class="cls-10" x="604.4" y="255.02" width="73.94" height="73.94" transform="translate(394.32 -367.99) rotate(45)"/><text class="cls-1" transform="translate(613.92 280.1)">Does user<tspan x="-11.66" y="14.4">h</tspan><tspan class="cls-24" x="-4.61" y="14.4">a</tspan><tspan class="cls-8" x="2.01" y="14.4">v</tspan><tspan x="7.78" y="14.4">e moi</tspan><tspan class="cls-8" x="37.66" y="14.4">s</tspan><tspan x="43.85" y="14.4">tu</tspan><tspan class="cls-16" x="55.46" y="14.4">r</tspan><tspan x="59.95" y="14.4">e</tspan><tspan x="2.91" y="28.8">senso</tspan><tspan class="cls-16" x="35.74" y="28.8">r</tspan><tspan class="cls-19" x="40.23" y="28.8">s</tspan><tspan class="cls-20" x="46.3" y="28.8">?</tspan></text><line class="cls-10" x1="641.37" y1="349.73" x2="641.37" y2="375"/><polygon class="cls-15" points="641.37 382.06 637.3 372.11 641.37 374.47 645.43 372.11 641.37 382.06"/><line class="cls-10" x1="786.58" y1="234.24" x2="786.58" y2="208.97"/><polygon class="cls-15" points="786.58 201.91 790.65 211.86 786.58 209.5 782.52 211.86 786.58 201.91"/><polyline class="cls-10" points="266.08 335.85 266.08 361.62 372.28 361.62 372.28 394.01"/><polygon class="cls-15" points="372.28 401.07 368.22 391.12 372.28 393.48 376.35 391.12 372.28 401.07"/><line class="cls-10" x1="266.08" y1="361.62" x2="266.08" y2="396.1"/><polygon class="cls-15" points="266.08 403.16 262.01 393.21 266.08 395.57 270.14 393.21 266.08 403.16"/><polyline class="cls-10" points="266.08 448.34 266.08 474.1 159.88 474.1 159.88 506.5"/><polygon class="cls-15" points="159.88 513.56 155.81 503.61 159.88 505.97 163.94 503.61 159.88 513.56"/><line class="cls-10" x1="266.08" y1="474.12" x2="266.08" y2="508.6"/><polygon class="cls-15" points="266.08 515.66 262.01 505.71 266.08 508.07 270.14 505.71 266.08 515.66"/><text class="cls-1" transform="translate(707.52 285.84)">No</text><text class="cls-1" transform="translate(853.19 285.84)">No</text><text class="cls-1" transform="translate(143.24 253.45)">No</text><text class="cls-1" transform="translate(648.45 368.32)"><tspan class="cls-25">Y</tspan><tspan x="6.25" y="0">es</tspan></text><text class="cls-1" transform="translate(795.07 222.98)"><tspan class="cls-25">Y</tspan><tspan x="6.25" y="0">es</tspan></text><text class="cls-1" transform="translate(203.3 187.46)"><tspan class="cls-25">Y</tspan><tspan x="6.25" y="0">es</tspan></text></svg>