<svg id="Layer_1" data-name="Layer 1" xmlns="http://www.w3.org/2000/svg" viewBox="0 0 792 1224"><defs><style>.cls-1{fill:#8c8e90;}.cls-2{font-size:13.24px;}.cls-14,.cls-2,.cls-3,.cls-6{fill:#231f20;}.cls-14,.cls-2,.cls-6{font-family:ITCAvantGardePro-Md, ITC Avant Garde Gothic Pro;font-weight:500;}.cls-4{fill:none;stroke:#231f20;stroke-miterlimit:10;stroke-width:0.75px;}.cls-5{fill:#ffda00;}.cls-14,.cls-6{font-size:32px;}.cls-6,.cls-8{letter-spacing:-0.08em;}.cls-7{letter-spacing:-0.37em;}.cls-9{letter-spacing:-0.17em;}.cls-10{letter-spacing:-0.07em;}.cls-11{letter-spacing:-0.07em;}.cls-12{letter-spacing:-0.15em;}.cls-13{letter-spacing:-0.13em;}.cls-14{letter-spacing:-0.05em;}</style></defs><rect class="cls-1" width="792" height="1224"/><text class="cls-2" transform="translate(414.95 54.28)">ITC Avant Garde Gothic is a geometric sans serif <tspan x="0" y="15.89">typeface and font family designed by Herb Lubalin </tspan><tspan x="0" y="31.79">and Tom Carnase for Avant Garde magazine. </tspan><tspan x="0" y="47.68">Originally Lubalin had designed the logo for the </tspan><tspan x="0" y="63.58">magazine as well as a single headline typeface; the </tspan><tspan x="0" y="79.47">full font family was based on these initial designs.</tspan></text><path class="cls-3" d="M416,169.2h5.4a5.75,5.75,0,0,1,3.56,1,3.4,3.4,0,0,1,1.31,2.86,3.31,3.31,0,0,1-1.71,3,3.4,3.4,0,0,1,2.43,3.42,4.2,4.2,0,0,1-1.36,3.2c-1.35,1.14-2.32,1.27-4.81,1.27H416Zm3.75,5.58H421a2.67,2.67,0,0,0,1-.14,1,1,0,0,0,.59-1,1,1,0,0,0-.57-1,2.62,2.62,0,0,0-1-.14H419.7Zm0,5.83h1.77a2.73,2.73,0,0,0,1.11-.18,1.23,1.23,0,0,0,.76-1.24,1.09,1.09,0,0,0-.72-1.11,3,3,0,0,0-1.15-.16H419.7Z"/><path class="cls-3" d="M428.14,178.36a5.95,5.95,0,1,1,5.95,5.88,5.76,5.76,0,0,1-5.95-5.88Zm3.3,0a2.65,2.65,0,1,0,2.65-2.8,2.68,2.68,0,0,0-2.65,2.8Z"/><path class="cls-3" d="M441.89,169.2h3.3v14.7h-3.3Z"/><path class="cls-3" d="M459.06,183.9h-3.14v-1.19a3.61,3.61,0,0,1-3.34,1.55c-3.34,0-5.52-2.58-5.52-5.9a5.49,5.49,0,0,1,5.46-5.86,4.22,4.22,0,0,1,3.24,1.31V169.2h3.3Zm-8.7-5.54a2.7,2.7,0,0,0,2.76,2.82,3,3,0,0,0,2.05-.83,2.92,2.92,0,0,0,0-4,2.79,2.79,0,0,0-2-.77,2.7,2.7,0,0,0-2.8,2.76Z"/><path class="cls-3" d="M555.24,183.9h-4.08L557,169.2h3.24l5.65,14.7h-4.12l-.69-2.12h-5.15Zm3.2-10.23-1.59,5.13h3.24Z"/><path class="cls-3" d="M572.1,183.9h-3.16l-4-11h3.42l2.12,6.88,2.13-6.88h3.42Z"/><path class="cls-3" d="M588.5,183.9h-3.3v-1.19a3.67,3.67,0,0,1-3.26,1.57c-3.5,0-5.55-2.74-5.55-5.9a5.57,5.57,0,0,1,5.55-5.88,3.72,3.72,0,0,1,3.26,1.55v-1.18h3.3Zm-8.81-5.46a2.75,2.75,0,0,0,2.75,2.76,2.54,2.54,0,0,0,2.3-1.23,3,3,0,0,0,.46-1.41,2.8,2.8,0,0,0-.28-1.45,2.61,2.61,0,0,0-2.5-1.53,2.73,2.73,0,0,0-2.73,2.84Z"/><path class="cls-3" d="M590.9,172.87H594v1.18a3.25,3.25,0,0,1,3-1.55c3.71,0,4.09,3,4.09,4.51v6.89h-3.3v-6c0-1.21-.26-2.28-1.73-2.28-1.63,0-1.88,1.17-1.88,2.3v6h-3.3Z"/><path class="cls-3" d="M604.11,175.38h-1.63v-2.51h1.63V169.2h3.3v3.67H609v2.51h-1.59v8.52h-3.3Z"/><path class="cls-3" d="M627.08,174.13a4.1,4.1,0,0,0-.78-1,3.68,3.68,0,0,0-2.46-.91,4.35,4.35,0,0,0,0,8.68,3.91,3.91,0,0,0,2.3-.65,3,3,0,0,0,1.22-1.71H623v-3h8.73a9.38,9.38,0,0,1-.68,4.21,7.8,7.8,0,0,1-7.15,4.45,7.69,7.69,0,0,1-7.81-7.71,7.6,7.6,0,0,1,7.87-7.57,7.68,7.68,0,0,1,7.35,5.21Z"/><path class="cls-3" d="M645.12,183.9h-3.3v-1.19a3.67,3.67,0,0,1-3.26,1.57c-3.5,0-5.55-2.74-5.55-5.9a5.57,5.57,0,0,1,5.55-5.88,3.72,3.72,0,0,1,3.26,1.55v-1.18h3.3Zm-8.81-5.46a2.75,2.75,0,0,0,2.75,2.76,2.54,2.54,0,0,0,2.3-1.23,3,3,0,0,0,.46-1.41,2.8,2.8,0,0,0-.28-1.45,2.61,2.61,0,0,0-2.5-1.53,2.73,2.73,0,0,0-2.73,2.84Z"/><path class="cls-3" d="M647.5,172.87h3.1v1.24a2.76,2.76,0,0,1,2.8-1.61v3.32h-.12c-1.69,0-2.48.61-2.48,2.16v5.92h-3.3Z"/><path class="cls-3" d="M665.92,183.9h-3.14v-1.19a3.63,3.63,0,0,1-3.34,1.55c-3.34,0-5.53-2.58-5.53-5.9a5.5,5.5,0,0,1,5.47-5.86,4.22,4.22,0,0,1,3.24,1.31V169.2h3.3Zm-8.71-5.54a2.7,2.7,0,0,0,2.77,2.82,2.9,2.9,0,0,0,2-.83,2.9,2.9,0,0,0,0-4,2.75,2.75,0,0,0-2-.77,2.71,2.71,0,0,0-2.81,2.76Z"/><path class="cls-3" d="M671,179.53a2.4,2.4,0,0,0,2.54,1.95,2.23,2.23,0,0,0,2-1h3.38a6.54,6.54,0,0,1-2.24,2.82,5.43,5.43,0,0,1-3.15,1,5.88,5.88,0,0,1,0-11.76,5.62,5.62,0,0,1,4.17,1.75,6.15,6.15,0,0,1,1.55,5.28Zm5-2.5a2.61,2.61,0,0,0-4.93,0Z"/><path class="cls-3" d="M697.78,174.13a3.83,3.83,0,0,0-.77-1,3.7,3.7,0,0,0-2.46-.91,4.35,4.35,0,0,0,0,8.68,3.93,3.93,0,0,0,2.3-.65,3,3,0,0,0,1.21-1.71h-4.39v-3h8.72a9.36,9.36,0,0,1-.67,4.21,7.8,7.8,0,0,1-7.16,4.45,7.69,7.69,0,0,1-7.81-7.71,7.6,7.6,0,0,1,7.87-7.57,7.7,7.7,0,0,1,7.36,5.21Z"/><path class="cls-3" d="M703.72,178.36a5.95,5.95,0,1,1,5.94,5.88,5.76,5.76,0,0,1-5.94-5.88Zm3.3,0a2.65,2.65,0,1,0,2.64-2.8,2.68,2.68,0,0,0-2.64,2.8Z"/><path class="cls-3" d="M718.12,175.38H716.5v-2.51h1.62V169.2h3.3v3.67H723v2.51h-1.59v8.52h-3.3Z"/><path class="cls-3" d="M724.44,169.2h3.3v4.69a3.18,3.18,0,0,1,2.88-1.39,3.46,3.46,0,0,1,3.28,1.57,7,7,0,0,1,.76,3.67v6.16h-3.3v-6a3.12,3.12,0,0,0-.34-1.61,1.59,1.59,0,0,0-1.43-.69,1.61,1.61,0,0,0-1.61.89,2.88,2.88,0,0,0-.24,1.29v6.12h-3.3Z"/><path class="cls-3" d="M737,169.2h3.3v2.5H737Zm0,3.67h3.3v11H737Z"/><path class="cls-3" d="M753.83,179.71a5.93,5.93,0,0,1-11.69-1.35,5.9,5.9,0,0,1,11.67-1.23h-3.34a2.46,2.46,0,0,0-2.38-1.55,2.39,2.39,0,0,0-1.91.77,3,3,0,0,0-.72,2,2.61,2.61,0,0,0,2.63,2.8,2.52,2.52,0,0,0,2.38-1.47Z"/><path class="cls-3" d="M416,193h4.67c1.82,0,4.49.18,6.24,2.54a7.47,7.47,0,0,1,1.51,4.79c0,4.16-2.19,7.38-7.54,7.38H416Zm3,12.1h2.08c3.18,0,4.41-2.08,4.41-4.73a5.51,5.51,0,0,0-1-3.3,4,4,0,0,0-3.4-1.47H419Z"/><path class="cls-3" d="M432.38,203.15a3,3,0,0,0,3.16,2.71,2.82,2.82,0,0,0,2.62-1.47h2.68a6.16,6.16,0,0,1-2.2,2.74,5.39,5.39,0,0,1-3.12,1,5.79,5.79,0,0,1,0-11.58,5.53,5.53,0,0,1,4.07,1.67,5.88,5.88,0,0,1,1.61,5Zm6.22-2a3,3,0,0,0-3.1-2.47,3,3,0,0,0-3.08,2.47Z"/><path class="cls-3" d="M443.14,196.83h2.45v1.38a3.59,3.59,0,0,1,3.18-1.71,3.55,3.55,0,0,1,2.68,1.11,5.33,5.33,0,0,1,.66,1,4.37,4.37,0,0,1,.79-1,4,4,0,0,1,2.78-1.07,4.05,4.05,0,0,1,2.91,1.09c1,1,1.19,1.93,1.19,4.17v6h-2.61v-5.89a3.75,3.75,0,0,0-.43-2,1.74,1.74,0,0,0-1.71-.9,2,2,0,0,0-1.89,1,3.4,3.4,0,0,0-.38,1.82v6h-2.6v-6a4,4,0,0,0-.34-1.81,1.93,1.93,0,0,0-1.79-1,2.05,2.05,0,0,0-1.87,1,4,4,0,0,0-.41,1.89v5.91h-2.61Z"/><path class="cls-3" d="M462.3,193h2.6v2.32h-2.6Zm0,3.79h2.6v10.92h-2.6Z"/><path class="cls-3" d="M557.6,207.75h-3.22l6-14.71H563l5.82,14.71h-3.24l-1.07-2.89h-5.81Zm3.92-11.21-2.09,6h4.23Z"/><path class="cls-3" d="M574.61,207.75h-2.55l-4-10.92h2.7l2.63,7.64,2.62-7.64h2.7Z"/><path class="cls-3" d="M590.86,207.75h-2.6v-1.57a4.07,4.07,0,0,1-3.68,1.9,5.8,5.8,0,0,1,0-11.58,4.09,4.09,0,0,1,3.68,1.92v-1.59h2.6Zm-9.22-5.41a3.27,3.27,0,0,0,3.32,3.32,3.1,3.1,0,0,0,2.9-1.75,3.72,3.72,0,0,0,.42-1.53,3.38,3.38,0,0,0-.3-1.53,3.21,3.21,0,0,0-3-1.93,3.28,3.28,0,0,0-3.3,3.4Z"/><path class="cls-3" d="M593.44,196.83h2.44c0,.48,0,.94,0,1.46a3.56,3.56,0,0,1,3.4-1.79c3.56,0,4.24,2.74,4.24,4.67v6.58h-2.61v-5.93c0-1.63-.53-2.88-2.36-2.88s-2.49,1.25-2.49,2.78v6h-2.6Z"/><path class="cls-3" d="M606.75,198.84h-1.81v-2h1.81V193h2.6v3.79h1.87v2h-1.87v8.91h-2.6Z"/><path class="cls-3" d="M629.8,197.55a5,5,0,0,0-1.09-1.21,4.44,4.44,0,0,0-2.82-1,5,5,0,0,0,0,10.06,4.92,4.92,0,0,0,2.92-.89,4,4,0,0,0,1.51-2.23h-5.49v-2.38h8.9a8.63,8.63,0,0,1-.65,3.69,7.82,7.82,0,0,1-7.17,4.41,7.63,7.63,0,1,1,0-15.26,7.7,7.7,0,0,1,7.2,4.79Z"/><path class="cls-3" d="M646.93,207.75h-2.61v-1.57a4,4,0,0,1-3.67,1.9,5.8,5.8,0,0,1,0-11.58,4.07,4.07,0,0,1,3.67,1.92v-1.59h2.61Zm-9.23-5.41a3.28,3.28,0,0,0,3.32,3.32,3.09,3.09,0,0,0,2.9-1.75,3.72,3.72,0,0,0,.42-1.53,3.38,3.38,0,0,0-.3-1.53,3.2,3.2,0,0,0-3-1.93,3.29,3.29,0,0,0-3.3,3.4Z"/><path class="cls-3" d="M649.48,196.83H652v1.44a3.11,3.11,0,0,1,3-1.77v2.62h-.12c-1.83,0-2.76.85-2.76,2.74v5.89h-2.61Z"/><path class="cls-3" d="M667.17,207.75h-2.48v-1.57a4,4,0,0,1-3.74,1.9,5.8,5.8,0,0,1,0-11.58,4.25,4.25,0,0,1,3.66,1.75V193h2.6ZM658,202.28a3.25,3.25,0,0,0,3.34,3.36,3.42,3.42,0,0,0,2.42-1,3.25,3.25,0,0,0,.94-2.43,3.19,3.19,0,0,0-1-2.34,3.37,3.37,0,0,0-5.72,2.38Z"/><path class="cls-3" d="M671.7,203.15a3,3,0,0,0,3.16,2.71,2.82,2.82,0,0,0,2.62-1.47h2.68a6.16,6.16,0,0,1-2.2,2.74,5.39,5.39,0,0,1-3.12,1,5.79,5.79,0,0,1,0-11.58,5.53,5.53,0,0,1,4.07,1.67,5.88,5.88,0,0,1,1.61,5Zm6.22-2a3,3,0,0,0-3.1-2.47,3,3,0,0,0-3.08,2.47Z"/><path class="cls-3" d="M699.53,197.55a4.65,4.65,0,0,0-1.09-1.21,4.42,4.42,0,0,0-2.82-1,5,5,0,0,0,0,10.06,4.92,4.92,0,0,0,2.92-.89,4,4,0,0,0,1.51-2.23h-5.49v-2.38h8.91a8.65,8.65,0,0,1-.66,3.69,7.82,7.82,0,0,1-7.17,4.41,7.63,7.63,0,1,1,7.23-10.47Z"/><path class="cls-3" d="M704.83,202.26a5.85,5.85,0,1,1,5.85,5.8,5.67,5.67,0,0,1-5.85-5.8Zm2.61,0a3.23,3.23,0,1,0,3.24-3.36,3.23,3.23,0,0,0-3.24,3.36Z"/><path class="cls-3" d="M719.24,198.84h-1.81v-2h1.81V193h2.6v3.79h1.87v2h-1.87v8.91h-2.6Z"/><path class="cls-3" d="M725.22,193h2.6v5.09A3.46,3.46,0,0,1,731,196.5a3.72,3.72,0,0,1,3.38,1.53,6.55,6.55,0,0,1,.85,3.71v6h-2.6v-5.89a3.58,3.58,0,0,0-.5-2.06,2.16,2.16,0,0,0-1.88-.86,2.24,2.24,0,0,0-2,1,3.12,3.12,0,0,0-.46,1.74v6.11h-2.6Z"/><path class="cls-3" d="M737.81,193h2.61v2.32h-2.61Zm0,3.79h2.61v10.92h-2.61Z"/><path class="cls-3" d="M753.83,203.77a5.83,5.83,0,1,1,0-2.88h-2.66a3.25,3.25,0,0,0-5.27-1,3.53,3.53,0,0,0-.89,2.42,3.18,3.18,0,0,0,3.21,3.36,3.1,3.1,0,0,0,2.95-1.87Z"/><path class="cls-3" d="M416,231.59V216.88h3.22l4.58,11.39,4.51-11.39h3.2v14.71h-2.17l.06-12.41-4.87,12.41H423l-4.87-12.41.06,12.41Z"/><path class="cls-3" d="M435.63,226.84a3.53,3.53,0,0,0,3.64,3.3,3.36,3.36,0,0,0,3.12-1.83h2.15a6,6,0,0,1-2.19,2.68,5.45,5.45,0,0,1-3.08.91,5.72,5.72,0,1,1,4-9.85,5.86,5.86,0,0,1,1.63,4.79Zm7.2-1.61a3.48,3.48,0,0,0-3.58-3,3.44,3.44,0,0,0-3.58,3Z"/><path class="cls-3" d="M457.85,231.59h-2V229.7a4.27,4.27,0,0,1-4,2.2,5.72,5.72,0,0,1,0-11.44,4.46,4.46,0,0,1,4,2.08v-5.66h2.07Zm-9.5-5.41a3.7,3.7,0,0,0,3.79,3.8,3.78,3.78,0,0,0,2.71-1.14,3.62,3.62,0,0,0,1-2.72,3.68,3.68,0,0,0-1.09-2.66,3.8,3.8,0,0,0-6.46,2.7Z"/><path class="cls-3" d="M460.59,216.88h2.06v2.19h-2.06Zm0,3.89h2.06v10.82h-2.06Z"/><path class="cls-3" d="M475.31,231.59h-1.95v-1.67a3.72,3.72,0,0,1-3.65,2c-3.48,0-4.38-2.54-4.38-4.79v-6.34h2.07v5.87c0,2,.76,3.34,2.88,3.34s3-1.32,3-3.16v-6h2.07Z"/><path class="cls-3" d="M478,220.77H480v1.54a3.72,3.72,0,0,1,3.28-1.85,3.58,3.58,0,0,1,2.78,1.15,5.33,5.33,0,0,1,.69,1,4.61,4.61,0,0,1,.78-1.07,4.29,4.29,0,0,1,5.76,0c1,1,1.19,2,1.19,4.07v6h-2.06V225.7a3.92,3.92,0,0,0-.6-2.4,2.11,2.11,0,0,0-1.93-.9,2.35,2.35,0,0,0-2.08,1,3.54,3.54,0,0,0-.5,2.18v6h-2.09v-6a3.82,3.82,0,0,0-.43-2.14,2.5,2.5,0,0,0-4.1,0,3.87,3.87,0,0,0-.57,2.2v5.93H478Z"/><path class="cls-3" d="M559.37,231.59h-2.54l6-14.71H565l5.94,14.71h-2.54L567,228.11h-6.28Zm4.47-12-2.48,6.62h5Z"/><path class="cls-3" d="M576.48,231.59h-2.07l-4.13-10.82h2.16l3,8.23,3-8.23h2.17Z"/><path class="cls-3" d="M592.63,231.59h-2.07V229.7a4.35,4.35,0,0,1-4,2.2,5.72,5.72,0,0,1,0-11.44,4.35,4.35,0,0,1,4,2.22v-1.91h2.07Zm-9.56-5.37a3.71,3.71,0,0,0,3.78,3.76,3.52,3.52,0,0,0,3.35-2.15,4,4,0,0,0,.38-1.61,3.42,3.42,0,0,0-.32-1.61,3.6,3.6,0,0,0-3.45-2.23,3.7,3.7,0,0,0-3.74,3.82Z"/><path class="cls-3" d="M595.35,220.77h1.95v1.67a3.71,3.71,0,0,1,3.65-2c3.46,0,4.37,2.54,4.37,4.79v6.34h-2.08v-5.87c0-1.94-.76-3.34-2.86-3.32s-3,1.3-3,3.16v6h-2.06Z"/><path class="cls-3" d="M608.76,222.38h-2v-1.61h2v-3.89h2.07v3.89h2.08v1.61h-2.08v9.21h-2.07Z"/><path class="cls-3" d="M631.89,221.05a6.37,6.37,0,0,0-1.35-1.39,5.26,5.26,0,0,0-3.1-1,5.57,5.57,0,0,0,0,11.13,5.46,5.46,0,0,0,3.39-1.1,4.49,4.49,0,0,0,1.73-2.62h-6.34v-1.91h9.06a8.23,8.23,0,0,1-.65,3.3,7.88,7.88,0,0,1-7.17,4.39,7.63,7.63,0,1,1,0-15.26,7.7,7.7,0,0,1,7.06,4.45Z"/><path class="cls-3" d="M648.3,231.59h-2.07V229.7a4.37,4.37,0,0,1-4,2.2,5.72,5.72,0,0,1,0-11.44,4.37,4.37,0,0,1,4,2.22v-1.91h2.07Zm-9.56-5.37a3.71,3.71,0,0,0,3.77,3.76,3.53,3.53,0,0,0,3.36-2.15,4,4,0,0,0,.38-1.61,3.42,3.42,0,0,0-.32-1.61,3.62,3.62,0,0,0-3.46-2.23,3.7,3.7,0,0,0-3.73,3.82Z"/><path class="cls-3" d="M651,220.77h2v1.59a3.37,3.37,0,0,1,3.22-1.9v2.06H656c-1.94,0-3,1.08-3,3.22v5.85H651Z"/><path class="cls-3" d="M668.12,231.59h-2V229.7a4.28,4.28,0,0,1-4,2.2,5.72,5.72,0,0,1,0-11.44,4.46,4.46,0,0,1,4,2.08v-5.66h2.06Zm-9.5-5.41a3.7,3.7,0,0,0,3.8,3.8,3.76,3.76,0,0,0,2.7-1.14,3.59,3.59,0,0,0,1.06-2.72,3.65,3.65,0,0,0-1.1-2.66,3.8,3.8,0,0,0-6.46,2.7Z"/><path class="cls-3" d="M672.19,226.84a3.53,3.53,0,0,0,3.64,3.3,3.36,3.36,0,0,0,3.12-1.83h2.15a6,6,0,0,1-2.19,2.68,5.45,5.45,0,0,1-3.08.91,5.72,5.72,0,1,1,4-9.85,5.8,5.8,0,0,1,1.63,4.79Zm7.2-1.61a3.48,3.48,0,0,0-3.58-3,3.44,3.44,0,0,0-3.58,3Z"/><path class="cls-3" d="M700.88,221.05a5.94,5.94,0,0,0-1.35-1.39,5.21,5.21,0,0,0-3.1-1,5.57,5.57,0,0,0,0,11.13,5.49,5.49,0,0,0,3.4-1.1,4.49,4.49,0,0,0,1.73-2.62h-6.34v-1.91h9.06a8.41,8.41,0,0,1-.65,3.3,7.88,7.88,0,0,1-7.18,4.39,7.63,7.63,0,1,1,0-15.26,7.71,7.71,0,0,1,7.06,4.45Z"/><path class="cls-3" d="M705.67,226.16a5.77,5.77,0,1,1,5.76,5.72,5.61,5.61,0,0,1-5.76-5.72Zm2.07,0a3.7,3.7,0,1,0,3.69-3.8,3.66,3.66,0,0,0-3.69,3.8Z"/><path class="cls-3" d="M720.07,222.38h-1.94v-1.61h1.94v-3.89h2.07v3.89h2.09v1.61h-2.09v9.21h-2.07Z"/><path class="cls-3" d="M725.77,216.88h2.07v5.41a3.76,3.76,0,0,1,3.52-1.83,3.93,3.93,0,0,1,3.46,1.51,6.32,6.32,0,0,1,.93,3.71v5.91h-2.09v-5.81a4.14,4.14,0,0,0-.61-2.42,3.13,3.13,0,0,0-4.55,0,3.35,3.35,0,0,0-.66,2.08v6.11h-2.07Z"/><path class="cls-3" d="M738.41,216.88h2.07v2.19h-2.07Zm0,3.89h2.07v10.82h-2.07Z"/><path class="cls-3" d="M753.83,227.79a5.76,5.76,0,1,1,0-3.14H751.7a3.53,3.53,0,0,0-3.38-2.27,3.48,3.48,0,0,0-2.64,1.06,3.94,3.94,0,0,0-1,2.74,3.65,3.65,0,0,0,3.69,3.8,3.59,3.59,0,0,0,3.38-2.19Z"/><path class="cls-3" d="M416.08,240.72H420a4.91,4.91,0,0,1,2.9.7,3.33,3.33,0,0,1,1.59,3.06,3.3,3.3,0,0,1-2,3.12,3.91,3.91,0,0,1,.82,7.17,5.45,5.45,0,0,1-3.16.66h-4.06Zm1.63,6.36h2.23a4.06,4.06,0,0,0,1.73-.3,2.24,2.24,0,0,0,1.19-2.18,2.21,2.21,0,0,0-1.19-2.09,4,4,0,0,0-1.83-.34h-2.13Zm0,6.9h2.67a4.9,4.9,0,0,0,1.79-.28,2.52,2.52,0,0,0,1.55-2.45,2.62,2.62,0,0,0-1.57-2.48,4.69,4.69,0,0,0-2.07-.3h-2.37Z"/><path class="cls-3" d="M426.81,250.06a5.68,5.68,0,1,1,5.67,5.64,5.53,5.53,0,0,1-5.67-5.64Zm1.45,0a4.22,4.22,0,1,0,4.22-4.29,4.16,4.16,0,0,0-4.22,4.29Z"/><path class="cls-3" d="M439.71,250.06a5.67,5.67,0,1,1,5.66,5.64,5.52,5.52,0,0,1-5.66-5.64Zm1.45,0a4.21,4.21,0,1,0,4.21-4.29,4.16,4.16,0,0,0-4.21,4.29Z"/><path class="cls-3" d="M453.3,240.72h1.47v8.41l4.81-4.4h1.8l-5.14,4.7,5.38,6h-1.73l-5.12-5.69v5.69H453.3Z"/><path class="cls-3" d="M561.47,255.43H559.7l6.15-14.71h1.59l6.08,14.71h-1.79L570,251.29h-6.86Zm5.11-12.86-2.92,7.37h5.86Z"/><path class="cls-3" d="M578.72,255.43h-1.53L573,244.73h1.55l3.43,8.89,3.42-8.89h1.55Z"/><path class="cls-3" d="M594.77,255.43H593.3v-2.21a4.73,4.73,0,0,1-4.37,2.5,5.64,5.64,0,0,1,0-11.28A4.68,4.68,0,0,1,593.3,247v-2.25h1.47Zm-9.93-5.33a4.17,4.17,0,0,0,4.29,4.25,4,4,0,0,0,3.86-2.6,4.23,4.23,0,0,0,.35-1.69,3.93,3.93,0,0,0-.33-1.71,4.13,4.13,0,0,0-3.92-2.56,4.19,4.19,0,0,0-4.25,4.29Z"/><path class="cls-3" d="M597.63,244.73H599c0,.6,0,1.2,0,1.91a4,4,0,0,1,4-2.2c3.32,0,4.49,2.3,4.49,4.91v6.08H606v-5.79c0-2.3-1-3.87-3.44-3.83a3.24,3.24,0,0,0-3.48,3.58v6h-1.47Z"/><path class="cls-3" d="M611.14,245.91H609v-1.18h2.11v-4h1.45v4h2.35v1.18h-2.35v9.52h-1.45Z"/><path class="cls-3" d="M634.35,244.54A6.08,6.08,0,0,0,632.7,243a6,6,0,0,0-9.44,5.1,6,6,0,0,0,6,6.2,6.38,6.38,0,0,0,3.94-1.33,5.34,5.34,0,0,0,2-3.08h-7.31v-1.35h9.22a7.35,7.35,0,0,1-.65,2.84,7.88,7.88,0,0,1-7.18,4.37,7.62,7.62,0,1,1,0-15.24,7.68,7.68,0,0,1,6.9,4.08Z"/><path class="cls-3" d="M650,255.43h-1.48v-2.21a4.73,4.73,0,0,1-4.37,2.5,5.64,5.64,0,0,1,0-11.28,4.68,4.68,0,0,1,4.37,2.54v-2.25H650ZM640,250.1a4.17,4.17,0,0,0,4.29,4.25,4,4,0,0,0,3.86-2.6,4.23,4.23,0,0,0,.35-1.69,3.93,3.93,0,0,0-.33-1.71,4.13,4.13,0,0,0-3.92-2.56,4.19,4.19,0,0,0-4.25,4.29Z"/><path class="cls-3" d="M652.8,244.73h1.39v1.75a3.64,3.64,0,0,1,3.42-2v1.45h-.14c-2.06,0-3.22,1.29-3.22,3.71v5.83H652.8Z"/><path class="cls-3" d="M669.26,255.43h-1.42v-2.21a4.72,4.72,0,0,1-4.41,2.5,5.64,5.64,0,0,1,0-11.28,4.72,4.72,0,0,1,4.38,2.46v-6.18h1.47Zm-9.9-5.35a4.16,4.16,0,0,0,4.29,4.27,4.22,4.22,0,0,0,3-1.25,4.17,4.17,0,0,0,1.19-3.08,4.09,4.09,0,0,0-1.23-3,4.29,4.29,0,0,0-7.29,3Z"/><path class="cls-3" d="M672.81,250.5a4.07,4.07,0,0,0,4.17,3.95,4,4,0,0,0,3.68-2.2h1.53a5.68,5.68,0,0,1-2.17,2.6A5.65,5.65,0,1,1,677,244.44a5.48,5.48,0,0,1,5.59,6.06Zm8.29-1.17a4.17,4.17,0,0,0-8.27,0Z"/><path class="cls-3" d="M702.43,244.54a6.12,6.12,0,1,0-5,9.71,6.33,6.33,0,0,0,3.93-1.33,5.41,5.41,0,0,0,2-3.08H696v-1.35h9.22a7.19,7.19,0,0,1-.66,2.84,7.85,7.85,0,0,1-7.17,4.37,7.62,7.62,0,1,1,0-15.24,7.67,7.67,0,0,1,6.89,4.08Z"/><path class="cls-3" d="M706.64,250.06a5.68,5.68,0,1,1,5.67,5.64,5.53,5.53,0,0,1-5.67-5.64Zm1.45,0a4.22,4.22,0,1,0,4.22-4.29,4.16,4.16,0,0,0-4.22,4.29Z"/><path class="cls-3" d="M721,245.91h-2.11v-1.18H721v-4h1.45v4h2.34v1.18h-2.34v9.52H721Z"/><path class="cls-3" d="M726.43,240.72h1.47v5.76a4,4,0,0,1,3.82-2,4.14,4.14,0,0,1,3.53,1.47,5.91,5.91,0,0,1,1,3.75v5.77h-1.45v-5.71a4.55,4.55,0,0,0-.78-2.82,3.24,3.24,0,0,0-2.68-1.09,3.38,3.38,0,0,0-2.61,1.05,3.67,3.67,0,0,0-.85,2.49v6.08h-1.47Z"/><path class="cls-3" d="M739.08,240.72h1.48v2.05h-1.48Zm0,4h1.48v10.7h-1.48Z"/><path class="cls-3" d="M753.83,251.81a5.68,5.68,0,1,1,0-3.38h-1.51a4.25,4.25,0,0,0-6.9-1.43,4.42,4.42,0,0,0-1.21,3.08,4.16,4.16,0,0,0,4.21,4.27,4,4,0,0,0,3.88-2.54Z"/><path class="cls-3" d="M416.14,264.56h8.07v.54h-7.47v6.5h7.47v.53h-7.47v6.6h7.47v.54h-8.07Z"/><path class="cls-3" d="M429.2,274l-3.52-5.25h.72l3.13,4.71,3.17-4.71h.67l-3.5,5.25,3.5,5.29h-.67l-3.17-4.75-3.13,4.75h-.72Z"/><path class="cls-3" d="M436,269.25h-2.32v-.52H436v-4.17h.56v4.17h2.7v.52h-2.7v10H436Z"/><path class="cls-3" d="M441,268.73h.55v2a3.94,3.94,0,0,1,3.72-2.26V269h-.16c-2.24,0-3.56,1.63-3.56,4.49v5.77H441Z"/><path class="cls-3" d="M456.2,279.27h-.56v-2.73a5.29,5.29,0,0,1-4.93,3,5.53,5.53,0,1,1,0-11,5.23,5.23,0,0,1,4.93,3v-2.79h.56ZM445.73,274a4.88,4.88,0,0,0,5,5,5,5,0,0,0,4.93-5.13,4.7,4.7,0,0,0-.36-1.83,5,5,0,0,0-9.61,1.95Z"/><path class="cls-3" d="M464.78,264.56h.59v14.17h6.22v.54h-6.81Z"/><path class="cls-3" d="M473.2,264.56h.56v1.81h-.56Zm0,4.17h.56v10.54h-.56Z"/><path class="cls-3" d="M487.19,278.09a5.38,5.38,0,0,1-2.07,4.5,5.85,5.85,0,0,1-3.27,1.17,5.63,5.63,0,0,1-5.19-3.24h.63a5.39,5.39,0,0,0,1.38,1.63,5.1,5.1,0,0,0,3.1,1.09,4.93,4.93,0,0,0,4.87-5.05v-1.71a5.26,5.26,0,0,1-4.93,3,5.53,5.53,0,1,1,0-11,5.25,5.25,0,0,1,4.93,3v-2.79h.55ZM476.66,274a4.91,4.91,0,0,0,5.11,5,4.81,4.81,0,0,0,3.53-1.47,5.15,5.15,0,0,0,1.39-3.58,5.39,5.39,0,0,0-1.09-3.16,4.68,4.68,0,0,0-3.89-1.81,4.9,4.9,0,0,0-5,5Z"/><path class="cls-3" d="M490.27,264.56h.55v6.3a4.5,4.5,0,0,1,4.28-2.38,4.55,4.55,0,0,1,3.67,1.43,5.58,5.58,0,0,1,1.16,3.79v5.57h-.56V273.7a5.27,5.27,0,0,0-1-3.42A4.08,4.08,0,0,0,495.1,269a4.44,4.44,0,0,0-3.12,1.14,4.1,4.1,0,0,0-1.16,3.08v6.06h-.55Z"/><path class="cls-3" d="M503.9,269.25h-2.33v-.52h2.33v-4.17h.55v4.17h2.71v.52h-2.71v10h-.55Z"/><path class="cls-3" d="M564.55,279.27h-.63l6.3-14.71H571l6.3,14.71h-.63l-2.21-5.13h-7.69Zm6.05-14.15L567,273.6h7.17Z"/><path class="cls-3" d="M582,279.27h-.72l-4.33-10.54h.62l4.07,9.9,4.07-9.9h.62Z"/><path class="cls-3" d="M597.83,279.27h-.55v-2.73a5.3,5.3,0,0,1-4.93,3,5.53,5.53,0,1,1,0-11,5.25,5.25,0,0,1,4.93,3v-2.79h.55ZM587.36,274a4.88,4.88,0,0,0,5,5,5,5,0,0,0,4.93-5.13,4.7,4.7,0,0,0-.36-1.83,5,5,0,0,0-9.62,1.95Z"/><path class="cls-3" d="M600.93,268.73h.56c0,.72,0,1.42,0,2.29a4.34,4.34,0,0,1,4.41-2.54c3.14.08,4.71,2,4.71,5.12v5.67H610V273.6c0-2.84-1.39-4.65-4.27-4.61-2.5,0-4.27,1.45-4.27,4.22v6.06h-.56Z"/><path class="cls-3" d="M614.58,269.25h-2.33v-.52h2.33v-4.17h.56v4.17h2.7v.52h-2.7v10h-.56Z"/><path class="cls-3" d="M637.91,267.82a7.87,7.87,0,0,0-2.07-1.89,7.27,7.27,0,0,0-3.9-1.09,7.08,7.08,0,0,0,0,14.15,7.58,7.58,0,0,0,4.75-1.67,6.48,6.48,0,0,0,2.37-3.74H630.3v-.53h9.48a6.27,6.27,0,0,1-.64,2.16,7.94,7.94,0,0,1-7.2,4.32,7.62,7.62,0,1,1,0-15.23,7.85,7.85,0,0,1,6.68,3.52Z"/><path class="cls-3" d="M652.29,279.27h-.56v-2.73a5.29,5.29,0,0,1-4.93,3,5.53,5.53,0,1,1,0-11,5.23,5.23,0,0,1,4.93,3v-2.79h.56ZM641.82,274a4.88,4.88,0,0,0,5,5,4.82,4.82,0,0,0,4.64-3.28,5,5,0,0,0,.29-1.85,5,5,0,0,0-10,.12Z"/><path class="cls-3" d="M655.39,268.73h.55v2a3.93,3.93,0,0,1,3.72-2.26V269h-.16c-2.25,0-3.56,1.63-3.56,4.49v5.77h-.55Z"/><path class="cls-3" d="M670.89,279.27h-.56v-2.73a5.3,5.3,0,0,1-4.93,3,5.53,5.53,0,1,1,0-11,5.25,5.25,0,0,1,4.93,3v-7h.56ZM660.41,274a4.88,4.88,0,0,0,5.05,5,5.06,5.06,0,0,0,3.5-8.59A5,5,0,0,0,665.4,269a4.89,4.89,0,0,0-5,5Z"/><path class="cls-3" d="M673.68,274.06a4.93,4.93,0,0,0,5,4.95,4.8,4.8,0,0,0,4.49-2.78h.62a5.44,5.44,0,0,1-2.13,2.5,5.76,5.76,0,0,1-3,.8,5.36,5.36,0,0,1-5.54-5.51,5.44,5.44,0,0,1,5.56-5.54,5.62,5.62,0,0,1,3.78,1.41,5.27,5.27,0,0,1,1.73,4.17Zm9.94-.52a4.93,4.93,0,0,0-5-4.55,4.87,4.87,0,0,0-5,4.55Z"/><path class="cls-3" d="M704.7,267.82a7.87,7.87,0,0,0-2.07-1.89,7.26,7.26,0,0,0-3.89-1.09,7.08,7.08,0,0,0,0,14.15,7.6,7.6,0,0,0,4.75-1.67,6.52,6.52,0,0,0,2.36-3.74h-8.76v-.53h9.48a6.27,6.27,0,0,1-.64,2.16,7.93,7.93,0,0,1-7.19,4.32,7.62,7.62,0,1,1,0-15.23,7.84,7.84,0,0,1,6.67,3.52Z"/><path class="cls-3" d="M708.05,274a5.55,5.55,0,1,1,5.55,5.55,5.42,5.42,0,0,1-5.55-5.55Zm.56,0a5,5,0,1,0,5-5,4.89,4.89,0,0,0-5,5Z"/><path class="cls-3" d="M722.44,269.25h-2.33v-.52h2.33v-4.17H723v4.17h2.71v.52H723v10h-.55Z"/><path class="cls-3" d="M727.4,264.56H728v6.3a4.48,4.48,0,0,1,4.27-2.38,4.59,4.59,0,0,1,3.68,1.43,5.63,5.63,0,0,1,1.15,3.79v5.57h-.56V273.7a5.21,5.21,0,0,0-1-3.42,4.06,4.06,0,0,0-3.28-1.29,4.45,4.45,0,0,0-3.12,1.14,4.13,4.13,0,0,0-1.15,3.08v6.06h-.56Z"/><path class="cls-3" d="M740.12,264.56h.55v1.81h-.55Zm0,4.17h.55v10.54h-.55Z"/><path class="cls-3" d="M753.81,276A5.57,5.57,0,0,1,743,274a5.56,5.56,0,0,1,10.79-1.87h-.62A4.81,4.81,0,0,0,748.6,269a4.91,4.91,0,0,0-3.55,1.41,5,5,0,0,0-1.46,3.6,4.91,4.91,0,0,0,5,5,4.78,4.78,0,0,0,4.61-3.06Z"/><line class="cls-4" x1="411.43" y1="164.79" x2="757.39" y2="164.79"/><line class="cls-4" x1="411.43" y1="188.8" x2="757.39" y2="188.8"/><line class="cls-4" x1="411.43" y1="212.82" x2="757.39" y2="212.82"/><line class="cls-4" x1="411.43" y1="236.83" x2="757.39" y2="236.83"/><line class="cls-4" x1="411.43" y1="260.85" x2="757.39" y2="260.85"/><line class="cls-4" x1="411.43" y1="284.86" x2="757.39" y2="284.86"/><rect class="cls-5" x="194.13" y="0.11" width="20.07" height="1223.77"/><path class="cls-3" d="M89.41,122.07V110.71H66.69l-6.91,11.36H35.67l54-78.59h19.86v78.59Zm0-49.07H89.2l-13,21.78H89.41Z"/><path class="cls-3" d="M112.78,122.07V43.48h20.07v51.3h.21l33.35-51.3h24.11l-54,78.59Z"/><path class="cls-3" d="M194.13,122.07V110.71H171.4l-6.9,11.36H140.39l54-78.59H214.2v78.59Zm0-49.07h-.21L181,94.78h13.17Z"/><path class="cls-3" d="M266.35,122.07,236.93,77.25l-.21.11v44.71H217.49V43.48H234.8l29.74,46.41.21-.21V61.11H253.39V43.48H284v78.59Zm20.92,0V43.48h33.24V61.11H307.34v61Z"/><path class="cls-3" d="M194.13,204V192.59H171.4c-7.22,9-16.78,13-29.1,13a41,41,0,0,1-41.21-41.21c0-22.83,18.69-40.46,41.1-40.46,13.28,0,25,5.2,32.71,14.55L164.5,155c-4.68-8.39-12.64-13.48-21.88-13.48-11.47,0-21.46,8.81-21.46,22.83,0,14.76,10,23.58,21.56,23.58,8.39,0,13.81-3.08,18.48-11.47H138.48v-16h32.81l22.84-35H214.2V204Zm0-49.06h-.22L181,176.66h13.17Z"/><path class="cls-3" d="M255.09,204l-18.16-25.38h-.21V204H217.49V125.36h25.7c8.18,0,14.45,1.07,18.59,2.87,8.5,3.82,14.44,13.06,14.44,24.21,0,12.43-7.43,22.63-19.54,24.75L278,204Zm-10.94-39.08c8,0,12.85-3.72,12.85-11.26,0-6.79-5.1-10.62-12.64-10.62h-7.64v21.88Z"/><path class="cls-3" d="M342.81,204V176.34h-.21c-4.35,18.8-18.27,27.61-38.45,27.61H275.9V125.36h28.47c20,0,32.81,8.71,38.23,28.15h.21V125.36h43.65V143H362v12.22h23.68v17.63H362v13.48h24.42V204ZM305,186.32c11.58,0,18.8-7.22,18.8-21.56,0-13.59-7.11-21.77-18.26-21.77H296v43.33Z"/><path class="cls-3" d="M84.2,287.43a41.14,41.14,0,0,1-41.73-41.2c0-23.16,18.69-40.47,41-40.47a42.86,42.86,0,0,1,32.39,13.91c8.5-9.77,19.65-13.91,32.39-13.91,22.31,0,40.57,18.69,40.57,40,0,23.68-17.84,41.53-41.63,41.53-12.21,0-23-4.57-31.22-13.81C107.57,282.87,96.52,287.43,84.2,287.43Zm-4.77-30.27v-16h26.86a59,59,0,0,1,1.6-7.54H101.3a19.33,19.33,0,0,0-17.41-10.2c-11.37,0-21.35,8.92-21.35,22.84,0,14.23,9.56,23.57,21.56,23.57,9.34,0,16.57-4.56,18.8-12.64Zm89.31-10.51c0-11.79-8.07-23.26-21.66-23.26-12.53,0-21.14,10.94-21.14,22.94,0,13.06,8.82,23.37,21.77,23.37C160.46,269.7,168.74,258.44,168.74,246.65Z"/><path class="cls-3" d="M194.13,285.84v-61H181V207.25H214.2v78.59Zm69.14,0V255.47H237.56v30.37H217.49V207.25h33v17.63h-13v12.85h25.71V207.25h20.07v78.59Z"/><path class="cls-3" d="M365.75,237.09c-3.4-8.6-10.51-13.7-19-13.7-12.32,0-21,10.73-21,22.94s8.39,23.37,21.14,23.37c8,0,14.65-4.36,18.9-13.28h21a40.66,40.66,0,0,1-39.72,30.91c-19.12,0-35.05-12.22-40.14-30.8h-.22v29.31H286.63V207.25H306.7v29.2h.22c5.2-19,20.81-30.69,39.93-30.69,21.13,0,36.64,14.34,39.93,31.33Z"/><path class="cls-3" d="M71.79,1224v-69.26H-66.72L-108.79,1224H-255.73L73.09,745h121v479Zm0-299H70.5l-79,132.69H71.79Z"/><path class="cls-3" d="M214.2,1224V745H336.53v312.63h1.3L541.07,745H688L359.18,1224Z"/><path class="cls-3" d="M710,1224v-69.26H571.46L529.39,1224H382.46L711.28,745h121v479Zm0-299h-1.29l-79,132.69H710Z"/><polygon class="cls-5" points="359.19 1224 382.46 1224 792 627.43 792 593.53 359.19 1224"/><text class="cls-6" transform="translate(217.72 336.66)">LIGATURES<tspan class="cls-7"><tspan x="0" y="38.4">V</tspan><tspan class="cls-8" x="9.12" y="38.4">ARI</tspan><tspan class="cls-9" x="52.06" y="38.4">A</tspan><tspan class="cls-10" x="69.38" y="38.4">TIO</tspan><tspan class="cls-11" x="110.49" y="38.4">N</tspan><tspan class="cls-8" x="131.93" y="38.4">S</tspan></tspan><tspan x="0" y="76.8">WEIGHTS</tspan><tspan x="0" y="115.2">GE</tspan><tspan class="cls-12" x="38.43" y="115.2">O</tspan><tspan class="cls-10" x="60.77" y="115.2">METRIC</tspan><tspan class="cls-13"><tspan x="0" y="153.6">M</tspan><tspan class="cls-8" x="34.75" y="153.6">ODERN</tspan></tspan></text><text class="cls-14" transform="translate(156.65 336.67)">41<tspan x="0" y="38.4">30</tspan><tspan x="16.16" y="76.8">5</tspan></text></svg>