<svg id="Layer_1" data-name="Layer 1" xmlns="http://www.w3.org/2000/svg" viewBox="0 0 1920 1920"><g id="GLEE_Logo_Pure" data-name="GLEE Logo Pure"><path d="M1867.89,731.75H1597.5c-26.29,0-35.3,9-35.3,35.3V839.9h298.93v97.64H1562.2v80.37c0,26.29,9,35.3,35.3,35.3h273.39v102.15H1506.62c-48.82,0-79.62-24-79.62-80.37V710.72c0-56.34,30.8-81.12,79.62-81.12h361.27Z"/><path d="M419.39,1014.91c0,26.29-9,35.3-35.3,35.3H327c-105.15,0-139.7-33.8-139.7-157.73S221.86,734.75,327,734.75H539.32V629.6H275.18c-176.5,0-226.07,97.64-226.07,262.88s49.57,262.88,226.07,262.88H475c48.83,0,79.62-24,79.62-80.37V888H419.39Z"/><path d="M959.82,1147.4c-17.44-16.49-26.28-40.85-26.28-72.41v-21.78H792.67c-26.29,0-35.3-9-35.3-35.3V710c0-56.33-30.79-80.36-79.61-80.36H554.59V734.75h32.28c26.29,0,35.31,9,35.31,35.3V1075c0,56.34,30.79,80.37,79.61,80.37H969.85A75.09,75.09,0,0,1,959.82,1147.4Z"/><path d="M1438,1147.4c-17.44-16.49-26.28-40.85-26.28-72.41v-21.78H1119.31c-26.29,0-35.3-9-35.3-35.3V937.54h275.84V839.9H1084V767.05c0-26.29,9-35.3,35.3-35.3h247.3V629.6H1028.43c-48.82,0-79.62,24.78-79.62,81.12V1075c0,56.34,30.8,80.37,79.62,80.37H1448A74.45,74.45,0,0,1,1438,1147.4Z"/></g><path d="M141.31,1265.9l-1.69-9.59c-4,6.55-12.76,11.17-21.79,11.17-8,0-15.81-2.59-21.57-8.24-8.12-7.9-10.38-19-10.38-33.3,0-12.76,1.69-24.5,10.38-33a30.7,30.7,0,0,1,21.57-8.58c9,0,17.38,3.16,22.92,9a24.08,24.08,0,0,1,6.88,15.58h-10.5a15.18,15.18,0,0,0-3.61-8.8c-3.61-4.29-9.14-6.32-15.69-6.32a20.34,20.34,0,0,0-14.57,6.09c-6.54,6.78-7,17.61-7,26,0,8,.57,19.53,7.23,26.3a19.47,19.47,0,0,0,14.34,5.76,20.49,20.49,0,0,0,14.56-5.53c5.31-5.19,6.89-13,6.89-20.32H117.83v-9.37h30.48v43.12Z"/><path d="M188.38,1217.7a15.68,15.68,0,0,0-10.83,4.51c-4.63,4.41-5.2,12.31-5.2,18.29v25.4h-9.48v-57.12h8.47l.79,10c2.93-7,9.82-10.39,17-10.39a29.9,29.9,0,0,1,4.52.34v9.37A27.94,27.94,0,0,0,188.38,1217.7Z"/><path d="M249.12,1240.5H208.7c0,5.19,2,10.84,5.53,14.34a14.29,14.29,0,0,0,10.5,4.06c4.52,0,8.25-1.24,10.62-3.72a12.09,12.09,0,0,0,3.38-6.21h9.37a21,21,0,0,1-8.8,14.11,26.34,26.34,0,0,1-14.57,4.29,24.35,24.35,0,0,1-19-8.58c-4.74-5.53-7.12-13.1-7.12-21.22,0-6.89,1.25-13,4.41-18.29a24.45,24.45,0,0,1,21.56-12,23,23,0,0,1,17.39,7.34,29.4,29.4,0,0,1,7.22,20.09Zm-13.21-19.87c-2.37-3.16-6.21-5.19-11.29-5.19-10.39,0-15.47,8.47-15.69,16.82h30.48A20,20,0,0,0,235.91,1220.63Z"/><path d="M304.54,1266.69c-5.08,0-8.24-3.83-8.24-8.69h-.23c-3.27,5.76-10.39,9.37-18.4,9.37-13.1,0-19.65-8.8-19.65-17.61,0-7.34,4.75-16.94,20.33-17.84l17.38-1v-4.18c0-2.82-.34-6.32-2.93-8.69-1.92-1.81-4.75-2.94-9.37-2.94-5.2,0-8.47,1.47-10.39,3.39a9.32,9.32,0,0,0-2.82,6.88h-9.37a16.9,16.9,0,0,1,5-12c3.84-4.07,10.62-6.1,17.62-6.1,11.06,0,17.38,4.74,20.09,11a21.87,21.87,0,0,1,1.7,8.81v27.66c0,3,1.24,3.84,3.16,3.84a13.89,13.89,0,0,0,2.48-.34v7.11A13.23,13.23,0,0,1,304.54,1266.69Zm-8.81-28.33-15.35.9c-5.76.34-12.53,3-12.53,10.27,0,5.08,3.16,9.83,11.29,9.83a16.1,16.1,0,0,0,11.74-4.63,18.46,18.46,0,0,0,4.85-13Z"/><path d="M340.66,1266.69c-12.3,0-15.69-7.79-15.69-15.46V1217H313.9v-8.24H325v-14.57l9.59-2.25v16.82H351.5V1217H334.56v33.08c0,5.53,2.38,7.79,7.68,7.79a70.06,70.06,0,0,0,9.82-1v8.24A41.17,41.17,0,0,1,340.66,1266.69Z"/><path d="M392.7,1265.9v-80h10.05v70.67h38.5v9.37Z"/><path d="M487.22,1265.9l-.79-8.69c-2.94,6.55-10.28,10-16.94,10-13,0-19.53-7.79-19.53-21v-37.48h9.6v36.13c0,8.58,3.16,13.66,12.19,13.66a12.9,12.9,0,0,0,9.48-4.29c3.61-3.73,4.74-9.94,4.74-15.81v-29.69h9.6v57.12Z"/><path d="M546.71,1265.9v-36.24c0-8.58-3.5-13.66-12.53-13.66-5.54,0-9.94,3.62-12.42,8.81-1.92,4.18-2,10.16-2,14.56v26.53h-9.6v-57.12h8.35l.79,8.58c2.94-6.55,10.84-10,17.28-10,13,0,19.75,7.79,19.75,21v37.59Z"/><path d="M614.62,1266.69c-5.08,0-8.24-3.83-8.24-8.69h-.22c-3.28,5.76-10.39,9.37-18.41,9.37-13.09,0-19.64-8.8-19.64-17.61,0-7.34,4.74-16.94,20.32-17.84l17.39-1v-4.18c0-2.82-.34-6.32-2.94-8.69-1.92-1.81-4.74-2.94-9.37-2.94-5.19,0-8.47,1.47-10.38,3.39a9.33,9.33,0,0,0-2.83,6.88h-9.37a16.91,16.91,0,0,1,5-12c3.84-4.07,10.61-6.1,17.61-6.1,11.07,0,17.39,4.74,20.1,11a21.87,21.87,0,0,1,1.69,8.81v27.66c0,3,1.24,3.84,3.16,3.84a13.9,13.9,0,0,0,2.49-.34v7.11A13.29,13.29,0,0,1,614.62,1266.69Zm-8.8-28.33-15.36.9c-5.75.34-12.53,3-12.53,10.27,0,5.08,3.16,9.83,11.29,9.83a16.08,16.08,0,0,0,11.74-4.63,18.42,18.42,0,0,0,4.86-13Z"/><path d="M658,1217.7a15.73,15.73,0,0,0-10.84,4.51c-4.63,4.41-5.19,12.31-5.19,18.29v25.4h-9.48v-57.12h8.46l.79,10c2.94-7,9.83-10.39,17-10.39a29.9,29.9,0,0,1,4.52.34v9.37A28.07,28.07,0,0,0,658,1217.7Z"/><path d="M702.55,1265.9v-80h53.51v9.26H712.6v24.38h38.16V1229H712.6v27.66h43.46v9.25Z"/><path d="M804.61,1265.9l-15-22.46-14.9,22.46h-11l19.42-29.12-19.2-28h11.29l14.91,21.56,14.33-21.56h11.07l-19.31,28,19.87,29.12Z"/><path d="M868,1261.73c-3.72,3.5-9,5.75-15.69,5.75-6.21,0-13.55-2.93-16.6-8.12v31h-9.59v-81.51h8.46l.68,7.45c3.28-5.76,10.61-8.92,17-8.92,7,0,12.42,2.37,16.14,6.21,5.42,5.53,8.24,14.23,8.24,23.71C876.66,1247.16,873.73,1256.2,868,1261.73Zm-17.27-46.18a13.15,13.15,0,0,0-9.26,3.73c-4.74,4.17-6.32,11.06-6.32,18.17s1.58,14,6.32,18.18a13.19,13.19,0,0,0,9.26,3.73c12.76,0,16.14-11.41,16.14-21.91S863.46,1215.55,850.7,1215.55Z"/><path d="M937,1240.5H896.53c0,5.19,2,10.84,5.53,14.34a14.29,14.29,0,0,0,10.5,4.06c4.52,0,8.24-1.24,10.61-3.72a12.09,12.09,0,0,0,3.39-6.21h9.37a21,21,0,0,1-8.81,14.11,26.28,26.28,0,0,1-14.56,4.29,24.39,24.39,0,0,1-19-8.58c-4.74-5.53-7.11-13.1-7.11-21.22,0-6.89,1.24-13,4.4-18.29a24.47,24.47,0,0,1,21.57-12,23,23,0,0,1,17.38,7.34,29.45,29.45,0,0,1,7.23,20.09Zm-13.21-19.87c-2.37-3.16-6.21-5.19-11.29-5.19-10.39,0-15.47,8.47-15.7,16.82h30.49A20,20,0,0,0,923.74,1220.63Z"/><path d="M988.84,1265.9l-.67-7.45c-3.28,5.76-10.62,8.92-17,8.92-7,0-12.42-2.37-16.15-6.21-5.42-5.53-8.24-14.22-8.24-23.71,0-9.82,2.94-18.85,8.69-24.38,3.73-3.5,9-5.76,15.7-5.76,6.21,0,13.54,2.94,16.59,8.13v-31h9.6v81.51ZM982,1219.16a13.19,13.19,0,0,0-9.26-3.72c-12.76,0-16.15,11.4-16.15,21.9s3.39,21.9,16.15,21.9a13.19,13.19,0,0,0,9.26-3.72c4.74-4.18,6.32-11.07,6.32-18.18S986.7,1223.34,982,1219.16Z"/><path d="M1010.63,1195.68v-11.29h11.17v11.29Zm.67,70.22v-57.12h9.83v57.12Z"/><path d="M1057.73,1266.69c-12.31,0-15.7-7.79-15.7-15.46V1217H1031v-8.24H1042v-14.57l9.6-2.25v16.82h16.93V1217h-16.93v33.08c0,5.53,2.37,7.79,7.68,7.79a70.27,70.27,0,0,0,9.82-1v8.24A41.29,41.29,0,0,1,1057.73,1266.69Z"/><path d="M1079,1195.68v-11.29h11.18v11.29Zm.68,70.22v-57.12h9.83v57.12Z"/><path d="M1144.61,1260.71a25.73,25.73,0,0,1-34.55,0c-6.21-6.1-8.13-14.34-8.13-23.37s1.92-17.27,8.13-23.37a25.73,25.73,0,0,1,34.55,0c6.21,6.1,8.13,14.34,8.13,23.37S1150.82,1254.61,1144.61,1260.71Zm-7-41.09a15,15,0,0,0-20.55,0c-4.06,4.17-5.31,11.06-5.31,17.72s1.25,13.55,5.31,17.73a15,15,0,0,0,20.55,0c4.06-4.18,5.3-11.07,5.3-17.73S1141.67,1223.79,1137.61,1219.62Z"/><path d="M1200.6,1265.9v-36.24c0-8.58-3.5-13.66-12.53-13.66-5.53,0-9.94,3.62-12.42,8.81-1.92,4.18-2,10.16-2,14.56v26.53H1164v-57.12h8.36l.79,8.58c2.93-6.55,10.84-10,17.27-10,13,0,19.76,7.79,19.76,21v37.59Z"/><path d="M1276.8,1191.39c-5.08,0-8.13,3.16-8.13,7.79v9.6h16.49v8.13h-16.49v49h-9.59v-49h-10.39v-8.13h10.39v-10.16c0-8.58,6.66-15.36,16.59-15.36a59.79,59.79,0,0,1,10.61,1v8A69,69,0,0,0,1276.8,1191.39Z"/><path d="M1333.29,1260.71a25.72,25.72,0,0,1-34.54,0c-6.21-6.1-8.13-14.34-8.13-23.37s1.92-17.27,8.13-23.37a25.72,25.72,0,0,1,34.54,0c6.21,6.1,8.13,14.34,8.13,23.37S1339.5,1254.61,1333.29,1260.71Zm-7-41.09a15,15,0,0,0-20.54,0c-4.07,4.17-5.31,11.06-5.31,17.72s1.24,13.55,5.31,17.73a15,15,0,0,0,20.54,0c4.07-4.18,5.31-11.07,5.31-17.73S1330.36,1223.79,1326.29,1219.62Z"/><path d="M1380.31,1217.7a15.71,15.71,0,0,0-10.84,4.51c-4.63,4.41-5.19,12.31-5.19,18.29v25.4h-9.48v-57.12h8.46l.79,10c2.94-7,9.83-10.39,17-10.39a29.9,29.9,0,0,1,4.52.34v9.37A28.07,28.07,0,0,0,1380.31,1217.7Z"/><path d="M1424.9,1265.9v-80h53.51v9.26H1435v24.38h38.16V1229H1435v27.66h43.46v9.25Z"/><path d="M1512.7,1265.9h-10.39l-21.11-57.12h10l16.48,45.83,15.92-45.83h9.71Z"/><path d="M1587.73,1240.5h-40.42c0,5.19,2,10.84,5.53,14.34a14.29,14.29,0,0,0,10.5,4.06c4.52,0,8.24-1.24,10.61-3.72a12.09,12.09,0,0,0,3.39-6.21h9.37a21,21,0,0,1-8.81,14.11,26.28,26.28,0,0,1-14.56,4.29,24.37,24.37,0,0,1-19-8.58c-4.74-5.53-7.11-13.1-7.11-21.22,0-6.89,1.24-13,4.4-18.29a24.47,24.47,0,0,1,21.57-12,23,23,0,0,1,17.38,7.34,29.45,29.45,0,0,1,7.23,20.09Zm-13.21-19.87c-2.37-3.16-6.21-5.19-11.29-5.19-10.39,0-15.47,8.47-15.7,16.82H1578A20,20,0,0,0,1574.52,1220.63Z"/><path d="M1624.87,1217.7a15.69,15.69,0,0,0-10.84,4.51c-4.63,4.41-5.2,12.31-5.2,18.29v25.4h-9.48v-57.12h8.47l.79,10c2.93-7,9.82-10.39,17.05-10.39a29.87,29.87,0,0,1,4.51.34v9.37A27.9,27.9,0,0,0,1624.87,1217.7Z"/><path d="M1664,1277.64c-2.71,7.34-6.88,12.2-15.46,12.2a31.22,31.22,0,0,1-8.7-1.13v-8.36a26.4,26.4,0,0,0,6.78.91c4.06,0,7-1.47,8.58-5.76l3.61-9.6-22.8-57.12h10.83l16.83,45,16-45h10Z"/><path d="M1736.33,1260.71a25.72,25.72,0,0,1-34.54,0c-6.21-6.1-8.13-14.34-8.13-23.37s1.92-17.27,8.13-23.37a25.72,25.72,0,0,1,34.54,0c6.21,6.1,8.13,14.34,8.13,23.37S1742.54,1254.61,1736.33,1260.71Zm-7-41.09a15,15,0,0,0-20.54,0c-4.07,4.17-5.31,11.06-5.31,17.72s1.24,13.55,5.31,17.73a15,15,0,0,0,20.54,0c4.07-4.18,5.31-11.07,5.31-17.73S1733.4,1223.79,1729.33,1219.62Z"/><path d="M1793.46,1265.9v-36.24c0-8.58-3.5-13.66-12.54-13.66-5.53,0-9.93,3.62-12.41,8.81-1.92,4.18-2,10.16-2,14.56v26.53h-9.59v-57.12h8.35l.79,8.58c2.94-6.55,10.84-10,17.27-10,13,0,19.76,7.79,19.76,21v37.59Z"/><path d="M1865.14,1240.5h-40.42c0,5.19,2,10.84,5.54,14.34a14.25,14.25,0,0,0,10.5,4.06c4.51,0,8.24-1.24,10.61-3.72a12.09,12.09,0,0,0,3.39-6.21h9.37a21,21,0,0,1-8.81,14.11,26.3,26.3,0,0,1-14.56,4.29,24.36,24.36,0,0,1-19-8.58c-4.74-5.53-7.11-13.1-7.11-21.22,0-6.89,1.24-13,4.4-18.29a24.45,24.45,0,0,1,21.56-12,23,23,0,0,1,17.39,7.34,29.4,29.4,0,0,1,7.22,20.09Zm-13.21-19.87c-2.37-3.16-6.21-5.19-11.29-5.19-10.38,0-15.46,8.47-15.69,16.82h30.48A20,20,0,0,0,1851.93,1220.63Z"/></svg>