<svg id="Layer_1" data-name="Layer 1" xmlns="http://www.w3.org/2000/svg" viewBox="0 0 1920 1920"><defs><style>.cls-1{fill:#389bd7;}</style></defs><path d="M234.67,1139.19C315.14,1464.83,609.79,1707,959.94,1707c411.89,0,747-335.1,747-747s-335.1-747-747-747c-350.15,0-644.8,242.16-725.27,567.8L221.15,783A759.87,759.87,0,0,1,1659.73,664.37,759.67,759.67,0,0,1,260.15,1255.63a753.17,753.17,0,0,1-39-118.64Z"/><g id="GLEE_Logo_Pure" data-name="GLEE Logo Pure"><path d="M1306,855.29H1129.81c-17.12,0-23,5.87-23,23v47.46h194.74v63.61H1106.82v52.35c0,17.13,5.87,23,23,23h178.11v66.55H1070.61c-31.81,0-51.87-15.66-51.87-52.36V841.59c0-36.7,20.06-52.85,51.87-52.85H1306Z"/><path d="M362.32,1039.76c0,17.12-5.87,23-23,23H302.13c-68.5,0-91-22-91-102.75s22.51-102.75,91-102.75H440.45V788.74H268.37c-115,0-147.28,63.61-147.28,171.26s32.29,171.26,147.28,171.26H398.53c31.8,0,51.86-15.66,51.86-52.36V957.06H362.32Z"/><path d="M714.39,1126.07c-11.36-10.74-17.12-26.61-17.12-47.17v-14.19H605.5c-17.13,0-23-5.87-23-23V841.1c0-36.7-20.06-52.36-51.87-52.36H450.39v68.51h21c17.12,0,23,5.87,23,23V1078.9c0,36.7,20.06,52.36,51.87,52.36H720.92A48.94,48.94,0,0,1,714.39,1126.07Z"/><path d="M1025.91,1126.07c-11.36-10.74-17.12-26.61-17.12-47.17v-14.19H818.29c-17.13,0-23-5.87-23-23V989.36H975V925.75H795.29V878.29c0-17.13,5.87-23,23-23H979.4V788.74H759.08c-31.8,0-51.86,16.15-51.86,52.85V1078.9c0,36.7,20.06,52.36,51.86,52.36h273.37A48.41,48.41,0,0,1,1025.91,1126.07Z"/></g><path class="cls-1" d="M1114.66,1061.74c-.37-.21-.72-.44-1.06-.68C1113.94,1061.3,1114.29,1061.53,1114.66,1061.74Z"/><path class="cls-1" d="M1301.56,989.36H1106.82v52.35c0,8.57,1.46,14.32,5.07,17.93-3.61-3.61-5.07-9.36-5.07-17.93V989.36Z"/><path class="cls-1" d="M1106.82,878.29v47.46h0V878.29c0-13.38,3.58-19.9,13.31-22.1C1110.4,858.39,1106.82,864.91,1106.82,878.29Z"/><path class="cls-1" d="M1420.75,581.07c-143.64,0-268.61,79.92-332.87,197.72h228v86.45h-186.1c-7.59,0-10.08,1.35-10.88,2.16s-2.17,3.29-2.17,10.89V915.8h194.75v83.51H1116.76v42.4c0,7.6,1.36,10.08,2.17,10.89s3.29,2.16,10.88,2.16h188.06v86.45h-230c64.26,117.8,189.23,197.72,332.87,197.72,209.28,0,378.93-169.65,378.93-378.93S1630,581.07,1420.75,581.07Z"/><path class="cls-1" d="M1122.59,855.74c.86-.12,1.76-.22,2.7-.29C1124.35,855.52,1123.45,855.62,1122.59,855.74Z"/></svg>