<svg id="Layer_1" data-name="Layer 1" xmlns="http://www.w3.org/2000/svg" viewBox="0 0 1920 1920"><defs><style>.cls-1{fill:#389bd7;}</style></defs><path d="M1078.94,1140.28c66.27,131.87,202.85,222.57,360.22,222.57,222.13,0,402.85-180.72,402.85-402.85s-180.72-402.85-402.85-402.85c-155.85,0-291.31,89-358.27,218.76H1066a415.7,415.7,0,1,1-1.85,364.37Z"/><circle class="cls-1" cx="1586.46" cy="960" r="203.15"/><g id="GLEE_Logo_Pure" data-name="GLEE Logo Pure"><path d="M1293.67,852.8H1116.61c-17.21,0-23.11,5.9-23.11,23.11v47.71h195.75v63.94H1093.5v52.63c0,17.21,5.9,23.11,23.11,23.11h179v66.89H1057.1c-32,0-52.14-15.74-52.14-52.62V839c0-36.89,20.17-53.12,52.14-53.12h236.57Z"/><path d="M345.15,1038.22c0,17.21-5.9,23.12-23.11,23.12H284.66c-68.86,0-91.48-22.14-91.48-103.29s22.62-103.29,91.48-103.29h139V785.91h-173c-115.58,0-148,63.94-148,172.14s32.46,172.14,148,172.14H381.55c32,0,52.13-15.74,52.13-52.62V955.1H345.15Z"/><path d="M699,1125c-11.42-10.8-17.21-26.75-17.21-47.41V1063.3H589.59c-17.22,0-23.12-5.9-23.12-23.11V838.53c0-36.88-20.16-52.62-52.13-52.62H433.68v68.85h21.14c17.22,0,23.12,5.91,23.12,23.12v199.69c0,36.88,20.17,52.62,52.14,52.62H705.61A48.82,48.82,0,0,1,699,1125Z"/><path d="M1012.17,1125c-11.42-10.8-17.21-26.75-17.21-47.41V1063.3H803.48c-17.21,0-23.12-5.9-23.12-23.11V987.56H961V923.62H780.36V875.91c0-17.21,5.91-23.11,23.12-23.11H965.42V785.91H744c-32,0-52.14,16.23-52.14,53.12v238.54c0,36.88,20.17,52.62,52.14,52.62h274.77A48.82,48.82,0,0,1,1012.17,1125Z"/></g><path d="M163,1185.29l-.87-5c-2,3.37-6.58,5.76-11.23,5.76a15.67,15.67,0,0,1-11.12-4.25c-4.18-4.07-5.35-9.77-5.35-17.16,0-6.58.87-12.63,5.35-17a15.82,15.82,0,0,1,11.12-4.42,16.11,16.11,0,0,1,11.81,4.65,12.42,12.42,0,0,1,3.55,8h-5.41a7.85,7.85,0,0,0-1.87-4.54c-1.86-2.21-4.71-3.25-8.08-3.25a10.46,10.46,0,0,0-7.51,3.14c-3.37,3.49-3.61,9.07-3.61,13.38,0,4.13.3,10.06,3.73,13.56a10.06,10.06,0,0,0,7.39,3,10.55,10.55,0,0,0,7.5-2.85c2.74-2.67,3.55-6.69,3.55-10.47h-11v-4.83h15.71v22.23Z"/><path d="M187.23,1160.44a8.05,8.05,0,0,0-5.58,2.33c-2.39,2.27-2.68,6.34-2.68,9.42v13.1h-4.89v-29.44h4.37l.4,5.17c1.52-3.6,5.07-5.35,8.79-5.35a15.34,15.34,0,0,1,2.33.18v4.82A15,15,0,0,0,187.23,1160.44Z"/><path d="M218.53,1172.19H197.7a10.85,10.85,0,0,0,2.85,7.39,8.37,8.37,0,0,0,10.88.18,6.24,6.24,0,0,0,1.75-3.2H218a10.83,10.83,0,0,1-4.54,7.27A13.51,13.51,0,0,1,206,1186a12.54,12.54,0,0,1-9.78-4.42,16.69,16.69,0,0,1-3.66-10.94,18,18,0,0,1,2.26-9.42,12.62,12.62,0,0,1,11.12-6.17,11.85,11.85,0,0,1,9,3.78,15.19,15.19,0,0,1,3.72,10.36Zm-6.8-10.23a7,7,0,0,0-5.82-2.68c-5.36,0-8,4.36-8.09,8.67h15.71A10.3,10.3,0,0,0,211.73,1162Z"/><path d="M247.36,1185.69a4.19,4.19,0,0,1-4.25-4.48H243c-1.69,3-5.35,4.83-9.49,4.83-6.74,0-10.12-4.54-10.12-9.07,0-3.79,2.44-8.73,10.47-9.2l9-.52v-2.15a5.78,5.78,0,0,0-1.51-4.48c-1-.93-2.44-1.52-4.83-1.52-2.67,0-4.36.76-5.35,1.75a4.82,4.82,0,0,0-1.46,3.55h-4.82a8.66,8.66,0,0,1,2.56-6.17c2-2.09,5.47-3.14,9.07-3.14,5.7,0,9,2.44,10.36,5.64a11.31,11.31,0,0,1,.87,4.54v14.26c0,1.57.64,2,1.63,2a7.41,7.41,0,0,0,1.28-.17V1185A6.91,6.91,0,0,1,247.36,1185.69Zm-4.54-14.6-7.91.46c-3,.18-6.46,1.58-6.46,5.3,0,2.62,1.63,5.06,5.82,5.06a8.28,8.28,0,0,0,6-2.38,9.49,9.49,0,0,0,2.5-6.69Z"/><path d="M266,1185.69c-6.34,0-8.09-4-8.09-8v-17.63h-5.7v-4.24h5.7v-7.51l4.95-1.16v8.67h8.73v4.24h-8.73v17.05c0,2.85,1.22,4,4,4a36,36,0,0,0,5.07-.53v4.25A21.38,21.38,0,0,1,266,1185.69Z"/><path d="M292.8,1185.29V1144H298v36.43h19.84v4.83Z"/><path d="M341.77,1185.29l-.4-4.48c-1.52,3.37-5.3,5.17-8.73,5.17-6.69,0-10.07-4-10.07-10.82v-19.31h4.95v18.61c0,4.43,1.63,7,6.28,7a6.64,6.64,0,0,0,4.89-2.21c1.86-1.92,2.44-5.12,2.44-8.14v-15.3h4.95v29.44Z"/><path d="M372.44,1185.29v-18.68c0-4.42-1.81-7-6.46-7-2.85,0-5.12,1.86-6.4,4.54-1,2.15-1.05,5.23-1.05,7.5v13.68h-4.95v-29.44h4.31l.41,4.42c1.51-3.38,5.58-5.18,8.9-5.18,6.69,0,10.18,4,10.18,10.82v19.38Z"/><path d="M407.72,1185.69a4.19,4.19,0,0,1-4.25-4.48h-.12c-1.68,3-5.35,4.83-9.48,4.83-6.75,0-10.12-4.54-10.12-9.07,0-3.79,2.44-8.73,10.47-9.2l9-.52v-2.15a5.82,5.82,0,0,0-1.51-4.48c-1-.93-2.45-1.52-4.83-1.52-2.68,0-4.37.76-5.36,1.75a4.81,4.81,0,0,0-1.45,3.55H385.2a8.74,8.74,0,0,1,2.56-6.17c2-2.09,5.47-3.14,9.08-3.14,5.7,0,9,2.44,10.35,5.64a11.31,11.31,0,0,1,.88,4.54v14.26c0,1.57.64,2,1.63,2a7.41,7.41,0,0,0,1.28-.17V1185A6.91,6.91,0,0,1,407.72,1185.69Zm-4.54-14.6-7.91.46c-3,.18-6.46,1.58-6.46,5.3,0,2.62,1.63,5.06,5.82,5.06a8.28,8.28,0,0,0,6.05-2.38,9.54,9.54,0,0,0,2.5-6.69Z"/><path d="M430.33,1160.44a8.05,8.05,0,0,0-5.58,2.33c-2.39,2.27-2.68,6.34-2.68,9.42v13.1h-4.89v-29.44h4.37l.4,5.17c1.52-3.6,5.07-5.35,8.79-5.35a15.24,15.24,0,0,1,2.33.18v4.82A14.91,14.91,0,0,0,430.33,1160.44Z"/><path d="M453.31,1185.29V1144h27.58v4.78h-22.4v12.56h19.67v4.89H458.49v14.25h22.4v4.78Z"/><path d="M505.91,1185.29l-7.74-11.58-7.68,11.58h-5.64l10-15L485,1155.85h5.81l7.68,11.11,7.39-11.11h5.7l-9.94,14.42,10.24,15Z"/><path d="M538.84,1183.13a11.52,11.52,0,0,1-8.09,3c-3.2,0-7-1.51-8.55-4.19v16h-5v-42h4.36l.35,3.84c1.69-3,5.47-4.59,8.79-4.59a11.2,11.2,0,0,1,8.32,3.2c2.79,2.85,4.25,7.33,4.25,12.22C543.32,1175.63,541.8,1180.28,538.84,1183.13Zm-8.91-23.79a6.79,6.79,0,0,0-4.77,1.92c-2.44,2.15-3.26,5.7-3.26,9.36s.82,7.22,3.26,9.37a6.79,6.79,0,0,0,4.77,1.92c6.58,0,8.32-5.88,8.32-11.29S536.51,1159.34,529.93,1159.34Z"/><path d="M574.65,1172.19H553.82a10.8,10.8,0,0,0,2.85,7.39,8.37,8.37,0,0,0,10.88.18,6.24,6.24,0,0,0,1.74-3.2h4.83a10.79,10.79,0,0,1-4.54,7.27,13.51,13.51,0,0,1-7.5,2.21,12.55,12.55,0,0,1-9.78-4.42,16.69,16.69,0,0,1-3.66-10.94,17.93,17.93,0,0,1,2.27-9.42,12.6,12.6,0,0,1,11.11-6.17,11.84,11.84,0,0,1,9,3.78,15.15,15.15,0,0,1,3.72,10.36ZM567.84,1162a7,7,0,0,0-5.82-2.68c-5.35,0-8,4.36-8.09,8.67h15.71A10.3,10.3,0,0,0,567.84,1162Z"/><path d="M601.65,1185.29l-.34-3.84c-1.69,3-5.47,4.59-8.79,4.59a11.2,11.2,0,0,1-8.32-3.2c-2.79-2.85-4.25-7.33-4.25-12.22,0-5.06,1.52-9.71,4.48-12.56a11.52,11.52,0,0,1,8.09-3c3.2,0,7,1.51,8.55,4.19v-16H606v42Zm-3.54-24.09a6.8,6.8,0,0,0-4.78-1.92c-6.57,0-8.32,5.88-8.32,11.29s1.75,11.28,8.32,11.28a6.8,6.8,0,0,0,4.78-1.92c2.44-2.15,3.25-5.7,3.25-9.36S600.55,1163.35,598.11,1161.2Z"/><path d="M612.88,1149.1v-5.82h5.76v5.82Zm.35,36.19v-29.44h5.06v29.44Z"/><path d="M637.43,1185.69c-6.34,0-8.09-4-8.09-8v-17.63h-5.7v-4.24h5.7v-7.51l4.95-1.16v8.67H643v4.24h-8.73v17.05c0,2.85,1.22,4,4,4a36,36,0,0,0,5.06-.53v4.25A21.32,21.32,0,0,1,637.43,1185.69Z"/><path d="M648.68,1149.1v-5.82h5.76v5.82Zm.35,36.19v-29.44h5.06v29.44Z"/><path d="M682.49,1182.61a13.27,13.27,0,0,1-17.81,0c-3.2-3.14-4.19-7.39-4.19-12s1-8.91,4.19-12a13.27,13.27,0,0,1,17.81,0c3.2,3.14,4.19,7.39,4.19,12S685.69,1179.47,682.49,1182.61Zm-3.61-21.18a7.75,7.75,0,0,0-10.59,0c-2.09,2.15-2.73,5.7-2.73,9.14s.64,7,2.73,9.13a7.73,7.73,0,0,0,10.59,0c2.09-2.15,2.73-5.7,2.73-9.13S681,1163.58,678.88,1161.43Z"/><path d="M711.34,1185.29v-18.68c0-4.42-1.8-7-6.45-7-2.85,0-5.12,1.86-6.4,4.54-1,2.15-1,5.23-1,7.5v13.68h-5v-29.44h4.31l.41,4.42c1.51-3.38,5.58-5.18,8.9-5.18,6.69,0,10.18,4,10.18,10.82v19.38Z"/><path d="M750.62,1146.89a3.83,3.83,0,0,0-4.19,4v4.95h8.49V1160h-8.49v25.26h-4.95V1160h-5.35v-4.18h5.35v-5.24c0-4.42,3.44-7.91,8.56-7.91a30.59,30.59,0,0,1,5.46.52v4.13A36.55,36.55,0,0,0,750.62,1146.89Z"/><path d="M780,1182.61a13.26,13.26,0,0,1-17.8,0c-3.2-3.14-4.19-7.39-4.19-12s1-8.91,4.19-12a13.26,13.26,0,0,1,17.8,0c3.2,3.14,4.19,7.39,4.19,12S783.2,1179.47,780,1182.61Zm-3.61-21.18a7.75,7.75,0,0,0-10.59,0c-2.09,2.15-2.73,5.7-2.73,9.14s.64,7,2.73,9.13a7.73,7.73,0,0,0,10.59,0c2.1-2.15,2.74-5.7,2.74-9.13S778.49,1163.58,776.39,1161.43Z"/><path d="M804.51,1160.44a8.1,8.1,0,0,0-5.59,2.33c-2.38,2.27-2.68,6.34-2.68,9.42v13.1h-4.88v-29.44h4.36l.41,5.17c1.51-3.6,5.06-5.35,8.78-5.35a15.24,15.24,0,0,1,2.33.18v4.82A14.8,14.8,0,0,0,804.51,1160.44Z"/><path d="M827.49,1185.29V1144h27.58v4.78h-22.4v12.56h19.66v4.89H832.67v14.25h22.4v4.78Z"/><path d="M873,1185.29h-5.36l-10.88-29.44H862l8.5,23.62,8.2-23.62h5Z"/><path d="M912,1172.19H891.13a10.8,10.8,0,0,0,2.85,7.39,8.37,8.37,0,0,0,10.88.18,6.24,6.24,0,0,0,1.74-3.2h4.83a10.82,10.82,0,0,1-4.53,7.27,13.56,13.56,0,0,1-7.51,2.21,12.51,12.51,0,0,1-9.77-4.42,16.65,16.65,0,0,1-3.67-10.94,17.93,17.93,0,0,1,2.27-9.42,12.6,12.6,0,0,1,11.11-6.17,11.84,11.84,0,0,1,9,3.78,15.2,15.2,0,0,1,3.73,10.36ZM905.15,1162a7,7,0,0,0-5.82-2.68c-5.35,0-8,4.36-8.09,8.67H907A10.3,10.3,0,0,0,905.15,1162Z"/><path d="M931.1,1160.44a8.1,8.1,0,0,0-5.59,2.33c-2.38,2.27-2.67,6.34-2.67,9.42v13.1H918v-29.44h4.36l.41,5.17c1.51-3.6,5.06-5.35,8.79-5.35a15.11,15.11,0,0,1,2.32.18v4.82A14.8,14.8,0,0,0,931.1,1160.44Z"/><path d="M951.49,1191.34c-1.4,3.78-3.55,6.28-8,6.28A16,16,0,0,1,939,1197v-4.31a13.55,13.55,0,0,0,3.49.47,4.18,4.18,0,0,0,4.42-3l1.86-4.94-11.75-29.44h5.59l8.67,23.21,8.26-23.21h5.18Z"/><path d="M989,1182.61a13.26,13.26,0,0,1-17.8,0c-3.2-3.14-4.19-7.39-4.19-12s1-8.91,4.19-12a13.26,13.26,0,0,1,17.8,0c3.2,3.14,4.19,7.39,4.19,12S992.24,1179.47,989,1182.61Zm-3.61-21.18a7.74,7.74,0,0,0-10.58,0c-2.1,2.15-2.74,5.7-2.74,9.14s.64,7,2.74,9.13a7.71,7.71,0,0,0,10.58,0c2.1-2.15,2.74-5.7,2.74-9.13S987.53,1163.58,985.43,1161.43Z"/><path d="M1018.48,1185.29v-18.68c0-4.42-1.8-7-6.46-7-2.85,0-5.12,1.86-6.4,4.54-1,2.15-1,5.23-1,7.5v13.68h-5v-29.44h4.31l.4,4.42c1.52-3.38,5.59-5.18,8.91-5.18,6.69,0,10.18,4,10.18,10.82v19.38Z"/><path d="M1055.43,1172.19H1034.6a10.85,10.85,0,0,0,2.85,7.39,8.37,8.37,0,0,0,10.88.18,6.24,6.24,0,0,0,1.74-3.2h4.83a10.82,10.82,0,0,1-4.53,7.27,13.56,13.56,0,0,1-7.51,2.21,12.51,12.51,0,0,1-9.77-4.42,16.65,16.65,0,0,1-3.67-10.94,17.93,17.93,0,0,1,2.27-9.42,12.6,12.6,0,0,1,11.11-6.17,11.84,11.84,0,0,1,9,3.78,15.2,15.2,0,0,1,3.73,10.36Zm-6.81-10.23a7,7,0,0,0-5.82-2.68c-5.35,0-8,4.36-8.09,8.67h15.71A10.3,10.3,0,0,0,1048.62,1162Z"/></svg>