<svg id="Layer_1" data-name="Layer 1" xmlns="http://www.w3.org/2000/svg" viewBox="0 0 1920 1920"><defs><style>.cls-1{fill:#389bd7;}</style></defs><path d="M1064,1147.41c68.89,137.08,210.87,231.36,374.46,231.36,230.91,0,418.77-187.86,418.77-418.77s-187.86-418.77-418.77-418.77c-162,0-302.82,92.47-372.44,227.4h-15.51a432.13,432.13,0,1,1-1.93,378.77Z"/><circle class="cls-1" cx="1591.55" cy="960" r="211.18"/><g id="GLEE_Logo_Pure" data-name="GLEE Logo Pure"><path d="M1287.18,848.56H1103.12c-17.89,0-24,6.13-24,24v49.59h203.49v66.47H1079.09v54.71c0,17.89,6.14,24,24,24h186.11v69.53h-248c-33.24,0-54.2-16.36-54.2-54.71v-248c0-38.34,21-55.21,54.2-55.21h245.92Z"/><path d="M301.17,1041.31c0,17.9-6.14,24-24,24H238.28c-71.58,0-95.1-23-95.1-107.37S166.7,850.6,238.28,850.6H382.8V779H203C82.85,779,49.11,845.49,49.11,958s33.74,179,153.89,179H339c33.24,0,54.2-16.36,54.2-54.71V954.91h-92Z"/><path d="M669,1131.5c-11.87-11.22-17.88-27.81-17.88-49.29v-14.82h-95.9c-17.89,0-24-6.14-24-24V833.73c0-38.34-21-54.7-54.19-54.7H393.2V850.6h22c17.9,0,24,6.14,24,24v207.58c0,38.35,21,54.71,54.2,54.71H675.87A50.5,50.5,0,0,1,669,1131.5Z"/><path d="M994.55,1131.5c-11.87-11.22-17.88-27.81-17.88-49.29v-14.82H777.61c-17.89,0-24-6.14-24-24V988.65H941.35V922.18H753.58V872.59c0-17.9,6.14-24,24-24H946V779H715.75c-33.24,0-54.2,16.88-54.2,55.22v248c0,38.35,21,54.71,54.2,54.71h285.63A50.5,50.5,0,0,1,994.55,1131.5Z"/></g><path d="M111.78,1194.19l-.91-5.14c-2.11,3.51-6.83,6-11.67,6a16.24,16.24,0,0,1-11.55-4.42c-4.36-4.23-5.56-10.16-5.56-17.84,0-6.83.9-13.12,5.56-17.66a16.45,16.45,0,0,1,11.55-4.6,16.74,16.74,0,0,1,12.28,4.84,12.85,12.85,0,0,1,3.69,8.35h-5.63a8.1,8.1,0,0,0-1.93-4.72c-1.94-2.3-4.9-3.39-8.41-3.39a10.89,10.89,0,0,0-7.8,3.27c-3.51,3.63-3.75,9.44-3.75,13.91,0,4.3.3,10.46,3.87,14.09A10.45,10.45,0,0,0,99.2,1190a10.94,10.94,0,0,0,7.8-3c2.85-2.78,3.69-7,3.69-10.88H99.2v-5h16.33v23.1Z"/><path d="M137,1168.37a8.35,8.35,0,0,0-5.8,2.42c-2.48,2.35-2.79,6.59-2.79,9.79v13.61h-5.08v-30.6h4.54l.42,5.38c1.58-3.75,5.27-5.56,9.14-5.56a16.53,16.53,0,0,1,2.42.18v5A15.24,15.24,0,0,0,137,1168.37Z"/><path d="M169.54,1180.58H147.89a11.26,11.26,0,0,0,3,7.68,8.71,8.71,0,0,0,11.31.19,6.55,6.55,0,0,0,1.82-3.33h5a11.29,11.29,0,0,1-4.72,7.56,14.12,14.12,0,0,1-7.8,2.3,13,13,0,0,1-10.16-4.6,17.32,17.32,0,0,1-3.81-11.37,18.64,18.64,0,0,1,2.36-9.8,13.08,13.08,0,0,1,11.55-6.41,12.31,12.31,0,0,1,9.31,3.93,15.77,15.77,0,0,1,3.87,10.77Zm-7.07-10.64a7.25,7.25,0,0,0-6.05-2.78c-5.57,0-8.29,4.53-8.41,9h16.33A10.75,10.75,0,0,0,162.47,1169.94Z"/><path d="M199.51,1194.61a4.34,4.34,0,0,1-4.41-4.65H195c-1.75,3.08-5.56,5-9.85,5-7,0-10.53-4.72-10.53-9.44,0-3.93,2.54-9.07,10.89-9.55l9.31-.55v-2.24a6,6,0,0,0-1.57-4.65c-1-1-2.54-1.58-5-1.58-2.78,0-4.54.79-5.56,1.82a5,5,0,0,0-1.52,3.69h-5a9,9,0,0,1,2.67-6.41c2-2.18,5.68-3.27,9.43-3.27,5.93,0,9.32,2.54,10.77,5.87a11.77,11.77,0,0,1,.9,4.71v14.82c0,1.64.67,2.06,1.7,2.06a7.57,7.57,0,0,0,1.33-.18v3.81A7.18,7.18,0,0,1,199.51,1194.61Zm-4.72-15.18-8.22.49c-3.09.18-6.72,1.63-6.72,5.5,0,2.72,1.7,5.26,6.05,5.26a8.59,8.59,0,0,0,6.29-2.48,9.83,9.83,0,0,0,2.6-7Z"/><path d="M218.87,1194.61c-6.6,0-8.41-4.17-8.41-8.28V1168h-5.93v-4.41h5.93v-7.8l5.14-1.21v9h9.07V1168H215.6v17.72c0,3,1.27,4.18,4.11,4.18a37.29,37.29,0,0,0,5.26-.55v4.42A22.25,22.25,0,0,1,218.87,1194.61Z"/><path d="M246.75,1194.19v-42.88h5.38v37.86h20.62v5Z"/><path d="M297.65,1194.19l-.42-4.66c-1.57,3.51-5.5,5.39-9.07,5.39-7,0-10.46-4.18-10.46-11.25v-20.08h5.14v19.35c0,4.6,1.69,7.32,6.53,7.32a6.91,6.91,0,0,0,5.08-2.3c1.93-2,2.54-5.32,2.54-8.47v-15.9h5.14v30.6Z"/><path d="M329.53,1194.19v-19.41c0-4.6-1.88-7.32-6.71-7.32-3,0-5.33,1.93-6.66,4.72-1,2.23-1.09,5.44-1.09,7.8v14.21h-5.14v-30.6h4.48l.42,4.59c1.57-3.5,5.81-5.38,9.25-5.38,7,0,10.59,4.17,10.59,11.25v20.14Z"/><path d="M366.2,1194.61a4.34,4.34,0,0,1-4.41-4.65h-.12c-1.76,3.08-5.57,5-9.86,5-7,0-10.52-4.72-10.52-9.44,0-3.93,2.54-9.07,10.88-9.55l9.32-.55v-2.24a6,6,0,0,0-1.58-4.65c-1-1-2.54-1.58-5-1.58-2.78,0-4.53.79-5.56,1.82a5,5,0,0,0-1.51,3.69h-5a9.07,9.07,0,0,1,2.66-6.41c2.06-2.18,5.68-3.27,9.43-3.27,5.93,0,9.32,2.54,10.77,5.87a11.78,11.78,0,0,1,.91,4.71v14.82c0,1.64.66,2.06,1.69,2.06a7.4,7.4,0,0,0,1.33-.18v3.81A7.18,7.18,0,0,1,366.2,1194.61Zm-4.71-15.18-8.23.49c-3.08.18-6.71,1.63-6.71,5.5,0,2.72,1.69,5.26,6.05,5.26a8.62,8.62,0,0,0,6.29-2.48,9.87,9.87,0,0,0,2.6-7Z"/><path d="M389.71,1168.37a8.35,8.35,0,0,0-5.8,2.42c-2.48,2.35-2.78,6.59-2.78,9.79v13.61H376v-30.6h4.54L381,1169c1.58-3.75,5.27-5.56,9.14-5.56a16.53,16.53,0,0,1,2.42.18v5A15.24,15.24,0,0,0,389.71,1168.37Z"/><path d="M413.6,1194.19v-42.88h28.67v5H419v13.06h20.44v5.08H419v14.82h23.28v5Z"/><path d="M468.28,1194.19l-8-12-8,12h-5.86l10.4-15.6-10.28-15h6l8,11.55,7.68-11.55h5.93l-10.35,15,10.65,15.6Z"/><path d="M502.51,1192a12,12,0,0,1-8.41,3.09c-3.33,0-7.26-1.58-8.89-4.36v16.64h-5.14v-43.67h4.53l.37,4c1.75-3.09,5.68-4.78,9.13-4.78a11.65,11.65,0,0,1,8.65,3.33c2.9,3,4.41,7.62,4.41,12.7C507.16,1184.15,505.59,1189,502.51,1192Zm-9.26-24.73a7,7,0,0,0-5,2c-2.54,2.24-3.38,5.93-3.38,9.74s.84,7.5,3.38,9.74a7,7,0,0,0,5,2c6.84,0,8.65-6.11,8.65-11.73S500.09,1167.22,493.25,1167.22Z"/><path d="M539.73,1180.58H518.08a11.26,11.26,0,0,0,3,7.68,8.71,8.71,0,0,0,11.31.19,6.55,6.55,0,0,0,1.82-3.33h5a11.29,11.29,0,0,1-4.72,7.56,14.12,14.12,0,0,1-7.8,2.3,13,13,0,0,1-10.16-4.6A17.32,17.32,0,0,1,512.7,1179a18.64,18.64,0,0,1,2.36-9.8,13.09,13.09,0,0,1,11.55-6.41,12.31,12.31,0,0,1,9.31,3.93,15.77,15.77,0,0,1,3.87,10.77Zm-7.07-10.64a7.25,7.25,0,0,0-6-2.78c-5.57,0-8.29,4.53-8.41,9h16.33A10.68,10.68,0,0,0,532.66,1169.94Z"/><path d="M567.81,1194.19l-.36-4c-1.76,3.08-5.69,4.78-9.14,4.78a11.65,11.65,0,0,1-8.65-3.33c-2.9-3-4.41-7.62-4.41-12.7,0-5.26,1.57-10.1,4.66-13.06a11.94,11.94,0,0,1,8.4-3.09c3.33,0,7.26,1.57,8.89,4.36v-16.64h5.14v43.67Zm-3.69-25a7,7,0,0,0-5-2c-6.84,0-8.65,6.11-8.65,11.73s1.81,11.73,8.65,11.73a7,7,0,0,0,5-2c2.54-2.24,3.39-5.93,3.39-9.74S566.66,1171.39,564.12,1169.15Z"/><path d="M579.48,1156.57v-6h6v6Zm.36,37.62v-30.6h5.27v30.6Z"/><path d="M605,1194.61c-6.59,0-8.41-4.17-8.41-8.28V1168h-5.93v-4.41h5.93v-7.8l5.14-1.21v9h9.07V1168h-9.07v17.72c0,3,1.27,4.18,4.12,4.18a37.49,37.49,0,0,0,5.26-.55v4.42A22.34,22.34,0,0,1,605,1194.61Z"/><path d="M616.7,1156.57v-6h6v6Zm.36,37.62v-30.6h5.26v30.6Z"/><path d="M651.84,1191.41a13.78,13.78,0,0,1-18.51,0c-3.33-3.27-4.36-7.68-4.36-12.52s1-9.25,4.36-12.52a13.78,13.78,0,0,1,18.51,0c3.32,3.27,4.35,7.68,4.35,12.52S655.16,1188.14,651.84,1191.41Zm-3.75-22a8.07,8.07,0,0,0-11,0c-2.18,2.24-2.85,5.93-2.85,9.5s.67,7.26,2.85,9.49a8,8,0,0,0,11,0c2.17-2.23,2.84-5.92,2.84-9.49S650.26,1171.63,648.09,1169.39Z"/><path d="M681.83,1194.19v-19.41c0-4.6-1.87-7.32-6.71-7.32-3,0-5.32,1.93-6.65,4.72-1,2.23-1.09,5.44-1.09,7.8v14.21h-5.14v-30.6h4.47l.43,4.59c1.57-3.5,5.8-5.38,9.25-5.38,7,0,10.59,4.17,10.59,11.25v20.14Z"/><path d="M722.66,1154.27a4,4,0,0,0-4.35,4.18v5.14h8.83v4.35h-8.83v26.25h-5.15v-26.25H707.6v-4.35h5.56v-5.45c0-4.59,3.57-8.22,8.89-8.22a32.07,32.07,0,0,1,5.69.54v4.3A37.24,37.24,0,0,0,722.66,1154.27Z"/><path d="M753.2,1191.41a13.77,13.77,0,0,1-18.5,0c-3.33-3.27-4.36-7.68-4.36-12.52s1-9.25,4.36-12.52a13.77,13.77,0,0,1,18.5,0c3.33,3.27,4.36,7.68,4.36,12.52S756.53,1188.14,753.2,1191.41Zm-3.75-22a8.06,8.06,0,0,0-11,0c-2.18,2.24-2.85,5.93-2.85,9.5s.67,7.26,2.85,9.49a8,8,0,0,0,11,0c2.18-2.23,2.85-5.92,2.85-9.49S751.63,1171.63,749.45,1169.39Z"/><path d="M778.68,1168.37a8.37,8.37,0,0,0-5.81,2.42c-2.48,2.35-2.78,6.59-2.78,9.79v13.61H765v-30.6h4.54L770,1169c1.57-3.75,5.26-5.56,9.13-5.56a16.43,16.43,0,0,1,2.42.18v5A15.13,15.13,0,0,0,778.68,1168.37Z"/><path d="M802.57,1194.19v-42.88h28.67v5H808v13.06h20.44v5.08H808v14.82h23.29v5Z"/><path d="M849.9,1194.19h-5.57L833,1163.59h5.39l8.83,24.55,8.52-24.55H861Z"/><path d="M890.38,1180.58H868.72a11.23,11.23,0,0,0,3,7.68,8.71,8.71,0,0,0,11.31.19,6.54,6.54,0,0,0,1.81-3.33h5a11.26,11.26,0,0,1-4.72,7.56,14.07,14.07,0,0,1-7.8,2.3,13.06,13.06,0,0,1-10.16-4.6,17.32,17.32,0,0,1-3.81-11.37,18.74,18.74,0,0,1,2.36-9.8,13.1,13.1,0,0,1,11.55-6.41,12.33,12.33,0,0,1,9.32,3.93,15.77,15.77,0,0,1,3.87,10.77Zm-7.08-10.64a7.25,7.25,0,0,0-6-2.78c-5.56,0-8.28,4.53-8.4,9h16.33A10.68,10.68,0,0,0,883.3,1169.94Z"/><path d="M910.28,1168.37a8.37,8.37,0,0,0-5.81,2.42c-2.48,2.35-2.78,6.59-2.78,9.79v13.61h-5.08v-30.6h4.53l.43,5.38c1.57-3.75,5.26-5.56,9.13-5.56a16.43,16.43,0,0,1,2.42.18v5A15.2,15.2,0,0,0,910.28,1168.37Z"/><path d="M931.47,1200.48c-1.45,3.93-3.69,6.53-8.28,6.53a16.88,16.88,0,0,1-4.66-.6v-4.48a14,14,0,0,0,3.63.49,4.36,4.36,0,0,0,4.6-3.09l1.93-5.14-12.22-30.6h5.81l9,24.13,8.59-24.13h5.38Z"/><path d="M970.51,1191.41a13.78,13.78,0,0,1-18.51,0c-3.33-3.27-4.35-7.68-4.35-12.52s1-9.25,4.35-12.52a13.78,13.78,0,0,1,18.51,0c3.32,3.27,4.35,7.68,4.35,12.52S973.83,1188.14,970.51,1191.41Zm-3.75-22a8.07,8.07,0,0,0-11,0c-2.18,2.24-2.84,5.93-2.84,9.5s.66,7.26,2.84,9.49a8,8,0,0,0,11,0c2.18-2.23,2.84-5.92,2.84-9.49S968.94,1171.63,966.76,1169.39Z"/><path d="M1001.11,1194.19v-19.41c0-4.6-1.87-7.32-6.71-7.32-3,0-5.32,1.93-6.65,4.72-1,2.23-1.09,5.44-1.09,7.8v14.21h-5.14v-30.6H986l.43,4.59c1.57-3.5,5.8-5.38,9.25-5.38,7,0,10.58,4.17,10.58,11.25v20.14Z"/><path d="M1039.52,1180.58h-21.65a11.22,11.22,0,0,0,3,7.68,8.71,8.71,0,0,0,11.31.19,6.47,6.47,0,0,0,1.81-3.33h5a11.25,11.25,0,0,1-4.71,7.56,14.12,14.12,0,0,1-7.81,2.3,13.06,13.06,0,0,1-10.16-4.6,17.32,17.32,0,0,1-3.81-11.37,18.74,18.74,0,0,1,2.36-9.8,13.1,13.1,0,0,1,11.55-6.41,12.32,12.32,0,0,1,9.32,3.93,15.77,15.77,0,0,1,3.87,10.77Zm-7.08-10.64a7.23,7.23,0,0,0-6-2.78c-5.56,0-8.28,4.53-8.4,9h16.33A10.68,10.68,0,0,0,1032.44,1169.94Z"/></svg>