<svg id="Layer_1" data-name="Layer 1" xmlns="http://www.w3.org/2000/svg" viewBox="0 0 1920 1920"><g id="GLEE_Logo_Pure" data-name="GLEE Logo Pure">
<path d="M1554.51,854.75H1377.45c-17.21,0-23.11,5.9-23.11,23.11v47.71h195.75v63.94H1354.34v52.63c0,17.21,5.9,23.11,23.11,23.11h179v66.89H1317.94c-32,0-52.13-15.74-52.13-52.62V841c0-36.89,20.16-53.12,52.13-53.12h236.57Z"/>
<path d="M606,1040.17c0,17.21-5.9,23.12-23.11,23.12H545.5c-68.86,0-91.48-22.14-91.48-103.29s22.62-103.29,91.48-103.29h139V787.86h-173c-115.58,0-148,63.94-148,172.14s32.46,172.14,148,172.14H642.39c32,0,52.14-15.74,52.14-52.62V957.05H606Z"/>
<path d="M959.88,1126.93c-11.42-10.8-17.21-26.75-17.21-47.41v-14.27H850.43c-17.22,0-23.12-5.9-23.12-23.11V840.48c0-36.88-20.16-52.62-52.13-52.62H694.53v68.85h21.14c17.21,0,23.11,5.91,23.11,23.12v199.69c0,36.88,20.17,52.62,52.14,52.62H966.45A48.82,48.82,0,0,1,959.88,1126.93Z"/>
<path d="M1273,1126.93c-11.41-10.8-17.2-26.75-17.2-47.41v-14.27H1064.32c-17.21,0-23.12-5.9-23.12-23.11V989.51h180.64V925.57H1041.2V877.86c0-17.21,5.91-23.11,23.12-23.11h161.94V787.86H1004.81c-32,0-52.14,16.23-52.14,53.12v238.54c0,36.88,20.17,52.62,52.14,52.62h274.77A49.46,49.46,0,0,1,1273,1126.93Z"/></g>
<path d="M423.9,1204.53l-1.11-6.28c-2.59,4.28-8.36,7.32-14.27,7.32a19.87,19.87,0,0,1-14.12-5.4c-5.32-5.18-6.8-12.42-6.8-21.81,0-8.35,1.11-16,6.8-21.59a20.11,20.11,0,0,1,14.12-5.62c5.91,0,11.38,2.07,15,5.92a15.78,15.78,0,0,1,4.51,10.2h-6.88a10,10,0,0,0-2.36-5.77c-2.37-2.8-6-4.14-10.28-4.14a13.32,13.32,0,0,0-9.54,4c-4.29,4.43-4.58,11.53-4.58,17,0,5.25.37,12.79,4.73,17.22a12.76,12.76,0,0,0,9.39,3.78,13.41,13.41,0,0,0,9.54-3.63c3.47-3.4,4.51-8.5,4.51-13.3H408.52v-6.14h20v28.24Z"/>
<path d="M454.72,1173a10.28,10.28,0,0,0-7.1,3c-3,2.88-3.4,8.06-3.4,12v16.63H438v-37.41h5.55l.52,6.58c1.92-4.58,6.43-6.8,11.16-6.8a19.66,19.66,0,0,1,3,.22v6.14A18.59,18.59,0,0,0,454.72,1173Z"/>
<path d="M494.49,1187.9H468a13.8,13.8,0,0,0,3.62,9.39,9.35,9.35,0,0,0,6.87,2.66c3,0,5.4-.82,7-2.44a7.92,7.92,0,0,0,2.22-4.07h6.14a13.78,13.78,0,0,1-5.77,9.24,17.19,17.19,0,0,1-9.54,2.81,16,16,0,0,1-12.42-5.62,21.2,21.2,0,0,1-4.65-13.9,22.8,22.8,0,0,1,2.88-12,16,16,0,0,1,14.12-7.84,15.06,15.06,0,0,1,11.39,4.81,19.29,19.29,0,0,1,4.73,13.16Zm-8.65-13a8.89,8.89,0,0,0-7.39-3.4c-6.8,0-10.13,5.55-10.28,11h20A13.09,13.09,0,0,0,485.84,1174.88Z"/>
<path d="M530.78,1205.05c-3.32,0-5.39-2.52-5.39-5.69h-.15c-2.15,3.77-6.8,6.13-12,6.13-8.58,0-12.87-5.76-12.87-11.53,0-4.81,3.11-11.09,13.31-11.68l11.39-.67v-2.73c0-1.85-.23-4.14-1.93-5.7-1.25-1.18-3.1-1.92-6.13-1.92-3.4,0-5.55,1-6.8,2.22a6.1,6.1,0,0,0-1.85,4.51h-6.14a11.1,11.1,0,0,1,3.26-7.84c2.51-2.66,6.94-4,11.53-4,7.24,0,11.38,3.11,13.16,7.17a14.34,14.34,0,0,1,1.11,5.77v18.11c0,2,.81,2.52,2.07,2.52a8.78,8.78,0,0,0,1.62-.23v4.66A8.63,8.63,0,0,1,530.78,1205.05ZM525,1186.49l-10.06.59c-3.77.22-8.2,2-8.2,6.73,0,3.33,2.07,6.43,7.39,6.43a10.55,10.55,0,0,0,7.69-3,12.06,12.06,0,0,0,3.18-8.5Z"/>
<path d="M554.44,1205.05c-8.06,0-10.28-5.1-10.28-10.13v-22.4h-7.24v-5.4h7.24v-9.53l6.29-1.48v11h11.08v5.4H550.45v21.66c0,3.62,1.55,5.1,5,5.1a46.5,46.5,0,0,0,6.43-.66V1204A26.76,26.76,0,0,1,554.44,1205.05Z"/>
<path d="M588.52,1204.53v-52.41h6.58v46.27h25.21v6.14Z"/>
<path d="M650.41,1204.53l-.52-5.69c-1.92,4.29-6.73,6.58-11.09,6.58-8.5,0-12.79-5.1-12.79-13.75v-24.55h6.28v23.66c0,5.62,2.07,9,8,9a8.46,8.46,0,0,0,6.21-2.81c2.36-2.44,3.1-6.51,3.1-10.35v-19.45h6.29v37.41Z"/>
<path d="M689.36,1204.53V1180.8c0-5.62-2.29-9-8.2-9-3.62,0-6.51,2.37-8.13,5.77-1.26,2.74-1.34,6.65-1.34,9.54v17.37h-6.28v-37.41h5.47l.52,5.62c1.92-4.29,7.1-6.58,11.31-6.58,8.5,0,12.94,5.1,12.94,13.75v24.62Z"/>
<path d="M733.84,1205.05c-3.33,0-5.4-2.52-5.4-5.69h-.15c-2.14,3.77-6.8,6.13-12,6.13-8.57,0-12.86-5.76-12.86-11.53,0-4.81,3.1-11.09,13.31-11.68l11.38-.67v-2.73c0-1.85-.22-4.14-1.92-5.7-1.26-1.18-3.11-1.92-6.14-1.92-3.4,0-5.54,1-6.8,2.22a6.13,6.13,0,0,0-1.85,4.51h-6.13a11.09,11.09,0,0,1,3.25-7.84c2.51-2.66,6.95-4,11.53-4,7.25,0,11.39,3.11,13.16,7.17a14.34,14.34,0,0,1,1.11,5.77v18.11c0,2,.81,2.52,2.07,2.52a8.79,8.79,0,0,0,1.63-.23v4.66A8.65,8.65,0,0,1,733.84,1205.05Zm-5.77-18.56-10.05.59c-3.77.22-8.21,2-8.21,6.73,0,3.33,2.07,6.43,7.39,6.43a10.52,10.52,0,0,0,7.69-3,12.06,12.06,0,0,0,3.18-8.5Z"/>
<path d="M762.22,1173a10.26,10.26,0,0,0-7.1,3c-3,2.88-3.4,8.06-3.4,12v16.63h-6.21v-37.41h5.54l.52,6.58c1.92-4.58,6.43-6.8,11.16-6.8a19.66,19.66,0,0,1,3,.22v6.14A18.56,18.56,0,0,0,762.22,1173Z"/>
<path d="M791.41,1204.53v-52.41h35.05v6.06H798v16h25v6.21H798v18.11h28.47v6.06Z"/>
<path d="M858.24,1204.53l-9.83-14.71-9.76,14.71h-7.17l12.72-19.07-12.57-18.34H839l9.76,14.12,9.39-14.12h7.24l-12.64,18.34,13,19.07Z"/>
<path d="M899.74,1201.79a14.64,14.64,0,0,1-10.28,3.78c-4.07,0-8.87-1.93-10.87-5.33v20.33h-6.28V1167.2h5.54l.45,4.88c2.14-3.77,7-5.84,11.16-5.84A14.26,14.26,0,0,1,900,1170.3c3.55,3.62,5.4,9.32,5.4,15.53C905.43,1192.26,903.51,1198.17,899.74,1201.79Zm-11.31-30.23a8.65,8.65,0,0,0-6.07,2.44c-3.1,2.73-4.14,7.24-4.14,11.9s1,9.17,4.14,11.9a8.65,8.65,0,0,0,6.07,2.44c8.35,0,10.57-7.46,10.57-14.34S896.78,1171.56,888.43,1171.56Z"/>
<path d="M944.9,1187.9H918.44a13.8,13.8,0,0,0,3.62,9.39,9.36,9.36,0,0,0,6.88,2.66c2.95,0,5.39-.82,6.94-2.44a7.92,7.92,0,0,0,2.22-4.07h6.14a13.78,13.78,0,0,1-5.77,9.24,17.18,17.18,0,0,1-9.53,2.81,15.94,15.94,0,0,1-12.42-5.62,21.15,21.15,0,0,1-4.66-13.9,22.8,22.8,0,0,1,2.88-12,16,16,0,0,1,14.12-7.84,15.06,15.06,0,0,1,11.39,4.81,19.29,19.29,0,0,1,4.73,13.16Zm-8.65-13a8.89,8.89,0,0,0-7.39-3.4c-6.8,0-10.13,5.55-10.28,11h20A13.09,13.09,0,0,0,936.25,1174.88Z"/>
<path d="M978.89,1204.53l-.45-4.88c-2.14,3.77-7,5.84-11.16,5.84a14.26,14.26,0,0,1-10.57-4.06c-3.55-3.63-5.4-9.32-5.4-15.53,0-6.43,1.92-12.35,5.69-16a14.68,14.68,0,0,1,10.28-3.77c4.07,0,8.87,1.92,10.87,5.32v-20.33h6.28v53.38Zm-4.51-30.61a8.65,8.65,0,0,0-6.07-2.44c-8.35,0-10.57,7.47-10.57,14.35s2.22,14.34,10.57,14.34a8.65,8.65,0,0,0,6.07-2.44c3.1-2.74,4.14-7.25,4.14-11.9S977.48,1176.66,974.38,1173.92Z"/>
<path d="M993.15,1158.55v-7.4h7.32v7.4Zm.45,46v-37.41H1000v37.41Z"/>
<path d="M1024,1205.05c-8,0-10.27-5.1-10.27-10.13v-22.4h-7.25v-5.4h7.25v-9.53l6.28-1.48v11h11.09v5.4H1020v21.66c0,3.62,1.55,5.1,5,5.1a46.5,46.5,0,0,0,6.43-.66V1204A26.79,26.79,0,0,1,1024,1205.05Z"/>
<path d="M1037.93,1158.55v-7.4h7.32v7.4Zm.45,46v-37.41h6.43v37.41Z"/>
<path d="M1080.89,1201.13a16.86,16.86,0,0,1-22.63,0c-4.06-4-5.32-9.39-5.32-15.3s1.26-11.31,5.32-15.31a16.86,16.86,0,0,1,22.63,0c4.06,4,5.32,9.39,5.32,15.31S1085,1197.14,1080.89,1201.13Zm-4.59-26.91a9.83,9.83,0,0,0-13.45,0c-2.66,2.74-3.48,7.24-3.48,11.61s.82,8.87,3.48,11.6a9.83,9.83,0,0,0,13.45,0c2.66-2.73,3.48-7.24,3.48-11.6S1079,1177,1076.3,1174.22Z"/>
<path d="M1117.55,1204.53V1180.8c0-5.62-2.29-9-8.2-9-3.63,0-6.51,2.37-8.14,5.77-1.25,2.74-1.33,6.65-1.33,9.54v17.37h-6.28v-37.41h5.47l.52,5.62c1.92-4.29,7.1-6.58,11.31-6.58,8.5,0,12.94,5.1,12.94,13.75v24.62Z"/>
<path d="M1167.45,1155.74c-3.33,0-5.32,2.07-5.32,5.1v6.28h10.79v5.33h-10.79v32.08h-6.29v-32.08H1149v-5.33h6.8v-6.65c0-5.62,4.37-10,10.87-10a38.89,38.89,0,0,1,7,.66v5.25A45.71,45.71,0,0,0,1167.45,1155.74Z"/>
<path d="M1204.44,1201.13a16.85,16.85,0,0,1-22.62,0c-4.07-4-5.32-9.39-5.32-15.3s1.25-11.31,5.32-15.31a16.85,16.85,0,0,1,22.62,0c4.07,4,5.33,9.39,5.33,15.31S1208.51,1197.14,1204.44,1201.13Zm-4.58-26.91a9.83,9.83,0,0,0-13.45,0c-2.67,2.74-3.48,7.24-3.48,11.61s.81,8.87,3.48,11.6a9.83,9.83,0,0,0,13.45,0c2.66-2.73,3.47-7.24,3.47-11.6S1202.52,1177,1199.86,1174.22Z"/>
<path d="M1235.23,1173a10.26,10.26,0,0,0-7.09,3c-3,2.88-3.4,8.06-3.4,12v16.63h-6.21v-37.41h5.54l.52,6.58c1.92-4.58,6.43-6.8,11.16-6.8a19.66,19.66,0,0,1,3,.22v6.14A18.59,18.59,0,0,0,1235.23,1173Z"/>
<path d="M1264.43,1204.53v-52.41h35v6.06H1271v16h25v6.21h-25v18.11h28.46v6.06Z"/>
<path d="M1321.92,1204.53h-6.8l-13.82-37.41h6.58l10.79,30,10.42-30h6.36Z"/>
<path d="M1371.05,1187.9h-26.46a13.8,13.8,0,0,0,3.62,9.39,9.36,9.36,0,0,0,6.88,2.66c3,0,5.39-.82,7-2.44a7.92,7.92,0,0,0,2.21-4.07h6.14a13.78,13.78,0,0,1-5.77,9.24,17.18,17.18,0,0,1-9.53,2.81,15.94,15.94,0,0,1-12.42-5.62A21.15,21.15,0,0,1,1338,1186a22.8,22.8,0,0,1,2.88-12,16,16,0,0,1,14.12-7.84,15.06,15.06,0,0,1,11.39,4.81,19.29,19.29,0,0,1,4.73,13.16Zm-8.65-13a8.89,8.89,0,0,0-7.39-3.4c-6.8,0-10.13,5.55-10.27,11h20A13.09,13.09,0,0,0,1362.4,1174.88Z"/>
<path d="M1395.38,1173a10.26,10.26,0,0,0-7.1,3c-3,2.88-3.4,8.06-3.4,12v16.63h-6.21v-37.41h5.54l.52,6.58c1.92-4.58,6.43-6.8,11.16-6.8a19.66,19.66,0,0,1,3,.22v6.14A18.56,18.56,0,0,0,1395.38,1173Z"/>
<path d="M1421,1212.22c-1.77,4.8-4.51,8-10.13,8a20.4,20.4,0,0,1-5.69-.74V1214a17.48,17.48,0,0,0,4.44.59c2.66,0,4.58-1,5.61-3.77l2.37-6.28-14.93-37.41h7.09l11,29.5,10.5-29.5h6.58Z"/>
<path d="M1468.37,1201.13a16.85,16.85,0,0,1-22.62,0c-4.07-4-5.33-9.39-5.33-15.3s1.26-11.31,5.33-15.31a16.85,16.85,0,0,1,22.62,0c4.06,4,5.32,9.39,5.32,15.31S1472.43,1197.14,1468.37,1201.13Zm-4.59-26.91a9.83,9.83,0,0,0-13.45,0c-2.66,2.74-3.48,7.24-3.48,11.61s.82,8.87,3.48,11.6a9.83,9.83,0,0,0,13.45,0c2.67-2.73,3.48-7.24,3.48-11.6S1466.45,1177,1463.78,1174.22Z"/>
<path d="M1505.77,1204.53V1180.8c0-5.62-2.29-9-8.2-9-3.63,0-6.51,2.37-8.14,5.77-1.25,2.74-1.33,6.65-1.33,9.54v17.37h-6.28v-37.41h5.47l.52,5.62c1.92-4.29,7.1-6.58,11.31-6.58,8.5,0,12.94,5.1,12.94,13.75v24.62Z"/>
<path d="M1552.71,1187.9h-26.46a13.8,13.8,0,0,0,3.62,9.39,9.36,9.36,0,0,0,6.88,2.66c3,0,5.39-.82,7-2.44a7.92,7.92,0,0,0,2.21-4.07h6.14a13.78,13.78,0,0,1-5.77,9.24,17.18,17.18,0,0,1-9.53,2.81,15.94,15.94,0,0,1-12.42-5.62,21.15,21.15,0,0,1-4.66-13.9,22.8,22.8,0,0,1,2.88-12,16,16,0,0,1,14.12-7.84,15.06,15.06,0,0,1,11.39,4.81,19.29,19.29,0,0,1,4.73,13.16Zm-8.64-13a8.92,8.92,0,0,0-7.4-3.4c-6.8,0-10.13,5.55-10.27,11h20A13.15,13.15,0,0,0,1544.07,1174.88Z"/>
</svg>