<svg xmlns="http://www.w3.org/2000/svg" viewBox="0 0 601.33 207"><defs><style>.cls-1{fill:none;stroke:#fff;stroke-miterlimit:10;stroke-width:2px;}.cls-2{fill:#fff;}</style></defs><g id="Layer_1" data-name="Layer 1"><rect width="601.33" height="207"/></g><g id="Isolation_Mode" data-name="Isolation Mode"><line class="cls-1" x1="339.45" y1="150.57" x2="312.33" y2="150.57"/><line class="cls-1" x1="335.36" y1="145.71" x2="316.41" y2="145.71"/><line class="cls-1" x1="331.27" y1="140.85" x2="320.5" y2="140.85"/><line class="cls-1" x1="339.45" y1="140.85" x2="312.33" y2="140.85"/><line class="cls-1" x1="335.36" y1="135.99" x2="316.41" y2="135.99"/><polyline class="cls-1" points="365.86 123.39 325.89 123.39 325.89 135.99"/><polyline class="cls-1" points="365.86 163.17 325.89 163.17 325.89 150.57"/><line class="cls-1" x1="424.86" y1="123.39" x2="485.02" y2="123.39"/><line class="cls-1" x1="424.86" y1="163.17" x2="485.02" y2="163.17"/><rect class="cls-1" x="365.86" y="113.89" width="59" height="59"/><circle class="cls-1" cx="395.36" cy="143.39" r="15.67"/><line class="cls-1" x1="395.36" y1="123.39" x2="395.36" y2="122.81"/><path class="cls-2" d="M395.36,117.5a26.5,26.5,0,0,0,4.18,7.52l-4.18-1.51L391.17,125A26.52,26.52,0,0,0,395.36,117.5Z"/><line class="cls-1" x1="395.36" y1="163.39" x2="395.36" y2="163.96"/><path class="cls-2" d="M395.36,169.28a26.71,26.71,0,0,0-4.19-7.53l4.19,1.52,4.18-1.52A26.44,26.44,0,0,0,395.36,169.28Z"/><line class="cls-1" x1="375.36" y1="143.39" x2="374.78" y2="143.39"/><path class="cls-2" d="M369.47,143.39A26.52,26.52,0,0,0,377,139.2l-1.52,4.19,1.52,4.18A26.25,26.25,0,0,0,369.47,143.39Z"/><line class="cls-1" x1="415.36" y1="143.39" x2="415.93" y2="143.39"/><path class="cls-2" d="M421.24,143.39a26.77,26.77,0,0,0-7.52,4.18l1.52-4.18-1.52-4.19A26.8,26.8,0,0,0,421.24,143.39Z"/><path class="cls-2" d="M494.6,124.49h-1.8v3.05h-1.53V119h3.33c2,0,3,1.09,3,2.72S496.56,124.49,494.6,124.49Zm-.06-4.1H492.8v2.75h1.74c1,0,1.5-.55,1.5-1.37S495.58,120.39,494.54,120.39Z"/><path class="cls-2" d="M498.76,127.54V119h1.57v8.5Z"/><path class="cls-2" d="M507.53,127.54l-3.69-5.84v5.84h-1.52V119H504l3.64,5.75V119h1.52v8.5Z"/><path class="cls-2" d="M518.67,127.54l-.55-1.63h-3.38l-.55,1.63h-1.56l3-8.5h1.69l3,8.5Zm-2.24-6.61-1.21,3.59h2.42Z"/><path class="cls-2" d="M526,127a2.9,2.9,0,0,1-3.89,0c-.86-.82-1-2.22-1-3.58s.13-2.76,1-3.59a3,3,0,0,1,3.89,0c.86.83,1,2.22,1,3.59S526.82,126.13,526,127ZM524,120.43c-1.55,0-1.42,1.86-1.42,2.94s-.13,2.93,1.42,2.93,1.41-1.85,1.41-2.93S525.56,120.43,524,120.43Z"/><path class="cls-2" d="M494.6,164.27h-1.8v3h-1.53v-8.51h3.33c2,0,3,1.1,3,2.73S496.56,164.27,494.6,164.27Zm-.06-4.1H492.8v2.75h1.74c1,0,1.5-.56,1.5-1.37S495.58,160.17,494.54,160.17Z"/><path class="cls-2" d="M498.76,167.32v-8.51h1.57v8.51Z"/><path class="cls-2" d="M507.53,167.32l-3.69-5.84v5.84h-1.52v-8.51H504l3.64,5.76v-5.76h1.52v8.51Z"/><path class="cls-2" d="M518.67,167.32l-.55-1.63h-3.38l-.55,1.63h-1.56l3-8.51h1.69l3,8.51Zm-2.24-6.61-1.21,3.59h2.42Z"/><path class="cls-2" d="M526,166.73a2.93,2.93,0,0,1-3.89,0c-.86-.83-1-2.22-1-3.59s.13-2.75,1-3.58a3,3,0,0,1,3.89,0c.86.83,1,2.22,1,3.58S526.82,165.9,526,166.73ZM524,160.21c-1.55,0-1.42,1.86-1.42,2.93s-.13,2.94,1.42,2.94,1.41-1.86,1.41-2.94S525.56,160.21,524,160.21Z"/><path class="cls-2" d="M371.05,187a2.42,2.42,0,0,1-1.81-.69,2.93,2.93,0,0,1-.74-2.14H370a1.63,1.63,0,0,0,.31,1.14,1,1,0,0,0,.74.31c.7,0,1-.45,1-1.15v-6.14h1.55v6A2.42,2.42,0,0,1,371.05,187Z"/><path class="cls-2" d="M380.87,186a3.61,3.61,0,0,1-4.9,0,4.44,4.44,0,0,1-1.08-3.44,4.5,4.5,0,0,1,1.08-3.46,3.61,3.61,0,0,1,4.9,0,4.49,4.49,0,0,1,1.07,3.46A4.44,4.44,0,0,1,380.87,186Zm-1.11-5.89a1.88,1.88,0,0,0-2.68,0,3.58,3.58,0,0,0-.62,2.45,3.53,3.53,0,0,0,.62,2.43,1.86,1.86,0,0,0,2.68,0,3.52,3.52,0,0,0,.61-2.43A3.58,3.58,0,0,0,379.76,180.09Z"/><path class="cls-2" d="M386.54,183.52v3.26H385v-3.26l-3-5.24h1.68l2.1,3.67,2.1-3.67h1.61Z"/><path class="cls-2" d="M395.7,186a3.76,3.76,0,0,1-2.69.91,3.7,3.7,0,0,1-2.54-.88,2.67,2.67,0,0,1-.89-2h1.58a1.51,1.51,0,0,0,.45,1,2,2,0,0,0,1.42.45,2.09,2.09,0,0,0,1.48-.45,1.08,1.08,0,0,0,.34-.82c0-.62-.48-.91-1-1s-1.32-.14-1.88-.23a2.34,2.34,0,0,1-2.16-2.38,2.38,2.38,0,0,1,.74-1.68,3.63,3.63,0,0,1,2.49-.9,3.52,3.52,0,0,1,2.38.83,2.59,2.59,0,0,1,.86,1.81h-1.58a1.4,1.4,0,0,0-.37-.84,2,2,0,0,0-1.3-.45,1.92,1.92,0,0,0-1.38.47,1,1,0,0,0-.28.72.91.91,0,0,0,.86.92c.54.08,1.29.14,1.85.21a2.47,2.47,0,0,1,2.33,2.46A2.4,2.4,0,0,1,395.7,186Z"/><path class="cls-2" d="M400.7,179.72v7.06h-1.55v-7.06h-2.51v-1.44h6.58v1.44Z"/><path class="cls-2" d="M404.29,186.78v-8.5h1.57v8.5Z"/><path class="cls-2" d="M413.24,185.93a3.39,3.39,0,0,1-2.43,1,3.29,3.29,0,0,1-2.41-.95,6.16,6.16,0,0,1,0-6.91,3.49,3.49,0,0,1,4.84,0,3.13,3.13,0,0,1,.82,1.85h-1.59a1.48,1.48,0,0,0-.38-.9,1.62,1.62,0,0,0-1.28-.53,1.78,1.78,0,0,0-1.31.56,5.36,5.36,0,0,0,0,4.89,1.78,1.78,0,0,0,1.31.57,1.62,1.62,0,0,0,1.28-.54,1.64,1.64,0,0,0,.38-.94h1.59A3.19,3.19,0,0,1,413.24,185.93Z"/><path class="cls-2" d="M420.71,186.78l-2.31-4-1.46,1.71v2.3h-1.55v-8.5h1.55v3.92l3.39-3.92h1.89l-2.74,3.21,3,5.29Z"/><path class="cls-2" d="M433.46,119h-1.7l-2.82-8.5h1.64l2.07,6.49,2.05-6.49h1.56Z"/><path class="cls-2" d="M442.11,119l-1.41-3.21h-1.88V119h-1.56v-8.5h3.58a2.63,2.63,0,0,1,3,2.64,2.43,2.43,0,0,1-1.56,2.38l1.56,3.48Zm-1.27-7.15h-2v2.55h2.07a1.21,1.21,0,0,0,1.38-1.26A1.31,1.31,0,0,0,440.84,111.88Z"/><path class="cls-2" d="M448.17,115.87l2.14,3.16h-1.69L447.23,117,445.86,119h-1.64l2.18-3.18-2.2-3h1.73l1.39,2,1.36-2h1.64Z"/><path class="cls-2" d="M434.35,176.55h-1.7L429.83,168h1.64l2.06,6.49,2.05-6.49h1.56Z"/><path class="cls-2" d="M443,176.55l-1.42-3.22H439.7v3.22h-1.56V168h3.59a2.63,2.63,0,0,1,2.95,2.64,2.45,2.45,0,0,1-1.56,2.39l1.56,3.48Zm-1.27-7.15h-2v2.54h2.06c.88,0,1.38-.45,1.38-1.26A1.3,1.3,0,0,0,441.73,169.4Z"/><path class="cls-2" d="M448.66,177.61a2,2,0,0,1-1.91,1.56,4.48,4.48,0,0,1-1.16-.15v-1.25a4,4,0,0,0,.84.11.71.71,0,0,0,.72-.47l.36-.88-2.46-6.22h1.65l1.63,4.51,1.56-4.51h1.52Z"/><g id="LED"><path class="cls-2" d="M214.08,145l3.66,2.12,3.67,2.12-3.67,2.11-3.66,2.12V145m-2-3.46v15.39l6.66-3.85,6.67-3.84-6.67-3.85-6.66-3.85Z"/><polyline class="cls-1" points="224.67 156.94 224.67 149.25 224.67 141.55"/></g><line class="cls-1" x1="260.08" y1="161.09" x2="260.08" y2="137.4"/><line class="cls-1" x1="265.49" y1="157.52" x2="265.49" y2="140.97"/><line class="cls-1" x1="270.9" y1="153.95" x2="270.9" y2="144.54"/><path class="cls-2" d="M77.71,150.21h-1.8v3H74.38v-8.51h3.33c2,0,3,1.09,3,2.73S79.67,150.21,77.71,150.21Zm-.06-4.1H75.91v2.75h1.74c1,0,1.5-.56,1.5-1.37S78.68,146.11,77.65,146.11Z"/><path class="cls-2" d="M81.87,153.26v-8.51h1.57v8.51Z"/><path class="cls-2" d="M90.64,153.26,87,147.42v5.84H85.43v-8.51h1.64l3.64,5.76v-5.76h1.52v8.51Z"/><path class="cls-2" d="M99,153.26V146.7L97.13,148V146.4l2.05-1.48h1.28v8.34Z"/><path class="cls-2" d="M105.93,153.41a2.66,2.66,0,0,1-2.84-2.56h1.5a1.26,1.26,0,0,0,1.35,1.24,1.21,1.21,0,0,0,1.32-1.24c0-.87-.69-1.26-1.47-1.26h-.62v-1.31h.62c.82,0,1.29-.34,1.29-1.12a1.1,1.1,0,0,0-1.14-1.09,1.13,1.13,0,0,0-1.29,1.13h-1.51a2.52,2.52,0,0,1,2.8-2.43,2.42,2.42,0,0,1,2.66,2.36,1.89,1.89,0,0,1-1.2,1.79,2,2,0,0,1,1.37,2A2.54,2.54,0,0,1,105.93,153.41Z"/><polyline class="cls-1" points="114.73 149.25 132.84 149.25 132.84 149.25 136.52 154.74 143.87 143.75 151.22 154.74 158.53 143.75 165.88 154.74 173.23 143.75 180.54 154.74 184.22 149.22 212.08 149.22"/><line class="cls-1" x1="225.41" y1="149.25" x2="260.08" y2="149.25"/><g id="LED-2" data-name="LED"><path class="cls-2" d="M214.08,23.51l3.66,2.12,3.67,2.12-3.67,2.11L214.08,32V23.51m-2-3.46V35.44l6.66-3.84,6.67-3.85-6.67-3.85-6.66-3.85Z"/><polyline class="cls-1" points="224.67 35.44 224.67 27.75 224.67 20.05"/></g><g id="LED-3" data-name="LED"><path class="cls-2" d="M214.08,41.67l3.66,2.12,3.67,2.11L217.74,48l-3.66,2.12V41.67m-2-3.46V53.6l6.66-3.85,6.67-3.85-6.67-3.85-6.66-3.84Z"/><polyline class="cls-1" points="224.67 53.6 224.67 45.9 224.67 38.2"/></g><g id="LED-4" data-name="LED"><path class="cls-2" d="M214.08,59.83l3.66,2.11,3.67,2.12-3.67,2.12-3.66,2.11V59.83m-2-3.47v15.4l6.66-3.85,6.67-3.85-6.67-3.85-6.66-3.85Z"/><polyline class="cls-1" points="224.67 71.76 224.67 64.06 224.67 56.36"/></g><g id="LED-5" data-name="LED"><path class="cls-2" d="M214.08,78l3.66,2.12,3.67,2.12-3.67,2.11-3.66,2.12V78m-2-3.46V89.91l6.66-3.84,6.67-3.85-6.67-3.85-6.66-3.85Z"/><polyline class="cls-1" points="224.67 89.92 224.67 82.22 224.67 74.52"/></g><line class="cls-1" x1="317.58" y1="48.67" x2="317.58" y2="24.98"/><line class="cls-1" x1="322.99" y1="45.1" x2="322.99" y2="28.55"/><line class="cls-1" x1="328.4" y1="41.53" x2="328.4" y2="32.12"/><line class="cls-1" x1="317.58" y1="84.99" x2="317.58" y2="61.29"/><line class="cls-1" x1="322.99" y1="81.42" x2="322.99" y2="64.86"/><line class="cls-1" x1="328.4" y1="77.84" x2="328.4" y2="68.43"/><path class="cls-2" d="M77.71,28.7h-1.8v3.05H74.38V23.24h3.33c2,0,3,1.09,3,2.73S79.67,28.7,77.71,28.7Zm-.06-4.1H75.91v2.75h1.74c1,0,1.5-.56,1.5-1.37S78.68,24.6,77.65,24.6Z"/><path class="cls-2" d="M81.87,31.75V23.24h1.57v8.51Z"/><path class="cls-2" d="M90.64,31.75,87,25.91v5.84H85.43V23.24h1.64L90.71,29V23.24h1.52v8.51Z"/><path class="cls-2" d="M99,31.75V25.19l-1.84,1.33V24.89l2.05-1.48h1.28v8.34Z"/><path class="cls-2" d="M105.81,31.75V25.19L104,26.52V24.89l2-1.48h1.28v8.34Z"/><path class="cls-2" d="M114.67,29.28c-.93,0-1.7-.75-2.35-.75a1.87,1.87,0,0,0-1.23.72l-1-1.14a3.08,3.08,0,0,1,2.19-1.22c.91,0,1.67.72,2.34.72a1.9,1.9,0,0,0,1.26-.67l1,1.14A3.12,3.12,0,0,1,114.67,29.28Z"/><path class="cls-2" d="M123.09,33.76a8.82,8.82,0,0,1,0-11.63l.85.63a7.73,7.73,0,0,0-1.79,5.18,7.74,7.74,0,0,0,1.79,5.19Z"/><path class="cls-2" d="M128.39,28.7h-1.8v3.05h-1.54V23.24h3.34c2,0,3,1.09,3,2.73S130.34,28.7,128.39,28.7Zm-.06-4.1h-1.74v2.75h1.74c1,0,1.5-.56,1.5-1.37S129.36,24.6,128.33,24.6Z"/><path class="cls-2" d="M140.11,31.75h-1.55l-1.77-5.87L135,31.75h-1.54l-1.72-8.51h1.48l1.18,5.92,1.75-5.78h1.3l1.71,5.78,1.22-5.92h1.41Z"/><path class="cls-2" d="M150.05,31.75V25.68l-2.21,5.95H146.7l-2.19-6v6.14H143V23.24h2.08l2.23,6.06,2.25-6.06h2v8.51Z"/><path class="cls-2" d="M153.52,33.76l-.85-.63a7.78,7.78,0,0,0,1.78-5.19,7.77,7.77,0,0,0-1.78-5.18l.85-.63a8.45,8.45,0,0,1,2.18,5.81A8.46,8.46,0,0,1,153.52,33.76Z"/><path class="cls-2" d="M77.71,46.86h-1.8v3H74.38V41.4h3.33c2,0,3,1.09,3,2.72S79.67,46.86,77.71,46.86Zm-.06-4.1H75.91V45.5h1.74c1,0,1.5-.55,1.5-1.37S78.68,42.76,77.65,42.76Z"/><path class="cls-2" d="M81.87,49.9V41.4h1.57v8.5Z"/><path class="cls-2" d="M90.64,49.9,87,44.06V49.9H85.43V41.4h1.64l3.64,5.76V41.4h1.52v8.5Z"/><path class="cls-2" d="M99,49.9V43.34l-1.84,1.33V43l2.05-1.47h1.28V49.9Z"/><path class="cls-2" d="M107.94,49.32a2.65,2.65,0,0,1-1.94.74,2.69,2.69,0,0,1-2-.74c-.86-.83-1-2.22-1-3.59s.13-2.76,1-3.59a2.68,2.68,0,0,1,2-.73,2.64,2.64,0,0,1,1.94.73c.86.83,1,2.22,1,3.59S108.8,48.49,107.94,49.32ZM106,42.79c-1.55,0-1.42,1.86-1.42,2.94s-.13,2.94,1.42,2.94,1.41-1.86,1.41-2.94S107.54,42.79,106,42.79Z"/><path class="cls-2" d="M114.67,47.43c-.93,0-1.7-.74-2.35-.74a1.83,1.83,0,0,0-1.23.72l-1-1.14a3,3,0,0,1,2.19-1.22c.91,0,1.67.72,2.34.72a1.87,1.87,0,0,0,1.26-.68l1,1.14A3.08,3.08,0,0,1,114.67,47.43Z"/><path class="cls-2" d="M123.09,51.92a8.83,8.83,0,0,1,0-11.64l.85.64a7.71,7.71,0,0,0-1.79,5.18,7.69,7.69,0,0,0,1.79,5.18Z"/><path class="cls-2" d="M128.39,46.86h-1.8v3h-1.54V41.4h3.34c2,0,3,1.09,3,2.72S130.34,46.86,128.39,46.86Zm-.06-4.1h-1.74V45.5h1.74c1,0,1.5-.55,1.5-1.37S129.36,42.76,128.33,42.76Z"/><path class="cls-2" d="M140.11,49.9h-1.55L136.79,44,135,49.9h-1.54l-1.72-8.5h1.48l1.18,5.91,1.75-5.78h1.3l1.71,5.78,1.22-5.91h1.41Z"/><path class="cls-2" d="M150.05,49.9V43.83l-2.21,6H146.7l-2.19-6V49.9H143V41.4h2.08l2.23,6.06,2.25-6.06h2v8.5Z"/><path class="cls-2" d="M153.52,51.92l-.85-.64a7.73,7.73,0,0,0,1.78-5.18,7.75,7.75,0,0,0-1.78-5.18l.85-.64a8.86,8.86,0,0,1,0,11.64Z"/><path class="cls-2" d="M77.71,65h-1.8v3H74.38v-8.5h3.33c2,0,3,1.09,3,2.72S79.67,65,77.71,65Zm-.06-4.1H75.91v2.75h1.74c1,0,1.5-.55,1.5-1.37A1.31,1.31,0,0,0,77.65,60.91Z"/><path class="cls-2" d="M81.87,68.06v-8.5h1.57v8.5Z"/><path class="cls-2" d="M90.64,68.06,87,62.22v5.84H85.43v-8.5h1.64l3.64,5.75V59.56h1.52v8.5Z"/><path class="cls-2" d="M101.08,67.38a2.61,2.61,0,0,1-2,.84,2.68,2.68,0,0,1-1.91-.69A2.19,2.19,0,0,1,96.42,66h1.51a1.09,1.09,0,0,0,.29.63,1.13,1.13,0,0,0,.89.3,1.12,1.12,0,0,0,.83-.33,2.64,2.64,0,0,0,.57-1.91,2.18,2.18,0,0,1-1.58.61,2.57,2.57,0,0,1-2.75-2.84,2.68,2.68,0,0,1,2.87-2.89,2.83,2.83,0,0,1,2.82,2.61,9.21,9.21,0,0,1,.13,1.56C102,65,101.93,66.46,101.08,67.38Zm-2-6.48c-.9,0-1.34.65-1.34,1.62s.44,1.56,1.36,1.56a1.38,1.38,0,0,0,1.3-1.56C100.37,61.61,99.94,60.9,99.05,60.9Z"/><path class="cls-2" d="M107.83,65.59c-.93,0-1.7-.74-2.35-.74a1.83,1.83,0,0,0-1.23.72l-1-1.14a3.06,3.06,0,0,1,2.19-1.23c.91,0,1.67.72,2.34.72a1.86,1.86,0,0,0,1.26-.67l1,1.14A3.08,3.08,0,0,1,107.83,65.59Z"/><path class="cls-2" d="M116.25,70.07a8.82,8.82,0,0,1,0-11.63l.85.64a8.39,8.39,0,0,0,0,10.36Z"/><path class="cls-2" d="M121.55,65h-1.8v3h-1.54v-8.5h3.34c2,0,3,1.09,3,2.72S123.5,65,121.55,65Zm-.06-4.1h-1.74v2.75h1.74c1,0,1.5-.55,1.5-1.37A1.31,1.31,0,0,0,121.49,60.91Z"/><path class="cls-2" d="M133.27,68.06h-1.55L130,62.2l-1.78,5.86h-1.54l-1.72-8.5h1.48l1.18,5.91,1.75-5.78h1.3l1.71,5.78,1.22-5.91H135Z"/><path class="cls-2" d="M143.21,68.06V62L141,67.94h-1.14l-2.19-6v6.14h-1.5v-8.5h2.08l2.23,6,2.25-6h2v8.5Z"/><path class="cls-2" d="M146.68,70.07l-.85-.63a8.43,8.43,0,0,0,0-10.36l.85-.64a8.85,8.85,0,0,1,0,11.63Z"/><path class="cls-2" d="M77.71,83.17h-1.8v3H74.38V77.71h3.33c2,0,3,1.1,3,2.73S79.67,83.17,77.71,83.17Zm-.06-4.1H75.91v2.75h1.74c1,0,1.5-.56,1.5-1.37S78.68,79.07,77.65,79.07Z"/><path class="cls-2" d="M81.87,86.22V77.71h1.57v8.51Z"/><path class="cls-2" d="M90.64,86.22,87,80.38v5.84H85.43V77.71h1.64l3.64,5.76V77.71h1.52v8.51Z"/><path class="cls-2" d="M99.29,86.37a2.84,2.84,0,0,1-2.82-2.62,8.28,8.28,0,0,1-.13-1.56c0-1.23.07-2.73.92-3.64a2.6,2.6,0,0,1,2-.82,2.67,2.67,0,0,1,1.91.67,2.19,2.19,0,0,1,.71,1.53H100.4a1,1,0,0,0-.28-.63,1.14,1.14,0,0,0-.89-.3,1.12,1.12,0,0,0-.83.33,2.64,2.64,0,0,0-.57,1.91,2.16,2.16,0,0,1,1.58-.61,2.57,2.57,0,0,1,2.75,2.84A2.69,2.69,0,0,1,99.29,86.37Zm0-4.52c-.8,0-1.29.69-1.29,1.56S98.4,85,99.29,85s1.34-.65,1.34-1.62A1.37,1.37,0,0,0,99.26,81.85Z"/><path class="cls-2" d="M107.83,83.75c-.93,0-1.7-.75-2.35-.75a1.87,1.87,0,0,0-1.23.72l-1-1.14a3.08,3.08,0,0,1,2.19-1.22c.91,0,1.67.72,2.34.72a1.9,1.9,0,0,0,1.26-.67l1,1.14A3.12,3.12,0,0,1,107.83,83.75Z"/><path class="cls-2" d="M116.25,88.23a8.82,8.82,0,0,1,0-11.63l.85.63a8.4,8.4,0,0,0,0,10.37Z"/><path class="cls-2" d="M121.55,83.17h-1.8v3h-1.54V77.71h3.34c2,0,3,1.1,3,2.73S123.5,83.17,121.55,83.17Zm-.06-4.1h-1.74v2.75h1.74c1,0,1.5-.56,1.5-1.37S122.52,79.07,121.49,79.07Z"/><path class="cls-2" d="M133.27,86.22h-1.55L130,80.35l-1.78,5.87h-1.54l-1.72-8.51h1.48l1.18,5.92,1.75-5.78h1.3l1.71,5.78,1.22-5.92H135Z"/><path class="cls-2" d="M143.21,86.22V80.15L141,86.1h-1.14l-2.19-6v6.14h-1.5V77.71h2.08l2.23,6.06,2.25-6.06h2v8.51Z"/><path class="cls-2" d="M146.68,88.23l-.85-.63a8.44,8.44,0,0,0,0-10.37l.85-.63a8.85,8.85,0,0,1,0,11.63Z"/><line class="cls-1" x1="162.74" y1="27.75" x2="212.08" y2="27.75"/><line class="cls-1" x1="162.74" y1="45.9" x2="212.08" y2="45.9"/><polyline class="cls-1" points="235.63 36.83 253.74 36.83 253.74 36.83 257.42 42.32 264.77 31.33 272.12 42.32 279.43 31.33 286.78 42.32 294.13 31.33 301.45 42.32 305.12 36.8 317.58 36.8"/><polyline class="cls-1" points="235.63 73.14 253.74 73.14 253.74 73.14 257.42 78.64 264.77 67.64 272.12 78.64 279.43 67.64 286.78 78.64 294.13 67.64 301.45 78.64 305.12 73.12 317.58 73.12"/><line class="cls-1" x1="162.74" y1="64.06" x2="212.08" y2="64.06"/><line class="cls-1" x1="162.74" y1="82.22" x2="212.08" y2="82.22"/><polyline class="cls-1" points="224.67 27.75 235.63 27.75 235.63 45.9 224.67 45.9"/><polyline class="cls-1" points="224.67 64.06 235.63 64.06 235.63 82.22 224.67 82.22"/><line class="cls-1" x1="400.75" y1="66.42" x2="373.63" y2="66.42"/><line class="cls-1" x1="396.66" y1="61.56" x2="377.72" y2="61.56"/><line class="cls-1" x1="392.58" y1="56.7" x2="381.8" y2="56.7"/><line class="cls-1" x1="400.75" y1="56.7" x2="373.63" y2="56.7"/><line class="cls-1" x1="396.66" y1="51.84" x2="377.72" y2="51.84"/><line class="cls-1" x1="445.76" y1="26.34" x2="424.68" y2="36.63"/><circle class="cls-1" cx="424.68" cy="36.63" r="0.91"/><circle class="cls-1" cx="448.14" cy="36.63" r="0.91"/><path class="cls-2" d="M502.57,57.92h-1.8v3h-1.53v-8.5h3.33c2,0,3,1.09,3,2.72S504.53,57.92,502.57,57.92Zm-.06-4.1h-1.74v2.74h1.74c1,0,1.5-.55,1.5-1.37S503.54,53.82,502.51,53.82Z"/><path class="cls-2" d="M506.73,61v-8.5h1.57V61Z"/><path class="cls-2" d="M515.49,61l-3.68-5.84V61h-1.52v-8.5h1.64l3.64,5.76V52.46h1.52V61Z"/><path class="cls-2" d="M524,61.13a2.62,2.62,0,0,1-2.88-2.51,2.16,2.16,0,0,1,1.21-2,2.15,2.15,0,0,1-1.05-1.8c0-1.57,1.26-2.36,2.72-2.36a2.42,2.42,0,0,1,2.71,2.36,2.15,2.15,0,0,1-1.05,1.8,2.16,2.16,0,0,1,1.21,2A2.61,2.61,0,0,1,524,61.13Zm0-3.84a1.23,1.23,0,0,0-1.37,1.24,1.37,1.37,0,0,0,2.73,0A1.23,1.23,0,0,0,524,57.29Zm0-3.51a1.05,1.05,0,0,0-1.2,1.08,1.2,1.2,0,0,0,2.4,0A1.06,1.06,0,0,0,524,53.78Z"/><polyline class="cls-1" points="423.77 36.7 387.19 36.7 387.19 51.84"/><polyline class="cls-1" points="447.94 36.7 480.99 36.7 480.99 78.47 462.29 78.45 458.54 83.63 451.08 73.31 443.58 83.63 436.08 73.31 428.62 83.63 421.12 73.31 413.63 83.63 409.88 78.47 409.88 78.47 387.19 78.47 387.19 66.42"/><line class="cls-1" x1="480.99" y1="56.7" x2="494.44" y2="56.7"/></g></svg>