<svg xmlns="http://www.w3.org/2000/svg" viewBox="0 0 1920 1080"><defs><style>.cls-1{fill:#fff;}.cls-2{fill:none;stroke:#fff;stroke-miterlimit:10;stroke-width:5px;}</style></defs><g id="Layer_1" data-name="Layer 1"><rect width="1920" height="1080"/><g id="LED"><path class="cls-1" d="M1094.62,398l15.14,8.74,15.14,8.74-15.14,8.74-15.14,8.74V398m-5-8.66v52.28l22.64-13.07,22.63-13.07-22.63-13.07-22.64-13.07Z"/><polyline class="cls-2" points="1132.38 441.59 1132.38 415.45 1132.38 389.31"/></g><path class="cls-1" d="M1146.14,399.32l-1.7-3.85h-2.26v3.85h-1.86V389.13h4.29c2.43,0,3.54,1.53,3.54,3.16a2.93,2.93,0,0,1-1.87,2.86l1.87,4.17Zm-1.53-8.56h-2.44v3h2.47c1,0,1.65-.54,1.65-1.51A1.55,1.55,0,0,0,1144.61,390.76Z"/><g id="LED-2" data-name="LED"><path class="cls-1" d="M1094.62,462.31l15.14,8.74,15.14,8.74-15.14,8.74-15.14,8.74v-35m-5-8.66v52.28l22.64-13.07,22.63-13.07-22.63-13.07-22.64-13.07Z"/><polyline class="cls-2" points="1132.38 505.93 1132.38 479.79 1132.38 453.65"/></g><path class="cls-1" d="M1146.86,463.91l-.22-1.12a3,3,0,0,1-2.56,1.31,3.9,3.9,0,0,1-3-1.14,5.48,5.48,0,0,1-1.32-4.13,5.26,5.26,0,0,1,1.32-4.1,4.35,4.35,0,0,1,3-1.19,4.23,4.23,0,0,1,3,1.16,3.1,3.1,0,0,1,.93,2.06h-1.89a1.58,1.58,0,0,0-.45-.94,2,2,0,0,0-1.62-.62,2.4,2.4,0,0,0-1.67.69,4.33,4.33,0,0,0-.79,2.94,4.47,4.47,0,0,0,.8,3,2.36,2.36,0,0,0,1.66.65,2,2,0,0,0,1.52-.59,2.61,2.61,0,0,0,.66-2h-2.43v-1.53h4.23v5.57Z"/><g id="LED-3" data-name="LED"><path class="cls-1" d="M1094.62,526.65l15.14,8.74,15.14,8.74-15.14,8.74-15.14,8.74v-35m-5-8.66v52.28l22.64-13.07,22.63-13.07-22.63-13.07L1089.62,518Z"/><polyline class="cls-2" points="1132.38 570.27 1132.38 544.13 1132.38 517.99"/></g><path class="cls-1" d="M1147.09,527.17a4.23,4.23,0,0,1-2.72.69h-4v-10.2h4a4.28,4.28,0,0,1,2.36.56,2.66,2.66,0,0,1,1.17,2.21,2.3,2.3,0,0,1-1.25,2.16,2.48,2.48,0,0,1,1.47,2.3A2.74,2.74,0,0,1,1147.09,527.17Zm-2.65-7.92h-2.28v2.56h2.32c.84,0,1.54-.3,1.54-1.26S1145.27,519.25,1144.44,519.25Zm.06,4.12h-2.34v2.83h2.28c.86,0,1.8-.32,1.8-1.35S1145.48,523.37,1144.5,523.37Z"/><rect class="cls-2" x="1053.03" y="366.44" width="132.51" height="224.43"/><path class="cls-1" d="M1200,372.7l-1.41-3.21h-1.89v3.21h-1.55v-8.5h3.58a2.63,2.63,0,0,1,3,2.64,2.45,2.45,0,0,1-1.56,2.39l1.56,3.47Zm-1.27-7.14h-2v2.54h2.07a1.2,1.2,0,0,0,1.37-1.26A1.3,1.3,0,0,0,1198.71,365.56Z"/><path class="cls-1" d="M1208.49,372.7l-.18-.93a2.49,2.49,0,0,1-2.13,1.09,3.28,3.28,0,0,1-2.54-.95,4.63,4.63,0,0,1-1.1-3.45,4.41,4.41,0,0,1,1.1-3.42,3.66,3.66,0,0,1,2.54-1,3.48,3.48,0,0,1,2.51,1,2.57,2.57,0,0,1,.78,1.71h-1.58a1.33,1.33,0,0,0-.37-.78,1.71,1.71,0,0,0-1.36-.51,2,2,0,0,0-1.39.57,3.61,3.61,0,0,0-.66,2.45,3.75,3.75,0,0,0,.67,2.48,2,2,0,0,0,1.38.54,1.7,1.7,0,0,0,1.27-.49,2.18,2.18,0,0,0,.56-1.66h-2v-1.28h3.53v4.65Z"/><path class="cls-1" d="M1216.89,372.14a3.59,3.59,0,0,1-2.27.58h-3.38V364.2h3.38a3.62,3.62,0,0,1,2,.47,2.21,2.21,0,0,1,1,1.85,1.92,1.92,0,0,1-1,1.79,2.09,2.09,0,0,1,1.22,1.92A2.29,2.29,0,0,1,1216.89,372.14Zm-2.21-6.61h-1.9v2.14h1.94c.69,0,1.28-.25,1.28-1.06S1215.38,365.53,1214.68,365.53Zm0,3.43h-2v2.36h1.9c.72,0,1.5-.26,1.5-1.12S1215.55,369,1214.73,369Z"/><path class="cls-1" d="M1221.72,372.7v-8.5h1.54v7h4v1.46Z"/><path class="cls-1" d="M1228.32,372.7v-8.5h6v1.4h-4.51v2h4V369h-4v2.33h4.51v1.4Z"/><path class="cls-1" d="M1241.55,371.79a3.25,3.25,0,0,1-2.39.91h-3.31v-8.5h3.31a3.25,3.25,0,0,1,2.39.91,6.08,6.08,0,0,1,0,6.68Zm-1.19-5.72a1.68,1.68,0,0,0-1.2-.48h-1.76v5.72h1.76a1.68,1.68,0,0,0,1.2-.48,4.95,4.95,0,0,0,0-4.76Z"/><g id="LED-4" data-name="LED"><path class="cls-1" d="M1094.62,90.06l15.14,8.74,15.14,8.74-15.14,8.74L1094.62,125v-35m-5-8.66v52.28l22.64-13.07,22.63-13.07-22.63-13.07L1089.62,81.4Z"/><polyline class="cls-2" points="1132.38 133.68 1132.38 107.54 1132.38 81.4"/></g><path class="cls-1" d="M1146.14,91.41l-1.7-3.85h-2.26v3.85h-1.86V81.22h4.29c2.43,0,3.54,1.52,3.54,3.16a2.94,2.94,0,0,1-1.87,2.86l1.87,4.17Zm-1.53-8.57h-2.44v3h2.47a1.44,1.44,0,0,0,1.65-1.51A1.56,1.56,0,0,0,1144.61,82.84Z"/><g id="LED-5" data-name="LED"><path class="cls-1" d="M1094.62,154.4l15.14,8.74,15.14,8.74-15.14,8.74-15.14,8.74v-35m-5-8.66V198L1112.26,185l22.63-13.07-22.63-13.07-22.64-13.07Z"/><polyline class="cls-2" points="1132.38 198.02 1132.38 171.88 1132.38 145.74"/></g><path class="cls-1" d="M1146.86,156l-.22-1.12a3,3,0,0,1-2.56,1.31,3.9,3.9,0,0,1-3-1.14,5.51,5.51,0,0,1-1.32-4.14,5.26,5.26,0,0,1,1.32-4.1,4.39,4.39,0,0,1,3-1.19,4.19,4.19,0,0,1,3,1.17,3.08,3.08,0,0,1,.93,2.05h-1.89a1.58,1.58,0,0,0-.45-.93,2,2,0,0,0-1.62-.62,2.4,2.4,0,0,0-1.67.69,4.3,4.3,0,0,0-.79,2.93,4.5,4.5,0,0,0,.8,3,2.35,2.35,0,0,0,1.66.64,2,2,0,0,0,1.52-.59,2.58,2.58,0,0,0,.66-2h-2.43v-1.54h4.23V156Z"/><g id="LED-6" data-name="LED"><path class="cls-1" d="M1094.62,218.74l15.14,8.74,15.14,8.74L1109.76,245l-15.14,8.74v-35m-5-8.66v52.28l22.64-13.07,22.63-13.07-22.63-13.07-22.64-13.07Z"/><polyline class="cls-2" points="1132.38 262.36 1132.38 236.22 1132.38 210.08"/></g><path class="cls-1" d="M1147.09,219.26a4.3,4.3,0,0,1-2.72.69h-4V209.74h4a4.37,4.37,0,0,1,2.36.56,2.67,2.67,0,0,1,1.17,2.22,2.29,2.29,0,0,1-1.25,2.15,2.5,2.5,0,0,1,1.47,2.3A2.75,2.75,0,0,1,1147.09,219.26Zm-2.65-7.92h-2.28v2.56h2.32c.84,0,1.54-.3,1.54-1.27S1145.27,211.34,1144.44,211.34Zm.06,4.11h-2.34v2.83h2.28c.86,0,1.8-.31,1.8-1.35S1145.48,215.45,1144.5,215.45Z"/><rect class="cls-2" x="1053.03" y="58.53" width="132.51" height="224.43"/><path class="cls-1" d="M1200,64.79l-1.41-3.22h-1.89v3.22h-1.55v-8.5h3.58a2.62,2.62,0,0,1,3,2.63,2.45,2.45,0,0,1-1.56,2.39l1.56,3.48Zm-1.27-7.15h-2v2.54h2.07a1.2,1.2,0,0,0,1.37-1.26A1.3,1.3,0,0,0,1198.71,57.64Z"/><path class="cls-1" d="M1208.49,64.79l-.18-.94a2.47,2.47,0,0,1-2.13,1.09,3.23,3.23,0,0,1-2.54-.94,4.67,4.67,0,0,1-1.1-3.46,4.38,4.38,0,0,1,1.1-3.41,3.66,3.66,0,0,1,2.54-1,3.48,3.48,0,0,1,2.51,1,2.57,2.57,0,0,1,.78,1.72h-1.58a1.28,1.28,0,0,0-.37-.78,1.71,1.71,0,0,0-1.36-.52,2,2,0,0,0-1.39.58,3.58,3.58,0,0,0-.66,2.44,3.8,3.8,0,0,0,.67,2.49,2,2,0,0,0,1.38.54,1.7,1.7,0,0,0,1.27-.5,2.16,2.16,0,0,0,.56-1.65h-2V60.14h3.53v4.65Z"/><path class="cls-1" d="M1216.89,64.23a3.58,3.58,0,0,1-2.27.57h-3.38V56.29h3.38a3.61,3.61,0,0,1,2,.46,2.22,2.22,0,0,1,1,1.85,1.92,1.92,0,0,1-1,1.8,2.08,2.08,0,0,1,1.22,1.92A2.3,2.3,0,0,1,1216.89,64.23Zm-2.21-6.61h-1.9v2.13h1.94c.69,0,1.28-.25,1.28-1S1215.38,57.62,1214.68,57.62Zm0,3.43h-2v2.36h1.9c.72,0,1.5-.26,1.5-1.13S1215.55,61.05,1214.73,61.05Z"/><path class="cls-1" d="M1221.72,64.79v-8.5h1.54v7h4v1.46Z"/><path class="cls-1" d="M1228.32,64.79v-8.5h6v1.4h-4.51v2h4v1.39h-4v2.33h4.51v1.4Z"/><path class="cls-1" d="M1241.55,63.88a3.25,3.25,0,0,1-2.39.91h-3.31v-8.5h3.31a3.25,3.25,0,0,1,2.39.91,4.55,4.55,0,0,1,1,3.33A4.59,4.59,0,0,1,1241.55,63.88Zm-1.19-5.72a1.68,1.68,0,0,0-1.2-.48h-1.76V63.4h1.76a1.68,1.68,0,0,0,1.2-.48,3.36,3.36,0,0,0,.61-2.39A3.31,3.31,0,0,0,1240.36,58.16Z"/><path class="cls-1" d="M450.13,278.58h-3.6v6.09h-3.08v-17h6.68c3.91,0,6,2.18,6,5.44S454,278.58,450.13,278.58Zm-.12-8.21h-3.48v5.5H450c2.06,0,3-1.11,3-2.74S452.07,270.37,450,270.37Z"/><path class="cls-1" d="M458.43,284.67v-17h3.14v17Z"/><path class="cls-1" d="M476,284.67,468.61,273v11.69h-3.05v-17h3.29l7.27,11.52V267.66h3.05v17Z"/><path class="cls-1" d="M492.63,284.67V271.54L489,274.21v-3.27l4.1-2.95h2.57v16.68Z"/><path class="cls-1" d="M506.31,284.67V271.54l-3.67,2.67v-3.27l4.1-2.95h2.57v16.68Z"/><path class="cls-1" d="M524.48,288.71a17.7,17.7,0,0,1,0-23.29l1.7,1.28a16.79,16.79,0,0,0,0,20.73Z"/><path class="cls-1" d="M535.08,278.58h-3.6v6.09h-3.07v-17h6.67c3.92,0,6,2.18,6,5.44S539,278.58,535.08,278.58Zm-.12-8.21h-3.48v5.5H535c2.07,0,3-1.11,3-2.74S537,270.37,535,270.37Z"/><path class="cls-1" d="M558.53,284.67h-3.09l-3.56-11.73-3.55,11.73h-3.09l-3.44-17h3l2.37,11.83,3.51-11.57h2.59l3.43,11.57,2.43-11.83h2.83Z"/><path class="cls-1" d="M578.41,284.67V272.53L574,284.43h-2.28l-4.39-12.05v12.29h-3v-17h4.17L573,279.78l4.48-12.12h4v17Z"/><path class="cls-1" d="M585.34,288.71l-1.7-1.28a16.83,16.83,0,0,0,0-20.73l1.7-1.28a17.7,17.7,0,0,1,0,23.29Z"/><path class="cls-1" d="M450.81,326.21h-3.6v6.09h-3.08v-17h6.68c3.91,0,6,2.19,6,5.45S454.72,326.21,450.81,326.21Zm-.12-8.21h-3.48v5.49h3.48c2.06,0,3-1.1,3-2.73S452.75,318,450.69,318Z"/><path class="cls-1" d="M459.11,332.3v-17h3.15v17Z"/><path class="cls-1" d="M476.66,332.3l-7.37-11.69V332.3h-3.05v-17h3.29l7.27,11.53V315.28h3.05v17Z"/><path class="cls-1" d="M493.31,332.3V319.17l-3.67,2.67v-3.27l4.1-2.95h2.57V332.3Z"/><path class="cls-1" d="M511.26,331.13a5.84,5.84,0,0,1-7.77,0c-1.73-1.66-2-4.44-2-7.18s.27-5.52,2-7.18a5.9,5.9,0,0,1,7.77,0c1.73,1.66,2,4.44,2,7.18S513,329.47,511.26,331.13Zm-3.89-13.06c-3.09,0-2.83,3.72-2.83,5.88s-.26,5.88,2.83,5.88,2.84-3.72,2.84-5.88S510.47,318.07,507.37,318.07Z"/><path class="cls-1" d="M525.16,336.33a17.69,17.69,0,0,1,0-23.28l1.7,1.27a16.85,16.85,0,0,0,0,20.74Z"/><path class="cls-1" d="M535.77,326.21h-3.6v6.09h-3.08v-17h6.68c3.91,0,6,2.19,6,5.45S539.68,326.21,535.77,326.21Zm-.12-8.21h-3.48v5.49h3.48c2.06,0,3-1.1,3-2.73S537.71,318,535.65,318Z"/><path class="cls-1" d="M559.21,332.3h-3.09l-3.55-11.73L549,332.3h-3.09l-3.43-17h3l2.37,11.84,3.51-11.57h2.59l3.43,11.57,2.43-11.84h2.83Z"/><path class="cls-1" d="M579.09,332.3V320.16l-4.42,11.9h-2.28L568,320V332.3h-3v-17h4.17l4.47,12.13,4.49-12.13h4v17Z"/><path class="cls-1" d="M586,336.33l-1.7-1.27a16.85,16.85,0,0,0,0-20.74l1.7-1.27a17.69,17.69,0,0,1,0,23.28Z"/><path class="cls-1" d="M450.81,373.83h-3.6v6.1h-3.08v-17h6.68c3.91,0,6,2.19,6,5.45S454.72,373.83,450.81,373.83Zm-.12-8.2h-3.48v5.49h3.48c2.06,0,3-1.1,3-2.73S452.75,365.63,450.69,365.63Z"/><path class="cls-1" d="M459.11,379.93v-17h3.15v17Z"/><path class="cls-1" d="M476.66,379.93l-7.37-11.69v11.69h-3.05v-17h3.29l7.27,11.52V362.91h3.05v17Z"/><path class="cls-1" d="M497.54,378.56a5.21,5.21,0,0,1-4.09,1.68,5.37,5.37,0,0,1-3.81-1.36,4.43,4.43,0,0,1-1.42-3.08h3a2,2,0,0,0,.57,1.27,2.31,2.31,0,0,0,1.78.6,2.2,2.2,0,0,0,1.66-.67,5.21,5.21,0,0,0,1.15-3.81,4.38,4.38,0,0,1-3.17,1.22c-3.6,0-5.5-2.3-5.5-5.69s1.95-5.78,5.74-5.78c3.17,0,5.14,2.23,5.64,5.23a17.44,17.44,0,0,1,.26,3.12C499.38,373.74,499.24,376.74,497.54,378.56Zm-4.06-13c-1.8,0-2.69,1.3-2.69,3.24,0,1.73.89,3.12,2.74,3.12,1.6,0,2.59-1.37,2.59-3.12S495.26,365.6,493.48,365.6Z"/><path class="cls-1" d="M511.48,384a17.69,17.69,0,0,1,0-23.28l1.7,1.27a16.85,16.85,0,0,0,0,20.74Z"/><path class="cls-1" d="M522.09,373.83h-3.6v6.1h-3.08v-17h6.68c3.91,0,6,2.19,6,5.45S526,373.83,522.09,373.83Zm-.12-8.2h-3.48v5.49H522c2.06,0,3-1.1,3-2.73S524,365.63,522,365.63Z"/><path class="cls-1" d="M545.54,379.93h-3.1l-3.55-11.74-3.56,11.74h-3.09l-3.43-17h3l2.37,11.84,3.51-11.57h2.59l3.43,11.57,2.43-11.84h2.83Z"/><path class="cls-1" d="M565.41,379.93V367.79L561,379.69h-2.28l-4.39-12.05v12.29h-3v-17h4.17L560,375l4.49-12.12h4v17Z"/><path class="cls-1" d="M572.34,384l-1.7-1.27a16.85,16.85,0,0,0,0-20.74l1.7-1.27a17.69,17.69,0,0,1,0,23.28Z"/><path class="cls-1" d="M78.59,789.64H75v6.09H71.92v-17h6.67c3.91,0,6,2.18,6,5.45S82.5,789.64,78.59,789.64Zm-.12-8.21H75v5.5h3.48c2.07,0,3-1.11,3-2.74S80.54,781.43,78.47,781.43Z"/><path class="cls-1" d="M86.9,795.73v-17H90v17Z"/><path class="cls-1" d="M104.44,795.73l-7.37-11.68v11.68H94v-17h3.29l7.27,11.52V778.72h3v17Z"/><path class="cls-1" d="M121.33,796.05a5.33,5.33,0,0,1-5.66-5.14h3a2.52,2.52,0,0,0,2.69,2.5,2.44,2.44,0,0,0,2.64-2.5c0-1.73-1.37-2.52-2.93-2.52h-1.25v-2.62h1.25c1.63,0,2.57-.67,2.57-2.23a2.2,2.2,0,0,0-2.28-2.18c-1.49,0-2.55.74-2.57,2.25h-3c0-3.14,2.54-4.87,5.59-4.87s5.33,1.85,5.33,4.73a3.78,3.78,0,0,1-2.4,3.58A4,4,0,0,1,127,791C127,794.29,124.48,796.05,121.33,796.05Z"/><line class="cls-2" x1="815.78" y1="278.7" x2="969.67" y2="278.7"/><line class="cls-2" x1="815.78" y1="326.33" x2="919.29" y2="326.33"/><line class="cls-2" x1="815.78" y1="373.96" x2="869.08" y2="373.96"/><polyline class="cls-2" points="1089.62 415.45 969.67 415.45 969.67 107.54 1089.62 107.54"/><line class="cls-2" x1="1089.62" y1="171.88" x2="977.33" y2="171.88"/><polyline class="cls-2" points="919.29 270.31 919.29 171.88 960.82 171.88"/><polyline class="cls-2" points="1089.62 479.79 919.29 479.79 919.29 289.03"/><line class="cls-2" x1="869.08" y1="318.73" x2="869.08" y2="287.33"/><line class="cls-2" x1="1089.62" y1="236.22" x2="977.33" y2="236.22"/><line class="cls-2" x1="960.82" y1="236.22" x2="929.08" y2="236.22"/><polyline class="cls-2" points="911.46 236.22 869.08 236.22 869.08 270.31"/><polyline class="cls-2" points="1089.62 544.13 869.08 544.13 869.08 337.37"/><line class="cls-2" x1="1359.12" y1="373.96" x2="1359.12" y2="278.7"/><line class="cls-2" x1="1377.33" y1="359.6" x2="1377.33" y2="293.06"/><line class="cls-2" x1="1395.55" y1="345.25" x2="1395.55" y2="307.41"/><line class="cls-2" x1="135.92" y1="819.61" x2="135.92" y2="914.86"/><line class="cls-2" x1="117.71" y1="833.96" x2="117.71" y2="900.51"/><line class="cls-2" x1="99.5" y1="848.32" x2="99.5" y2="886.15"/><line class="cls-2" x1="1359.12" y1="326.33" x2="1291.72" y2="326.33"/><polyline class="cls-2" points="1132.38 107.54 1291.71 107.54 1291.71 544.13 1134.89 544.13"/><line class="cls-2" x1="1132.38" y1="171.88" x2="1291.72" y2="171.88"/><line class="cls-2" x1="1132.38" y1="236.22" x2="1291.72" y2="236.22"/><line class="cls-2" x1="1132.38" y1="479.79" x2="1291.72" y2="479.79"/><line class="cls-2" x1="1132.38" y1="415.45" x2="1291.72" y2="415.45"/><rect class="cls-2" x="341.64" y="751.69" width="65.49" height="135.83"/><polygon class="cls-2" points="502.21 944.71 407.13 887.52 407.13 751.69 502.21 694.5 502.21 944.71"/><path class="cls-1" d="M522.68,697.17a3.81,3.81,0,0,1-2.69.91,3.7,3.7,0,0,1-2.54-.88,2.67,2.67,0,0,1-.89-2h1.58a1.54,1.54,0,0,0,.45,1,2,2,0,0,0,1.43.45,2.07,2.07,0,0,0,1.47-.45,1.08,1.08,0,0,0,.34-.82c0-.62-.48-.91-1-1s-1.32-.13-1.88-.23a2.33,2.33,0,0,1-2.16-2.37,2.36,2.36,0,0,1,.74-1.68,3.64,3.64,0,0,1,2.5-.9,3.51,3.51,0,0,1,2.37.83,2.57,2.57,0,0,1,.86,1.81h-1.58a1.4,1.4,0,0,0-.37-.84,2,2,0,0,0-1.3-.46,1.92,1.92,0,0,0-1.38.47,1,1,0,0,0-.28.72.91.91,0,0,0,.86.93c.54.08,1.29.14,1.85.21a2.48,2.48,0,0,1,2.34,2.46A2.41,2.41,0,0,1,522.68,697.17Z"/><path class="cls-1" d="M528.11,694.88h-1.79v3h-1.54v-8.5h3.33c2,0,3,1.09,3,2.72S530.07,694.88,528.11,694.88Zm-.06-4.11h-1.73v2.75h1.73c1,0,1.5-.55,1.5-1.37S529.09,690.77,528.05,690.77Z"/><path class="cls-1" d="M532.27,697.92v-8.5h6.06v1.4h-4.51v2h4v1.39h-4v2.33h4.51v1.4Z"/><path class="cls-1" d="M544.85,697.92l-.55-1.63h-3.38l-.55,1.63h-1.56l3-8.5h1.69l3,8.5Zm-2.24-6.61-1.21,3.59h2.42Z"/><path class="cls-1" d="M552.79,697.92l-2.31-4L549,695.62v2.3h-1.55v-8.5H549v3.92l3.39-3.92h1.89l-2.74,3.21,3.05,5.29Z"/><path class="cls-1" d="M555.61,697.92v-8.5h6.06v1.4h-4.51v2h4v1.39h-4v2.33h4.51v1.4Z"/><path class="cls-1" d="M568,697.92l-1.41-3.21H564.7v3.21h-1.56v-8.5h3.59a2.63,2.63,0,0,1,2.95,2.64,2.44,2.44,0,0,1-1.56,2.38l1.56,3.48Zm-1.27-7.15h-2v2.55h2.06c.88,0,1.38-.46,1.38-1.26A1.3,1.3,0,0,0,566.73,690.77Z"/><line class="cls-2" x1="145.17" y1="786.93" x2="341.64" y2="786.93"/><line class="cls-2" x1="738.39" y1="761" x2="643.13" y2="761"/><line class="cls-2" x1="724.04" y1="742.78" x2="657.49" y2="742.78"/><line class="cls-2" x1="709.68" y1="724.57" x2="671.84" y2="724.57"/><line class="cls-2" x1="738.39" y1="724.57" x2="643.13" y2="724.57"/><line class="cls-2" x1="724.04" y1="706.36" x2="657.49" y2="706.36"/><polyline class="cls-2" points="791.95 676.71 690.76 676.71 690.76 706.36"/><polyline class="cls-2" points="791.95 790.65 690.76 790.65 690.76 761"/><line class="cls-2" x1="1381.4" y1="847.02" x2="1286.14" y2="847.02"/><line class="cls-2" x1="1367.04" y1="828.8" x2="1300.49" y2="828.8"/><line class="cls-2" x1="1352.69" y1="810.59" x2="1314.85" y2="810.59"/><line class="cls-2" x1="1381.4" y1="810.59" x2="1286.14" y2="810.59"/><line class="cls-2" x1="1367.04" y1="792.38" x2="1300.49" y2="792.38"/><line class="cls-2" x1="738.39" y1="949.42" x2="643.13" y2="949.42"/><line class="cls-2" x1="724.04" y1="931.21" x2="657.49" y2="931.21"/><line class="cls-2" x1="709.68" y1="913" x2="671.84" y2="913"/><line class="cls-2" x1="738.39" y1="913" x2="643.13" y2="913"/><line class="cls-2" x1="724.04" y1="894.78" x2="657.49" y2="894.78"/><polyline class="cls-2" points="727.9 865.13 690.76 865.13 690.76 894.78"/><polyline class="cls-2" points="795.56 979.07 690.76 979.07 690.76 949.42"/><path class="cls-1" d="M1039.36,737h-3.6v6.1h-3.07v-17h6.67c3.91,0,6,2.18,6,5.45S1043.27,737,1039.36,737Zm-.12-8.21h-3.48v5.5h3.48c2.06,0,3-1.1,3-2.74S1041.3,728.76,1039.24,728.76Z"/><path class="cls-1" d="M1047.66,743.07v-17h3.15v17Z"/><path class="cls-1" d="M1065.21,743.07l-7.37-11.69v11.69h-3v-17h3.29l7.27,11.52V726.05h3.05v17Z"/><path class="cls-1" d="M1087.5,743.07l-1.1-3.27h-6.77l-1.1,3.27h-3.12l6-17h3.39l6,17ZM1083,729.84l-2.43,7.18h4.85Z"/><path class="cls-1" d="M1097.2,743.07V729.94l-3.67,2.66v-3.26l4.1-3h2.57v16.68Z"/><path class="cls-1" d="M1115.37,747.1a17.69,17.69,0,0,1,0-23.28l1.7,1.27a16.81,16.81,0,0,0,0,20.74Z"/><path class="cls-1" d="M1129.41,743.07l-1.11-3.27h-6.77l-1.1,3.27h-3.12l6-17h3.38l6,17Zm-4.49-13.23-2.43,7.18h4.85Z"/><path class="cls-1" d="M1145.06,743.07l-7.37-11.69v11.69h-3v-17h3.29l7.27,11.52V726.05h3v17Z"/><path class="cls-1" d="M1162.34,743.07l-1.11-3.27h-6.77l-1.1,3.27h-3.12l6-17h3.39l6,17Zm-4.49-13.23-2.43,7.18h4.85Z"/><path class="cls-1" d="M1167.57,743.07v-17h3.09v14.09h7.9v2.93Z"/><path class="cls-1" d="M1191.13,741.46a7.2,7.2,0,0,1-9.79,0c-1.85-1.85-2.16-4.1-2.16-6.89s.31-5.06,2.16-6.91a7.2,7.2,0,0,1,9.79,0c1.85,1.85,2.16,4.13,2.16,6.91S1193,739.61,1191.13,741.46Zm-2.2-11.78a3.77,3.77,0,0,0-5.38,0c-1.18,1.22-1.22,3.33-1.22,4.89s0,3.65,1.22,4.87a3.77,3.77,0,0,0,5.38,0c1.17-1.22,1.22-3.31,1.22-4.87S1190.1,730.9,1188.93,729.68Z"/><path class="cls-1" d="M1207.21,743.07l-.36-1.87a5,5,0,0,1-4.27,2.18,6.5,6.5,0,0,1-5.06-1.9c-1.78-1.84-2.21-4.12-2.21-6.91s.36-5,2.21-6.84a7.33,7.33,0,0,1,5.06-2,7,7,0,0,1,5,1.94,5.23,5.23,0,0,1,1.56,3.44H1206a2.58,2.58,0,0,0-.74-1.56,3.42,3.42,0,0,0-2.71-1,4,4,0,0,0-2.79,1.16c-1.17,1.22-1.32,3.33-1.32,4.89s.17,3.75,1.35,5a3.87,3.87,0,0,0,2.76,1.08,3.41,3.41,0,0,0,2.54-1,4.39,4.39,0,0,0,1.11-3.32h-4.06v-2.56h7.06v9.31Z"/><path class="cls-1" d="M1217.73,743.07v-17h3.14v17Z"/><path class="cls-1" d="M1235.27,743.07l-7.37-11.69v11.69h-3.05v-17h3.29l7.27,11.52V726.05h3v17Z"/><path class="cls-1" d="M1242.4,747.1l-1.71-1.27a16.81,16.81,0,0,0,0-20.74l1.71-1.27a17.69,17.69,0,0,1,0,23.28Z"/><path class="cls-1" d="M1660.77,819.57h-3.59v6.1h-3.08v-17h6.67c3.92,0,6,2.18,6,5.45S1664.69,819.57,1660.77,819.57Zm-.11-8.21h-3.48v5.5h3.48c2.06,0,3-1.11,3-2.74S1662.72,811.36,1660.66,811.36Z"/><path class="cls-1" d="M1669.08,825.67v-17h3.14v17Z"/><path class="cls-1" d="M1686.62,825.67,1679.26,814v11.69h-3v-17h3.28l7.28,11.52V808.65h3v17Z"/><path class="cls-1" d="M1708.92,825.67l-1.11-3.27h-6.76l-1.11,3.27h-3.12l6-17h3.38l6,17Zm-4.49-13.23-2.42,7.18h4.84Z"/><path class="cls-1" d="M1723.49,824.49a5.82,5.82,0,0,1-7.78,0c-1.73-1.65-2-4.44-2-7.17s.26-5.53,2-7.18a5.88,5.88,0,0,1,7.78,0c1.72,1.65,2,4.44,2,7.18S1725.21,822.84,1723.49,824.49Zm-3.89-13.06c-3.1,0-2.83,3.73-2.83,5.89s-.27,5.88,2.83,5.88,2.83-3.72,2.83-5.88S1722.69,811.43,1719.6,811.43Z"/><path class="cls-1" d="M1737.38,829.7a17.69,17.69,0,0,1,0-23.28l1.71,1.27a16.81,16.81,0,0,0,0,20.74Z"/><path class="cls-1" d="M1751.42,825.67l-1.1-3.27h-6.77l-1.11,3.27h-3.12l6-17h3.39l6,17Zm-4.49-13.23-2.42,7.18h4.85Z"/><path class="cls-1" d="M1767.07,825.67,1759.7,814v11.69h-3v-17h3.29l7.27,11.52V808.65h3v17Z"/><path class="cls-1" d="M1784.35,825.67l-1.1-3.27h-6.77l-1.11,3.27h-3.12l6-17h3.38l6,17Zm-4.49-13.23-2.42,7.18h4.85Z"/><path class="cls-1" d="M1789.58,825.67v-17h3.1v14.09h7.89v2.93Z"/><path class="cls-1" d="M1813.15,824.06a7.2,7.2,0,0,1-9.79,0c-1.85-1.85-2.16-4.1-2.16-6.89s.31-5.06,2.16-6.91a7.2,7.2,0,0,1,9.79,0c1.85,1.85,2.16,4.13,2.16,6.91S1815,822.21,1813.15,824.06Zm-2.21-11.79a3.79,3.79,0,0,0-5.38,0c-1.17,1.23-1.22,3.34-1.22,4.9s.05,3.65,1.22,4.87a3.77,3.77,0,0,0,5.38,0c1.18-1.22,1.23-3.31,1.23-4.87S1812.12,813.5,1810.94,812.27Z"/><path class="cls-1" d="M1829.23,825.67l-.36-1.87a5,5,0,0,1-4.27,2.18,6.53,6.53,0,0,1-5.07-1.9c-1.77-1.84-2.21-4.12-2.21-6.91s.36-5,2.21-6.84a7.31,7.31,0,0,1,5.07-2,7.08,7.08,0,0,1,5,1.94,5.27,5.27,0,0,1,1.56,3.43H1828a2.7,2.7,0,0,0-.75-1.56,3.43,3.43,0,0,0-2.71-1,4,4,0,0,0-2.78,1.15c-1.18,1.23-1.32,3.34-1.32,4.9s.17,3.75,1.34,5a3.88,3.88,0,0,0,2.76,1.08,3.44,3.44,0,0,0,2.55-1,4.38,4.38,0,0,0,1.1-3.32h-4.06v-2.57h7.06v9.32Z"/><path class="cls-1" d="M1839.74,825.67v-17h3.14v17Z"/><path class="cls-1" d="M1857.28,825.67,1849.92,814v11.69h-3.05v-17h3.29l7.27,11.52V808.65h3v17Z"/><path class="cls-1" d="M1864.41,829.7l-1.7-1.27a16.85,16.85,0,0,0,0-20.74l1.7-1.27a17.69,17.69,0,0,1,0,23.28Z"/><path class="cls-1" d="M1017.34,923.5h-3.6v6.1h-3.07v-17h6.67c3.91,0,6,2.19,6,5.45S1021.25,923.5,1017.34,923.5Zm-.12-8.2h-3.48v5.49h3.48c2.06,0,3-1.1,3-2.73S1019.28,915.3,1017.22,915.3Z"/><path class="cls-1" d="M1025.64,929.6v-17h3.15v17Z"/><path class="cls-1" d="M1043.19,929.6l-7.37-11.69V929.6h-3v-17h3.29l7.27,11.52V912.58h3.05v17Z"/><path class="cls-1" d="M1060.37,929.94c-3.31,0-5.62-2.07-5.78-5.21h3a2.55,2.55,0,0,0,2.8,2.54c2,0,2.74-1.46,2.74-3.26s-.82-3-2.74-3a3,3,0,0,0-2.49,1.35h-3l.37-9.41h10.12v2.69h-7.53l-.19,3.81a4.56,4.56,0,0,1,3.31-1.08c3.36,0,5.16,2.43,5.16,5.6C1066.18,927.46,1064.09,929.94,1060.37,929.94Z"/><path class="cls-1" d="M1078,933.63a17.69,17.69,0,0,1,0-23.28l1.7,1.27a16.85,16.85,0,0,0,0,20.74Z"/><path class="cls-1" d="M1093.35,927.78a6.56,6.56,0,0,1-4.78,1.82h-6.63v-17h6.63a6.52,6.52,0,0,1,4.78,1.83c1.75,1.8,2,4.32,2,6.67S1095.1,926,1093.35,927.78ZM1091,916.33a3.36,3.36,0,0,0-2.4-1H1085v11.45h3.53a3.41,3.41,0,0,0,2.4-1c1.2-1.2,1.22-3.22,1.22-4.78S1092.17,917.53,1091,916.33Z"/><path class="cls-1" d="M1098.36,929.6v-17h3.14v17Z"/><path class="cls-1" d="M1116.41,929.6l-.36-1.87a5,5,0,0,1-4.27,2.18,6.53,6.53,0,0,1-5.07-1.89c-1.77-1.85-2.21-4.13-2.21-6.92s.36-5,2.21-6.84a7.35,7.35,0,0,1,5.07-2,7,7,0,0,1,5,2,5.23,5.23,0,0,1,1.56,3.43h-3.17a2.66,2.66,0,0,0-.74-1.56,3.42,3.42,0,0,0-2.72-1,4,4,0,0,0-2.78,1.15c-1.18,1.22-1.32,3.33-1.32,4.89s.17,3.75,1.34,5a3.88,3.88,0,0,0,2.76,1.08,3.44,3.44,0,0,0,2.55-1,4.37,4.37,0,0,0,1.1-3.31h-4.05v-2.57h7.05v9.31Z"/><path class="cls-1" d="M1121.9,929.6v-17h3.15v17Z"/><path class="cls-1" d="M1135.32,915.46V929.6h-3.1V915.46h-5v-2.88h13.18v2.88Z"/><path class="cls-1" d="M1150.92,929.6l-1.1-3.26h-6.77l-1.11,3.26h-3.12l6-17h3.39l6,17Zm-4.49-13.22-2.42,7.17h4.85Z"/><path class="cls-1" d="M1156.15,929.6v-17h3.1v14.09h7.89v2.93Z"/><path class="cls-1" d="M1173.77,929.6v-17h3.14v17Z"/><path class="cls-1" d="M1191.31,929.6l-7.37-11.69V929.6h-3v-17h3.28l7.28,11.52V912.58h3v17Z"/><path class="cls-1" d="M1198.44,933.63l-1.7-1.27a16.85,16.85,0,0,0,0-20.74l1.7-1.27a17.69,17.69,0,0,1,0,23.28Z"/><line class="cls-2" x1="801.83" y1="1006.19" x2="857.35" y2="979.07"/><circle class="cls-2" cx="857.35" cy="979.07" r="1.79"/><circle class="cls-2" cx="795.56" cy="979.07" r="1.79"/><polyline class="cls-2" points="1418.13 713.3 1333.77 713.3 1333.77 792.38"/><rect class="cls-2" x="1418.13" y="673" width="137.36" height="80.59" rx="22.6"/><path class="cls-2" d="M1555.5,713.3h-9.45a5.62,5.62,0,0,1-5.62-5.62V697.26a5.62,5.62,0,0,0-5.61-5.62H1531a5.61,5.61,0,0,0-5.61,5.61v32.1a5.62,5.62,0,0,1-5.62,5.61h-3.83a5.62,5.62,0,0,1-5.62-5.61v-32.1a5.61,5.61,0,0,0-5.61-5.61h-3.83a5.61,5.61,0,0,0-5.62,5.61v32.1a5.61,5.61,0,0,1-5.62,5.61h-3.83a5.61,5.61,0,0,1-5.61-5.61v-32.1a5.62,5.62,0,0,0-5.62-5.61h-3.83a5.62,5.62,0,0,0-5.62,5.61v32.1a5.61,5.61,0,0,1-5.61,5.61h-3.83a5.62,5.62,0,0,1-5.62-5.62V697.26a5.62,5.62,0,0,0-5.62-5.62h-3.83a5.62,5.62,0,0,0-5.62,5.62v10.42a5.61,5.61,0,0,1-5.61,5.62h-11.24"/><rect class="cls-2" x="1418.13" y="885.8" width="137.36" height="80.59" rx="22.6"/><path class="cls-2" d="M1555.5,926.09h-9.45a5.62,5.62,0,0,1-5.62-5.61V910.05a5.61,5.61,0,0,0-5.61-5.61H1531a5.6,5.6,0,0,0-5.61,5.61v32.09a5.62,5.62,0,0,1-5.62,5.61h-3.83a5.62,5.62,0,0,1-5.62-5.61V910.05a5.6,5.6,0,0,0-5.61-5.61h-3.83a5.6,5.6,0,0,0-5.62,5.61v32.09a5.61,5.61,0,0,1-5.62,5.61h-3.83a5.61,5.61,0,0,1-5.61-5.61V910.05a5.61,5.61,0,0,0-5.62-5.61h-3.83a5.61,5.61,0,0,0-5.62,5.61v32.09a5.61,5.61,0,0,1-5.61,5.61h-3.83a5.61,5.61,0,0,1-5.62-5.61V910.05a5.62,5.62,0,0,0-5.62-5.61h-3.83a5.62,5.62,0,0,0-5.62,5.61v10.43a5.61,5.61,0,0,1-5.61,5.61h-11.24"/><polyline class="cls-2" points="1418.13 926.09 1333.77 926.09 1333.77 847.02"/><line class="cls-2" x1="1555.5" y1="713.3" x2="1602.98" y2="713.3"/><line class="cls-2" x1="1555.5" y1="926.09" x2="1602.98" y2="926.09"/><line class="cls-2" x1="1602.98" y1="926.09" x2="1602.98" y2="713.3"/><line class="cls-2" x1="1643.58" y1="819.2" x2="1602.98" y2="819.2"/><path class="cls-1" d="M1568.34,682.62h-1.8v3H1565v-8.5h3.34c2,0,3,1.09,3,2.72S1570.29,682.62,1568.34,682.62Zm-.06-4.11h-1.74v2.75h1.74c1,0,1.5-.55,1.5-1.37A1.31,1.31,0,0,0,1568.28,678.51Z"/><path class="cls-1" d="M1577.53,685.66V682H1574v3.7h-1.55v-8.5H1574v3.32h3.49v-3.32h1.55v8.5Z"/><path class="cls-1" d="M1586.55,684.86a3.59,3.59,0,0,1-4.89,0,4.44,4.44,0,0,1-1.08-3.44,4.5,4.5,0,0,1,1.08-3.46,3.59,3.59,0,0,1,4.89,0,4.46,4.46,0,0,1,1.08,3.46A4.4,4.4,0,0,1,1586.55,684.86Zm-1.1-5.89a1.9,1.9,0,0,0-2.69,0,3.63,3.63,0,0,0-.61,2.45,3.58,3.58,0,0,0,.61,2.43,1.87,1.87,0,0,0,2.69,0,3.52,3.52,0,0,0,.61-2.43A3.58,3.58,0,0,0,1585.45,679Z"/><path class="cls-1" d="M1592,678.6v7.06h-1.55V678.6h-2.52v-1.44h6.59v1.44Z"/><path class="cls-1" d="M1600.75,684.86a3.61,3.61,0,0,1-4.9,0,4.44,4.44,0,0,1-1.07-3.44,4.49,4.49,0,0,1,1.07-3.46,3.61,3.61,0,0,1,4.9,0,4.5,4.5,0,0,1,1.08,3.46A4.44,4.44,0,0,1,1600.75,684.86Zm-1.11-5.89a1.88,1.88,0,0,0-2.68,0,3.58,3.58,0,0,0-.61,2.45,3.52,3.52,0,0,0,.61,2.43,1.86,1.86,0,0,0,2.68,0,3.53,3.53,0,0,0,.62-2.43A3.58,3.58,0,0,0,1599.64,679Z"/><path class="cls-1" d="M1608.19,685.66l-1.42-3.21h-1.88v3.21h-1.56v-8.5h3.59a2.63,2.63,0,0,1,2.95,2.64,2.44,2.44,0,0,1-1.56,2.38l1.56,3.48Zm-1.27-7.15h-2v2.55h2.06c.88,0,1.38-.46,1.38-1.26A1.3,1.3,0,0,0,1606.92,678.51Z"/><path class="cls-1" d="M1611.24,685.66v-8.5h6.06v1.4h-4.51v2h4v1.39h-4v2.33h4.51v1.4Z"/><path class="cls-1" d="M1624.2,684.91a3.81,3.81,0,0,1-2.69.91,3.7,3.7,0,0,1-2.54-.88,2.67,2.67,0,0,1-.89-2h1.58a1.48,1.48,0,0,0,.45,1,2,2,0,0,0,1.42.45A2.1,2.1,0,0,0,1623,684a1.08,1.08,0,0,0,.34-.82c0-.62-.48-.91-1-1s-1.32-.13-1.89-.22a2.35,2.35,0,0,1-2.15-2.38,2.38,2.38,0,0,1,.74-1.68,3.63,3.63,0,0,1,2.49-.9,3.52,3.52,0,0,1,2.38.83,2.57,2.57,0,0,1,.86,1.81h-1.58a1.4,1.4,0,0,0-.37-.84,2,2,0,0,0-1.3-.45,1.92,1.92,0,0,0-1.38.46,1,1,0,0,0-.29.72.92.92,0,0,0,.87.93c.54.08,1.29.14,1.85.21a2.47,2.47,0,0,1,2.33,2.46A2.4,2.4,0,0,1,1624.2,684.91Z"/><path class="cls-1" d="M1626.3,685.66v-8.5h1.57v8.5Z"/><path class="cls-1" d="M1635.34,684.91a4.27,4.27,0,0,1-5.23,0,2.7,2.7,0,0,1-.88-2h1.58a1.51,1.51,0,0,0,.44,1,2,2,0,0,0,1.43.45,2.1,2.1,0,0,0,1.48-.45,1.08,1.08,0,0,0,.33-.82c0-.62-.48-.91-1-1s-1.31-.13-1.88-.22a2.35,2.35,0,0,1-1.41-4.06,3.63,3.63,0,0,1,2.49-.9,3.53,3.53,0,0,1,2.38.83,2.57,2.57,0,0,1,.86,1.81h-1.58a1.46,1.46,0,0,0-.37-.84,2,2,0,0,0-1.3-.45,1.92,1.92,0,0,0-1.38.46,1,1,0,0,0-.29.72.91.91,0,0,0,.87.93c.54.08,1.29.14,1.84.21a2.48,2.48,0,0,1,2.34,2.46A2.41,2.41,0,0,1,1635.34,684.91Z"/><path class="cls-1" d="M1640.35,678.6v7.06h-1.55V678.6h-2.52v-1.44h6.59v1.44Z"/><path class="cls-1" d="M1649.12,684.86a3.59,3.59,0,0,1-4.89,0,4.4,4.4,0,0,1-1.08-3.44,4.46,4.46,0,0,1,1.08-3.46,3.59,3.59,0,0,1,4.89,0,4.5,4.5,0,0,1,1.08,3.46A4.44,4.44,0,0,1,1649.12,684.86ZM1648,679a1.9,1.9,0,0,0-2.69,0,3.58,3.58,0,0,0-.61,2.45,3.52,3.52,0,0,0,.61,2.43,1.87,1.87,0,0,0,2.69,0,3.58,3.58,0,0,0,.61-2.43A3.63,3.63,0,0,0,1648,679Z"/><path class="cls-1" d="M1656.56,685.66l-1.42-3.21h-1.88v3.21h-1.56v-8.5h3.59a2.63,2.63,0,0,1,3,2.64,2.43,2.43,0,0,1-1.56,2.38l1.56,3.48Zm-1.27-7.15h-2v2.55h2.06c.88,0,1.38-.46,1.38-1.26A1.3,1.3,0,0,0,1655.29,678.51Z"/></g><g id="Isolation_Mode" data-name="Isolation Mode"><polyline class="cls-2" points="341.64 867.19 306.44 867.19 296.94 880.79 278.04 853.69 259.04 880.79 240.04 853.69 221.14 880.79 202.14 853.69 183.14 880.79 173.64 867.19 135.64 867.24"/><polyline class="cls-2" points="815.78 373.91 780.58 373.91 771.08 387.51 752.18 360.41 733.18 387.51 714.18 360.41 695.28 387.51 676.28 360.41 657.28 387.51 647.78 373.91 609.77 373.96"/><polyline class="cls-2" points="815.78 326.28 780.58 326.28 771.08 339.88 752.18 312.78 733.18 339.88 714.18 312.78 695.28 339.88 676.28 312.78 657.28 339.88 647.78 326.28 609.77 326.33"/><polyline class="cls-2" points="815.78 278.65 780.58 278.65 771.08 292.25 752.18 265.15 733.18 292.25 714.18 265.15 695.28 292.25 676.28 265.15 657.28 292.25 647.78 278.65 609.77 278.7"/><path class="cls-1" d="M962.76,658.82H961v3h-1.53v-8.5h3.33c2,0,3,1.09,3,2.72S964.72,658.82,962.76,658.82Zm-.06-4.1H961v2.75h1.74c1,0,1.5-.55,1.5-1.37A1.31,1.31,0,0,0,962.7,654.72Z"/><path class="cls-1" d="M972.4,661.07a3.61,3.61,0,0,1-4.9,0,6.05,6.05,0,0,1,0-6.9,3.61,3.61,0,0,1,4.9,0,6.05,6.05,0,0,1,0,6.9Zm-1.11-5.89a1.86,1.86,0,0,0-2.68,0,3.58,3.58,0,0,0-.61,2.45,3.54,3.54,0,0,0,.61,2.43,1.88,1.88,0,0,0,2.68,0,3.54,3.54,0,0,0,.61-2.43A3.58,3.58,0,0,0,971.29,655.18Z"/><path class="cls-1" d="M977.82,654.81v7.06h-1.55v-7.06h-2.51v-1.44h6.58v1.44Z"/><path class="cls-1" d="M981.41,661.87v-8.5h6.06v1.4H983v2h4v1.39h-4v2.33h4.51v1.4Z"/><path class="cls-1" d="M994.15,661.87,990.47,656v5.84H989v-8.5h1.64l3.63,5.75v-5.75h1.53v8.5Z"/><path class="cls-1" d="M1000.89,654.81v7.06h-1.55v-7.06h-2.52v-1.44h6.58v1.44Z"/><path class="cls-1" d="M1004.48,661.87v-8.5h1.57v8.5Z"/><path class="cls-1" d="M1013.52,661.07a3.43,3.43,0,0,1-2.45,1,3.39,3.39,0,0,1-2.44-1,6.05,6.05,0,0,1,0-6.9,3.39,3.39,0,0,1,2.44-1,3.43,3.43,0,0,1,2.45,1,6.05,6.05,0,0,1,0,6.9Zm-1.1-5.89a1.91,1.91,0,0,0-1.35-.57,1.89,1.89,0,0,0-1.34.57,3.58,3.58,0,0,0-.61,2.45,3.54,3.54,0,0,0,.61,2.43,1.88,1.88,0,0,0,1.34.56,1.9,1.9,0,0,0,1.35-.56,3.59,3.59,0,0,0,.61-2.43A3.63,3.63,0,0,0,1012.42,655.18Z"/><path class="cls-1" d="M1023.14,661.87V655.8l-2.2,6h-1.14l-2.2-6v6.14h-1.5v-8.5h2.09l2.23,6,2.24-6h2v8.5Z"/><path class="cls-1" d="M1026.64,661.87v-8.5h6v1.4h-4.5v2h4v1.39h-4v2.33h4.5v1.4Z"/><path class="cls-1" d="M1037.32,654.81v7.06h-1.55v-7.06h-2.52v-1.44h6.59v1.44Z"/><path class="cls-1" d="M1040.91,661.87v-8.5h6v1.4h-4.51v2h4v1.39h-4v2.33H1047v1.4Z"/><path class="cls-1" d="M1053.3,661.87l-1.42-3.21H1050v3.21h-1.56v-8.5H1052a2.63,2.63,0,0,1,3,2.64,2.44,2.44,0,0,1-1.56,2.38l1.56,3.48Zm-1.27-7.15h-2v2.55h2.06c.88,0,1.38-.46,1.38-1.26A1.3,1.3,0,0,0,1052,654.72Z"/><rect class="cls-2" x="793.99" y="655.55" width="156.26" height="156.26"/><polygon class="cls-2" points="920.38 762.23 908.6 765.62 906.8 777.74 894.6 776.64 888.54 787.29 877.56 781.86 868.07 789.6 859.79 780.57 848.14 784.36 843.68 772.95 831.45 772.27 831.41 760.02 820.25 754.98 824.64 743.54 816.06 734.8 824.29 725.72 819.44 714.47 830.39 708.98 829.93 696.74 842.13 695.58 846.13 683.99 857.92 687.32 865.83 677.96 875.63 685.32 886.38 679.45 892.86 689.85 905.01 688.26 907.29 700.3 919.19 703.21 916.97 715.26 927.02 722.27 920.6 732.71 927.43 742.87 917.68 750.28 920.38 762.23"/><line class="cls-2" x1="950.25" y1="733.78" x2="1019.69" y2="733.78"/><line class="cls-2" x1="949.72" y1="922.1" x2="998.26" y2="922.1"/><polyline class="cls-2" points="857.35 979.07 949.01 979.07 949.01 865.08 898.7 865.08 889.2 878.68 870.3 851.58 851.3 878.68 832.3 851.58 813.4 878.68 794.4 851.58 775.4 878.68 765.9 865.08 727.9 865.13"/></g></svg>